<?xml version="1.0" encoding="UTF-8"?>
<svg version="1.1" xmlns="http://www.w3.org/2000/svg" width="259" height="194">
<path d="M0 0 C1.16241211 -0.04527832 2.32482422 -0.09055664 3.52246094 -0.13720703 C5.08891357 -0.21829712 5.08891357 -0.21829712 6.68701172 -0.30102539 C9.32714844 0.20263672 9.32714844 0.20263672 11.17041016 2.49731445 C12.64162251 5.93811313 12.6704697 8.49476713 12.32714844 12.20263672 C11.66714844 13.19263672 11.00714844 14.18263672 10.32714844 15.20263672 C7.71752744 15.58674947 5.32134103 15.80556869 2.70214844 15.89013672 C1.64253906 15.94137695 1.64253906 15.94137695 0.56152344 15.99365234 C-1.18270844 16.0761498 -2.92775551 16.14107007 -4.67285156 16.20263672 C-3.4702304 19.81050021 -2.8643761 19.74289143 0.32714844 21.45263672 C3.66065957 23.77418911 4.25859546 24.86201414 5.07714844 28.92919922 C5.38475944 32.69028021 5.40391582 36.43143883 5.32714844 40.20263672 C9.22109007 40.05260744 12.68581769 39.63444711 16.32714844 38.20263672 C18.17944891 35.81676959 19.16821431 33.53674489 20.29589844 30.74169922 C22.43944827 25.46401972 26.13956585 21.56003768 31.23730469 18.89404297 C36.7048654 17.08514905 42.36899119 17.47739329 47.70214844 19.45263672 C48.56839844 20.03013672 49.43464844 20.60763672 50.32714844 21.20263672 C51.17277344 21.75951172 52.01839844 22.31638672 52.88964844 22.89013672 C61.28102715 30.85118832 64.41881732 42.02974262 64.75097656 53.33886719 C64.81280864 64.59451434 63.69263466 75.18287016 56.32714844 84.20263672 C51.61014344 88.96120123 48.0481191 91.32408225 41.20214844 91.57763672 C35.12603188 91.4893444 31.03153342 90.03248176 26.32714844 86.20263672 C24.60571289 83.93481445 24.60571289 83.93481445 23.06542969 81.51123047 C22.54634033 80.70355225 22.02725098 79.89587402 21.49243164 79.0637207 C21.10788818 78.44956299 20.72334473 77.83540527 20.32714844 77.20263672 C8.48409072 78.63976437 -3.33779442 80.20260012 -15.11035156 82.14013672 C-16.04951416 82.28547852 -16.98867676 82.43082031 -17.95629883 82.58056641 C-24.45983734 83.68800002 -31.07695688 85.17409292 -35.54785156 90.39013672 C-37.68766911 95.73968058 -39.2688954 100.16907537 -37.61035156 105.82763672 C-36.67285156 109.20263672 -36.67285156 109.20263672 -37.86035156 113.01513672 C-39.67285156 116.20263672 -39.67285156 116.20263672 -42.67285156 118.20263672 C-42.47369141 119.42273438 -42.47369141 119.42273438 -42.27050781 120.66748047 C-41.21602663 127.51006276 -40.33548586 134.36772336 -39.73535156 141.26513672 C-39.65357666 141.97855225 -39.57180176 142.69196777 -39.48754883 143.42700195 C-39.18729148 147.43090754 -39.43601218 148.91819535 -42.04394531 152.05029297 C-42.91148438 152.76056641 -43.77902344 153.47083984 -44.67285156 154.20263672 C-45.33285156 154.98638672 -45.99285156 155.77013672 -46.67285156 156.57763672 C-47.66285156 157.38201172 -47.66285156 157.38201172 -48.67285156 158.20263672 C-50.34440056 157.8947198 -52.01090703 157.55876769 -53.67285156 157.20263672 C-56.83973537 158.57756476 -56.83973537 158.57756476 -59.67285156 160.20263672 C-60.33285156 160.20263672 -60.99285156 160.20263672 -61.67285156 160.20263672 C-61.67285156 160.86263672 -61.67285156 161.52263672 -61.67285156 162.20263672 C-65.55207077 161.64846255 -66.99455284 159.95745826 -69.67285156 157.20263672 C-70.89511725 156.4003566 -72.12480503 155.60930901 -73.36035156 154.82763672 C-75.79248423 153.0933751 -76.55926387 152.49370519 -77.67285156 149.64013672 C-77.67285156 144.45627054 -77.19927617 139.35639864 -76.67285156 134.20263672 C-76.599375 133.29384766 -76.52589844 132.38505859 -76.45019531 131.44873047 C-76.03064995 126.45232664 -75.22813208 121.97216363 -73.67285156 117.20263672 C-74.27097656 116.93451172 -74.86910156 116.66638672 -75.48535156 116.39013672 C-78.98373694 114.49101323 -80.4063061 113.00227311 -81.67285156 109.20263672 C-82.13315562 103.40280564 -82.13315562 103.40280564 -81.67285156 101.20263672 C-80.7021875 100.36925781 -80.7021875 100.36925781 -79.71191406 99.51904297 C-76.645329 96.03535534 -76.96747445 92.5807336 -76.73535156 88.07763672 C-75.91796752 77.827931 -73.59616537 69.9765523 -65.78222656 62.84716797 C-57.79539806 56.62039982 -49.06016957 52.92334371 -39.55249023 49.68701172 C-37.02472953 48.8240842 -37.02472953 48.8240842 -33.67285156 47.20263672 C-32.36869532 43.71773824 -32.46581737 40.08138531 -32.29785156 36.39013672 C-31.91723851 30.91953423 -31.60865227 26.85942405 -28.67285156 22.20263672 C-26.74303851 20.56328022 -24.90550175 19.44299794 -22.67285156 18.20263672 C-26.42980455 16.32416023 -31.06587796 17.25408631 -35.19238281 17.36279297 C-38.57901167 17.20695483 -40.71051902 16.81060593 -43.67285156 15.20263672 C-45.17285156 12.51513672 -45.17285156 12.51513672 -45.67285156 9.20263672 C-44.94249574 6.63610463 -43.91571442 4.59275761 -42.67285156 2.20263672 C-34.38660272 1.34322048 -26.12228153 0.91640997 -17.79785156 0.64013672 C-16.6209375 0.59695312 -15.44402344 0.55376953 -14.23144531 0.50927734 C-11.88188362 0.42785689 -9.53189582 0.35785593 -7.18164062 0.29980469 C-4.78659357 0.23347928 -2.39232701 0.13198826 0 0 Z " fill="#C1C9D0" transform="translate(144.6728515625,21.79736328125)"/>
<path d="M0 0 C1.16241211 -0.04527832 2.32482422 -0.09055664 3.52246094 -0.13720703 C5.08891357 -0.21829712 5.08891357 -0.21829712 6.68701172 -0.30102539 C9.32714844 0.20263672 9.32714844 0.20263672 11.17041016 2.49731445 C12.64162251 5.93811313 12.6704697 8.49476713 12.32714844 12.20263672 C11.66714844 13.19263672 11.00714844 14.18263672 10.32714844 15.20263672 C7.71752744 15.58674947 5.32134103 15.80556869 2.70214844 15.89013672 C1.64253906 15.94137695 1.64253906 15.94137695 0.56152344 15.99365234 C-1.18270844 16.0761498 -2.92775551 16.14107007 -4.67285156 16.20263672 C-3.4702304 19.81050021 -2.8643761 19.74289143 0.32714844 21.45263672 C3.66065957 23.77418911 4.25859546 24.86201414 5.07714844 28.92919922 C5.38475944 32.69028021 5.40391582 36.43143883 5.32714844 40.20263672 C9.22109007 40.05260744 12.68581769 39.63444711 16.32714844 38.20263672 C18.17944891 35.81676959 19.16821431 33.53674489 20.29589844 30.74169922 C22.43944827 25.46401972 26.13956585 21.56003768 31.23730469 18.89404297 C36.7048654 17.08514905 42.36899119 17.47739329 47.70214844 19.45263672 C48.56839844 20.03013672 49.43464844 20.60763672 50.32714844 21.20263672 C51.17277344 21.75951172 52.01839844 22.31638672 52.88964844 22.89013672 C61.28102715 30.85118832 64.41881732 42.02974262 64.75097656 53.33886719 C64.81280864 64.59451434 63.69263466 75.18287016 56.32714844 84.20263672 C51.61014344 88.96120123 48.0481191 91.32408225 41.20214844 91.57763672 C35.12603188 91.4893444 31.03153342 90.03248176 26.32714844 86.20263672 C24.60571289 83.93481445 24.60571289 83.93481445 23.06542969 81.51123047 C22.54634033 80.70355225 22.02725098 79.89587402 21.49243164 79.0637207 C21.10788818 78.44956299 20.72334473 77.83540527 20.32714844 77.20263672 C8.48409072 78.63976437 -3.33779442 80.20260012 -15.11035156 82.14013672 C-16.04951416 82.28547852 -16.98867676 82.43082031 -17.95629883 82.58056641 C-24.45983734 83.68800002 -31.07695688 85.17409292 -35.54785156 90.39013672 C-37.68766911 95.73968058 -39.2688954 100.16907537 -37.61035156 105.82763672 C-36.67285156 109.20263672 -36.67285156 109.20263672 -37.86035156 113.01513672 C-39.67285156 116.20263672 -39.67285156 116.20263672 -42.67285156 118.20263672 C-42.47369141 119.42273438 -42.47369141 119.42273438 -42.27050781 120.66748047 C-41.21602663 127.51006276 -40.33548586 134.36772336 -39.73535156 141.26513672 C-39.65357666 141.97855225 -39.57180176 142.69196777 -39.48754883 143.42700195 C-39.18729148 147.43090754 -39.43601218 148.91819535 -42.04394531 152.05029297 C-42.91148438 152.76056641 -43.77902344 153.47083984 -44.67285156 154.20263672 C-45.33285156 154.98638672 -45.99285156 155.77013672 -46.67285156 156.57763672 C-47.66285156 157.38201172 -47.66285156 157.38201172 -48.67285156 158.20263672 C-50.34440056 157.8947198 -52.01090703 157.55876769 -53.67285156 157.20263672 C-56.83973537 158.57756476 -56.83973537 158.57756476 -59.67285156 160.20263672 C-60.33285156 160.20263672 -60.99285156 160.20263672 -61.67285156 160.20263672 C-61.67285156 160.86263672 -61.67285156 161.52263672 -61.67285156 162.20263672 C-65.55207077 161.64846255 -66.99455284 159.95745826 -69.67285156 157.20263672 C-70.89511725 156.4003566 -72.12480503 155.60930901 -73.36035156 154.82763672 C-75.79248423 153.0933751 -76.55926387 152.49370519 -77.67285156 149.64013672 C-77.67285156 144.45627054 -77.19927617 139.35639864 -76.67285156 134.20263672 C-76.599375 133.29384766 -76.52589844 132.38505859 -76.45019531 131.44873047 C-76.03064995 126.45232664 -75.22813208 121.97216363 -73.67285156 117.20263672 C-74.27097656 116.93451172 -74.86910156 116.66638672 -75.48535156 116.39013672 C-78.98373694 114.49101323 -80.4063061 113.00227311 -81.67285156 109.20263672 C-82.13315562 103.40280564 -82.13315562 103.40280564 -81.67285156 101.20263672 C-80.7021875 100.36925781 -80.7021875 100.36925781 -79.71191406 99.51904297 C-76.645329 96.03535534 -76.96747445 92.5807336 -76.73535156 88.07763672 C-75.91796752 77.827931 -73.59616537 69.9765523 -65.78222656 62.84716797 C-57.79539806 56.62039982 -49.06016957 52.92334371 -39.55249023 49.68701172 C-37.02472953 48.8240842 -37.02472953 48.8240842 -33.67285156 47.20263672 C-32.36869532 43.71773824 -32.46581737 40.08138531 -32.29785156 36.39013672 C-31.91723851 30.91953423 -31.60865227 26.85942405 -28.67285156 22.20263672 C-26.74303851 20.56328022 -24.90550175 19.44299794 -22.67285156 18.20263672 C-26.42980455 16.32416023 -31.06587796 17.25408631 -35.19238281 17.36279297 C-38.57901167 17.20695483 -40.71051902 16.81060593 -43.67285156 15.20263672 C-45.17285156 12.51513672 -45.17285156 12.51513672 -45.67285156 9.20263672 C-44.94249574 6.63610463 -43.91571442 4.59275761 -42.67285156 2.20263672 C-34.38660272 1.34322048 -26.12228153 0.91640997 -17.79785156 0.64013672 C-16.6209375 0.59695312 -15.44402344 0.55376953 -14.23144531 0.50927734 C-11.88188362 0.42785689 -9.53189582 0.35785593 -7.18164062 0.29980469 C-4.78659357 0.23347928 -2.39232701 0.13198826 0 0 Z M-41.67285156 4.20263672 C-43.57170252 6.10148768 -42.79652662 8.77511575 -42.80566406 11.29248047 C-42.78972017 13.28898039 -42.78972017 13.28898039 -41.67285156 15.20263672 C-34.41285156 15.20263672 -27.15285156 15.20263672 -19.67285156 15.20263672 C-19.67285156 16.85263672 -19.67285156 18.50263672 -19.67285156 20.20263672 C-20.76597656 20.47076172 -21.85910156 20.73888672 -22.98535156 21.01513672 C-27.01592114 22.28394584 -27.01592114 22.28394584 -29.67285156 25.20263672 C-30.25688717 27.49112388 -30.25688717 27.49112388 -30.36035156 30.07763672 C-30.42480469 31.04056641 -30.48925781 32.00349609 -30.55566406 32.99560547 C-30.75312246 38.39938364 -30.75020599 43.79642145 -30.67285156 49.20263672 C-32.16558594 49.35345703 -32.16558594 49.35345703 -33.68847656 49.50732422 C-37.92166937 50.11783997 -41.54265475 51.57620496 -45.42285156 53.32763672 C-46.11878418 53.63894531 -46.8147168 53.95025391 -47.53173828 54.27099609 C-58.77904935 59.42655395 -68.42409711 64.81206211 -72.98535156 76.76513672 C-75.47839194 84.38908178 -75.80055861 91.22804119 -75.67285156 99.20263672 C-76.63191406 99.66669922 -76.63191406 99.66669922 -77.61035156 100.14013672 C-79.60895978 101.03715302 -79.60895978 101.03715302 -80.67285156 102.20263672 C-81.09629059 105.84421231 -80.80222287 107.92701958 -79.23535156 111.26513672 C-74.18709155 117.05216649 -67.89320363 119.75320243 -60.31347656 120.40576172 C-52.78086144 120.55346005 -46.70715566 119.49384594 -40.61035156 114.89013672 C-38.30759274 111.69598738 -38.14716076 110.05770263 -38.67285156 106.20263672 C-39.00285156 105.87263672 -39.33285156 105.54263672 -39.67285156 105.20263672 C-40.22879588 98.53130497 -38.90484711 92.34396379 -34.98535156 86.82763672 C-27.44154529 81.52658367 -17.990674 80.94337821 -9.11035156 79.64013672 C-7.73198006 79.43061386 -6.35372376 79.22033173 -4.97558594 79.00927734 C4.11060315 77.62842818 13.21361097 76.38863938 22.32714844 75.20263672 C22.62065186 76.15041992 22.91415527 77.09820312 23.21655273 78.07470703 C25.17751698 83.59765141 29.86755335 86.64920825 34.70214844 89.70263672 C39.86448699 90.6859393 44.80449183 90.42892812 49.57714844 88.10888672 C57.27730956 82.85877686 60.67030695 74.98113494 62.82324219 66.14794922 C64.89191557 54.05663347 63.28971606 40.8018389 56.85058594 30.20654297 C52.99671063 25.13721468 47.70867358 20.07391514 41.28417969 18.79638672 C35.57180072 18.54666523 31.93359788 19.90055886 27.33886719 23.29248047 C22.42482722 27.95843298 20.35448892 33.87515253 18.32714844 40.20263672 C17.41191406 40.26322266 16.49667969 40.32380859 15.55371094 40.38623047 C14.36519531 40.47001953 13.17667969 40.55380859 11.95214844 40.64013672 C10.76878906 40.72134766 9.58542969 40.80255859 8.36621094 40.88623047 C5.41195942 41.01348607 5.41195942 41.01348607 3.32714844 42.20263672 C3.38515625 41.09404297 3.44316406 39.98544922 3.50292969 38.84326172 C3.54983672 37.3797622 3.59533588 35.91621709 3.63964844 34.45263672 C3.68154297 33.72302734 3.7234375 32.99341797 3.76660156 32.24169922 C3.85459615 28.36993736 3.71655632 26.62405073 1.04589844 23.73388672 C-2.21361217 21.8980704 -4.96737715 21.49326216 -8.67285156 21.20263672 C-8.67285156 23.51263672 -8.67285156 25.82263672 -8.67285156 28.20263672 C-8.34285156 28.20263672 -8.01285156 28.20263672 -7.67285156 28.20263672 C-7.67285156 26.22263672 -7.67285156 24.24263672 -7.67285156 22.20263672 C-4.73535156 23.45263672 -4.73535156 23.45263672 -1.67285156 25.20263672 C-0.79785156 27.39013672 -0.79785156 27.39013672 -0.67285156 29.20263672 C-4.88351801 32.2656743 -7.95557958 32.58262115 -13.11035156 32.51513672 C-15.02654297 32.50933594 -15.02654297 32.50933594 -16.98144531 32.50341797 C-20.54118212 32.21336534 -23.35685609 31.48905846 -26.67285156 30.20263672 C-26.67285156 28.55263672 -26.67285156 26.90263672 -26.67285156 25.20263672 C-24.36285156 24.21263672 -22.05285156 23.22263672 -19.67285156 22.20263672 C-19.71410156 23.15138672 -19.75535156 24.10013672 -19.79785156 25.07763672 C-20.02258974 28.30508528 -20.02258974 28.30508528 -17.67285156 30.20263672 C-14.0894118 30.36940954 -14.0894118 30.36940954 -10.67285156 30.20263672 C-13.32024073 28.74200821 -14.56733491 28.20263672 -17.67285156 28.20263672 C-17.67285156 23.91263672 -17.67285156 19.62263672 -17.67285156 15.20263672 C-16.22910156 15.26451172 -14.78535156 15.32638672 -13.29785156 15.39013672 C-10.8801023 15.56626489 -10.8801023 15.56626489 -8.67285156 15.20263672 C-8.01285156 14.21263672 -7.35285156 13.22263672 -6.67285156 12.20263672 C-8.54776849 12.1753321 -10.42280381 12.15610428 -12.29785156 12.14013672 C-13.8640625 12.12273438 -13.8640625 12.12273438 -15.46191406 12.10498047 C-18.6348723 12.20148163 -21.54677308 12.67120338 -24.67285156 13.20263672 C-27.46123567 13.45176001 -30.25279374 13.61097892 -33.04785156 13.76513672 C-33.78390625 13.80832031 -34.51996094 13.85150391 -35.27832031 13.89599609 C-37.07633225 14.00107471 -38.87457114 14.10225765 -40.67285156 14.20263672 C-40.67285156 10.90263672 -40.67285156 7.60263672 -40.67285156 4.20263672 C-41.00285156 4.20263672 -41.33285156 4.20263672 -41.67285156 4.20263672 Z " fill="#94DCF5" transform="translate(144.6728515625,21.79736328125)"/>
<path d="M0 0 C1.60725635 3.21451269 1.05748185 6.43612536 1 10 C3.54194161 9.85811015 6.08347993 9.71160845 8.625 9.5625 C9.33785156 9.52318359 10.05070312 9.48386719 10.78515625 9.44335938 C13.94883296 9.25469975 16.99612405 9.00065891 20.125 8.46875 C23.25737465 7.95803674 26.20375187 7.90226391 29.375 7.9375 C30.96441406 7.95103516 30.96441406 7.95103516 32.5859375 7.96484375 C33.78089844 7.98224609 33.78089844 7.98224609 35 8 C34.34 8.99 33.68 9.98 33 11 C29.96133201 11.41137202 27.07840297 11.13193156 24 11 C24 15.29 24 19.58 24 24 C26.31 24.33 28.62 24.66 31 25 C31 25.33 31 25.66 31 26 C27.625 26.125 27.625 26.125 24 26 C22 24 22 24 21.875 20.875 C21.91625 19.92625 21.9575 18.9775 22 18 C19.69 18.99 17.38 19.98 15 21 C15 22.65 15 24.3 15 26 C19.64399753 27.80161264 23.59051379 28.29744858 28.5625 28.3125 C29.84253906 28.32925781 31.12257813 28.34601562 32.44140625 28.36328125 C36.14254554 27.98544815 38.02501808 27.16414232 41 25 C40.96044102 23.07690578 40.96044102 23.07690578 40 21 C37.01647106 19.21620585 37.01647106 19.21620585 34 18 C34 19.98 34 21.96 34 24 C33.67 24 33.34 24 33 24 C33 21.69 33 19.38 33 17 C38.2669779 17.41309631 41.3645853 18.06578409 45 22 C45.37233017 24.96672677 45.4808246 27.31856241 45.3125 30.25 C45.28994141 30.99507812 45.26738281 31.74015625 45.24414062 32.5078125 C45.18543561 34.339409 45.09575757 36.16996653 45 38 C45.66 37.67 46.32 37.34 47 37 C49.204364 36.77049681 51.41392173 36.58924067 53.625 36.4375 C54.81351562 36.35371094 56.00203125 36.26992188 57.2265625 36.18359375 C58.14179688 36.12300781 59.05703125 36.06242187 60 36 C60.23074219 35.35933594 60.46148437 34.71867187 60.69921875 34.05859375 C63.55360318 26.48826983 66.4751108 19.44368116 74.05078125 15.6640625 C78.54784008 14.13199837 82.72561929 14.06202547 87.140625 15.8828125 C96.00070726 20.98919579 100.85261412 28.69156736 103.6875 38.33984375 C106.77879396 51.58517968 105.59368273 65.22881315 98.5 76.98828125 C94.67988362 82.11161442 90.35648728 85.12905268 84 86.125 C78.82716134 86.33127884 75.12325959 85.10789588 71 82 C67.40519968 78.61665852 65.10036549 75.83935614 64 71 C59.28930489 71.65141742 54.57950261 72.3088786 49.87036133 72.97143555 C48.2755293 73.19501611 46.68048318 73.41707596 45.08520508 73.63745117 C36.93753089 74.76401148 28.80438073 75.94303365 20.72265625 77.48046875 C19.56644775 77.69985107 18.41023926 77.9192334 17.21899414 78.14526367 C11.36522221 79.69960994 7.17130323 81.75094638 4 87 C2.8085636 90.62544382 1.85927729 94.28297476 1 98 C0.67 98 0.34 98 0 98 C-0.52504318 91.83074263 0.85370524 87.3372789 4 82 C10.54076008 74.88211403 21.43117313 73.25237612 30.5625 71.9375 C31.63226074 71.7739502 32.70202148 71.61040039 33.80419922 71.44189453 C42.76491421 70.10242642 51.75545786 69.00363495 60.76391602 68.03881836 C68.57775818 67.29887036 68.57775818 67.29887036 76 65 C78.69246878 60.26298273 78.06955575 55.37075787 77.625 50.125 C77.56828125 49.34125 77.5115625 48.5575 77.453125 47.75 C77.31282139 45.83251738 77.15789804 43.91611401 77 42 C79.75137933 44.33155033 80.46424503 46.03686147 81.0625 49.5625 C81.64602448 53.19635678 81.64602448 53.19635678 84 56 C84.66 56 85.32 56 86 56 C84.73468226 45.96677462 83.69784512 39.07369552 76 32 C77.32 32 78.64 32 80 32 C81.66796875 33.86328125 81.66796875 33.86328125 83.1875 36.3125 C83.69667969 37.11300781 84.20585937 37.91351563 84.73046875 38.73828125 C87.28422809 43.28790173 87.25084889 47.60333862 87.3125 52.6875 C87.35600586 53.85442383 87.35600586 53.85442383 87.40039062 55.04492188 C87.46270212 60.79195869 86.32894739 65.24695631 83 70 C79.98990547 72.39578952 77.63363762 73.78878746 74 75 C74 75.66 74 76.32 74 77 C85.86452033 77.58546567 85.86452033 77.58546567 97 74 C98.64244802 71.41445587 98.64244802 71.41445587 99 68 C99.53529067 66.43530421 100.07758778 64.87299636 100.625 63.3125 C103.80167386 52.34890254 101.75359019 41.56931975 98 31 C95.20516995 26.05275344 91.51483617 20.92378006 86 19 C80.93320329 18.57146495 75.93608346 18.68371108 71 20 C71 20.99 71 21.98 71 23 C70.01 23 69.02 23 68 23 C66.53347983 25.88019276 65.17952126 28.79308515 63.875 31.75 C63.52179688 32.54921875 63.16859375 33.3484375 62.8046875 34.171875 C62.53914063 34.77515625 62.27359375 35.3784375 62 36 C64.64 36 67.28 36 70 36 C66.32679785 38.44880143 63.86272372 39.12659546 59.55078125 39.09765625 C58.70322266 39.09443359 57.85566406 39.09121094 56.98242188 39.08789062 C56.10134766 39.07951172 55.22027344 39.07113281 54.3125 39.0625 C52.97348633 39.05573242 52.97348633 39.05573242 51.60742188 39.04882812 C49.40488013 39.03704983 47.20247401 39.02060164 45 39 C45 40.65 45 42.3 45 44 C44.67 44 44.34 44 44 44 C43.67 38.72 43.34 33.44 43 28 C41.535625 28.66 40.07125 29.32 38.5625 30 C31.83491451 32.66636322 26.39142989 33.04798439 19.5625 30.5625 C17.69296043 29.74252651 15.82593203 28.91296601 14 28 C13.95101562 29.18078125 13.90203125 30.3615625 13.8515625 31.578125 C13.77651121 33.13543937 13.70096439 34.69272991 13.625 36.25 C13.57859375 37.41595703 13.57859375 37.41595703 13.53125 38.60546875 C13.16618114 45.72431144 13.16618114 45.72431144 11 49 C10.67 48.34 10.34 47.68 10 47 C-12.35308215 54.90902287 -12.35308215 54.90902287 -27.82128906 71.74609375 C-29.84196877 76.76913974 -30.83286728 81.78710567 -31.625 87.125 C-31.74617188 87.89714844 -31.86734375 88.66929688 -31.9921875 89.46484375 C-32.22623256 90.95815298 -32.45718556 92.45195117 -32.68457031 93.94628906 C-33.09755925 96.63519225 -33.54582269 99.31778308 -34 102 C-32.67661368 102.68620031 -31.34050052 103.34786461 -30 104 C-29.30261719 104.34804687 -28.60523437 104.69609375 -27.88671875 105.0546875 C-24.03233612 106.31688046 -20.52772575 106.29173809 -16.5 106.25 C-15.38044922 106.26160156 -15.38044922 106.26160156 -14.23828125 106.2734375 C-9.95963215 106.25829184 -6.97400135 105.69902956 -3 104 C-2.01 104.33 -1.02 104.66 0 105 C-8.07665341 110.02062239 -17.80801253 110.36192052 -27.0546875 108.328125 C-29.07052584 107.64544492 -31.04378462 106.83837802 -33 106 C-32.01495797 108.60524777 -31.46196225 109.76596241 -28.93359375 111.046875 C-19.54577787 113.69133018 -12.05929103 113.96571374 -3 110 C0.16666667 108.16666667 0.16666667 108.16666667 2 105 C1.72072948 108.35124622 1.25148468 109.74111872 -1.125 112.1875 C-7.89519924 116.45566909 -15.69111892 117.16931947 -23.4296875 115.46484375 C-29.13961996 113.70572314 -34.09458118 111.4135305 -37.875 106.625 C-39.22385358 103.47767498 -39.44234446 101.39130756 -39 98 C-37.625 96.125 -37.625 96.125 -36 95 C-35.34 95 -34.68 95 -34 95 C-34.03480469 94.35675781 -34.06960937 93.71351562 -34.10546875 93.05078125 C-34.44663855 81.66220826 -32.7731579 70.73833937 -25 62 C-16.88041326 53.73889541 -4.07222117 48.12049724 7 45 C8.32 45 9.64 45 11 45 C10.98839844 44.18917969 10.97679687 43.37835938 10.96484375 42.54296875 C10.80069191 22.39919277 10.80069191 22.39919277 14.25 18.375 C16.90193856 17.04903072 19.06301137 16.33565584 22 16 C22 14.35 22 12.7 22 11 C14.74 11 7.48 11 0 11 C-1.62651522 7.74696956 -1.11453156 4.60774398 -1 1 C-0.67 0.67 -0.34 0.34 0 0 Z " fill="#253742" transform="translate(103,26)"/>
<path d="M0 0 C2.50552308 3.75828462 2.37195709 5.53651494 2 10 C0.9375 13.8125 0.9375 13.8125 -1 17 C-7.63130185 19.60919121 -14.91488083 20.00309527 -21.9375 20.875 C-24.62828301 21.22275518 -27.31812365 21.57748365 -30.0078125 21.93359375 C-30.68107071 22.02264481 -31.35432892 22.11169586 -32.04798889 22.20344543 C-38.47883545 23.05755172 -44.9009543 23.94860144 -51.3125 24.9375 C-52.26439209 25.07075684 -53.21628418 25.20401367 -54.19702148 25.34130859 C-61.11535004 26.44680513 -68.00801584 28.45308968 -72.67700195 33.98803711 C-75.80877104 38.75070717 -76.4158605 43.38588324 -76 49 C-75.34964186 50.34136367 -74.6837045 51.67532254 -74 53 C-73.875 56.25 -73.875 56.25 -74 59 C-75.33333333 59.66666667 -76.66666667 60.33333333 -78 61 C-78.969375 61.515625 -79.93875 62.03125 -80.9375 62.5625 C-88.95454112 66.32560093 -97.59171211 65.73391396 -105.890625 63.06640625 C-108 62 -108 62 -110.125 58.8125 C-110.41375 57.884375 -110.7025 56.95625 -111 56 C-108.69130499 56.53277577 -106.56502229 57.16720056 -104.34765625 58.01953125 C-100.53061514 59.13747445 -97.00241803 59.33113727 -93.0625 59.3125 C-92.38509766 59.32861328 -91.70769531 59.34472656 -91.00976562 59.36132812 C-85.89427367 59.36623272 -82.49100716 58.21915478 -78 56 C-79.5778125 56.495 -79.5778125 56.495 -81.1875 57 C-84.38873357 57.83966782 -86.7411008 58.19750904 -90 58 C-89.39027344 56.91203125 -88.78054687 55.8240625 -88.15234375 54.703125 C-85.15544956 48.71724747 -84.21263617 42.31753424 -83.02148438 35.78125 C-81.56336353 28.59374523 -81.56336353 28.59374523 -78.46484375 25.328125 C-76 24 -76 24 -74 24 C-74 23.34 -74 22.68 -74 22 C-57.48676533 15.4471291 -40.51353217 13.31316269 -22.9296875 11.453125 C-11.68287049 10.56309041 -11.68287049 10.56309041 -2.640625 4.40625 C-1.36437801 2.61426335 -1.36437801 2.61426335 0 0 Z " fill="#8B9FAE" transform="translate(180,75)"/>
<path d="M0 0 C1.5651027 0.0050351 3.13020701 0.00959438 4.6953125 0.01367188 C8.46358266 0.02449526 12.23177257 0.04164384 16 0.0625 C18.2903586 4.05300941 18.01832411 6.56490185 17 11.0625 C13.93466836 12.59516582 10.73245728 12.16526471 7.375 12.125 C6.66859375 12.12048828 5.9621875 12.11597656 5.234375 12.11132812 C3.48954725 12.09953875 1.744763 12.08160324 0 12.0625 C0.495 15.5275 0.495 15.5275 1 19.0625 C0.01 19.0625 -0.98 19.0625 -2 19.0625 C-0.88625 19.51625 0.2275 19.97 1.375 20.4375 C5 22.0625 5 22.0625 7 24.0625 C6.9375 26 6.9375 26 6 28.0625 C0.06740405 32.6030902 -6.88373381 31.6599906 -14 31.0625 C-16.71805547 30.33377635 -18.56104648 29.49018011 -21 28.0625 C-21.3125 25.75 -21.3125 25.75 -21 23.0625 C-18.13896577 20.82006777 -16.65923696 20.0625 -13 20.0625 C-12.34 22.3725 -11.68 24.6825 -11 27.0625 C-10.01 27.0625 -9.02 27.0625 -8 27.0625 C-8.99 26.7325 -9.98 26.4025 -11 26.0625 C-11 21.1125 -11 16.1625 -11 11.0625 C-13.31 11.3925 -15.62 11.7225 -18 12.0625 C-19.39315986 12.13237589 -20.78873026 12.17168405 -22.18359375 12.16015625 C-23.23256836 12.15532227 -23.23256836 12.15532227 -24.30273438 12.15039062 C-25.00720703 12.14201172 -25.71167969 12.13363281 -26.4375 12.125 C-27.16904297 12.12048828 -27.90058594 12.11597656 -28.65429688 12.11132812 C-30.43623419 12.09968148 -32.21812863 12.08175191 -34 12.0625 C-35.72375209 8.61499582 -34.47950345 4.7919713 -34 1.0625 C-22.64869525 0.20515946 -11.38089989 -0.06497067 0 0 Z " fill="#2C3A44" transform="translate(138,23.9375)"/>
<path d="M0 0 C1.16241211 -0.04527832 2.32482422 -0.09055664 3.52246094 -0.13720703 C5.08891357 -0.21829712 5.08891357 -0.21829712 6.68701172 -0.30102539 C9.32714844 0.20263672 9.32714844 0.20263672 11.17041016 2.49731445 C12.64162251 5.93811313 12.6704697 8.49476713 12.32714844 12.20263672 C11.66714844 13.19263672 11.00714844 14.18263672 10.32714844 15.20263672 C7.71752744 15.58674947 5.32134103 15.80556869 2.70214844 15.89013672 C1.64253906 15.94137695 1.64253906 15.94137695 0.56152344 15.99365234 C-1.18270844 16.0761498 -2.92775551 16.14107007 -4.67285156 16.20263672 C-3.4702304 19.81050021 -2.8643761 19.74289143 0.32714844 21.45263672 C3.66065957 23.77418911 4.25859546 24.86201414 5.07714844 28.92919922 C5.38475944 32.69028021 5.40391582 36.43143883 5.32714844 40.20263672 C9.22109007 40.05260744 12.68581769 39.63444711 16.32714844 38.20263672 C18.17944891 35.81676959 19.16821431 33.53674489 20.29589844 30.74169922 C22.43944827 25.46401972 26.13956585 21.56003768 31.23730469 18.89404297 C36.7048654 17.08514905 42.36899119 17.47739329 47.70214844 19.45263672 C48.56839844 20.03013672 49.43464844 20.60763672 50.32714844 21.20263672 C51.17277344 21.75951172 52.01839844 22.31638672 52.88964844 22.89013672 C61.28102715 30.85118832 64.41881732 42.02974262 64.75097656 53.33886719 C64.81280864 64.59451434 63.69263466 75.18287016 56.32714844 84.20263672 C51.61014344 88.96120123 48.0481191 91.32408225 41.20214844 91.57763672 C35.12603188 91.4893444 31.03153342 90.03248176 26.32714844 86.20263672 C24.60571289 83.93481445 24.60571289 83.93481445 23.06542969 81.51123047 C22.54634033 80.70355225 22.02725098 79.89587402 21.49243164 79.0637207 C21.10788818 78.44956299 20.72334473 77.83540527 20.32714844 77.20263672 C8.48409072 78.63976437 -3.33779442 80.20260012 -15.11035156 82.14013672 C-16.04951416 82.28547852 -16.98867676 82.43082031 -17.95629883 82.58056641 C-24.45983734 83.68800002 -31.07695688 85.17409292 -35.54785156 90.39013672 C-37.68766911 95.73968058 -39.2688954 100.16907537 -37.61035156 105.82763672 C-36.67285156 109.20263672 -36.67285156 109.20263672 -37.86035156 113.01513672 C-39.67285156 116.20263672 -39.67285156 116.20263672 -42.67285156 118.20263672 C-42.47369141 119.42273438 -42.47369141 119.42273438 -42.27050781 120.66748047 C-41.21602663 127.51006276 -40.33548586 134.36772336 -39.73535156 141.26513672 C-39.61268921 142.33526001 -39.61268921 142.33526001 -39.48754883 143.42700195 C-39.18729148 147.43090754 -39.43601218 148.91819535 -42.04394531 152.05029297 C-42.91148438 152.76056641 -43.77902344 153.47083984 -44.67285156 154.20263672 C-45.66285156 155.37826172 -45.66285156 155.37826172 -46.67285156 156.57763672 C-47.66285156 157.38201172 -47.66285156 157.38201172 -48.67285156 158.20263672 C-50.34440056 157.8947198 -52.01090703 157.55876769 -53.67285156 157.20263672 C-56.83973537 158.57756476 -56.83973537 158.57756476 -59.67285156 160.20263672 C-60.33285156 160.20263672 -60.99285156 160.20263672 -61.67285156 160.20263672 C-61.67285156 159.54263672 -61.67285156 158.88263672 -61.67285156 158.20263672 C-58.67285156 156.20263672 -58.67285156 156.20263672 -54.67285156 156.20263672 C-54.67285156 155.54263672 -54.67285156 154.88263672 -54.67285156 154.20263672 C-53.68285156 154.20263672 -52.69285156 154.20263672 -51.67285156 154.20263672 C-51.67285156 154.86263672 -51.67285156 155.52263672 -51.67285156 156.20263672 C-50.68285156 156.20263672 -49.69285156 156.20263672 -48.67285156 156.20263672 C-48.34285156 155.21263672 -48.01285156 154.22263672 -47.67285156 153.20263672 C-45.61035156 152.51513672 -45.61035156 152.51513672 -43.67285156 152.20263672 C-43.67285156 151.21263672 -43.67285156 150.22263672 -43.67285156 149.20263672 C-43.01285156 148.87263672 -42.35285156 148.54263672 -41.67285156 148.20263672 C-41.805625 147.30802734 -41.93839844 146.41341797 -42.07519531 145.49169922 C-43.00418803 139.13115056 -43.90541423 132.79037212 -44.43066406 126.38232422 C-44.65783088 123.90723615 -44.65783088 123.90723615 -45.61035156 120.39013672 C-45.63097656 119.33826172 -45.65160156 118.28638672 -45.67285156 117.20263672 C-43.7109974 115.49123202 -41.70982773 113.82390347 -39.67285156 112.20263672 C-39.08756379 109.03245263 -39.08756379 109.03245263 -39.67285156 106.20263672 C-40.16785156 105.70763672 -40.16785156 105.70763672 -40.67285156 105.20263672 C-41.25925213 98.16582996 -39.79627781 91.9934255 -35.48535156 86.32763672 C-28.40763988 80.98003234 -19.76691423 80.17510747 -11.22143555 78.89501953 C-9.13756726 78.58172836 -7.05666174 78.25266303 -4.97558594 77.92138672 C4.11536317 76.50714048 13.13703888 75.66243268 22.32714844 75.20263672 C22.65948486 75.77578613 22.99182129 76.34893555 23.33422852 76.93945312 C26.37316264 82.12229713 29.31612329 85.39602163 34.51464844 88.51513672 C39.70905719 89.78488108 44.70873158 89.43456548 49.57714844 87.14404297 C56.4258542 82.56526809 59.56446841 75.67563972 61.63964844 67.89013672 C63.95727955 55.21002035 62.56259989 41.28050104 55.78417969 30.14013672 C52.20596711 25.38197737 47.26657363 20.9061055 41.24902344 19.83154297 C36.02919551 19.67194391 32.41631614 20.49853394 28.11230469 23.51904297 C24.89143066 26.55667252 23.12461329 30.20600084 21.32714844 34.20263672 C20.84761719 35.2603125 20.84761719 35.2603125 20.35839844 36.33935547 C19.65337926 37.94849646 18.98558239 39.57387906 18.32714844 41.20263672 C13.37714844 41.53263672 8.42714844 41.86263672 3.32714844 42.20263672 C3.359375 41.11724609 3.39160156 40.03185547 3.42480469 38.91357422 C3.76612025 30.82447818 3.76612025 30.82447818 0.25683594 24.01513672 C-2.18384685 22.53567401 -2.18384685 22.53567401 -4.73925781 21.53857422 C-5.37734375 21.09771484 -6.01542969 20.65685547 -6.67285156 20.20263672 C-6.67285156 18.22263672 -6.67285156 16.24263672 -6.67285156 14.20263672 C1.74214844 13.70763672 1.74214844 13.70763672 10.32714844 13.20263672 C10.45758101 7.41064 10.45758101 7.41064 9.32714844 2.20263672 C4.77788902 2.32310842 0.22875477 2.44742938 -4.3203125 2.57495117 C-5.85999877 2.61761371 -7.39971196 2.65931819 -8.93945312 2.69995117 C-26.40924746 1.67661876 -26.40924746 1.67661876 -41.67285156 5.20263672 C-41.67285156 8.50263672 -41.67285156 11.80263672 -41.67285156 15.20263672 C-34.41285156 15.20263672 -27.15285156 15.20263672 -19.67285156 15.20263672 C-19.67285156 16.85263672 -19.67285156 18.50263672 -19.67285156 20.20263672 C-23.0061849 21.86930339 -26.33951823 23.53597005 -29.67285156 25.20263672 C-28.22029457 21.37316828 -26.24389595 20.08213377 -22.67285156 18.20263672 C-26.42980455 16.32416023 -31.06587796 17.25408631 -35.19238281 17.36279297 C-38.57901167 17.20695483 -40.71051902 16.81060593 -43.67285156 15.20263672 C-45.17285156 12.51513672 -45.17285156 12.51513672 -45.67285156 9.20263672 C-44.94249574 6.63610463 -43.91571442 4.59275761 -42.67285156 2.20263672 C-34.38660272 1.34322048 -26.12228153 0.91640997 -17.79785156 0.64013672 C-16.6209375 0.59695312 -15.44402344 0.55376953 -14.23144531 0.50927734 C-11.88188362 0.42785689 -9.53189582 0.35785593 -7.18164062 0.29980469 C-4.78659357 0.23347928 -2.39232701 0.13198826 0 0 Z " fill="#E5EBEF" transform="translate(144.6728515625,21.79736328125)"/>
<path d="M0 0 C4.71213376 -0.58901672 7.22242676 -0.23459147 11.125 2.5625 C20.47628035 10.41540918 22.88931526 20.30524575 24.38671875 32.02734375 C24.74652454 40.47657633 22.67531665 49.31240137 17.6875 56.1875 C10.33244807 61.14788386 3.50782077 59.94673494 -5 59 C-5.495 57.515 -5.495 57.515 -6 56 C-4.7625 55.62875 -3.525 55.2575 -2.25 54.875 C2.1076542 53.25534092 3.82982559 51.16673487 6 47 C7.29856962 43.10429113 7.26324136 39.37469608 7.3125 35.3125 C7.34150391 34.53455078 7.37050781 33.75660156 7.40039062 32.95507812 C7.47929446 25.67771648 4.96581364 20.94872045 1 15 C4.02796348 15.56334204 6.27824002 16.21608846 8.40625 18.52734375 C12.02247362 23.91860396 13.58022081 29.72065139 15 36 C16.32 36.33 17.64 36.66 19 37 C19 38.32 19 39.64 19 41 C19.66 41 20.32 41 21 41 C20.65959914 28.54132843 19.49538818 16.80237097 11 7 C10.01 6.67 9.02 6.34 8 6 C7.54625 5.525625 7.0925 5.05125 6.625 4.5625 C4.61423786 2.62907486 2.60947795 1.9168436 0 1 C0 0.67 0 0.34 0 0 Z " fill="#8B9FAE" transform="translate(182,44)"/>
<path d="M0 0 C0.33 0 0.66 0 1 0 C1.14525497 8.05358138 0.71413279 15.97875848 0 24 C-0.90878906 24.268125 -1.81757812 24.53625 -2.75390625 24.8125 C-16.31450798 29.04062608 -32.67068747 34.61233913 -39.8125 47.75 C-43.34065765 55.48881138 -44.19406092 63.22146997 -44.4609375 71.65234375 C-45.16257291 74.70801681 -46.47618221 75.27786551 -49 77 C-49.66905674 80.76344415 -49.15433374 82.67847138 -47.5 86.125 C-44.41725665 89.67015485 -41.2863731 91.23135091 -37 93 C-37.15597656 93.54527344 -37.31195313 94.09054688 -37.47265625 94.65234375 C-38.98299433 100.50365352 -38.94670637 105.03574987 -38 111 C-36.68 111 -35.36 111 -34 111 C-34 111.66 -34 112.32 -34 113 C-34.66 113 -35.32 113 -36 113 C-36 118.28 -36 123.56 -36 129 C-35.34 129 -34.68 129 -34 129 C-33.87625 130.134375 -33.7525 131.26875 -33.625 132.4375 C-33.41875 133.613125 -33.2125 134.78875 -33 136 C-32.34 136.33 -31.68 136.66 -31 137 C-34.87921921 136.44582583 -36.32170128 134.75482154 -39 132 C-40.22226569 131.19771988 -41.45195347 130.40667229 -42.6875 129.625 C-45.11963266 127.89073838 -45.8864123 127.29106847 -47 124.4375 C-47 119.25363382 -46.52642461 114.15376192 -46 109 C-45.92652344 108.09121094 -45.85304688 107.18242187 -45.77734375 106.24609375 C-45.35779839 101.24968992 -44.55528051 96.76952691 -43 92 C-43.598125 91.731875 -44.19625 91.46375 -44.8125 91.1875 C-48.31088537 89.28837651 -49.73345454 87.79963639 -51 84 C-51.46030405 78.20016892 -51.46030405 78.20016892 -51 76 C-50.02933594 75.16662109 -50.02933594 75.16662109 -49.0390625 74.31640625 C-45.97247743 70.83271862 -46.29462289 67.37809689 -46.0625 62.875 C-45.24511596 52.62529428 -42.9233138 44.77391559 -35.109375 37.64453125 C-27.1225465 31.4177631 -18.38731801 27.72070699 -8.87963867 24.484375 C-6.35187797 23.62144748 -6.35187797 23.62144748 -3 22 C-1.68417623 18.4743543 -1.72139335 14.73205937 -1.5 11 C-1.05633803 3.52112676 -1.05633803 3.52112676 0 0 Z " fill="#99E0F4" transform="translate(114,47)"/>
<path d="M0 0 C-0.33 0.99 -0.66 1.98 -1 3 C-1.99 3 -2.98 3 -4 3 C-4.2475 3.886875 -4.495 4.77375 -4.75 5.6875 C-6.05270311 9.13966324 -7.71506225 11.14382781 -10 14 C-11.92806899 18.43455867 -12.3568376 22.18269242 -12 27 C-11.34964186 28.34136367 -10.6837045 29.67532254 -10 31 C-9.875 34.25 -9.875 34.25 -10 37 C-11.33333333 37.66666667 -12.66666667 38.33333333 -14 39 C-14.969375 39.515625 -15.93875 40.03125 -16.9375 40.5625 C-24.95454112 44.32560093 -33.59171211 43.73391396 -41.890625 41.06640625 C-44 40 -44 40 -46.125 36.8125 C-46.41375 35.884375 -46.7025 34.95625 -47 34 C-44.69130499 34.53277577 -42.56502229 35.16720056 -40.34765625 36.01953125 C-36.53061514 37.13747445 -33.00241803 37.33113727 -29.0625 37.3125 C-28.38509766 37.32861328 -27.70769531 37.34472656 -27.00976562 37.36132812 C-21.89427367 37.36623272 -18.49100716 36.21915478 -14 34 C-15.5778125 34.495 -15.5778125 34.495 -17.1875 35 C-20.38873357 35.83966782 -22.7411008 36.19750904 -26 36 C-25.39027344 34.91203125 -24.78054687 33.8240625 -24.15234375 32.703125 C-21.15544956 26.71724747 -20.21263617 20.31753424 -19.02148438 13.78125 C-17.56336353 6.59374523 -17.56336353 6.59374523 -14.46484375 3.328125 C-12 2 -12 2 -10 2 C-10 1.34 -10 0.68 -10 0 C-6.7169902 -1.6415049 -3.57454967 -0.51888624 0 0 Z " fill="#8DA1B0" transform="translate(116,97)"/>
<path d="M0 0 C0.70125 0.515625 1.4025 1.03125 2.125 1.5625 C2.125 2.2225 2.125 2.8825 2.125 3.5625 C3.02025391 3.68818359 3.02025391 3.68818359 3.93359375 3.81640625 C8.24469497 5.28417868 10.05253539 9.73685805 12.125 13.5625 C15.81756133 21.62024536 15.43734105 29.88635963 15.125 38.5625 C14.465 38.5625 13.805 38.5625 13.125 38.5625 C13.021875 37.923125 12.91875 37.28375 12.8125 36.625 C12.585625 35.944375 12.35875 35.26375 12.125 34.5625 C10.64 34.0675 10.64 34.0675 9.125 33.5625 C7.87890625 30.83203125 7.87890625 30.83203125 6.6875 27.375 C3.65627665 18.88856529 3.65627665 18.88856529 -2.5625 12.625 C-6.92855007 11.22456885 -10.42682481 11.7420588 -14.875 12.5625 C-14.545 10.9125 -14.215 9.2625 -13.875 7.5625 C-14.535 7.2325 -15.195 6.9025 -15.875 6.5625 C-15.875 5.2425 -15.875 3.9225 -15.875 2.5625 C-15.215 2.5625 -14.555 2.5625 -13.875 2.5625 C-13.875 1.5725 -13.875 0.5825 -13.875 -0.4375 C-8.68849325 -3.03075338 -5.13145874 -2.56572937 0 0 Z " fill="#C0C9D1" transform="translate(187.875,46.4375)"/>
<path d="M0 0 C0.66 0.33 1.32 0.66 2 1 C2 1.66 2 2.32 2 3 C1.195625 3.33 0.39125 3.66 -0.4375 4 C-10.70163512 9.30152262 -15.9183993 17.52875059 -20 28 C-21.12863031 32.79829113 -21.12007541 37.47666105 -21.0625 42.375 C-21.05798828 43.11105469 -21.05347656 43.84710938 -21.04882812 44.60546875 C-21.03715142 46.40368158 -21.01922011 48.20185197 -21 50 C-19.68 50.33 -18.36 50.66 -17 51 C-17.33 52.32 -17.66 53.64 -18 55 C-22.79027826 54.41936021 -26.04307058 52.66331788 -30 50 C-31.44298245 46.35496622 -30.59122884 43.50128966 -29.6640625 39.76171875 C-29.17148495 37.71317564 -28.73777051 35.65028939 -28.3359375 33.58203125 C-26.03361459 21.77946383 -22.95594136 13.7790204 -13.015625 6.55859375 C-8.87165427 3.86822516 -4.64973811 1.67390572 0 0 Z " fill="#BDC6CC" transform="translate(99,78)"/>
<path d="M0 0 C1.32 0 2.64 0 4 0 C5.66796875 1.86328125 5.66796875 1.86328125 7.1875 4.3125 C7.69667969 5.11300781 8.20585937 5.91351563 8.73046875 6.73828125 C11.28422809 11.28790173 11.25084889 15.60333862 11.3125 20.6875 C11.34150391 21.46544922 11.37050781 22.24339844 11.40039062 23.04492188 C11.46270212 28.79195869 10.32894739 33.24695631 7 38 C3.98990547 40.39578952 1.63363762 41.78878746 -2 43 C-2 43.66 -2 44.32 -2 45 C6.25552919 45.34937193 13.2370239 44.94397288 21 42 C20.0919838 43.13199353 19.17316174 44.25532363 18.25 45.375 C17.73953125 46.00148437 17.2290625 46.62796875 16.703125 47.2734375 C13.68153306 50.33661098 10.88370613 51.30028586 6.625 51.375 C1.98377897 51.2384935 -0.43479923 50.10017458 -4 47 C-6.43162498 44.41022055 -8.74707792 41.74616538 -11 39 C-10.01 38.505 -10.01 38.505 -9 38 C-9 37.34 -9 36.68 -9 36 C-4.27559055 34.03149606 -4.27559055 34.03149606 -1.8125 33.75 C0.28617359 33.12288952 0.28617359 33.12288952 1.13671875 30.5078125 C2.19887452 26.19190355 1.99731107 22.51827058 1.625 18.125 C1.53992188 16.949375 1.53992188 16.949375 1.453125 15.75 C1.31282139 13.83251738 1.15789804 11.91611401 1 10 C3.75137933 12.33155033 4.46424503 14.03686147 5.0625 17.5625 C5.64602448 21.19635678 5.64602448 21.19635678 8 24 C8.66 24 9.32 24 10 24 C8.73468226 13.96677462 7.69784512 7.07369552 0 0 Z " fill="#4B5E6D" transform="translate(179,58)"/>
<path d="M0 0 C0.495 1.98 0.495 1.98 1 4 C-3.10749154 4.55265828 -7.21516342 5.10395179 -11.32299805 5.65405273 C-12.71660145 5.84086414 -14.11015737 6.02803016 -15.50366211 6.21557617 C-37.26862383 9.14412323 -37.26862383 9.14412323 -44 9.125 C-45.3921875 9.12886719 -45.3921875 9.12886719 -46.8125 9.1328125 C-49 9 -49 9 -50 8 C-50.125 5 -50.125 5 -50 2 C-48.47724955 0.47724955 -47.052191 0.78802146 -44.92675781 0.68701172 C-43.62970917 0.62222122 -43.62970917 0.62222122 -42.30645752 0.55612183 C-41.36485779 0.5143985 -40.42325806 0.47267517 -39.453125 0.4296875 C-38.48977234 0.38433868 -37.52641968 0.33898987 -36.53387451 0.29226685 C-34.48948969 0.19749116 -32.44498896 0.10518878 -30.40039062 0.01513672 C-27.2769137 -0.12380282 -24.15413953 -0.27427571 -21.03125 -0.42578125 C-19.04690697 -0.5163284 -17.06253271 -0.60619413 -15.078125 -0.6953125 C-14.14462219 -0.74108429 -13.21111938 -0.78685608 -12.24932861 -0.83401489 C-8.00330883 -1.01255302 -4.1415511 -1.14946966 0 0 Z " fill="#D0DCE3" transform="translate(153,26)"/>
<path d="M0 0 C0.66 0 1.32 0 2 0 C1.69825631 6.03487383 -1.07575728 9.66948274 -5 14 C-9.19500217 17.71829738 -12.99127628 18.82680338 -18.4765625 19.15625 C-24.4668134 18.78533663 -28.49660013 15.84341459 -32.4375 11.5 C-34.50094648 9.02611322 -35.29077455 7.11914047 -36 4 C-40.71069511 4.65141742 -45.42049739 5.3088786 -50.12963867 5.97143555 C-51.7244707 6.19501611 -53.31951682 6.41707596 -54.91479492 6.63745117 C-63.06246911 7.76401148 -71.19561927 8.94303365 -79.27734375 10.48046875 C-80.43355225 10.69985107 -81.58976074 10.9192334 -82.78100586 11.14526367 C-88.63477779 12.69960994 -92.82869677 14.75094638 -96 20 C-97.1914364 23.62544382 -98.14072271 27.28297476 -99 31 C-99.33 31 -99.66 31 -100 31 C-100.52504318 24.83074263 -99.14629476 20.3372789 -96 15 C-89.31607453 7.72631641 -78.18308657 6.20370174 -68.875 4.875 C-67.78203613 4.71032227 -66.68907227 4.54564453 -65.56298828 4.37597656 C-62.37732736 3.90176617 -59.18962678 3.44667154 -56 3 C-55.14277344 2.87850586 -54.28554687 2.75701172 -53.40234375 2.63183594 C-46.57662525 1.67748882 -39.91023774 0.89450019 -33 1 C-33.33 1.99 -33.66 2.98 -34 4 C-31.11737848 8.44031141 -26.98962957 13.09918873 -22 15 C-17.1917571 15.70735789 -13.95009809 15.51023787 -9.625 13.1875 C-6.11318259 10.26098549 -3.78641034 7.9645183 -1.8125 3.8125 C-1.29623047 2.73935547 -1.29623047 2.73935547 -0.76953125 1.64453125 C-0.51558594 1.10183594 -0.26164062 0.55914062 0 0 Z " fill="#24323D" transform="translate(203,93)"/>
<path d="M0 0 C8.86008226 5.10638329 13.71198912 12.80875486 16.546875 22.45703125 C18.86512277 32.390079 18.51769104 42.3146471 15.859375 52.1171875 C14.869375 51.4571875 13.879375 50.7971875 12.859375 50.1171875 C13.189375 49.0240625 13.519375 47.9309375 13.859375 46.8046875 C16.57374678 35.5341438 14.94578938 22.35072196 9.2109375 12.19921875 C6.37429934 8.40258296 3.41431234 4.70611913 -1.140625 3.1171875 C-6.20742171 2.68865245 -11.20454154 2.80089858 -16.140625 4.1171875 C-16.140625 5.1071875 -16.140625 6.0971875 -16.140625 7.1171875 C-17.130625 7.1171875 -18.120625 7.1171875 -19.140625 7.1171875 C-20.60714517 9.99738026 -21.96110374 12.91027265 -23.265625 15.8671875 C-23.61882812 16.66640625 -23.97203125 17.465625 -24.3359375 18.2890625 C-24.60148437 18.89234375 -24.86703125 19.495625 -25.140625 20.1171875 C-22.500625 20.1171875 -19.860625 20.1171875 -17.140625 20.1171875 C-20.81382715 22.56598893 -23.27790128 23.24378296 -27.58984375 23.21484375 C-28.43740234 23.21162109 -29.28496094 23.20839844 -30.15820312 23.20507812 C-31.47981445 23.19250977 -31.47981445 23.19250977 -32.828125 23.1796875 C-33.72080078 23.17517578 -34.61347656 23.17066406 -35.53320312 23.16601562 C-37.73574487 23.15423733 -39.93815099 23.13778914 -42.140625 23.1171875 C-42.140625 24.7671875 -42.140625 26.4171875 -42.140625 28.1171875 C-42.470625 28.1171875 -42.800625 28.1171875 -43.140625 28.1171875 C-43.800625 22.5071875 -44.460625 16.8971875 -45.140625 11.1171875 C-44.480625 11.1171875 -43.820625 11.1171875 -43.140625 11.1171875 C-43.140625 9.4671875 -43.140625 7.8171875 -43.140625 6.1171875 C-42.810625 6.1171875 -42.480625 6.1171875 -42.140625 6.1171875 C-42.140625 11.3971875 -42.140625 16.6771875 -42.140625 22.1171875 C-41.480625 21.7871875 -40.820625 21.4571875 -40.140625 21.1171875 C-37.936261 20.88768431 -35.72670327 20.70642817 -33.515625 20.5546875 C-31.73285156 20.42900391 -31.73285156 20.42900391 -29.9140625 20.30078125 C-28.99882812 20.24019531 -28.08359375 20.17960937 -27.140625 20.1171875 C-26.90988281 19.47652344 -26.67914063 18.83585937 -26.44140625 18.17578125 C-23.58702182 10.60545733 -20.6655142 3.56086866 -13.08984375 -0.21875 C-8.59278492 -1.75081413 -4.41500571 -1.82078703 0 0 Z " fill="#4B5A66" transform="translate(190.140625,41.8828125)"/>
<path d="M0 0 C0.66 1.32 1.32 2.64 2 4 C2.66 4 3.32 4 4 4 C4.19335938 4.60328125 4.38671875 5.2065625 4.5859375 5.828125 C4.84632812 6.62734375 5.10671875 7.4265625 5.375 8.25 C5.63023438 9.03890625 5.88546875 9.8278125 6.1484375 10.640625 C6.94009044 12.99977558 6.94009044 12.99977558 8.09375 15.09375 C9.35935367 17.75588187 9.1319816 20.09640484 9 23 C8.01 23 7.02 23 6 23 C6 22.34 6 21.68 6 21 C5.01 21 4.02 21 3 21 C3 21.66 3 22.32 3 23 C0.69 23.66 -1.62 24.32 -4 25 C-4 25.99 -4 26.98 -4 28 C-4.66 28 -5.32 28 -6 28 C-6.33 25.69 -6.66 23.38 -7 21 C-7.66 21 -8.32 21 -9 21 C-10.29758261 18.40483479 -10.13269102 16.45816973 -10.125 13.5625 C-10.12757812 12.59441406 -10.13015625 11.62632812 -10.1328125 10.62890625 C-10 8 -10 8 -9 5 C-8.34 5 -7.68 5 -7 5 C-7 6.98 -7 8.96 -7 11 C-6.34 11 -5.68 11 -5 11 C-3.74279101 8.48558203 -3.02446969 6.14681815 -2.5625 3.375 C-2.376875 2.59125 -2.19125 1.8075 -2 1 C-1.34 0.67 -0.68 0.34 0 0 Z " fill="#95E1FB" transform="translate(87,155)"/>
<path d="M0 0 C1.60725635 3.21451269 1.05748185 6.43612536 1 10 C3.54194161 9.85811015 6.08347993 9.71160845 8.625 9.5625 C9.33785156 9.52318359 10.05070312 9.48386719 10.78515625 9.44335938 C13.94883296 9.25469975 16.99612405 9.00065891 20.125 8.46875 C23.25737465 7.95803674 26.20375187 7.90226391 29.375 7.9375 C30.96441406 7.95103516 30.96441406 7.95103516 32.5859375 7.96484375 C33.38257813 7.97644531 34.17921875 7.98804688 35 8 C34.34 8.99 33.68 9.98 33 11 C29.96133201 11.41137202 27.07840297 11.13193156 24 11 C24 15.29 24 19.58 24 24 C26.31 24.33 28.62 24.66 31 25 C31 25.33 31 25.66 31 26 C27.625 26.125 27.625 26.125 24 26 C22 24 22 24 21.875 20.875 C21.91625 19.92625 21.9575 18.9775 22 18 C19.69 18.99 17.38 19.98 15 21 C15 22.65 15 24.3 15 26 C19.64399753 27.80161264 23.59051379 28.29744858 28.5625 28.3125 C29.84253906 28.32925781 31.12257812 28.34601562 32.44140625 28.36328125 C36.14254554 27.98544815 38.02501808 27.16414232 41 25 C40.96044102 23.07690578 40.96044102 23.07690578 40 21 C37.01647106 19.21620585 37.01647106 19.21620585 34 18 C34 19.98 34 21.96 34 24 C33.67 24 33.34 24 33 24 C33 21.69 33 19.38 33 17 C41.23427332 17.79175705 41.23427332 17.79175705 44 21 C44.25 24.1875 44.25 24.1875 44 27 C42.730447 27.64834654 41.45930294 28.29357815 40.1875 28.9375 C39.47980469 29.29714844 38.77210938 29.65679687 38.04296875 30.02734375 C32.77703383 32.53445235 27.33330729 32.92402906 21.703125 31.36328125 C19.06774362 30.37741778 16.51664317 29.25832159 14 28 C13.95101562 29.18078125 13.90203125 30.3615625 13.8515625 31.578125 C13.77651121 33.13543937 13.70096439 34.69272991 13.625 36.25 C13.57859375 37.41595703 13.57859375 37.41595703 13.53125 38.60546875 C13.16618114 45.72431144 13.16618114 45.72431144 11 49 C11 48.01 11 47.02 11 46 C10.34 45.67 9.68 45.34 9 45 C9.66 45 10.32 45 11 45 C10.98839844 44.18917969 10.97679688 43.37835938 10.96484375 42.54296875 C10.80069191 22.39919277 10.80069191 22.39919277 14.25 18.375 C16.90193856 17.04903072 19.06301137 16.33565584 22 16 C22 14.35 22 12.7 22 11 C14.74 11 7.48 11 0 11 C-1.62651522 7.74696956 -1.11453156 4.60774398 -1 1 C-0.67 0.67 -0.34 0.34 0 0 Z " fill="#29343E" transform="translate(103,26)"/>
<path d="M0 0 C0.33 0 0.66 0 1 0 C1.14525497 8.05358138 0.71413279 15.97875848 0 24 C-0.90878906 24.268125 -1.81757812 24.53625 -2.75390625 24.8125 C-16.31450798 29.04062608 -32.67068747 34.61233913 -39.8125 47.75 C-43.34065765 55.48881138 -44.19406092 63.22146997 -44.4609375 71.65234375 C-45.16257291 74.70801681 -46.47618221 75.27786551 -49 77 C-49.70010242 80.9380761 -49.1528521 82.71613181 -47.25 86.25 C-45.18547572 88.77330745 -44.0134177 89.92377939 -41 91 C-41.64270983 96.9129304 -43.19003784 102.34244531 -45 108 C-44.34 108 -43.68 108 -43 108 C-43.66 114.27 -44.32 120.54 -45 127 C-45.33 127 -45.66 127 -46 127 C-47.51417967 120.94328134 -46.62537186 115.12246773 -46 109 C-45.92652344 108.09121094 -45.85304688 107.18242187 -45.77734375 106.24609375 C-45.35779839 101.24968992 -44.55528051 96.76952691 -43 92 C-43.598125 91.731875 -44.19625 91.46375 -44.8125 91.1875 C-48.31088537 89.28837651 -49.73345454 87.79963639 -51 84 C-51.46030405 78.20016892 -51.46030405 78.20016892 -51 76 C-50.02933594 75.16662109 -50.02933594 75.16662109 -49.0390625 74.31640625 C-45.97247743 70.83271862 -46.29462289 67.37809689 -46.0625 62.875 C-45.24511596 52.62529428 -42.9233138 44.77391559 -35.109375 37.64453125 C-27.1225465 31.4177631 -18.38731801 27.72070699 -8.87963867 24.484375 C-6.35187797 23.62144748 -6.35187797 23.62144748 -3 22 C-1.68417623 18.4743543 -1.72139335 14.73205937 -1.5 11 C-1.05633803 3.52112676 -1.05633803 3.52112676 0 0 Z " fill="#E1F1F4" transform="translate(114,47)"/>
<path d="M0 0 C1.03447266 0.433125 1.03447266 0.433125 2.08984375 0.875 C12.66081502 5.05118618 19.32081027 4.60986695 30 1 C30.66 7.27 31.32 13.54 32 20 C30.68 20.33 29.36 20.66 28 21 C26.00214565 16.8794254 25.82164485 13.54805635 26 9 C25.01 9.33 24.02 9.66 23 10 C16.02253251 10.58615236 10.29535957 10.14767979 4 7 C3.67 6.01 3.34 5.02 3 4 C2.01 3.67 1.02 3.34 0 3 C0 2.01 0 1.02 0 0 Z " fill="#919EAC" transform="translate(116,53)"/>
<path d="M0 0 C1.23863697 6.11577003 2 11.75208244 2 18 C2.56202769 21.68830671 3.25948567 25.34371048 4 29 C3.34 29 2.68 29 2 29 C-1.05218322 21.5221511 -2.99712277 13.80817115 -5 6 C-6.32 5.67 -7.64 5.34 -9 5 C-8.67 7.31 -8.34 9.62 -8 12 C-8.99 11.67 -9.98 11.34 -11 11 C-11.70572696 8.95339181 -12.0095872 6.94407466 -12.375 4.8125 C-12.58125 4.214375 -12.7875 3.61625 -13 3 C-13.99 2.67 -14.98 2.34 -16 2 C-16 3.98 -16 5.96 -16 8 C-16.99 7.01 -17.98 6.02 -19 5 C-19.33 7.64 -19.66 10.28 -20 13 C-22 11 -22 11 -22.1953125 8.3984375 C-22.17210938 7.40070313 -22.14890625 6.40296875 -22.125 5.375 C-22.10695313 4.37210938 -22.08890625 3.36921875 -22.0703125 2.3359375 C-22.04710938 1.56507813 -22.02390625 0.79421875 -22 0 C-21.04738281 0.01160156 -20.09476562 0.02320313 -19.11328125 0.03515625 C-17.85902344 0.04417969 -16.60476562 0.05320313 -15.3125 0.0625 C-14.07113281 0.07410156 -12.82976562 0.08570313 -11.55078125 0.09765625 C-8.10905041 0.10566804 -8.10905041 0.10566804 -5.23046875 -0.56640625 C-3 -1 -3 -1 0 0 Z " fill="#77C6E2" transform="translate(100,141)"/>
<path d="M0 0 C0 0.33 0 0.66 0 1 C-0.57443848 1.10022461 -1.14887695 1.20044922 -1.74072266 1.30371094 C-4.37163756 1.77126422 -6.99809782 2.26042435 -9.625 2.75 C-10.52863281 2.90726562 -11.43226562 3.06453125 -12.36328125 3.2265625 C-17.8117239 4.26057351 -21.74762518 5.36762278 -26 9 C-27.27427781 10.89046804 -27.27427781 10.89046804 -27.8125 12.9375 C-28.0290625 13.63617188 -28.245625 14.33484375 -28.46875 15.0546875 C-28.73171875 16.01761719 -28.73171875 16.01761719 -29 17 C-29.268125 17.845625 -29.53625 18.69125 -29.8125 19.5625 C-30.17432248 22.20463943 -30.17432248 22.20463943 -28.875 25.375 C-27.76134706 29.98870506 -28.68909999 31.93600344 -31 36 C-31.99 36.66 -32.98 37.32 -34 38 C-33.80083984 39.22009766 -33.80083984 39.22009766 -33.59765625 40.46484375 C-32.54317506 47.30742604 -31.6626343 54.16508665 -31.0625 61.0625 C-30.93983765 62.13262329 -30.93983765 62.13262329 -30.81469727 63.22436523 C-30.51443992 67.22827082 -30.76316061 68.71555863 -33.37109375 71.84765625 C-34.23863281 72.55792969 -35.10617188 73.26820313 -36 74 C-36.99 75.175625 -36.99 75.175625 -38 76.375 C-38.66 76.91125 -39.32 77.4475 -40 78 C-41.671549 77.69208308 -43.33805547 77.35613097 -45 77 C-48.1668838 78.37492804 -48.1668838 78.37492804 -51 80 C-51.66 80 -52.32 80 -53 80 C-53 79.34 -53 78.68 -53 78 C-50 76 -50 76 -46 76 C-46 75.34 -46 74.68 -46 74 C-45.01 74 -44.02 74 -43 74 C-43 74.66 -43 75.32 -43 76 C-42.01 76 -41.02 76 -40 76 C-39.67 75.01 -39.34 74.02 -39 73 C-36.9375 72.3125 -36.9375 72.3125 -35 72 C-35 71.01 -35 70.02 -35 69 C-34.01 68.505 -34.01 68.505 -33 68 C-33.19916016 66.65808594 -33.19916016 66.65808594 -33.40234375 65.2890625 C-34.33133646 58.92851385 -35.23256267 52.5877354 -35.7578125 46.1796875 C-35.98497932 43.70459943 -35.98497932 43.70459943 -36.9375 40.1875 C-36.958125 39.135625 -36.97875 38.08375 -37 37 C-35.03814584 35.28859531 -33.03697617 33.62126675 -31 32 C-30.41471223 28.82981591 -30.41471223 28.82981591 -31 26 C-31.33 25.67 -31.66 25.34 -32 25 C-32.58640056 17.96319325 -31.12342624 11.79078878 -26.8125 6.125 C-18.85395348 0.11187597 -9.62185294 -0.1718188 0 0 Z " fill="#E2F1F4" transform="translate(136,102)"/>
<path d="M0 0 C0 1.32 0 2.64 0 4 C-0.53367187 4.18433594 -1.06734375 4.36867188 -1.6171875 4.55859375 C-12.04170493 8.61658064 -19.24962489 15.62488393 -23.8828125 25.78125 C-25.72142924 31.07852339 -26.4792868 36.43375545 -27 42 C-27.66 42 -28.32 42 -29 42 C-29.44131228 30.03553372 -26.88494403 19.39254767 -19.26171875 9.81640625 C-13.7508706 4.13448964 -8.19896781 -0.22159372 0 0 Z " fill="#F5F9F9" transform="translate(106,80)"/>
<path d="M0 0 C3.00198845 3.00198845 3.95992537 4.95805953 4.125 9.25 C4.08375 10.1575 4.0425 11.065 4 12 C2.66666667 12.66666667 1.33333333 13.33333333 0 14 C-0.969375 14.515625 -1.93875 15.03125 -2.9375 15.5625 C-10.95454112 19.32560093 -19.59171211 18.73391396 -27.890625 16.06640625 C-30 15 -30 15 -32.125 11.8125 C-32.41375 10.884375 -32.7025 9.95625 -33 9 C-30.69130499 9.53277577 -28.56502229 10.16720056 -26.34765625 11.01953125 C-22.53061514 12.13747445 -19.00241803 12.33113727 -15.0625 12.3125 C-14.38509766 12.32861328 -13.70769531 12.34472656 -13.00976562 12.36132812 C-7.89427367 12.36623272 -4.49100716 11.21915478 0 9 C-0.495 8.01 -0.495 8.01 -1 7 C-0.71758117 4.6599583 -0.38749213 2.32495277 0 0 Z " fill="#7C8997" transform="translate(102,122)"/>
<path d="M0 0 C0.66 2.31 1.32 4.62 2 7 C4.97 7 7.94 7 11 7 C11.33 4.69 11.66 2.38 12 0 C14.71675995 0.36712972 16.61063713 0.72744599 18.875 2.3125 C20 4 20 4 20 6 C18.55178117 8.89643766 16.90443577 9.59866845 14 11 C6.31392718 11.86915679 -1.21264373 11.9730866 -8 8 C-8.3125 5.6875 -8.3125 5.6875 -8 3 C-5.13896577 0.75756777 -3.65923696 0 0 0 Z " fill="#E2EFF7" transform="translate(125,44)"/>
<path d="M0 0 C0.66 0 1.32 0 2 0 C2.33 3.63 2.66 7.26 3 11 C3.66 8.36 4.32 5.72 5 3 C6.20628008 5.33214148 7.1654738 7.49642139 8 10 C8.66 9.67 9.32 9.34 10 9 C10 9.66 10 10.32 10 11 C10.66 11.33 11.32 11.66 12 12 C11.34 12 10.68 12 10 12 C9.855625 13.2375 9.71125 14.475 9.5625 15.75 C9.21311498 18.56504499 8.79620634 21.2701497 8 24 C6.68 24.33 5.36 24.66 4 25 C4 22.36 4 19.72 4 17 C2.68 17 1.36 17 0 17 C-2.59868201 12.26122692 -1.94860165 8.11669979 -1 3 C-0.67 2.01 -0.34 1.02 0 0 Z " fill="#A4E0F9" transform="translate(76,141)"/>
<path d="M0 0 C3.63 0 7.26 0 11 0 C11.33 1.98 11.66 3.96 12 6 C11.01 6 10.02 6 9 6 C9.33 8.64 9.66 11.28 10 14 C6.06329512 15.31223496 3.87511856 14.24296256 0 13 C0 8.71 0 4.42 0 0 Z " fill="#66717B" transform="translate(127,37)"/>
<path d="M0 0 C2 0 4 0 6 0 C6 0.66 6 1.32 6 2 C6.66 2.33 7.32 2.66 8 3 C7.01 3.33 6.02 3.66 5 4 C5 4.66 5 5.32 5 6 C13.25552919 6.34937193 20.2370239 5.94397288 28 3 C27.0919838 4.13199353 26.17316174 5.25532363 25.25 6.375 C24.73953125 7.00148438 24.2290625 7.62796875 23.703125 8.2734375 C20.68153306 11.33661098 17.88370613 12.30028586 13.625 12.375 C9.07007772 12.27760857 6.53596723 10.94663936 3 8 C2.38125 7.525625 1.7625 7.05125 1.125 6.5625 C-0.45931015 4.36206924 -0.21394195 2.63861736 0 0 Z " fill="#5D7282" transform="translate(172,97)"/>
<path d="M0 0 C1.32 0.66 2.64 1.32 4 2 C3.649375 3.155 3.29875 4.31 2.9375 5.5 C2.14605485 8.59482344 1.96455108 10.91750689 2.5 14.0625 C3.06959553 18.54806483 2.48181994 20.81603782 1 25 C0.01 25 -0.98 25 -2 25 C-2.33 26.98 -2.66 28.96 -3 31 C-3.33 31 -3.66 31 -4 31 C-4.19392201 25.47322267 -3.7479503 21.24385089 -2 16 C-2.66 16 -3.32 16 -4 16 C-2.98408579 10.53135543 -1.92908943 5.23609987 0 0 Z " fill="#6DB7D2" transform="translate(73,139)"/>
<path d="M0 0 C3.84883518 3.44369464 5.94358221 5.90998703 7 11 C7.14527067 14.34122531 7.11887127 17.65839665 7 21 C6.01 21.33 5.02 21.66 4 22 C1.24614784 17.11817117 0.02862785 12.44567686 -1 7 C-1.66 7 -2.32 7 -3 7 C-3.33 5.68 -3.66 4.36 -4 3 C-2.68 2.67 -1.36 2.34 0 2 C0 1.34 0 0.68 0 0 Z " fill="#BDCBD4" transform="translate(182,61)"/>
<path d="M0 0 C0.33 0 0.66 0 1 0 C1.14525497 8.05358138 0.71413279 15.97875848 0 24 C-0.90878906 24.268125 -1.81757812 24.53625 -2.75390625 24.8125 C-17.33639314 29.35924463 -32.8534688 35.31382759 -41 49 C-41.66 48.67 -42.32 48.34 -43 48 C-33.56386362 34.38154676 -20.84424203 28.34519488 -5.44921875 23.23828125 C-2.91693757 22.26936006 -2.91693757 22.26936006 -2.17578125 20.29296875 C-2.08876953 19.15794922 -2.08876953 19.15794922 -2 18 C-1.86078125 16.3603125 -1.86078125 16.3603125 -1.71875 14.6875 C-1.6465625 13.470625 -1.574375 12.25375 -1.5 11 C-1.05633803 3.52112676 -1.05633803 3.52112676 0 0 Z " fill="#EBEFF2" transform="translate(114,47)"/>
<path d="M0 0 C1.6015625 1.609375 1.6015625 1.609375 2.625 3.75 C5.08143511 8.2936022 7.75710301 10.6542618 12.1875 13.3125 C17.89961971 14.70879593 23.88499969 13.88235583 29 11 C28.1875 12.9375 28.1875 12.9375 27 15 C20.75701544 17.08099485 14.13170929 16.99928252 8.1875 14.0625 C4.82055869 11.89520837 2.88024342 9.67889942 0.73828125 6.30859375 C0.21919189 5.50091553 -0.29989746 4.6932373 -0.8347168 3.86108398 C-1.41153198 2.93984741 -1.41153198 2.93984741 -2 2 C-2.96655518 2.13631836 -2.96655518 2.13631836 -3.95263672 2.27539062 C-6.9258235 2.6906253 -9.90035347 3.09536058 -12.875 3.5 C-14.39480469 3.71462891 -14.39480469 3.71462891 -15.9453125 3.93359375 C-22.34203923 4.79469158 -28.54700074 5.19321428 -35 5 C-35 4.67 -35 4.34 -35 4 C-30.4803462 3.32517032 -25.95910926 2.66158989 -21.4375 2 C-19.52227539 1.71382813 -19.52227539 1.71382813 -17.56835938 1.421875 C-16.32763672 1.24140625 -15.08691406 1.0609375 -13.80859375 0.875 C-12.67220459 0.70742187 -11.53581543 0.53984375 -10.36499023 0.3671875 C-6.86368196 -0.01487501 -3.51864508 -0.17210323 0 0 Z " fill="#DBE1E5" transform="translate(167,97)"/>
<path d="M0 0 C-3.1434223 2.62959365 -6.14351099 3.90779059 -10 5.25 C-19.23107132 8.69737422 -27.71292621 13.32018236 -35 20 C-35.66 19.34 -36.32 18.68 -37 18 C-29.86056362 10.70089572 -10.59323593 -3.53107864 0 0 Z " fill="#434E58" transform="translate(113,72)"/>
<path d="M0 0 C2.0625 2.25 2.0625 2.25 4 5 C3.75 7.3125 3.75 7.3125 3 9 C5.64 8.67 8.28 8.34 11 8 C11 11 11 11 10 13 C7.03 12.505 7.03 12.505 4 12 C4 12.66 4 13.32 4 14 C0.7 13.67 -2.6 13.34 -6 13 C-3 3.28571429 -3 3.28571429 0 0 Z M0 4 C1 6 1 6 1 6 Z " fill="#B7C2CB" transform="translate(171,49)"/>
<path d="M0 0 C-0.33 1.32 -0.66 2.64 -1 4 C-1.78648926 4.02505615 -2.57297852 4.0501123 -3.38330078 4.07592773 C-6.96401494 4.19232866 -10.5444945 4.31485487 -14.125 4.4375 C-15.98125 4.49647461 -15.98125 4.49647461 -17.875 4.55664062 C-19.07382813 4.59853516 -20.27265625 4.64042969 -21.5078125 4.68359375 C-22.60754395 4.72025146 -23.70727539 4.75690918 -24.84033203 4.79467773 C-27.95285351 4.99693632 -30.92801809 5.4757207 -34 6 C-35.3604727 6.07183963 -36.72361515 6.10882283 -38.0859375 6.09765625 C-39.13974609 6.09282227 -39.13974609 6.09282227 -40.21484375 6.08789062 C-41.28412109 6.07532227 -41.28412109 6.07532227 -42.375 6.0625 C-43.11105469 6.05798828 -43.84710938 6.05347656 -44.60546875 6.04882812 C-46.40368158 6.03715142 -48.20185197 6.01922011 -50 6 C-50 5.67 -50 5.34 -50 5 C-43.68329507 4.28404347 -37.36611352 3.57241268 -31.04858398 2.86376953 C-28.90003455 2.62225021 -26.75159566 2.37974534 -24.60327148 2.13623047 C-21.51314455 1.78613516 -18.42263582 1.43960019 -15.33203125 1.09375 C-14.37351761 0.9843811 -13.41500397 0.87501221 -12.42744446 0.7623291 C-11.52688828 0.66222534 -10.62633209 0.56212158 -9.69848633 0.45898438 C-8.51601067 0.32574768 -8.51601067 0.32574768 -7.30964661 0.18981934 C-4.86321756 -0.01124153 -2.45357126 -0.03190092 0 0 Z " fill="#5D6F7F" transform="translate(154,30)"/>
<path d="M0 0 C0.495 1.485 0.495 1.485 1 3 C-3.10749154 3.55265828 -7.21516342 4.10395179 -11.32299805 4.65405273 C-12.71660145 4.84086414 -14.11015737 5.02803016 -15.50366211 5.21557617 C-37.29834436 8.14812222 -37.29834436 8.14812222 -44.0625 8.0625 C-45.00222656 8.05347656 -45.94195312 8.04445313 -46.91015625 8.03515625 C-47.59980469 8.02355469 -48.28945312 8.01195312 -49 8 C-49 7.67 -49 7.34 -49 7 C-37.60492728 4.50511607 -26.18780247 3.16201417 -14.58691406 2.00268555 C-13.41999023 1.88578369 -12.25306641 1.76888184 -11.05078125 1.6484375 C-10.00575439 1.54708496 -8.96072754 1.44573242 -7.8840332 1.34130859 C-5.21348761 1.02526502 -2.62700381 0.56886678 0 0 Z " fill="#92A1AF" transform="translate(153,27)"/>
<path d="M0 0 C1.29243536 4.1196377 2.26252625 7.66831683 2 12 C2.99 12 3.98 12 5 12 C5 14.64 5 17.28 5 20 C4.34 20 3.68 20 3 20 C2.8453125 19.0409375 2.8453125 19.0409375 2.6875 18.0625 C2.460625 17.381875 2.23375 16.70125 2 16 C1.01 15.67 0.02 15.34 -1 15 C-2.3515625 12.12890625 -2.3515625 12.12890625 -3.625 8.5625 C-4.05039063 7.38816406 -4.47578125 6.21382813 -4.9140625 5.00390625 C-5.27242187 4.01261719 -5.63078125 3.02132812 -6 2 C-6.33 1.34 -6.66 0.68 -7 0 C-4.3333581 -1.33332095 -2.83319697 -0.67102033 0 0 Z " fill="#BEC8D0" transform="translate(198,65)"/>
<path d="M0 0 C3 2 3 2 3.51171875 3.9453125 C3.67447917 5.96354167 3.83723958 7.98177083 4 10 C5.32 10.33 6.64 10.66 8 11 C8 11.66 8 12.32 8 13 C9.32 13.33 10.64 13.66 12 14 C11.67 15.32 11.34 16.64 11 18 C6.20972174 17.41936021 2.95692942 15.66331788 -1 13 C-2.30957005 9.83688466 -1.87802435 7.51209739 -1.0625 4.25 C-0.86785156 3.45078125 -0.67320313 2.6515625 -0.47265625 1.828125 C-0.31667969 1.22484375 -0.16070312 0.6215625 0 0 Z " fill="#9FA6B5" transform="translate(70,115)"/>
<path d="M0 0 C3.79165074 -0.0289337 7.58327327 -0.04677601 11.375 -0.0625 C12.45523438 -0.07087891 13.53546875 -0.07925781 14.6484375 -0.08789062 C16.1953125 -0.09272461 16.1953125 -0.09272461 17.7734375 -0.09765625 C18.72653809 -0.10289307 19.67963867 -0.10812988 20.66162109 -0.11352539 C23 0 23 0 25 1 C25 1.66 25 2.32 25 3 C22.14694871 3.50720912 19.29283186 4.00593634 16.4375 4.5 C15.63763672 4.64308594 14.83777344 4.78617188 14.01367188 4.93359375 C9.26475402 5.74769395 4.81753923 6.15519589 0 6 C0 4.02 0 2.04 0 0 Z " fill="#C0CBD4" transform="translate(103,28)"/>
<path d="M0 0 C0 0.99 0 1.98 0 3 C-1.51980469 3.27263672 -1.51980469 3.27263672 -3.0703125 3.55078125 C-4.42196353 3.80421582 -5.77352119 4.05814865 -7.125 4.3125 C-7.79015625 4.43044922 -8.4553125 4.54839844 -9.140625 4.66992188 C-14.56696068 5.70730958 -19.07509462 7.24008651 -23.1875 11 C-25.8322339 15.3774906 -26.85500844 20.04704407 -28 25 C-28.33 25 -28.66 25 -29 25 C-29.52504318 18.83074263 -28.14629476 14.3372789 -25 9 C-18.91532124 2.37843782 -8.6829138 0 0 0 Z " fill="#2A3741" transform="translate(132,99)"/>
<path d="M0 0 C0.66 0 1.32 0 2 0 C2.3125 2.25 2.3125 2.25 2 5 C-1.94499439 9.47099365 -7.27247901 11.0695363 -13 12 C-18.99692697 12.33660937 -24.99997181 12.17647142 -31 12 C-31 11.67 -31 11.34 -31 11 C-29.40671875 10.83564453 -29.40671875 10.83564453 -27.78125 10.66796875 C-18.39547077 9.6394054 -9.95702574 8.61672405 -2 3 C-1.34 2.01 -0.68 1.02 0 0 Z " fill="#EBF5F8" transform="translate(176,75)"/>
<path d="M0 0 C0.495 1.98 0.495 1.98 1 4 C-5.2210216 9.76582489 -10.96827913 11.44715169 -19.4453125 11.25390625 C-26.02214323 10.6002457 -31.90213038 8.18286738 -37 4 C-37 3.01 -37 2.02 -37 1 C-36.01 1.78375 -35.02 2.5675 -34 3.375 C-27.71834259 7.82766078 -20.5867116 8.86008406 -13 8 C-8.54605228 6.90592409 -4.82410155 5.54940103 -1 3 C-0.67 2.01 -0.34 1.02 0 0 Z " fill="#254056" transform="translate(104,131)"/>
<path d="M0 0 C0.66 1.32 1.32 2.64 2 4 C2.66 4 3.32 4 4 4 C4.19335938 4.60328125 4.38671875 5.2065625 4.5859375 5.828125 C4.84632812 6.62734375 5.10671875 7.4265625 5.375 8.25 C5.63023438 9.03890625 5.88546875 9.8278125 6.1484375 10.640625 C6.94009044 12.99977558 6.94009044 12.99977558 8.09375 15.09375 C9.35935367 17.75588187 9.1319816 20.09640484 9 23 C8.01 23 7.02 23 6 23 C5.73445313 22.28972656 5.46890625 21.57945312 5.1953125 20.84765625 C4.84210938 19.92855469 4.48890625 19.00945312 4.125 18.0625 C3.77695313 17.14597656 3.42890625 16.22945312 3.0703125 15.28515625 C2.2180914 12.85058944 2.2180914 12.85058944 0 12 C0 8.04 0 4.08 0 0 Z " fill="#7CC6E3" transform="translate(87,155)"/>
<path d="M0 0 C2.71675995 0.36712972 4.61063713 0.72744599 6.875 2.3125 C8 4 8 4 8 6 C6.45934328 9.08131345 5.25541315 9.80413395 2 11 C-1.42232495 10.64939484 -4.68218593 9.89548768 -8 9 C-8 8.67 -8 8.34 -8 8 C-4.535 7.505 -4.535 7.505 -1 7 C-0.67 4.69 -0.34 2.38 0 0 Z " fill="#CCD8E2" transform="translate(137,44)"/>
<path d="M0 0 C0 0.33 0 0.66 0 1 C-14.6793211 1.90933848 -29.29434109 2.12375296 -44 2 C-44 1.34 -44 0.68 -44 0 C-29.19852733 -1.0400031 -14.80512333 -0.97196589 0 0 Z " fill="#6D7379" transform="translate(148,25)"/>
<path d="M0 0 C0.58048096 0.14711426 1.16096191 0.29422852 1.7590332 0.44580078 C3.78465689 0.94674487 5.81968232 1.40929025 7.85546875 1.8671875 C9.29956011 2.20277689 10.74356829 2.53872435 12.1875 2.875 C12.92419922 3.03613281 13.66089844 3.19726562 14.41992188 3.36328125 C16.30591344 3.8109223 18.15798581 4.39640213 20 5 C20.33 5.99 20.66 6.98 21 8 C6.56534437 8.57824288 6.56534437 8.57824288 2 5 C0.625 2.3125 0.625 2.3125 0 0 Z " fill="#8796A6" transform="translate(69,131)"/>
<path d="M0 0 C1.32 0 2.64 0 4 0 C5.66796875 1.86328125 5.66796875 1.86328125 7.1875 4.3125 C7.95126953 5.51326172 7.95126953 5.51326172 8.73046875 6.73828125 C11.28422809 11.28790173 11.25084889 15.60333862 11.3125 20.6875 C11.34150391 21.46544922 11.37050781 22.24339844 11.40039062 23.04492188 C11.4733082 29.77016617 9.74331093 35.1709606 5 40.0625 C3 41 3 41 0.75 40.6875 C0.1725 40.460625 -0.405 40.23375 -1 40 C-0.071875 39.443125 0.85625 38.88625 1.8125 38.3125 C6.57008517 34.8609186 8.06475465 31.66889947 9 26 C9.72264032 17.51786121 9.22527962 10.09906266 3.62109375 3.3359375 C2.15088509 1.79712263 2.15088509 1.79712263 0 0 Z " fill="#2F404D" transform="translate(179,58)"/>
<path d="M0 0 C8.23427332 0.79175705 8.23427332 0.79175705 11 4 C11.25 7.1875 11.25 7.1875 11 10 C9.730447 10.64834654 8.45930294 11.29357815 7.1875 11.9375 C6.47980469 12.29714844 5.77210938 12.65679687 5.04296875 13.02734375 C1.64889489 14.64326037 -0.97503621 15.11630382 -4.6875 15.0625 C-5.89986328 15.04896484 -5.89986328 15.04896484 -7.13671875 15.03515625 C-8.05904297 15.01775391 -8.05904297 15.01775391 -9 15 C-9.33 14.01 -9.66 13.02 -10 12 C-9.11957031 11.96261719 -8.23914063 11.92523438 -7.33203125 11.88671875 C-5.58986328 11.78810547 -5.58986328 11.78810547 -3.8125 11.6875 C-2.08966797 11.60048828 -2.08966797 11.60048828 -0.33203125 11.51171875 C3.14680104 10.97745494 5.14531638 10.0052674 8 8 C7.96044102 6.07690578 7.96044102 6.07690578 7 4 C4.01647106 2.21620585 4.01647106 2.21620585 1 1 C1 2.98 1 4.96 1 7 C0.67 7 0.34 7 0 7 C0 4.69 0 2.38 0 0 Z " fill="#29333D" transform="translate(136,43)"/>
<path d="M0 0 C4.21926474 0.78497949 6.44690781 2.04918703 8.875 5.5 C11.60369798 10.24252939 11.49173536 14.66740323 11 20 C10.34 20 9.68 20 9 20 C8.67 21.65 8.34 23.3 8 25 C7.67 25 7.34 25 7 25 C6.97421875 24.0821875 6.9484375 23.164375 6.921875 22.21875 C6.49658846 13.01709576 5.09750323 7.64625485 0 0 Z " fill="#92A0B0" transform="translate(183,59)"/>
<path d="M0 0 C2.475 0.495 2.475 0.495 5 1 C5.176521 1.62044189 5.35304199 2.24088379 5.53491211 2.88012695 C6.33508216 5.69111565 7.13627934 8.50181058 7.9375 11.3125 C8.21529297 12.28896484 8.49308594 13.26542969 8.77929688 14.27148438 C9.04677734 15.20927734 9.31425781 16.14707031 9.58984375 17.11328125 C9.83597412 17.97735596 10.08210449 18.84143066 10.33569336 19.73168945 C10.85330491 21.49910178 11.41761971 23.25285912 12 25 C9 24 9 24 7.4375 21.5 C5.99228957 17.98122678 5.15079999 14.67254734 4.4296875 10.953125 C4.06898443 8.93414347 4.06898443 8.93414347 3 7 C2.01 6.67 1.02 6.34 0 6 C0 4.02 0 2.04 0 0 Z " fill="#9BE2FA" transform="translate(91,146)"/>
<path d="M0 0 C3.02054802 3.02054802 2.69173719 6.67483307 3.0625 10.75 C3.21854184 12.34910642 3.37606455 13.94806912 3.53515625 15.546875 C3.61008301 16.30677734 3.68500977 17.06667969 3.76220703 17.84960938 C4.06492418 20.58711724 4.50625544 23.29095904 5 26 C4.34 26 3.68 26 3 26 C2.51801537 24.75108386 2.03954323 23.50081192 1.5625 22.25 C1.29566406 21.55390625 1.02882813 20.8578125 0.75390625 20.140625 C-0.59022563 16.32412619 -1.13737135 13.05780212 -1.125 9 C-1.12757812 8.154375 -1.13015625 7.30875 -1.1328125 6.4375 C-1.00833711 4.15301056 -0.63877457 2.19008426 0 0 Z " fill="#63BEDD" transform="translate(99,144)"/>
<path d="M0 0 C0.66 0 1.32 0 2 0 C1.731875 0.66 1.46375 1.32 1.1875 2 C0.795625 2.99 0.40375 3.98 0 5 C-0.72703125 6.77890625 -0.72703125 6.77890625 -1.46875 8.59375 C-3.17368902 13.1499896 -3.97259439 17.70270987 -4.6875 22.5 C-4.81705078 23.32242188 -4.94660156 24.14484375 -5.08007812 24.9921875 C-5.39425694 26.99362288 -5.69821457 28.99665842 -6 31 C-7.32 31.33 -8.64 31.66 -10 32 C-9.67 31.34 -9.34 30.68 -9 30 C-8.34 30 -7.68 30 -7 30 C-7.05220703 29.03513672 -7.05220703 29.03513672 -7.10546875 28.05078125 C-7.39333662 18.44147756 -6.63767088 7.49414454 0 0 Z " fill="#313C42" transform="translate(76,91)"/>
<path d="M0 0 C0.33 0 0.66 0 1 0 C1.33 2.64 1.66 5.28 2 8 C2.66 8 3.32 8 4 8 C4.12375 9.134375 4.2475 10.26875 4.375 11.4375 C4.58125 12.613125 4.7875 13.78875 5 15 C5.66 15.33 6.32 15.66 7 16 C3.13190013 15.4474143 1.66684951 13.74528626 -1 11 C-2.97630407 9.63178949 -4.97209016 8.29048808 -7 7 C-3.375 4 -3.375 4 0 4 C0 2.68 0 1.36 0 0 Z " fill="#BBE4F0" transform="translate(76,168)"/>
<path d="M0 0 C2.31 0.33 4.62 0.66 7 1 C7 4.3 7 7.6 7 11 C4.69 10.67 2.38 10.34 0 10 C0 6.7 0 3.4 0 0 Z " fill="#A1B0BF" transform="translate(127,39)"/>
<path d="M0 0 C2.44839588 3.67259383 4 6.54648201 4 11 C4.99 11 5.98 11 7 11 C7 11.99 7 12.98 7 14 C5.35 14.66 3.7 15.32 2 16 C1.79503906 15.43410156 1.59007813 14.86820313 1.37890625 14.28515625 C1.10949219 13.55167969 0.84007813 12.81820312 0.5625 12.0625 C0.29566406 11.33160156 0.02882813 10.60070312 -0.24609375 9.84765625 C-0.85386948 8.01694322 -0.85386948 8.01694322 -2 7 C-2.04063832 5.33382885 -2.042721 3.66611905 -2 2 C-1.34 2 -0.68 2 0 2 C0 1.34 0 0.68 0 0 Z " fill="#A0DBF2" transform="translate(94,160)"/>
<path d="M0 0 C4.7995185 4.01564299 6.59905481 11.29896752 7.25390625 17.34375 C7.25 19.25 7.25 19.25 7 22 C6.01 22 5.02 22 4 22 C3.79503906 20.83082031 3.59007812 19.66164063 3.37890625 18.45703125 C3.10680145 16.90884878 2.83466433 15.360672 2.5625 13.8125 C2.42779297 13.04357422 2.29308594 12.27464844 2.15429688 11.48242188 C1.47910296 7.64534426 0.78767223 3.81600432 0 0 Z " fill="#E3F0F2" transform="translate(196,55)"/>
<path d="M0 0 C4.81265042 -0.6015813 7.2776214 -0.18879636 11.25 2.6875 C14.22384998 5.13587358 16.52600927 7.36415619 18 11 C17.67 11.99 17.34 12.98 17 14 C16.443125 13.236875 15.88625 12.47375 15.3125 11.6875 C13.00585871 9.00680877 11.04466712 7.71750453 8 6 C7.505 5.484375 7.01 4.96875 6.5 4.4375 C4.5540185 2.57260106 2.51952188 1.88523742 0 1 C0 0.67 0 0.34 0 0 Z " fill="#909FAA" transform="translate(182,44)"/>
<path d="M0 0 C0.66 0.33 1.32 0.66 2 1 C-6.07744875 8.85193622 -6.07744875 8.85193622 -12 9 C-11.67 7.68 -11.34 6.36 -11 5 C-12.32 5.33 -13.64 5.66 -15 6 C-14.67 5.34 -14.34 4.68 -14 4 C-11.85465269 3.39734195 -9.6818631 2.89047375 -7.5 2.4375 C-3.4304541 1.89331558 -3.4304541 1.89331558 0 0 Z " fill="#576C7D" transform="translate(198,100)"/>
<path d="M0 0 C1.65 0 3.3 0 5 0 C4.01 0.33 3.02 0.66 2 1 C3.20262116 4.60786349 3.80847547 4.54025471 7 6.25 C10.33215016 8.56827529 10.92915624 9.61524512 11.6796875 13.69140625 C11.86702864 16.40915372 11.87809616 19.10895602 11.8671875 21.83203125 C11.91101563 22.87746094 11.95484375 23.92289063 12 25 C12.66 25.33 13.32 25.66 14 26 C12.68 26.33 11.36 26.66 10 27 C10.04833984 25.37191406 10.04833984 25.37191406 10.09765625 23.7109375 C10.42909868 15.61415743 10.42909868 15.61415743 6.9296875 8.77734375 C4.48878926 7.27235303 4.48878926 7.27235303 1.93359375 6.23828125 C1.29550781 5.82964844 0.65742188 5.42101563 0 5 C-0.27734375 2.35546875 -0.27734375 2.35546875 0 0 Z " fill="#E9EFF2" transform="translate(138,37)"/>
<path d="M0 0 C0.66 0.99 1.32 1.98 2 3 C2.66 3.66 3.32 4.32 4 5 C4.66 5 5.32 5 6 5 C5.67506385 8.5742977 5.36129314 10.55712453 3.0625 13.375 C1 15 1 15 -1 15 C-0.67 10.05 -0.34 5.1 0 0 Z " fill="#5D6F7E" transform="translate(183,77)"/>
<path d="M0 0 C2.0625 0.4375 2.0625 0.4375 4 1 C4 2.98 4 4.96 4 7 C4.66 7.33 5.32 7.66 6 8 C6 9.32 6 10.64 6 12 C3.13496932 10.7156759 0.84572295 9.58401213 -1 7 C-1.25 3.875 -1.25 3.875 -1 1 C-0.67 0.67 -0.34 0.34 0 0 Z " fill="#54626D" transform="translate(65,123)"/>
<path d="M0 0 C0.33 0 0.66 0 1 0 C1.34615998 5.65394631 0.43425238 9.03006806 -2 14 C-2.99 14 -3.98 14 -5 14 C-5.33 13.01 -5.66 12.02 -6 11 C-6.99 10.67 -7.98 10.34 -9 10 C-7.17484501 7.88666264 -6.07229856 7.02409952 -3.375 6.125 C-2.59125 5.75375 -1.8075 5.3825 -1 5 C-0.10613836 2.45224694 -0.10613836 2.45224694 0 0 Z " fill="#8598A7" transform="translate(181,78)"/>
<path d="M0 0 C-3.51842707 2.08304886 -6.8496079 2.5796243 -10.875 3.125 C-12.66550781 3.37636719 -12.66550781 3.37636719 -14.4921875 3.6328125 C-17.69601023 3.96817924 -20.7823334 4.06887971 -24 4 C-24 3.34 -24 2.68 -24 2 C-15.96235969 -0.07422976 -8.27015524 -0.2144997 0 0 Z " fill="#212D38" transform="translate(156,97)"/>
<path d="M0 0 C0.66 0.33 1.32 0.66 2 1 C1.66226563 1.51949219 1.32453125 2.03898437 0.9765625 2.57421875 C-1.39891701 6.28848007 -3.55762815 9.80400915 -5 14 C-2.36 14 0.28 14 3 14 C3 14.33 3 14.66 3 15 C-3.02596573 16.0712828 -8.88909517 16.09945415 -15 16 C-15 15.67 -15 15.34 -15 15 C-12.36 14.67 -9.72 14.34 -7 14 C-6.74605469 13.32453125 -6.49210938 12.6490625 -6.23046875 11.953125 C-5.71419922 10.61507812 -5.71419922 10.61507812 -5.1875 9.25 C-4.85105469 8.36828125 -4.51460937 7.4865625 -4.16796875 6.578125 C-3.03153178 4.06960192 -1.73457073 2.12720995 0 0 Z " fill="#19252D" transform="translate(170,48)"/>
<path d="M0 0 C0 1.65 0 3.3 0 5 C-1.32 5 -2.64 5 -4 5 C-3.67 5.99 -3.34 6.98 -3 8 C-4.9375 8.5625 -4.9375 8.5625 -7 9 C-8 8 -8 8 -8.375 5.625 C-8 3 -8 3 -5.6875 1.1875 C-3 0 -3 0 0 0 Z " fill="#C8D1D9" transform="translate(125,44)"/>
<path d="M0 0 C0.33 0 0.66 0 1 0 C1.14525497 8.05358138 0.71413279 15.97875848 0 24 C-2.31 24.33 -4.62 24.66 -7 25 C-5.74458443 22.48916886 -4.49936512 22.12874554 -2 21 C-2.04125 19.7625 -2.0825 18.525 -2.125 17.25 C-2.14371192 11.38381252 -1.08918033 5.74737122 0 0 Z " fill="#D8E0E5" transform="translate(114,47)"/>
<path d="M0 0 C-2 3 -2 3 -4.8203125 3.73046875 C-6.45613281 3.95669922 -6.45613281 3.95669922 -8.125 4.1875 C-9.22070312 4.34605469 -10.31640625 4.50460938 -11.4453125 4.66796875 C-12.70988281 4.83232422 -12.70988281 4.83232422 -14 5 C-14 5.99 -14 6.98 -14 8 C-15.32 7.34 -16.64 6.68 -18 6 C-11.82554279 1.09546662 -7.9201007 -0.75429531 0 0 Z " fill="#556069" transform="translate(188,41)"/>
<path d="M0 0 C0.66 0 1.32 0 2 0 C1.71114695 5.77706101 -0.93157654 10.01254019 -5 14 C-5.99 14 -6.98 14 -8 14 C-6.34697456 10.41844487 -4.18447628 7.27671443 -2 4 C-1.30570621 2.6808418 -0.62469505 1.35350594 0 0 Z " fill="#2D3A45" transform="translate(203,93)"/>
<path d="M0 0 C4.29 0.33 8.58 0.66 13 1 C11.68 1.33 10.36 1.66 9 2 C9 2.66 9 3.32 9 4 C7 6 7 6 3.375 6.125 C2.26125 6.08375 1.1475 6.0425 0 6 C0 4.02 0 2.04 0 0 Z " fill="#BAC2C9" transform="translate(103,28)"/>
<path d="M0 0 C3.00198845 3.00198845 3.95992537 4.95805953 4.125 9.25 C4.08375 10.1575 4.0425 11.065 4 12 C2.35 12.66 0.7 13.32 -1 14 C-1.99 13.01 -2.98 12.02 -4 11 C-2.68 10.34 -1.36 9.68 0 9 C-0.33 8.34 -0.66 7.68 -1 7 C-0.71758117 4.6599583 -0.38749213 2.32495277 0 0 Z " fill="#596876" transform="translate(102,122)"/>
<path d="M0 0 C-0.33 1.65 -0.66 3.3 -1 5 C-2.65 5.33 -4.3 5.66 -6 6 C-6 5.01 -6 4.02 -6 3 C-7.65 3 -9.3 3 -11 3 C-11.33 2.34 -11.66 1.68 -12 1 C-8.0186217 -0.3271261 -4.14954773 -0.06915913 0 0 Z " fill="#D3DAE0" transform="translate(112,77)"/>
<path d="M0 0 C0.66 0.33 1.32 0.66 2 1 C1.401875 2.010625 0.80375 3.02125 0.1875 4.0625 C-1.84675778 7.60978225 -3.45554069 11.21607469 -5 15 C-8.63 15 -12.26 15 -16 15 C-16 14.67 -16 14.34 -16 14 C-15.40832031 13.97164062 -14.81664062 13.94328125 -14.20703125 13.9140625 C-11.50743014 13.58817264 -9.4673352 13.16743041 -7 12 C-5.22774188 9.52727796 -4.11412439 7.12730316 -2.97265625 4.3125 C-2 2 -2 2 0 0 Z " fill="#D9E0E4" transform="translate(168,48)"/>
<path d="M0 0 C0.99 0.33 1.98 0.66 3 1 C3 1.66 3 2.32 3 3 C3.33 3.33 3.66 3.66 4 4 C3.71269945 6.33944736 3.38063221 8.6739143 3 11 C1.68 11 0.36 11 -1 11 C-1.66 10.34 -2.32 9.68 -3 9 C-3 8.01 -3 7.02 -3 6 C-2.34 6 -1.68 6 -1 6 C-0.67 4.02 -0.34 2.04 0 0 Z " fill="#C4CDD1" transform="translate(75,101)"/>
<path d="M0 0 C0.33 0.66 0.66 1.32 1 2 C1.66 2 2.32 2 3 2 C3 3.98 3 5.96 3 8 C3.99 8 4.98 8 6 8 C5.67 9.32 5.34 10.64 5 12 C4.01 12 3.02 12 2 12 C1.67 13.98 1.34 15.96 1 18 C0.67 18 0.34 18 0 18 C-0.19392201 12.47322267 0.2520497 8.24385089 2 3 C1.34 3 0.68 3 0 3 C0 2.01 0 1.02 0 0 Z " fill="#549EBB" transform="translate(69,152)"/>
<path d="M0 0 C-3.07150755 2.55227651 -5.98525624 3.88776704 -9.75 5.1875 C-10.73484375 5.53167969 -11.7196875 5.87585938 -12.734375 6.23046875 C-13.48203125 6.48441406 -14.2296875 6.73835938 -15 7 C-15.33 6.01 -15.66 5.02 -16 4 C-13.90049414 3.13444052 -11.7952093 2.28288723 -9.6875 1.4375 C-8.51574219 0.96183594 -7.34398438 0.48617187 -6.13671875 -0.00390625 C-3 -1 -3 -1 0 0 Z " fill="#525B65" transform="translate(113,72)"/>
<path d="M0 0 C0.66 0.66 1.32 1.32 2 2 C0.18884044 3.81115956 -2.61278227 3.38199448 -5.0625 3.5625 C-6.16722656 3.64628906 -7.27195313 3.73007812 -8.41015625 3.81640625 C-9.26480469 3.87699219 -10.11945313 3.93757813 -11 4 C-11 3.01 -11 2.02 -11 1 C-6.94214651 -1.02892674 -4.3831949 -1.16885197 0 0 Z " fill="#B3C2CE" transform="translate(185,45)"/>
<path d="M0 0 C0.99 0 1.98 0 3 0 C2.67 2.97 2.34 5.94 2 9 C0.68 9.33 -0.64 9.66 -2 10 C-1.125 2.25 -1.125 2.25 0 0 Z " fill="#71C7EB" transform="translate(71,164)"/>
<path d="M0 0 C0.28875 0.61875 0.5775 1.2375 0.875 1.875 C1.93720042 4.13325765 1.93720042 4.13325765 4 6 C3.625 9.125 3.625 9.125 3 12 C2.01 12 1.02 12 0 12 C0 10.02 0 8.04 0 6 C-0.66 6 -1.32 6 -2 6 C-1.34 4.02 -0.68 2.04 0 0 Z " fill="#68C3EC" transform="translate(72,148)"/>
<path d="M0 0 C-2 3 -2 3 -4.06640625 3.546875 C-9.8960029 4.02127097 -15.20782085 3.8408002 -21 3 C-21 2.67 -21 2.34 -21 2 C-18.43795456 1.66280953 -15.87545682 1.33012847 -13.3125 1 C-12.59126953 0.90460938 -11.87003906 0.80921875 -11.12695312 0.7109375 C-7.39007129 0.23316265 -3.77708469 -0.11919794 0 0 Z " fill="#343F4B" transform="translate(168,94)"/>
<path d="M0 0 C4.29 0.33 8.58 0.66 13 1 C13.33 1.99 13.66 2.98 14 4 C10.7 4 7.4 4 4 4 C4 3.01 4 2.02 4 1 C2.68 0.67 1.36 0.34 0 0 Z " fill="#9DA0B0" transform="translate(76,135)"/>
<path d="M0 0 C0 0.99 0 1.98 0 3 C-3.68766192 4.18005182 -7.15110517 4.20993972 -11 4 C-11.99 3.34 -12.98 2.68 -14 2 C-12.4176994 1.66179834 -10.83410625 1.32964061 -9.25 1 C-8.36828125 0.814375 -7.4865625 0.62875 -6.578125 0.4375 C-4 0 -4 0 0 0 Z " fill="#38434C" transform="translate(132,99)"/>
<path d="M0 0 C5.3074758 -0.50547389 7.82331859 0.77256437 12 4 C12.66 4.66 13.32 5.32 14 6 C13.67 6.99 13.34 7.98 13 9 C12.34 8.4225 11.68 7.845 11 7.25 C7.52344894 4.64258671 3.92430901 2.83069502 0 1 C0 0.67 0 0.34 0 0 Z " fill="#3F4D56" transform="translate(184,42)"/>
<path d="M0 0 C0.99 0 1.98 0 3 0 C3.99 2.64 4.98 5.28 6 8 C5.01 8 4.02 8 3 8 C3 8.66 3 9.32 3 10 C2.34 10 1.68 10 1 10 C0.67 6.7 0.34 3.4 0 0 Z " fill="#9BE1FA" transform="translate(87,168)"/>
<path d="M0 0 C2.97 0 5.94 0 9 0 C8.67 3.63 8.34 7.26 8 11 C7.67 11 7.34 11 7 11 C7 8.36 7 5.72 7 3 C5.02 3 3.04 3 1 3 C0.67 2.01 0.34 1.02 0 0 Z " fill="#748595" transform="translate(127,37)"/>
<path d="M0 0 C1.65 1.65 3.3 3.3 5 5 C4.67 5.66 4.34 6.32 4 7 C3.34 6.67 2.68 6.34 2 6 C2 5.34 2 4.68 2 4 C1.34 4 0.68 4 0 4 C0.33 5.98 0.66 7.96 1 10 C0.34 9.67 -0.32 9.34 -1 9 C-1 8.34 -1 7.68 -1 7 C-1.66 7 -2.32 7 -3 7 C-3.33 5.68 -3.66 4.36 -4 3 C-2.68 2.67 -1.36 2.34 0 2 C0 1.34 0 0.68 0 0 Z " fill="#9AA7AE" transform="translate(182,61)"/>
<path d="M0 0 C0.99 1.485 0.99 1.485 2 3 C2.66 3 3.32 3 4 3 C4 7.95 4 12.9 4 18 C3.67 18 3.34 18 3 18 C2.67 14.37 2.34 10.74 2 7 C1.34 7 0.68 7 0 7 C0 4.69 0 2.38 0 0 Z " fill="#4695B2" transform="translate(78,164)"/>
<path d="M0 0 C1.32 0 2.64 0 4 0 C3.34 4.29 2.68 8.58 2 13 C0 11 0 11 -0.1953125 8.3984375 C-0.17210938 7.40070313 -0.14890625 6.40296875 -0.125 5.375 C-0.10695313 4.37210938 -0.08890625 3.36921875 -0.0703125 2.3359375 C-0.04710938 1.56507813 -0.02390625 0.79421875 0 0 Z " fill="#83CCE9" transform="translate(78,141)"/>
<path d="M0 0 C1.15837573 3.47512718 0.77265943 5.13670286 0.0625 8.6875 C-0.13214844 9.68136719 -0.32679687 10.67523438 -0.52734375 11.69921875 C-0.68332031 12.45847656 -0.83929688 13.21773437 -1 14 C-2.0952677 11.90584815 -2.96215777 10.21443933 -3.375 7.875 C-3.84540342 5.78940378 -3.84540342 5.78940378 -6.0625 4.75 C-6.701875 4.5025 -7.34125 4.255 -8 4 C-6.865625 3.71125 -5.73125 3.4225 -4.5625 3.125 C-3.386875 2.75375 -2.21125 2.3825 -1 2 C-0.67 1.34 -0.34 0.68 0 0 Z " fill="#79C9EB" transform="translate(99,141)"/>
<path d="M0 0 C0.66 0 1.32 0 2 0 C2 2.97 2 5.94 2 9 C1.34 9 0.68 9 0 9 C-0.33 10.32 -0.66 11.64 -1 13 C-2.51403812 8.15507803 -1.36602172 4.7408989 0 0 Z " fill="#96E3FC" transform="translate(76,141)"/>
<path d="M0 0 C0.66 0.33 1.32 0.66 2 1 C2.3911938 3.06265822 2.50674519 5.09443267 2.65625 7.1875 C2.7696875 7.785625 2.883125 8.38375 3 9 C3.66 9.33 4.32 9.66 5 10 C1.73045798 9.43628586 0.17424117 8.50037734 -2 6 C-1.34 4.02 -0.68 2.04 0 0 Z " fill="#BAC6D5" transform="translate(70,120)"/>
<path d="M0 0 C0.93045933 2.55144824 1.08564091 3.74006478 0.22265625 6.359375 C-0.16019531 7.14828125 -0.54304687 7.9371875 -0.9375 8.75 C-1.31777344 9.54921875 -1.69804687 10.3484375 -2.08984375 11.171875 C-2.39019531 11.77515625 -2.69054687 12.3784375 -3 13 C-3.99 13 -4.98 13 -6 13 C-3.10933941 3.40546697 -3.10933941 3.40546697 0 0 Z " fill="#8E9BA6" transform="translate(171,49)"/>
<path d="M0 0 C0.66 0 1.32 0 2 0 C1.34 3.63 0.68 7.26 0 11 C0.66 11 1.32 11 2 11 C2.33 13.31 2.66 15.62 3 18 C2.67 17.34 2.34 16.68 2 16 C1.34 16 0.68 16 0 16 C-1.29758261 13.40483479 -1.13269102 11.45816973 -1.125 8.5625 C-1.12757812 7.59441406 -1.13015625 6.62632812 -1.1328125 5.62890625 C-1 3 -1 3 0 0 Z " fill="#67C1E2" transform="translate(78,160)"/>
<path d="M0 0 C0.66 1.32 1.32 2.64 2 4 C2.66 4 3.32 4 4 4 C4.99 7.3 5.98 10.6 7 14 C6.01 13.67 5.02 13.34 4 13 C3.3125 10.9375 3.3125 10.9375 3 9 C2.01 9 1.02 9 0 9 C0 6.03 0 3.06 0 0 Z " fill="#398BA9" transform="translate(87,155)"/>
<path d="M0 0 C1.03802575 3.70322699 1.5339961 7.44477189 2.0625 11.25 C2.23910156 12.51328125 2.41570312 13.7765625 2.59765625 15.078125 C2.73042969 16.04234375 2.86320312 17.0065625 3 18 C2.34 18 1.68 18 1 18 C-0.24200752 12.6822785 -1.30834212 7.41798672 -2 2 C-1.34 2 -0.68 2 0 2 C0 1.34 0 0.68 0 0 Z " fill="#609AAE" transform="translate(101,152)"/>
<path d="M0 0 C0.33 1.32 0.66 2.64 1 4 C-5.48071429 9.87785714 -5.48071429 9.87785714 -10 10 C-10.99 9.34 -11.98 8.68 -13 8 C-12.07767578 7.70996094 -12.07767578 7.70996094 -11.13671875 7.4140625 C-10.32847656 7.15367187 -9.52023438 6.89328125 -8.6875 6.625 C-7.88699219 6.36976563 -7.08648437 6.11453125 -6.26171875 5.8515625 C-3.77275472 5.01168189 -3.77275472 5.01168189 -1 3 C-0.67 2.01 -0.34 1.02 0 0 Z " fill="#223B4B" transform="translate(104,131)"/>
<path d="M0 0 C0.99 0.33 1.98 0.66 3 1 C3 3.64 3 6.28 3 9 C2.34 9 1.68 9 1 9 C0.67 10.65 0.34 12.3 0 14 C-0.33 14 -0.66 14 -1 14 C-1.02694851 12.04174127 -1.04637218 10.08337774 -1.0625 8.125 C-1.07410156 7.03445312 -1.08570313 5.94390625 -1.09765625 4.8203125 C-1 2 -1 2 0 0 Z " fill="#7A8B99" transform="translate(191,70)"/>
<path d="M0 0 C-5.48098416 3.50173988 -8.76986935 4.19642582 -15.25 3.5625 C-16.32765625 3.46066406 -17.4053125 3.35882813 -18.515625 3.25390625 C-19.33546875 3.17011719 -20.1553125 3.08632812 -21 3 C-21 2.67 -21 2.34 -21 2 C-20.11957031 1.95101562 -19.23914063 1.90203125 -18.33203125 1.8515625 C-17.17058594 1.77679688 -16.00914063 1.70203125 -14.8125 1.625 C-13.08966797 1.52058594 -13.08966797 1.52058594 -11.33203125 1.4140625 C-8.03100566 1.14819157 -8.03100566 1.14819157 -5.26171875 -0.1015625 C-3 -1 -3 -1 0 0 Z " fill="#3F4D5E" transform="translate(103,131)"/>
<path d="M0 0 C4.95 0 9.9 0 15 0 C12.65454672 2.34545328 11.04014162 2.95508888 7.73828125 3.09765625 C6.93777344 3.08605469 6.13726562 3.07445312 5.3125 3.0625 C4.10013672 3.04896484 4.10013672 3.04896484 2.86328125 3.03515625 C1.94095703 3.01775391 1.94095703 3.01775391 1 3 C0.67 2.01 0.34 1.02 0 0 Z " fill="#4E5A68" transform="translate(126,55)"/>
<path d="M0 0 C0.74886475 0.00523682 1.49772949 0.01047363 2.26928711 0.01586914 C3.07817383 0.0190918 3.88706055 0.02231445 4.72045898 0.02563477 C5.5705957 0.03401367 6.42073242 0.04239258 7.29663086 0.05102539 C8.15063477 0.05553711 9.00463867 0.06004883 9.88452148 0.06469727 C12.00108749 0.07652166 14.11761771 0.0944577 16.23413086 0.11352539 C16.23413086 0.44352539 16.23413086 0.77352539 16.23413086 1.11352539 C8.31413086 1.60852539 8.31413086 1.60852539 0.23413086 2.11352539 C-0.42586914 4.42352539 -1.08586914 6.73352539 -1.76586914 9.11352539 C-2.09586914 9.11352539 -2.42586914 9.11352539 -2.76586914 9.11352539 C-2.86352539 2.96118164 -2.86352539 2.96118164 -2.76586914 1.11352539 C-1.76586914 0.11352539 -1.76586914 0.11352539 0 0 Z " fill="#D7DBDE" transform="translate(103.765869140625,23.886474609375)"/>
<path d="M0 0 C-0.33 1.98 -0.66 3.96 -1 6 C-1.33 5.34 -1.66 4.68 -2 4 C-4.31 4.33 -6.62 4.66 -9 5 C-8.34 4.67 -7.68 4.34 -7 4 C-7 3.01 -7 2.02 -7 1 C-2.25 0 -2.25 0 0 0 Z " fill="#6FBDDD" transform="translate(99,140)"/>
<path d="M0 0 C4.44 -0.36 4.44 -0.36 6.75 1.125 C8.43985241 3.65977861 8.66730609 6.00575483 9 9 C8.01 9.495 8.01 9.495 7 10 C6.938125 8.8553125 6.938125 8.8553125 6.875 7.6875 C6.22176391 4.67594887 6.22176391 4.67594887 2.9375 3.1875 C1.968125 2.795625 0.99875 2.40375 0 2 C0 1.34 0 0.68 0 0 Z " fill="#C8D3DB" transform="translate(188,50)"/>
<path d="M0 0 C0.66 0 1.32 0 2 0 C2.433125 1.8253125 2.433125 1.8253125 2.875 3.6875 C3.67835792 6.91814648 4.66265409 9.94320935 6 13 C5.01 13 4.02 13 3 13 C-0.42857143 4.57142857 -0.42857143 4.57142857 0 0 Z " fill="#79C3E4" transform="translate(95,158)"/>
<path d="M0 0 C0.33 0.99 0.66 1.98 1 3 C0.01 3 -0.98 3 -2 3 C-2 3.66 -2 4.32 -2 5 C-5.3 5.33 -8.6 5.66 -12 6 C-7.85444988 2.89083741 -4.81249612 1.68437364 0 0 Z " fill="#9AA4AD" transform="translate(113,72)"/>
<path d="M0 0 C0.33 0 0.66 0 1 0 C1.05447047 1.41623216 1.09300508 2.83308191 1.125 4.25 C1.14820313 5.03890625 1.17140625 5.8278125 1.1953125 6.640625 C0.9828378 9.20731941 0.28654105 10.7916067 -1 13 C-1.66 12.34 -2.32 11.68 -3 11 C-2.01 7.37 -1.02 3.74 0 0 Z " fill="#3C4E58" transform="translate(206,81)"/>
<path d="M0 0 C2.1519437 3.22791555 2.20086443 4.28400809 2 8 C0.68 7.67 -0.64 7.34 -2 7 C-2 5.35 -2 3.7 -2 2 C-1.34 2 -0.68 2 0 2 C0 1.34 0 0.68 0 0 Z " fill="#9FE3FB" transform="translate(94,160)"/>
<path d="M0 0 C0.99 0.33 1.98 0.66 3 1 C3.33 1.99 3.66 2.98 4 4 C-0.455 4.495 -0.455 4.495 -5 5 C-3.35 3.35 -1.7 1.7 0 0 Z " fill="#889AA8" transform="translate(95,128)"/>
<path d="M0 0 C1.32 0.33 2.64 0.66 4 1 C3.67 2.32 3.34 3.64 3 5 C-0.37462715 4.45276317 -2.08235 3.9451 -5 2 C-3.35 2 -1.7 2 0 2 C0 1.34 0 0.68 0 0 Z " fill="#AAB8C0" transform="translate(78,128)"/>
<path d="M0 0 C-2.6598561 3.44216672 -5.90288286 3.99504674 -10 5 C-9 2 -9 2 -6.125 0.25 C-3 -1 -3 -1 0 0 Z " fill="#474F57" transform="translate(98,78)"/>
<path d="M0 0 C3.96 0 7.92 0 12 0 C7.60171741 2.1991413 4.81449408 2.51855059 0 3 C0 2.01 0 1.02 0 0 Z " fill="#96A0AC" transform="translate(148,65)"/>
<path d="M0 0 C-0.33 1.32 -0.66 2.64 -1 4 C-4.3 3.34 -7.6 2.68 -11 2 C-11 1.67 -11 1.34 -11 1 C-3.57142857 -1.42857143 -3.57142857 -1.42857143 0 0 Z " fill="#AAB3BD" transform="translate(182,58)"/>
<path d="M0 0 C3.68754757 0.49831724 5.60490662 1.10067643 8 4 C7.67 4.99 7.34 5.98 7 7 C6.566875 6.525625 6.13375 6.05125 5.6875 5.5625 C3.97690387 3.76313043 3.97690387 3.76313043 1 3 C0.67 3.99 0.34 4.98 0 6 C0 4.02 0 2.04 0 0 Z " fill="#A9B6C1" transform="translate(137,44)"/>
<path d="M0 0 C2.92879371 0.62759865 5.36095629 1.58622659 8 3 C8.33 2.34 8.66 1.68 9 1 C8.67 2.32 8.34 3.64 8 5 C3.48279689 5.36625971 3.48279689 5.36625971 1.1875 3.625 C0 2 0 2 0 0 Z " fill="#BAC3CA" transform="translate(111,75)"/>
<path d="M0 0 C2.475 0.495 2.475 0.495 5 1 C5.33 2.32 5.66 3.64 6 5 C4.35 5 2.7 5 1 5 C0.67 3.35 0.34 1.7 0 0 Z " fill="#E2F0F8" transform="translate(138,47)"/>
<path d="M0 0 C1.64826111 2.96687001 2.44271087 5.65626525 3 9 C3.99 9 4.98 9 6 9 C6 9.66 6 10.32 6 11 C5.01 11.33 4.02 11.66 3 12 C0.58314288 7.77050005 -0.34833144 4.87664009 0 0 Z " fill="#94A3B3" transform="translate(183,71)"/>
<path d="M0 0 C0.66 0.33 1.32 0.66 2 1 C1.20890398 2.27118864 0.41709922 3.54193623 -0.375 4.8125 C-0.81585938 5.52019531 -1.25671875 6.22789063 -1.7109375 6.95703125 C-2.78188476 8.65432039 -3.88676239 10.33014358 -5 12 C-5.33 11.34 -5.66 10.68 -6 10 C-5.29296875 8.125 -5.29296875 8.125 -4.1875 6 C-3.83042969 5.29875 -3.47335938 4.5975 -3.10546875 3.875 C-2 2 -2 2 0 0 Z " fill="#2E3942" transform="translate(170,48)"/>
<path d="M0 0 C2.29633824 3.44450737 2.54016485 5.93812283 3 10 C2.01 10 1.02 10 0 10 C0 6.7 0 3.4 0 0 Z " fill="#7EC0DC" transform="translate(85,168)"/>
<path d="M0 0 C0.66 0 1.32 0 2 0 C2.33 1.32 2.66 2.64 3 4 C2.01 4.33 1.02 4.66 0 5 C0 5.99 0 6.98 0 8 C-0.66 7.67 -1.32 7.34 -2 7 C-1.34 4.69 -0.68 2.38 0 0 Z " fill="#A5E1F2" transform="translate(83,175)"/>
<path d="M0 0 C2.97 0.495 2.97 0.495 6 1 C3.60490662 3.89932357 1.68754757 4.50168276 -2 5 C-1.01 4.01 -0.02 3.02 1 2 C0.67 1.34 0.34 0.68 0 0 Z " fill="#6B7A89" transform="translate(95,134)"/>
<path d="M0 0 C0.33 0 0.66 0 1 0 C1 2.64 1 5.28 1 8 C0.01 8 -0.98 8 -2 8 C-2.33 6.68 -2.66 5.36 -3 4 C-2.34 3.67 -1.68 3.34 -1 3 C-0.67 2.01 -0.34 1.02 0 0 Z " fill="#B5C3D1" transform="translate(188,72)"/>
<path d="M0 0 C0.99 0 1.98 0 3 0 C3.28875 0.61875 3.5775 1.2375 3.875 1.875 C4.93720042 4.13325765 4.93720042 4.13325765 7 6 C3 6 3 6 1.25 4.6875 C0 3 0 3 0 0 Z " fill="#6DBFDF" transform="translate(87,164)"/>
<path d="M0 0 C0.33 0.66 0.66 1.32 1 2 C0.0625 4.625 0.0625 4.625 -1 7 C-1.99 7 -2.98 7 -4 7 C-2.92598892 4.08482708 -2.22189824 2.22189824 0 0 Z " fill="#B1BCC2" transform="translate(79,91)"/>
<path d="M0 0 C0.33 1.32 0.66 2.64 1 4 C-0.32 4.99 -1.64 5.98 -3 7 C-3.66 6.34 -4.32 5.68 -5 5 C-3.35 3.35 -1.7 1.7 0 0 Z " fill="#535D65" transform="translate(81,85)"/>
<path d="M0 0 C2.9375 0.75 2.9375 0.75 6 2 C6.875 4.125 6.875 4.125 7 6 C6.01 6 5.02 6 4 6 C1.8125 3 1.8125 3 0 0 Z " fill="#8F9AA6" transform="translate(183,59)"/>
<path d="M0 0 C1.65 0 3.3 0 5 0 C4.01 0.33 3.02 0.66 2 1 C2.7763932 4.0745356 2.7763932 4.0745356 5 6 C3.35 5.67 1.7 5.34 0 5 C0 3.35 0 1.7 0 0 Z " fill="#F7F9FC" transform="translate(138,37)"/>
<path d="M0 0 C6.75 -0.125 6.75 -0.125 9 1 C9 1.66 9 2.32 9 3 C7.35 3 5.7 3 4 3 C4 2.34 4 1.68 4 1 C2.68 0.67 1.36 0.34 0 0 Z " fill="#91A1AA" transform="translate(76,135)"/>
<path d="M0 0 C3 2 3 2 3.8125 4.5 C3.874375 5.325 3.93625 6.15 4 7 C3.34 7.66 2.68 8.32 2 9 C0.14223235 5.86501708 -0.20140476 3.62528568 0 0 Z " fill="#A6B3BC" transform="translate(70,115)"/>
<path d="M0 0 C0.33 0.66 0.66 1.32 1 2 C1.66 2 2.32 2 3 2 C3 3.65 3 5.3 3 7 C2.01 7 1.02 7 0 7 C0 4.69 0 2.38 0 0 Z " fill="#F0F9FD" transform="translate(200,70)"/>
<path d="M0 0 C-1 3 -1 3 -3.9375 4.625 C-4.948125 5.07875 -5.95875 5.5325 -7 6 C-7.99 6.495 -7.99 6.495 -9 7 C-7.4576387 2.93377477 -4.5679954 0 0 0 Z " fill="#E7EDEE" transform="translate(124,40)"/>
</svg>
