<?xml version="1.0" encoding="UTF-8"?>
<svg version="1.1" xmlns="http://www.w3.org/2000/svg" width="512" height="512">
<path d="M0 0 C110.22 0 220.44 0 334 0 C334 20.79 334 41.58 334 63 C308.59 63 283.18 63 257 63 C257 74.55 257 86.1 257 98 C250.73 98 244.46 98 238 98 C238 112.19 238 126.38 238 141 C270.01 141 302.02 141 335 141 C335 131.43 335 121.86 335 112 C338 108 338 108 341 107 C345.11195044 106.77335165 349.22404472 106.77174745 353.34179688 106.75976562 C355.36109726 106.75006678 357.37937612 106.71903244 359.3984375 106.6875 C360.6771875 106.68234375 361.9559375 106.6771875 363.2734375 106.671875 C364.44310059 106.6625293 365.61276367 106.65318359 366.81787109 106.64355469 C370.32590879 107.03650659 372.19317412 107.89759976 375 110 C376.43509221 112.87018441 376.11158506 115.33543723 376.09765625 118.5390625 C376.09515869 119.71162598 376.09266113 120.88418945 376.09008789 122.09228516 C376.07643188 124.335979 376.07643188 124.335979 376.0625 126.625 C376.041875 131.36875 376.02125 136.1125 376 141 C389.2 141 402.4 141 416 141 C416 160.14 416 179.28 416 199 C402.8 199 389.6 199 376 199 C376.15802031 208.36423689 376.15802031 208.36423689 376.36035156 217.72753906 C376.3703418 218.89510742 376.38033203 220.06267578 376.390625 221.265625 C376.41157227 222.45961914 376.43251953 223.65361328 376.45410156 224.88378906 C376 228 376 228 374.44238281 230.38769531 C371.1737143 232.54546089 368.32290506 232.57583161 364.53125 232.53125 C363.813927 232.5350769 363.096604 232.53890381 362.35754395 232.54284668 C360.84463086 232.54556227 359.33167055 232.53822555 357.81884766 232.52148438 C355.50707024 232.50006551 353.19839987 232.52129351 350.88671875 232.546875 C349.41405566 232.54423166 347.9413945 232.53910653 346.46875 232.53125 C345.78010864 232.53934692 345.09146729 232.54744385 344.38195801 232.55578613 C339.28268209 232.45648461 338.93491295 231.93491295 335 228 C335 218.43 335 208.86 335 199 C302.99 199 270.98 199 238 199 C238.02094727 207.28343506 238.04189453 215.56687012 238.06347656 224.10131836 C238.12769557 250.61437265 238.17217803 277.12742486 238.20426132 303.64053636 C238.20926406 307.75978811 238.21444136 311.87903962 238.21972656 315.99829102 C238.2207758 316.81834928 238.22182505 317.63840755 238.22290608 318.48331607 C238.24030461 331.75628491 238.27183925 345.02918435 238.30861118 358.30211204 C238.34603599 371.92445065 238.36823911 385.54675296 238.37635398 399.16914088 C238.38183857 407.57284545 238.39915228 415.97635385 238.43166587 424.37999804 C238.45283278 430.14508048 238.45919513 435.91006172 238.45400551 441.67518019 C238.45144702 444.99996832 238.45752581 448.32413834 238.4768219 451.64891243 C238.49674466 455.25876268 238.49192973 458.86777595 238.48101807 462.47764587 C238.49266943 463.52144108 238.5043208 464.56523629 238.51632524 465.64066166 C238.44124817 474.83985989 235.4131147 483.23060115 229 490 C221.34118397 496.15541881 214.53836952 498.30095937 204.83276367 498.29052734 C203.92950851 498.29724457 203.02625336 498.30396179 202.09562683 498.31088257 C199.11968431 498.32982716 196.14396776 498.33378504 193.16796875 498.3359375 C191.09060067 498.34236807 189.0132335 498.34909663 186.93586731 498.35610962 C182.58409527 498.36807368 178.23240256 498.37179135 173.88061523 498.37060547 C168.31904717 498.37040238 162.75799063 498.39769866 157.19654369 498.43214989 C152.90612984 498.45444672 148.61583854 498.45844214 144.3253727 498.45738602 C142.27576244 498.459738 140.2261486 498.4685387 138.17659569 498.48405075 C135.30251172 498.50376612 132.42952359 498.49785079 129.55541992 498.48583984 C128.71823425 498.49707886 127.88104858 498.50831787 127.01849365 498.51989746 C118.47245093 498.42967633 110.23718665 494.90891367 104 489 C96.84811079 480.101336 95.70568244 472.57662124 95.8046875 461.3828125 C95.80670166 460.30765381 95.80871582 459.23249512 95.81079102 458.12475586 C95.82122153 454.12479358 95.84914405 450.12489231 95.875 446.125 C95.91625 437.17375 95.9575 428.2225 96 419 C63.99 419 31.98 419 -1 419 C-1 428.57 -1 438.14 -1 448 C-6 453 -6 453 -9.44165039 453.63110352 C-10.73063232 453.63037842 -12.01961426 453.62965332 -13.34765625 453.62890625 C-14.04136826 453.63131821 -14.73508026 453.63373016 -15.44981384 453.63621521 C-16.90971622 453.63523968 -18.36965693 453.62191574 -19.8293457 453.59692383 C-22.06003612 453.56253798 -24.28677686 453.57629203 -26.51757812 453.59570312 C-27.94012097 453.58880579 -29.36265363 453.5791344 -30.78515625 453.56640625 C-32.07301025 453.55552979 -33.36086426 453.54465332 -34.68774414 453.53344727 C-38 453 -38 453 -40.42651367 451.39916992 C-42.56330439 448.14110283 -42.45636246 445.92538533 -42.390625 442.046875 C-42.38063477 440.83870117 -42.37064453 439.63052734 -42.36035156 438.38574219 C-42.30572754 436.0910498 -42.30572754 436.0910498 -42.25 433.75 C-42.12625 426.44875 -42.12625 426.44875 -42 419 C-55.2 419 -68.4 419 -82 419 C-82 399.86 -82 380.72 -82 361 C-68.8 361 -55.6 361 -42 361 C-42.15802031 351.63576311 -42.15802031 351.63576311 -42.36035156 342.27246094 C-42.3703418 341.10489258 -42.38033203 339.93732422 -42.390625 338.734375 C-42.41157227 337.54038086 -42.43251953 336.34638672 -42.45410156 335.11621094 C-42 332 -42 332 -40.42651367 329.61450195 C-37.11036793 327.40807558 -34.75276119 327.46710183 -30.78515625 327.43359375 C-30.09240097 327.42739517 -29.39964569 327.42119659 -28.68589783 327.41481018 C-27.22428794 327.40772343 -25.76259713 327.41086627 -24.30102539 327.42358398 C-22.0722082 327.43743965 -19.84760252 327.40338875 -17.61914062 327.36523438 C-16.19531148 327.36428295 -14.77147711 327.36614329 -13.34765625 327.37109375 C-12.05867432 327.37036865 -10.76969238 327.36964355 -9.44165039 327.36889648 C-6 328 -6 328 -1 333 C-1 342.24 -1 351.48 -1 361 C31.01 361 63.02 361 96 361 C96 274.21 96 187.42 96 98 C89.73 98 83.46 98 77 98 C77 86.45 77 74.9 77 63 C51.59 63 26.18 63 0 63 C0 42.21 0 21.42 0 0 Z " fill="#86DAD4" transform="translate(89,7)"/>
<path d="M0 0 C110.22 0 220.44 0 334 0 C334 20.79 334 41.58 334 63 C223.78 63 113.56 63 0 63 C0 42.21 0 21.42 0 0 Z " fill="#5A6EA2" transform="translate(89,7)"/>
<path d="M0 0 C0.69275528 -0.00619858 1.38551056 -0.01239716 2.09925842 -0.01878357 C3.56086831 -0.02587032 5.02255912 -0.02272748 6.48413086 -0.01000977 C8.71294805 0.0038459 10.93755373 -0.030205 13.16601562 -0.06835938 C14.58984477 -0.0693108 16.01367914 -0.06745046 17.4375 -0.0625 C18.72648193 -0.0632251 20.01546387 -0.0639502 21.34350586 -0.06469727 C25.72924904 0.73952676 27.19322785 1.96996812 29.78515625 5.56640625 C30.3527832 8.7043457 30.3527832 8.7043457 30.2734375 12.1796875 C30.26094971 13.30415283 30.24846191 14.42861816 30.2355957 15.5871582 C30.16731567 17.71157349 30.16731567 17.71157349 30.09765625 19.87890625 C29.99453125 24.39578125 29.89140625 28.91265625 29.78515625 33.56640625 C40.01515625 33.56640625 50.24515625 33.56640625 60.78515625 33.56640625 C60.78515625 52.70640625 60.78515625 71.84640625 60.78515625 91.56640625 C50.55515625 91.56640625 40.32515625 91.56640625 29.78515625 91.56640625 C29.98252971 100.88587009 29.98252971 100.88587009 30.2355957 110.20385742 C30.2480835 111.36892822 30.26057129 112.53399902 30.2734375 113.734375 C30.29962158 114.92313232 30.32580566 116.11188965 30.3527832 117.33666992 C29.59859554 121.62791664 28.29790438 123.03287033 24.78515625 125.56640625 C21.34350586 126.19750977 21.34350586 126.19750977 17.4375 126.1953125 C16.74378799 126.19772446 16.05007599 126.20013641 15.33534241 126.20262146 C13.87544003 126.20164593 12.41549932 126.18832199 10.95581055 126.16333008 C8.72512013 126.12894423 6.49837939 126.14269828 4.26757812 126.16210938 C2.84503528 126.15521204 1.42250262 126.14554065 0 126.1328125 C-1.287854 126.12193604 -2.57570801 126.11105957 -3.90258789 126.09985352 C-7.21484375 125.56640625 -7.21484375 125.56640625 -9.64135742 123.96557617 C-11.77814814 120.70750908 -11.67120621 118.49179158 -11.60546875 114.61328125 C-11.59547852 113.40510742 -11.58548828 112.19693359 -11.57519531 110.95214844 C-11.52057129 108.65745605 -11.52057129 108.65745605 -11.46484375 106.31640625 C-11.34109375 99.01515625 -11.34109375 99.01515625 -11.21484375 91.56640625 C-24.41484375 91.56640625 -37.61484375 91.56640625 -51.21484375 91.56640625 C-51.21484375 72.42640625 -51.21484375 53.28640625 -51.21484375 33.56640625 C-38.01484375 33.56640625 -24.81484375 33.56640625 -11.21484375 33.56640625 C-11.37286406 24.20216936 -11.37286406 24.20216936 -11.57519531 14.83886719 C-11.58518555 13.67129883 -11.59517578 12.50373047 -11.60546875 11.30078125 C-11.62641602 10.10678711 -11.64736328 8.91279297 -11.66894531 7.68261719 C-11.21484375 4.56640625 -11.21484375 4.56640625 -9.64135742 2.1809082 C-6.32521168 -0.02551817 -3.96760494 0.03350808 0 0 Z " fill="#85DAD4" transform="translate(58.21484375,334.43359375)"/>
<path d="M0 0 C2.01930038 -0.00969885 4.03757924 -0.04073319 6.05664062 -0.07226562 C7.33539063 -0.07742187 8.61414063 -0.08257812 9.93164062 -0.08789062 C11.68613525 -0.10190918 11.68613525 -0.10190918 13.47607422 -0.11621094 C16.98411191 0.27674096 18.85137724 1.13783413 21.65820312 3.24023438 C23.09329533 6.11041879 22.76978818 8.5756716 22.75585938 11.77929688 C22.75336182 12.95186035 22.75086426 14.12442383 22.74829102 15.33251953 C22.73918701 16.82831543 22.73008301 18.32411133 22.72070312 19.86523438 C22.70007813 24.60898438 22.67945313 29.35273438 22.65820312 34.24023438 C35.85820312 34.24023438 49.05820312 34.24023438 62.65820312 34.24023438 C62.65820312 53.38023437 62.65820312 72.52023438 62.65820312 92.24023438 C49.45820313 92.24023438 36.25820313 92.24023438 22.65820312 92.24023438 C22.81622343 101.60447126 22.81622343 101.60447126 23.01855469 110.96777344 C23.02854492 112.1353418 23.03853516 113.30291016 23.04882812 114.50585938 C23.08024902 116.29685059 23.08024902 116.29685059 23.11230469 118.12402344 C22.65820312 121.24023438 22.65820312 121.24023438 21.10058594 123.62792969 C17.83191743 125.78569527 14.98110819 125.81606599 11.18945312 125.77148438 C10.47213013 125.77531128 9.75480713 125.77913818 9.01574707 125.78308105 C7.50283399 125.78579665 5.98987367 125.77845993 4.47705078 125.76171875 C2.16527336 125.74029988 -0.143397 125.76152789 -2.45507812 125.78710938 C-3.92774121 125.78446603 -5.40040237 125.7793409 -6.87304688 125.77148438 C-7.90600891 125.78362976 -7.90600891 125.78362976 -8.95983887 125.79602051 C-12.15287093 125.73384051 -14.09969784 125.40005265 -16.78417969 123.62792969 C-18.87039331 120.42994078 -18.79912383 118.30787082 -18.73242188 114.50585938 C-18.72243164 113.33829102 -18.71244141 112.17072266 -18.70214844 110.96777344 C-18.64752441 108.7513916 -18.64752441 108.7513916 -18.59179688 106.49023438 C-18.50929688 101.78773438 -18.42679687 97.08523437 -18.34179688 92.24023438 C-28.57179688 92.24023438 -38.80179687 92.24023438 -49.34179688 92.24023438 C-49.34179688 73.10023438 -49.34179688 53.96023437 -49.34179688 34.24023438 C-39.11179687 34.24023438 -28.88179688 34.24023438 -18.34179688 34.24023438 C-18.46030855 24.8762019 -18.46030855 24.8762019 -18.61206055 15.51269531 C-18.61955322 14.34512695 -18.6270459 13.17755859 -18.63476562 11.97460938 C-18.65047607 10.78061523 -18.66618652 9.58662109 -18.68237305 8.35644531 C-18.31119541 4.96023648 -17.75541382 3.61395974 -15.34179688 1.24023438 C-10.37289169 -0.41606735 -5.20382677 0.01514208 0 0 Z " fill="#85DAD4" transform="translate(442.341796875,113.759765625)"/>
<path d="M0 0 C59.4 0 118.8 0 180 0 C180 11.88 180 23.76 180 36 C120.6 36 61.2 36 0 36 C0 24.12 0 12.24 0 0 Z " fill="#F6D46B" transform="translate(166,69)"/>
<path d="M0 0 C12.19702679 4.81754711 22.69078063 25.67958002 28.16015625 36.94921875 C30.94562655 43.75094855 31.24280852 51.79535808 29.1640625 58.828125 C25.45444453 66.94447036 19.25750254 72.62193078 11 76 C3.99716692 78.1431084 -4.41216364 78.02738458 -11.12890625 75.0390625 C-19.17042667 70.5734165 -25.05267748 64.84196756 -28 56 C-28.95908115 47.49094282 -27.95291134 40.55393146 -24 33 C-23.51402344 32.06671875 -23.02804688 31.1334375 -22.52734375 30.171875 C-16.41318188 19.12880249 -8.49033966 9.30563717 0 0 Z " fill="#5B6EA2" transform="translate(255,249)"/>
<path d="M0 0 C13.2 0 26.4 0 40 0 C40 19.14 40 38.28 40 58 C26.8 58 13.6 58 0 58 C0 38.86 0 19.72 0 0 Z " fill="#5B6EA1" transform="translate(7,368)"/>
<path d="M0 0 C13.2 0 26.4 0 40 0 C40 19.14 40 38.28 40 58 C26.8 58 13.6 58 0 58 C0 38.86 0 19.72 0 0 Z " fill="#5B6EA1" transform="translate(465,148)"/>
<path d="M0 0 C11.55 0 23.1 0 35 0 C35 19.14 35 38.28 35 58 C23.45 58 11.9 58 0 58 C0 38.86 0 19.72 0 0 Z " fill="#F3D26C" transform="translate(119,368)"/>
<path d="M0 0 C11.55 0 23.1 0 35 0 C35 19.14 35 38.28 35 58 C23.45 58 11.9 58 0 58 C0 38.86 0 19.72 0 0 Z " fill="#F2D16C" transform="translate(358,148)"/>
<path d="M0 0 C10.23 0 20.46 0 31 0 C31 19.14 31 38.28 31 58 C20.77 58 10.54 58 0 58 C0 38.86 0 19.72 0 0 Z " fill="#5B6EA1" transform="translate(154,368)"/>
<path d="M0 0 C10.23 0 20.46 0 31 0 C31 19.14 31 38.28 31 58 C20.77 58 10.54 58 0 58 C0 38.86 0 19.72 0 0 Z " fill="#5B6EA1" transform="translate(88,368)"/>
<path d="M0 0 C10.23 0 20.46 0 31 0 C31 19.14 31 38.28 31 58 C20.77 58 10.54 58 0 58 C0 38.86 0 19.72 0 0 Z " fill="#5B6EA1" transform="translate(393,148)"/>
<path d="M0 0 C10.23 0 20.46 0 31 0 C31 19.14 31 38.28 31 58 C20.77 58 10.54 58 0 58 C0 38.86 0 19.72 0 0 Z " fill="#5B6EA1" transform="translate(327,148)"/>
</svg>
