<?xml version="1.0" encoding="UTF-8"?>
<svg version="1.1" xmlns="http://www.w3.org/2000/svg" width="512" height="512">
<path d="M0 0 C1.06443476 -0.00453111 2.12886953 -0.00906223 3.22555989 -0.01373065 C6.79830028 -0.02640787 10.37088888 -0.02475211 13.94364929 -0.02310181 C16.50280453 -0.02908497 19.06195796 -0.03589003 21.62110901 -0.04345703 C27.8548905 -0.05930775 34.08861623 -0.06556636 40.32241599 -0.06668179 C45.3904071 -0.06763252 50.45838574 -0.07174407 55.52637291 -0.07808304 C69.89940811 -0.09569437 84.27241345 -0.10492211 98.64545951 -0.10342209 C99.42013655 -0.10334218 100.19481359 -0.10326227 100.9929657 -0.10317993 C102.15640239 -0.10305729 102.15640239 -0.10305729 103.34334286 -0.10293217 C115.91183267 -0.10211937 128.48020261 -0.12125584 141.04865775 -0.14945666 C153.95812489 -0.17819375 166.86753358 -0.1919965 179.77703351 -0.19026911 C187.02302086 -0.18960548 194.26888256 -0.19508594 201.51484108 -0.21662521 C208.32992766 -0.23675404 215.14470493 -0.23615492 221.95981979 -0.22159195 C224.46076914 -0.21949858 226.96173496 -0.22423603 229.46265602 -0.23631287 C232.87776068 -0.25173575 236.29194655 -0.24247557 239.70703125 -0.22705078 C240.69585543 -0.23733791 241.6846796 -0.24762503 242.70346814 -0.25822389 C249.78834718 -0.18754815 254.98607242 1.39452853 260.53227234 5.87289429 C267.79504674 14.54966016 268.15747833 23.3779038 267.3069557 34.31572998 C266.96976295 37.6789712 266.59095765 41.03504513 266.19747925 44.39216614 C266.05258806 45.67124991 265.90769687 46.95033368 265.75841504 48.26817757 C265.35933426 51.78950545 264.95256215 55.309907 264.5444206 58.83019459 C264.1042955 62.63820733 263.67137502 66.44704025 263.23748779 70.25576782 C262.3875817 77.70588182 261.53091323 85.15520303 260.67170831 92.60424977 C259.97313388 98.66152134 259.27687811 104.71905522 258.58225441 110.77678108 C258.48320757 111.64051409 258.38416074 112.50424709 258.28211248 113.39415382 C258.08087442 115.1490888 257.87963963 116.90402415 257.67840806 118.65895987 C255.7930801 135.09810395 253.89984239 151.53632984 252.00406239 167.97427136 C250.27183941 182.99602961 248.5489053 198.01883581 246.83045479 213.04217529 C245.06357091 228.48829706 243.29076861 243.93372867 241.51144296 259.37842232 C241.31001116 261.1270319 241.10858849 262.87564253 240.90717506 264.62425423 C240.80808923 265.48448733 240.7090034 266.34472043 240.60691496 267.23102121 C239.9109525 273.27651788 239.21881841 279.32244569 238.52823448 285.36855888 C237.68579532 292.74349182 236.83768526 300.11774621 235.98238274 307.49119883 C235.54661602 311.2491861 235.11336163 315.0074158 234.68712234 318.76649666 C234.22394399 322.85060453 233.74826872 326.93316301 233.27145386 331.01570129 C233.14011824 332.1911107 233.00878263 333.3665201 232.87346715 334.57754797 C230.43626837 355.12159768 230.43626837 355.12159768 223.06742859 363.32992554 C214.0698287 370.23829945 204.64080638 369.84575864 193.79032898 369.8008728 C191.99243463 369.80793823 190.19454624 369.81668586 188.39666748 369.82698059 C183.53294962 369.84941434 178.6695581 369.84654895 173.80580831 369.83765912 C169.73779466 369.83253611 165.66984163 369.83985244 161.60183424 369.84713119 C152.0015256 369.86411109 142.401376 369.86058357 132.80107117 369.84384155 C122.91309503 369.82692031 113.02556036 369.84275921 103.13763243 369.87506443 C94.63202409 369.90179561 86.12655288 369.90902685 77.62090677 369.90054935 C72.54792285 369.89563066 67.47520448 369.89777849 62.4022541 369.91833687 C57.63071156 369.93674953 52.85980201 369.93066723 48.08829308 369.90613747 C46.34286435 369.90114734 44.59738693 369.90457237 42.85199738 369.91728592 C25.14500092 370.03600688 25.14500092 370.03600688 17.54399109 364.26742554 C9.3814882 355.9406685 8.06149582 345.60265419 6.81652832 334.41011047 C6.66695716 333.13555781 6.517386 331.86100515 6.36328238 330.54782969 C5.95090607 327.03132627 5.55054328 323.51354601 5.15224659 319.99542391 C4.71960102 316.19279537 4.27575641 312.39147161 3.83337402 308.58996582 C2.96931546 301.14914507 2.1157018 293.70716198 1.26583246 286.26470863 C0.57429828 280.21059591 -0.12108329 274.1569365 -0.81919289 268.10357857 C-0.96845269 266.80930493 -0.96845269 266.80930493 -1.12072784 265.48888435 C-1.32292579 263.73572777 -1.52513322 261.98257228 -1.72735003 260.22941787 C-3.62222235 243.79764347 -5.50531133 227.36453526 -7.38429461 210.93093742 C-8.99390441 196.8556203 -10.61328898 182.78145638 -12.23994446 168.70809937 C-14.1313379 152.34425204 -16.01681374 135.97974093 -17.89283353 119.6141234 C-18.0933064 117.86540912 -18.29378594 116.11669561 -18.49427223 114.36798286 C-18.59289524 113.50772263 -18.69151825 112.6474624 -18.79312983 111.76113368 C-19.48566696 105.72381972 -20.18234849 99.68699244 -20.88065147 93.65034294 C-21.73311575 86.27992948 -22.57898048 78.90879302 -23.41666099 71.53668415 C-23.8435411 67.78128068 -24.27319926 64.02625549 -24.71086884 60.27209282 C-29.66017269 17.76464395 -29.66017269 17.76464395 -22.45600891 8.26742554 C-15.77219755 0.98983595 -9.56712175 -0.02976478 0 0 Z " fill="#53ABFE" transform="translate(134.4560089111328,131.73257446289063)"/>
<path d="M0 0 C1.57933451 -0.01147664 1.57933451 -0.01147664 3.19057477 -0.02318513 C6.7243488 -0.04384952 10.25747317 -0.03586046 13.79129028 -0.02792358 C16.3225159 -0.03661636 18.85373624 -0.04698217 21.38494873 -0.05889893 C27.55026979 -0.08293142 33.7153507 -0.08797973 39.88070951 -0.0832984 C44.8924687 -0.07973209 49.90417502 -0.08323122 54.91592789 -0.09174728 C55.98594492 -0.09353285 55.98594492 -0.09353285 57.07757846 -0.09535449 C58.52675668 -0.097778 59.97593489 -0.10020627 61.4251131 -0.10263924 C75.01587534 -0.12439248 88.60653833 -0.12006438 102.19730617 -0.10786955 C114.6275149 -0.09753241 127.05741009 -0.12003815 139.4875568 -0.15806599 C152.25352868 -0.19682153 165.01935224 -0.21333497 177.78538334 -0.20581949 C184.95146763 -0.20199497 192.1172851 -0.20697463 199.28332138 -0.23524857 C206.02221109 -0.2615682 212.76037159 -0.25655862 219.49929428 -0.23042679 C221.97324839 -0.22568664 224.44724643 -0.23119554 226.92115021 -0.24767303 C230.29761277 -0.26854121 233.67195418 -0.25246556 237.04833984 -0.22705078 C238.5184361 -0.24917364 238.5184361 -0.24917364 240.01823127 -0.27174342 C245.83464675 -0.17957623 249.04490956 0.80921011 253.29734623 4.84458029 C257.90140957 10.54712815 256.99410172 16.56138237 256.39221191 23.51138306 C256.03672141 26.84242369 255.6381481 30.16572048 255.22537231 33.49014282 C255.07711502 34.72389648 254.92885773 35.95765015 254.77610779 37.22879028 C254.30249899 41.16035175 253.82083521 45.09087449 253.33865356 49.02139282 C253.0262459 51.59814806 252.71439251 54.17497057 252.40310669 56.75186157 C251.94029148 60.58280288 251.4770684 64.41368852 251.01147461 68.24429321 C249.84329979 77.86719816 248.71758268 87.49453243 247.61811829 97.1255188 C247.50502823 98.11531738 247.39193817 99.10511597 247.27542114 100.12490845 C247.17844437 100.97814697 247.08146759 101.8313855 246.98155212 102.71047974 C246.55769831 106.3164768 246.10150158 109.91860868 245.65115356 113.52139282 C162.16115356 113.52139282 78.67115356 113.52139282 -7.34884644 113.52139282 C-8.63178045 106.46525573 -9.7738998 99.61192198 -10.49728394 92.50967407 C-10.59472397 91.59022003 -10.692164 90.67076599 -10.79255676 89.72344971 C-11.10635492 86.76060843 -11.41506938 83.79726115 -11.72384644 80.83389282 C-13.50845671 63.82218722 -13.50845671 63.82218722 -15.56369019 46.84170532 C-15.65781189 46.11354111 -15.75193359 45.38537689 -15.84890747 44.63514709 C-16.27977763 41.3241641 -16.7226935 38.0155838 -17.1803894 34.7081604 C-20.15412045 12.30925072 -20.15412045 12.30925072 -15.34884644 4.52139282 C-10.80547215 -0.44831789 -6.30561391 -0.04841104 0 0 Z " fill="#D1E3E9" transform="translate(135.34884643554688,141.47860717773438)"/>
<path d="M0 0 C1.06443476 -0.00453111 2.12886953 -0.00906223 3.22555989 -0.01373065 C6.79830028 -0.02640787 10.37088888 -0.02475211 13.94364929 -0.02310181 C16.50280453 -0.02908497 19.06195796 -0.03589003 21.62110901 -0.04345703 C27.8548905 -0.05930775 34.08861623 -0.06556636 40.32241599 -0.06668179 C45.3904071 -0.06763252 50.45838574 -0.07174407 55.52637291 -0.07808304 C69.89940811 -0.09569437 84.27241345 -0.10492211 98.64545951 -0.10342209 C99.42013655 -0.10334218 100.19481359 -0.10326227 100.9929657 -0.10317993 C102.15640239 -0.10305729 102.15640239 -0.10305729 103.34334286 -0.10293217 C115.91183267 -0.10211937 128.48020261 -0.12125584 141.04865775 -0.14945666 C153.95812489 -0.17819375 166.86753358 -0.1919965 179.77703351 -0.19026911 C187.02302086 -0.18960548 194.26888256 -0.19508594 201.51484108 -0.21662521 C208.32992766 -0.23675404 215.14470493 -0.23615492 221.95981979 -0.22159195 C224.46076914 -0.21949858 226.96173496 -0.22423603 229.46265602 -0.23631287 C232.87776068 -0.25173575 236.29194655 -0.24247557 239.70703125 -0.22705078 C240.69585543 -0.23733791 241.6846796 -0.24762503 242.70346814 -0.25822389 C249.78834718 -0.18754815 254.98607242 1.39452853 260.53227234 5.87289429 C267.79504674 14.54966016 268.15747833 23.3779038 267.3069557 34.31572998 C266.96976295 37.6789712 266.59095765 41.03504513 266.19747925 44.39216614 C266.05258806 45.67124991 265.90769687 46.95033368 265.75841504 48.26817757 C265.35933426 51.78950545 264.95256215 55.309907 264.5444206 58.83019459 C264.1042955 62.63820733 263.67137502 66.44704025 263.23748779 70.25576782 C262.3875817 77.70588182 261.53091323 85.15520303 260.67170831 92.60424977 C259.97313388 98.66152134 259.27687811 104.71905522 258.58225441 110.77678108 C258.48320757 111.64051409 258.38416074 112.50424709 258.28211248 113.39415382 C258.08087442 115.1490888 257.87963963 116.90402415 257.67840806 118.65895987 C255.7930801 135.09810395 253.89984239 151.53632984 252.00406239 167.97427136 C250.27183941 182.99602961 248.5489053 198.01883581 246.83045479 213.04217529 C245.06357091 228.48829706 243.29076861 243.93372867 241.51144296 259.37842232 C241.31001116 261.1270319 241.10858849 262.87564253 240.90717506 264.62425423 C240.80808923 265.48448733 240.7090034 266.34472043 240.60691496 267.23102121 C239.9109525 273.27651788 239.21881841 279.32244569 238.52823448 285.36855888 C237.68579532 292.74349182 236.83768526 300.11774621 235.98238274 307.49119883 C235.54661602 311.2491861 235.11336163 315.0074158 234.68712234 318.76649666 C234.22394399 322.85060453 233.74826872 326.93316301 233.27145386 331.01570129 C233.14011824 332.1911107 233.00878263 333.3665201 232.87346715 334.57754797 C230.43626837 355.12159768 230.43626837 355.12159768 223.06742859 363.32992554 C214.0698287 370.23829945 204.64080638 369.84575864 193.79032898 369.8008728 C191.99243463 369.80793823 190.19454624 369.81668586 188.39666748 369.82698059 C183.53294962 369.84941434 178.6695581 369.84654895 173.80580831 369.83765912 C169.73779466 369.83253611 165.66984163 369.83985244 161.60183424 369.84713119 C152.0015256 369.86411109 142.401376 369.86058357 132.80107117 369.84384155 C122.91309503 369.82692031 113.02556036 369.84275921 103.13763243 369.87506443 C94.63202409 369.90179561 86.12655288 369.90902685 77.62090677 369.90054935 C72.54792285 369.89563066 67.47520448 369.89777849 62.4022541 369.91833687 C57.63071156 369.93674953 52.85980201 369.93066723 48.08829308 369.90613747 C46.34286435 369.90114734 44.59738693 369.90457237 42.85199738 369.91728592 C25.14500092 370.03600688 25.14500092 370.03600688 17.54399109 364.26742554 C9.3814882 355.9406685 8.06149582 345.60265419 6.81652832 334.41011047 C6.66695716 333.13555781 6.517386 331.86100515 6.36328238 330.54782969 C5.95090607 327.03132627 5.55054328 323.51354601 5.15224659 319.99542391 C4.71960102 316.19279537 4.27575641 312.39147161 3.83337402 308.58996582 C2.96931546 301.14914507 2.1157018 293.70716198 1.26583246 286.26470863 C0.57429828 280.21059591 -0.12108329 274.1569365 -0.81919289 268.10357857 C-0.96845269 266.80930493 -0.96845269 266.80930493 -1.12072784 265.48888435 C-1.32292579 263.73572777 -1.52513322 261.98257228 -1.72735003 260.22941787 C-3.62222235 243.79764347 -5.50531133 227.36453526 -7.38429461 210.93093742 C-8.99390441 196.8556203 -10.61328898 182.78145638 -12.23994446 168.70809937 C-14.1313379 152.34425204 -16.01681374 135.97974093 -17.89283353 119.6141234 C-18.0933064 117.86540912 -18.29378594 116.11669561 -18.49427223 114.36798286 C-18.59289524 113.50772263 -18.69151825 112.6474624 -18.79312983 111.76113368 C-19.48566696 105.72381972 -20.18234849 99.68699244 -20.88065147 93.65034294 C-21.73311575 86.27992948 -22.57898048 78.90879302 -23.41666099 71.53668415 C-23.8435411 67.78128068 -24.27319926 64.02625549 -24.71086884 60.27209282 C-29.66017269 17.76464395 -29.66017269 17.76464395 -22.45600891 8.26742554 C-15.77219755 0.98983595 -9.56712175 -0.02976478 0 0 Z M-14.45600891 14.26742554 C-21.14083327 25.10145122 -16.83247016 40.90546697 -15.26850891 52.89242554 C-14.80815753 56.51440388 -14.35318816 60.13705614 -13.89741516 63.75961304 C-13.77945587 64.69051758 -13.66149658 65.62142212 -13.53996277 66.58053589 C-12.05699039 78.32640965 -10.7218301 90.08961515 -9.38340759 101.85269165 C-9.08117135 104.50675764 -8.7765323 107.16053929 -8.47163391 109.81430054 C-8.33911476 110.99126999 -8.33911476 110.99126999 -8.20391846 112.1920166 C-7.77179658 115.94276722 -7.19796334 119.55765338 -6.45600891 123.26742554 C77.03399109 123.26742554 160.52399109 123.26742554 246.54399109 123.26742554 C248.54071248 107.95922817 250.42263367 92.67673737 252.04399109 77.32992554 C254.9400085 50.12369679 254.9400085 50.12369679 256.73149109 37.34188843 C258.33123575 26.85624978 258.33123575 26.85624978 255.85649109 16.89242554 C251.93013658 12.16834258 251.93013658 12.16834258 246.39925385 9.89929867 C243.65274652 9.74987845 240.93222966 9.73459692 238.1816864 9.75949097 C237.1273856 9.753251 236.07308479 9.74701104 234.98683548 9.74058199 C231.44836928 9.72460677 227.9105876 9.73727451 224.37211609 9.74984741 C221.83764747 9.74442834 219.30318201 9.73730689 216.76872253 9.72860718 C210.59603535 9.71224286 204.42360232 9.71466328 198.25091171 9.72625774 C193.23437147 9.73529053 188.21788576 9.73651675 183.20133972 9.73216248 C182.13045652 9.73124308 182.13045652 9.73124308 181.03793931 9.73030511 C179.58762962 9.72902621 178.13731995 9.72772935 176.68701029 9.72641474 C163.08676016 9.71500798 149.48661788 9.72812412 135.88638544 9.74961621 C124.2162104 9.76748731 112.54619451 9.76438323 100.87602234 9.74594116 C87.32451634 9.72453611 73.77310486 9.71610662 60.22158432 9.72839022 C58.77660371 9.72966442 57.33162309 9.7309219 55.88664246 9.73216248 C54.82019953 9.73308813 54.82019953 9.73308813 53.73221231 9.73403248 C48.72157285 9.73748649 43.71099333 9.73165597 38.70036316 9.72224426 C31.95666672 9.70985573 25.21331756 9.71867312 18.46963501 9.74182129 C15.99162293 9.74711965 13.5135856 9.74557547 11.0355835 9.73677063 C7.6588097 9.72587664 4.2830073 9.73950563 0.90629578 9.75949097 C-0.07959408 9.75056808 -1.06548393 9.74164519 -2.08124924 9.73245192 C-7.46511121 9.79446579 -10.62790168 10.07667037 -14.45600891 14.26742554 Z M-5.45600891 132.26742554 C-4.70134373 144.21813036 -4.70134373 144.21813036 -3.44038391 156.08383179 C-3.24180938 157.66390905 -3.043242 159.24398722 -2.84468079 160.82406616 C-2.74083069 161.6372229 -2.63698059 162.45037964 -2.52998352 163.28817749 C-0.49381649 179.26295888 1.33749193 195.2543762 3.04399109 211.26742554 C4.641857 226.23010957 6.35250295 241.17142535 8.21870422 256.10293579 C9.6866379 267.87567219 11.04708154 279.65844619 12.34477234 291.45101929 C12.42263474 292.15765905 12.50049713 292.86429882 12.58071899 293.59235191 C13.36421067 300.70547023 14.14345607 307.81902277 14.91149235 314.9338274 C15.13033985 316.95619334 15.35089886 318.97836469 15.57211304 321.00047302 C15.84393347 323.48753595 16.11271952 325.97493327 16.37780762 328.46272278 C17.33263466 343.95585371 17.33263466 343.95585371 25.10649109 356.51742554 C29.18223168 359.44359827 31.53787636 359.39825826 36.57089233 359.41459656 C37.30270165 359.41827325 38.03451096 359.42194993 38.78849632 359.42573804 C41.25346967 359.43679686 43.71840091 359.44062245 46.18339539 359.44442749 C47.9457106 359.45069055 49.70802449 359.45733721 51.47033691 359.46434021 C56.26805154 359.48176614 61.06575619 359.49230662 65.86349463 359.50054574 C68.86031057 359.50569322 71.8571234 359.51176911 74.85393715 359.51805687 C84.22825608 359.53711461 93.60256712 359.55134371 102.97690171 359.55966884 C113.80139101 359.56944011 124.62567575 359.59575436 135.45009297 359.63616973 C143.81365721 359.6663261 152.17716281 359.68113732 160.54078037 359.68444985 C165.53719416 359.68680116 170.53338958 359.69577191 175.5297451 359.72091103 C180.23212466 359.74418792 184.93414202 359.7484265 189.63656425 359.73814964 C191.36068679 359.73765406 193.08482713 359.74398126 194.80889511 359.75770569 C197.16708672 359.77542456 199.52397849 359.76831948 201.88217163 359.75517273 C203.85966919 359.75875526 203.85966919 359.75875526 205.8771162 359.76241016 C211.44984455 359.01015792 215.14363223 356.87049857 218.89164734 352.57992554 C220.96508695 348.42324281 221.50533267 344.85161739 221.98149109 340.26742554 C222.09508972 339.30304565 222.20868835 338.33866577 222.32572937 337.34506226 C222.6692858 334.37363159 222.99509141 331.40077052 223.31285095 328.42648315 C223.56539451 326.06749827 223.82173133 323.70894469 224.07865906 321.35043335 C224.91353282 313.68206148 225.74580233 306.01342736 226.56718445 298.34359741 C227.95005003 285.47020248 229.44426391 272.61555877 231.04399109 259.76742554 C232.95968572 244.36390638 234.6989433 228.94695894 236.35246277 213.51318359 C238.38462165 194.55127109 240.55969948 175.60766587 242.79600525 156.66880798 C242.96405485 155.24277129 243.13037422 153.8165295 243.29484558 152.39007568 C243.46494371 150.94088714 243.64346002 149.49266815 243.82926941 148.04541016 C243.92107483 147.30052338 244.01288025 146.5556366 244.10746765 145.78817749 C244.19111572 145.13549393 244.27476379 144.48281036 244.36094666 143.81034851 C244.63722716 139.97215452 244.54399109 136.11555028 244.54399109 132.26742554 C162.04399109 132.26742554 79.54399109 132.26742554 -5.45600891 132.26742554 Z " fill="#0F024C" transform="translate(134.4560089111328,131.73257446289063)"/>
<path d="M0 0 C6.64895282 7.31532893 8.54652414 13.55649556 8.37109375 23.421875 C7.61482519 30.71389607 4.48599697 35.91094291 -0.75 40.9375 C-6.37334799 45.41926606 -12.75728737 47.62465298 -19.96875 47.28125 C-27.34252055 46.26026639 -33.74141667 43.31586638 -39 38 C-44.11233795 30.69303558 -45.92635832 23.87019813 -45 15 C-42.65056521 6.58829305 -38.86951308 0.52186439 -31.26171875 -3.921875 C-20.89802867 -8.8620796 -8.73744223 -7.60941358 0 0 Z " fill="#0E014A" transform="translate(209,57)"/>
<path d="M0 0 C6.51001187 3.82814652 10.5074354 9.02555275 13.4375 15.9375 C14.46494021 23.72035956 14.52482133 31.32825971 10.05078125 38.0078125 C4.51832038 44.62533228 -1.29351036 49.12466504 -9.97265625 50.25 C-17.96332928 50.64521103 -24.1243391 48.05503594 -30.375 43.1875 C-35.08181096 38.89567469 -38.22590148 32.66215574 -38.80078125 26.30078125 C-39.01473939 17.50597573 -37.25530774 12.86130556 -32.375 5.75 C-23.5365628 -3.0884372 -11.64654714 -5.29548443 0 0 Z " fill="#11054E" transform="translate(229.5625,391.0625)"/>
<path d="M0 0 C5.88674201 3.41773953 11.69897895 8.3375459 14.41796875 14.70703125 C16.18261161 22.02101151 16.46677656 30.33983756 13.01171875 37.16796875 C8.73512043 43.57680872 3.51697952 48.19772325 -3.98828125 50.16796875 C-12.45155114 51.1459466 -19.7713781 51.0863891 -26.8984375 46.08203125 C-32.04970124 41.36405138 -36.40401069 34.81936947 -37.2890625 27.7734375 C-37.32953771 19.42205286 -35.3854194 12.70134651 -29.98828125 6.16796875 C-20.94675524 -0.92275896 -11.16825701 -4.82523072 0 0 Z " fill="#11054F" transform="translate(237.98828125,301.83203125)"/>
<path d="M0 0 C6.29469385 3.3492522 11.83027735 9.73557055 14 16.5 C14.88094052 24.70375858 14.50503458 32.40335951 10 39.5 C3.87666894 46.676544 -2.96107528 50.27057755 -12.3125 51.0625 C-19.21982534 50.79590148 -25.78195183 47.2069464 -30.9921875 42.82421875 C-36.97887682 36.34608478 -38.6625708 29.22309028 -38.41015625 20.53125 C-37.39970199 13.06351188 -33.73742799 7.43262259 -27.94140625 2.75390625 C-19.56207868 -2.65809405 -9.45178429 -3.66032955 0 0 Z " fill="#11054F" transform="translate(326,341.5)"/>
<path d="M0 0 C7.07112708 4.28553156 11.48840986 9.25677273 14.0625 17.25 C15.49299331 25.26943218 13.82240472 31.55290753 9.90625 38.609375 C6.04176076 44.14410959 0.73982772 47.96589852 -5.9375 49.25 C-15.0492947 49.95984236 -22.2407051 49.28118262 -29.625 43.6875 C-35.76338503 37.92924431 -38.22922689 31.53734263 -38.5625 23.1875 C-38.20393802 14.48765405 -35.34381465 9.25303959 -29.0625 3.375 C-20.24584788 -3.70130738 -10.18704684 -5.23905266 0 0 Z " fill="#12054D" transform="translate(295.9375,175.75)"/>
<path d="M0 0 C4.44347897 2.50657788 7.04492749 5.72100766 8.8125 10.5 C9.76331943 16.42433643 9.30938712 21.48779513 5.8125 26.5 C1.43714369 31.08370661 -2.78331423 33.23580092 -9.1875 33.5 C-15.51104188 32.67564388 -19.23919496 30.09989401 -23.09375 25.12109375 C-26.13519253 20.61324143 -25.70455231 15.77247707 -25.1875 10.5 C-23.47528032 5.13830636 -20.03880086 2.18369835 -15.1875 -0.5 C-9.87825405 -2.26974865 -5.1133605 -2.19835764 0 0 Z " fill="#0E014A" transform="translate(297.1875,57.5)"/>
<path d="M0 0 C4.47129336 4.36223743 7.80281015 8.56731296 8.125 15 C7.82127891 19.75282462 6.39717121 23.66842607 3.5625 27.5 C-1.53795989 31.55954971 -5.70194547 32.86434461 -12.08984375 32.78125 C-17.13134592 32.17727636 -20.42935547 29.61426501 -23.8125 25.875 C-27.35683539 20.6948175 -26.98778165 15.63957104 -26.4375 9.5 C-25.18917007 5.25116619 -22.87446449 2.85503365 -19.4375 0.0625 C-13.39006982 -2.95468439 -6.06977752 -2.64863019 0 0 Z " fill="#0E014A" transform="translate(256.4375,16.5)"/>
<path d="M0 0 C4.29783415 2.25169137 6.87207878 4.94435456 8.859375 9.31640625 C9.62106025 14.5147118 9.67279846 19.50000506 7.234375 24.25390625 C4.02352759 28.39420949 0.81544525 30.66438283 -4.140625 32.31640625 C-9.4093848 32.7140485 -12.70704424 32.24068292 -17.140625 29.31640625 C-21.40611358 25.01105329 -24.27487562 21.75822693 -24.453125 15.56640625 C-24.39684552 10.68416115 -23.43650355 8.05767379 -20.140625 4.31640625 C-14.12514534 -0.98294488 -7.88634268 -2.51844885 0 0 Z " fill="#66D1B7" transform="translate(198.140625,61.68359375)"/>
<path d="M0 0 C4.49503158 1.70474837 7.85930357 4.28682293 10.5 8.3125 C12.51469881 13.26530125 12.9162282 17.07240694 11.33984375 22.109375 C9.14883981 27.15532347 6.19571315 30.92744531 1 33 C-4.34236051 33.87745165 -8.55330029 33.71019804 -13.4375 31.3125 C-17.08999787 28.01634339 -20.73183207 24.69047167 -21.23828125 19.609375 C-21.39636908 13.51883322 -21.26490941 9.7259807 -17 5 C-11.39669519 0.06375529 -7.39444232 -0.94052117 0 0 Z " fill="#CEE1E7" transform="translate(222,398)"/>
<path d="M0 0 C4.33101913 2.22151412 6.91327158 4.91041584 8.875 9.3046875 C9.61180399 14.83451535 9.62201615 19.59277549 7.375 24.7421875 C2.95710716 29.27052766 -1.24315168 32.54897738 -7.75 32.8671875 C-12.12889504 32.60339864 -14.73877007 31.1396707 -18.125 28.3046875 C-18.8675 27.6859375 -19.61 27.0671875 -20.375 26.4296875 C-23.30092877 22.87677399 -23.97923507 19.42915981 -24.5625 14.9296875 C-23.82809706 8.84463456 -20.87021403 4.9667961 -16.5 0.8046875 C-11.15320954 -1.57166381 -5.60544601 -1.83413491 0 0 Z " fill="#66D1B8" transform="translate(291.125,183.6953125)"/>
<path d="M0 0 C4.71922788 2.03662496 7.49600761 4.74116912 9.95703125 9.24609375 C11.67542723 13.58563752 11.54403622 17.12323775 10.10546875 21.52734375 C7.98468354 26.35951258 5.55140526 28.86186888 0.8046875 31.38671875 C-3.26578597 32.74354324 -6.93922967 32.91144129 -11.1953125 32.38671875 C-16.4988353 29.68492412 -20.29363548 26.0917498 -22.1953125 20.38671875 C-22.71697307 15.4181156 -22.7677176 11.53152896 -20.5078125 7.01171875 C-14.51320446 0.20702854 -8.9491198 -2.50002101 0 0 Z " fill="#CFE1E7" transform="translate(233.1953125,310.61328125)"/>
<path d="M0 0 C4.39268715 2.4950463 6.90108533 5.83085144 8.75 10.5 C9.90215012 15.7611457 8.58925677 20.09766301 6.02734375 24.73828125 C3.37902151 28.39086025 -0.06841508 30.10613836 -4.25 31.5 C-8.91694522 32.04225459 -12.32771048 31.9698456 -16.5625 29.8125 C-20.42813087 26.48625949 -23.88995048 23.15945666 -24.59375 17.9609375 C-24.88582926 12.19237204 -24.8752122 8.37952016 -21 3.875 C-14.98597025 -2.2161327 -7.90445792 -3.38334752 0 0 Z " fill="#CFE1E7" transform="translate(322.25,350.5)"/>
<path d="M0 0 C2.5 1.5625 2.5 1.5625 4 4 C4 7.77684879 3.78395245 10.03513544 1.375 13 C-2.07663304 14.45331917 -4.42809484 13.92604949 -8 13 C-10.46324069 9.30513897 -10.38991688 7.36706908 -10 3 C-7.7773391 -1.05308751 -4.20075589 -0.5158823 0 0 Z " fill="#64CDB6" transform="translate(250,25)"/>
<path d="M0 0 C4.91511194 1.34048507 4.91511194 1.34048507 6.4375 3.9375 C6.85366519 7.19746064 6.7141188 9.28053035 5.4375 12.3125 C2.73205964 14.5106703 0.7287076 14.5087063 -2.6875 14.3203125 C-4.5625 13.9375 -4.5625 13.9375 -6.5625 12.3125 C-7.85868989 9.234049 -8.04538863 7.24873632 -7.5625 3.9375 C-5.26874134 0.3592365 -4.28872478 -0.07524079 0 0 Z " fill="#65CEB6" transform="translate(289.5625,66.0625)"/>
</svg>
