<?xml version="1.0" encoding="UTF-8"?>
<svg version="1.1" xmlns="http://www.w3.org/2000/svg" width="512" height="512">
<path d="M0 0 C1.14573866 -0.00382555 2.29147732 -0.00765109 3.47193533 -0.01159257 C7.28957027 -0.02186539 11.10705321 -0.01794137 14.92469788 -0.01396179 C17.67004325 -0.01721961 20.41538031 -0.02343095 23.16072083 -0.02944946 C29.82862126 -0.04216165 36.49648136 -0.04399483 43.16439187 -0.0416492 C48.58175248 -0.03986337 53.99910088 -0.04162132 59.41646004 -0.04587364 C60.18856476 -0.04646883 60.96066947 -0.04706402 61.7561713 -0.04767724 C63.32478177 -0.04888902 64.89339224 -0.05010315 66.4620027 -0.05131962 C81.14997265 -0.06217997 95.8379196 -0.06003874 110.52589083 -0.05393478 C123.97039901 -0.04875676 137.41483492 -0.060047 150.8593288 -0.07903299 C164.66954827 -0.09838603 178.47973351 -0.10667251 192.28996664 -0.10290974 C200.04150974 -0.10099515 207.7929912 -0.10351117 215.54452324 -0.11762428 C222.13695591 -0.12950614 228.7292889 -0.13097843 235.32172286 -0.11883412 C238.68623858 -0.11292515 242.05042131 -0.11351385 245.41494942 -0.12383652 C249.05691567 -0.13420865 252.69838436 -0.12628036 256.34033203 -0.11352539 C257.41034688 -0.12089968 258.48036174 -0.12827396 259.58280128 -0.13587171 C260.5544748 -0.12866517 261.52614833 -0.12145862 262.5272665 -0.1140337 C263.36824239 -0.11408871 264.20921828 -0.11414373 265.07567829 -0.11420041 C267.73943638 0.35027101 268.62767933 1.10923552 270.22572327 3.26069641 C270.56629944 6.07978821 270.56629944 6.07978821 270.51869202 9.45991516 C270.50902405 10.66841125 270.49935608 11.87690735 270.48939514 13.12202454 C270.46425842 14.38466125 270.4391217 15.64729797 270.41322327 16.94819641 C270.39968811 18.22243469 270.38615295 19.49667297 270.37220764 20.80952454 C270.33680525 23.96033699 270.28742116 27.11030686 270.22572327 30.26069641 C271.00286682 30.24498596 271.78001038 30.22927551 272.58070374 30.21308899 C276.08730346 30.1508929 279.5937874 30.11175434 283.10072327 30.07319641 C284.32404358 30.04805969 285.54736389 30.02292297 286.80775452 29.99702454 C288.55765686 29.98252258 288.55765686 29.98252258 290.34291077 29.96772766 C291.96108704 29.94416199 291.96108704 29.94416199 293.61195374 29.92012024 C294.47449768 30.03251038 295.33704163 30.14490051 296.22572327 30.26069641 C298.2860963 33.35125596 298.47371569 33.96995803 298.45277405 37.45674133 C298.45262299 38.29738632 298.45247192 39.13803131 298.45231628 40.00415039 C298.44199371 40.90736526 298.43167114 41.81058014 298.42103577 42.74116516 C298.41679092 44.13314873 298.41679092 44.13314873 298.41246033 45.55325317 C298.40126163 48.5183652 298.37615761 51.48317562 298.35072327 54.44819641 C298.34069306 56.45795768 298.33156728 58.46772367 298.32337952 60.47749329 C298.30132331 65.40534394 298.26679556 70.33296903 298.22572327 75.26069641 C299.03839661 75.25545959 299.85106995 75.25022278 300.68836975 75.24482727 C304.34664649 75.22412647 308.00491094 75.21105838 311.66322327 75.19819641 C312.9426178 75.1898175 314.22201233 75.1814386 315.54017639 75.17280579 C316.7551178 75.16958313 317.9700592 75.16636047 319.22181702 75.16304016 C320.34773254 75.15780334 321.47364807 75.15256653 322.63368225 75.14717102 C325.22572327 75.26069641 325.22572327 75.26069641 326.22572327 76.26069641 C326.32939354 77.81520629 326.36423848 79.37437896 326.37098694 80.93232727 C326.38055672 82.4240873 326.38055672 82.4240873 326.39031982 83.94598389 C326.39198906 85.56936424 326.39198906 85.56936424 326.39369202 87.22554016 C326.39702042 88.32918411 326.40034882 89.43282806 326.40377808 90.56991577 C326.40885212 92.90946535 326.41118626 95.2490222 326.411026 97.58857727 C326.41321175 101.17927407 326.43136061 104.76966346 326.45033264 108.36030579 C326.45326653 110.62788285 326.45525136 112.89546139 326.45619202 115.16304016 C326.46337753 116.2432695 326.47056305 117.32349884 326.47796631 118.4364624 C326.47488968 119.43412125 326.47181305 120.43178009 326.46864319 121.45967102 C326.47006821 122.34045822 326.47149323 123.22124542 326.47296143 124.12872314 C326.22572327 126.26069641 326.22572327 126.26069641 324.22572327 128.26069641 C321.42835999 128.48774719 321.42835999 128.48774719 317.90541077 128.45600891 C316.02015686 128.44634094 316.02015686 128.44634094 314.09681702 128.43647766 C312.77810608 128.41971985 311.45939514 128.40296204 310.10072327 128.38569641 C308.76088606 128.37566624 307.42104175 128.36654045 306.08119202 128.35835266 C302.79585754 128.33471716 299.51087862 128.30176875 296.22572327 128.26069641 C296.23357849 130.19888245 296.23357849 130.19888245 296.24159241 132.17622375 C296.25965694 136.95828054 296.27116062 141.7403343 296.28065491 146.52241516 C296.28569179 148.59436042 296.29252151 150.66630211 296.30116272 152.73823547 C296.31325648 155.71187723 296.31895794 158.6854721 296.32337952 161.65913391 C296.3285408 162.58938385 296.33370209 163.51963379 296.33901978 164.47807312 C296.33913307 165.76918503 296.33913307 165.76918503 296.33924866 167.08638 C296.34146927 167.84582916 296.34368988 168.60527832 296.34597778 169.38774109 C296.22572327 171.26069641 296.22572327 171.26069641 295.22572327 173.26069641 C286.31572327 173.26069641 277.40572327 173.26069641 268.22572327 173.26069641 C268.24892639 175.25874329 268.27212952 177.25679016 268.29603577 179.31538391 C268.30994062 181.2481588 268.32377532 183.18093493 268.33558655 185.11372375 C268.35060434 187.11981001 268.37601307 189.12580965 268.40150452 191.13179016 C268.40794983 192.3886261 268.41439514 193.64546204 268.42103577 194.94038391 C268.4315094 196.10295715 268.44198303 197.2655304 268.45277405 198.46333313 C268.22572327 201.26069641 268.22572327 201.26069641 266.22572327 203.26069641 C263.57528222 203.44865252 261.03021513 203.51253502 258.37953186 203.48774719 C257.56969345 203.48803925 256.75985504 203.4883313 255.92547607 203.4886322 C253.2415963 203.48723591 250.5579922 203.47166076 247.87416077 203.45600891 C246.01614026 203.45227984 244.15811778 203.44943237 242.3000946 203.44743347 C237.40425713 203.43978865 232.50853788 203.4201329 227.61274719 203.39802551 C221.7415664 203.37399304 215.87034613 203.36479014 209.99913025 203.3531189 C201.07457897 203.33370897 192.15028722 203.29539234 183.22572327 203.26069641 C183.22572327 229.99069641 183.22572327 256.72069641 183.22572327 284.26069641 C202.04348027 284.14209336 202.04348027 284.14209336 220.86097717 283.99043274 C223.22474257 283.98166869 225.58851251 283.97402456 227.95228577 283.96772766 C229.78472839 283.94470581 229.78472839 283.94470581 231.65419006 283.92121887 C239.10372249 283.91892388 243.9136557 284.21041566 249.5763092 289.42549133 C251.75462756 293.16983873 251.73034127 296.41849781 251.61634827 300.62397766 C251.61068848 301.41596054 251.60502869 302.20794342 251.59919739 303.02392578 C251.57689635 305.54097735 251.52671466 308.05657884 251.47572327 310.57319641 C251.45565002 312.28476432 251.43740069 313.99635465 251.42103577 315.70796204 C251.3804614 319.89320801 251.30216815 324.07533908 251.22572327 328.26069641 C260.79572327 328.26069641 270.36572327 328.26069641 280.22572327 328.26069641 C281.22572327 334.26069641 281.22572327 334.26069641 280.22572327 336.26069641 C241.02239302 336.30643292 201.81906625 336.34169478 162.61571468 336.36282707 C157.99173963 336.36532861 153.36776464 336.36791724 148.74378967 336.37055969 C147.36291258 336.37134662 147.36291258 336.37134662 145.95413898 336.37214945 C131.0307389 336.38086187 116.10735416 336.39663643 101.18396319 336.415002 C85.88132657 336.43367782 70.578698 336.44480821 55.27605045 336.4488734 C45.82673487 336.45162329 36.37746265 336.46032136 26.92816041 336.47652934 C20.45624552 336.48706764 13.98435318 336.49030423 7.51243033 336.48769917 C3.7735108 336.48641293 0.03466726 336.48844145 -3.70423889 336.49910736 C-7.74984189 336.51056447 -11.79528122 336.50669466 -15.84089661 336.50120544 C-17.62977619 336.50994397 -17.62977619 336.50994397 -19.45479476 336.51885903 C-20.5316627 336.51487693 -21.60853063 336.51089483 -22.71803093 336.50679207 C-24.12033811 336.50793123 -24.12033811 336.50793123 -25.55097473 336.5090934 C-27.77427673 336.26069641 -27.77427673 336.26069641 -29.77427673 334.26069641 C-29.21872118 329.70514086 -29.21872118 329.70514086 -27.77427673 328.26069641 C-25.62868847 328.17294036 -23.48023252 328.15374422 -21.33287048 328.16304016 C-20.0276947 328.16626282 -18.72251892 328.16948547 -17.37779236 328.17280579 C-15.98911984 328.1811624 -14.60044796 328.18962736 -13.21177673 328.19819641 C-11.81920018 328.20320975 -10.42662192 328.20777295 -9.03404236 328.21186829 C-5.61407803 328.22370207 -2.19419829 328.24018761 1.22572327 328.26069641 C1.204776 327.20157043 1.18382874 326.14244446 1.1622467 325.05122375 C1.08958942 321.10409684 1.04383072 317.15702849 1.0059967 313.20942688 C0.98593958 311.50424747 0.95868669 309.79913635 0.92396545 308.0941925 C0.87518466 305.63650117 0.85269608 303.17972275 0.83509827 300.72163391 C0.81445312 299.96514557 0.79380798 299.20865723 0.77253723 298.429245 C0.77036838 293.25847787 1.81061704 290.35959479 5.22572327 286.26069641 C8.7123505 283.93627826 10.0515025 284.01667901 14.16590881 284.03364563 C15.40401306 284.03388733 16.64211731 284.03412903 17.91773987 284.03437805 C19.21949158 284.04460999 20.52124329 284.05484192 21.86244202 284.06538391 C23.65663574 284.06840515 23.65663574 284.06840515 25.48707581 284.07148743 C29.96249721 284.08196486 34.43786402 284.10988735 38.91322327 284.13569641 C53.91791077 284.19757141 53.91791077 284.19757141 69.22572327 284.26069641 C69.22572327 256.87069641 69.22572327 229.48069641 69.22572327 201.26069641 C63.14521545 201.30710266 57.06470764 201.35350891 50.79994202 201.40132141 C46.93078415 201.4217774 43.06169365 201.44103441 39.19252014 201.45600891 C33.0611117 201.47985182 26.92994389 201.50795338 20.79872131 201.56245422 C15.85146268 201.60615182 10.90446237 201.62988378 5.95702553 201.64020538 C4.07651012 201.64755404 2.19600766 201.66190352 0.31560326 201.68361664 C-14.22171056 201.84469086 -25.75798766 200.80362932 -36.77427673 190.26069641 C-43.59456686 182.80100409 -47.87734267 173.84911746 -47.92144775 163.69734192 C-47.92860306 162.56486023 -47.93575836 161.43237854 -47.94313049 160.26557922 C-47.9458194 159.02711243 -47.9485083 157.78864563 -47.95127869 156.51264954 C-47.95784988 155.20485535 -47.96442108 153.89706116 -47.97119141 152.54963684 C-47.99219749 148.21375243 -48.00259452 143.87786783 -48.01255798 139.54194641 C-48.01660764 138.04519635 -48.02072462 136.54844647 -48.02490807 135.05169678 C-48.04395672 128.014413 -48.05818518 120.97713966 -48.06652004 113.93983507 C-48.07627414 105.83947888 -48.10254693 97.73939728 -48.14302093 89.63913774 C-48.1732865 83.36460924 -48.18799898 77.09015894 -48.19130105 70.81555891 C-48.19364078 67.07486236 -48.20245859 63.33445922 -48.22776222 59.59384155 C-48.25122999 56.06755667 -48.25520231 52.54175444 -48.24500084 49.01541138 C-48.24427789 47.12357921 -48.26323949 45.23177053 -48.2830658 43.34004211 C-48.20649528 30.60323884 -44.88639349 20.44659032 -35.89146423 11.35835266 C-25.34131716 1.57360841 -14.0080512 -0.05020957 0 0 Z M22.22572327 9.26069641 C22.22572327 70.31069641 22.22572327 131.36069641 22.22572327 194.26069641 C100.76572327 194.26069641 179.30572327 194.26069641 260.22572327 194.26069641 C260.22572327 133.21069641 260.22572327 72.16069641 260.22572327 9.26069641 C181.68572327 9.26069641 103.14572327 9.26069641 22.22572327 9.26069641 Z M269.22572327 39.26069641 C269.22572327 80.51069641 269.22572327 121.76069641 269.22572327 164.26069641 C275.82572327 164.26069641 282.42572327 164.26069641 289.22572327 164.26069641 C289.22572327 123.01069641 289.22572327 81.76069641 289.22572327 39.26069641 C282.62572327 39.26069641 276.02572327 39.26069641 269.22572327 39.26069641 Z M298.22572327 84.26069641 C298.22572327 96.14069641 298.22572327 108.02069641 298.22572327 120.26069641 C304.82572327 120.26069641 311.42572327 120.26069641 318.22572327 120.26069641 C318.22572327 108.38069641 318.22572327 96.50069641 318.22572327 84.26069641 C311.62572327 84.26069641 305.02572327 84.26069641 298.22572327 84.26069641 Z M78.22572327 203.26069641 C78.22572327 230.32069641 78.22572327 257.38069641 78.22572327 285.26069641 C110.23572327 285.26069641 142.24572327 285.26069641 175.22572327 285.26069641 C175.22572327 258.20069641 175.22572327 231.14069641 175.22572327 203.26069641 C143.21572327 203.26069641 111.20572327 203.26069641 78.22572327 203.26069641 Z " fill="#361452" transform="translate(105.77427673339844,175.7393035888672)"/>
<path d="M0 0 C0 61.05 0 122.1 0 185 C-34.90730337 185 -34.90730337 185 -45.0546875 175.2890625 C-50.46138332 168.92696661 -53.11051028 161.80787034 -53.14717102 153.53707886 C-53.15432632 152.42694931 -53.16148163 151.31681976 -53.16885376 150.17304993 C-53.17154266 148.95949326 -53.17423157 147.74593658 -53.17700195 146.49560547 C-53.18357315 145.21385941 -53.19014435 143.93211334 -53.19691467 142.61152649 C-53.21791516 138.36342614 -53.22831534 134.1153256 -53.23828125 129.8671875 C-53.24233072 128.40134793 -53.2464477 126.93550854 -53.25063133 125.46966934 C-53.26967654 118.5797561 -53.2839073 111.6898535 -53.2922433 104.79991901 C-53.30200459 96.86424192 -53.32829769 88.92884458 -53.36874419 80.99326599 C-53.39897988 74.84870389 -53.41371933 68.70422164 -53.41702431 62.55958664 C-53.41936689 58.89496374 -53.42822267 55.23063991 -53.45348549 51.56609726 C-53.48126185 47.4708087 -53.47691243 43.37613872 -53.4699707 39.28076172 C-53.48278076 38.07935043 -53.49559082 36.87793915 -53.50878906 35.64012146 C-53.44774759 25.73250126 -51.04485467 16.33239976 -44 9 C-30.94559903 -1.98227383 -17.1370299 0 0 0 Z " fill="#99B1FD" transform="translate(120,185)"/>
<path d="M0 0 C1.34179796 0.0023229 1.34179796 0.0023229 2.71070296 0.00469273 C3.65344684 0.00242718 4.59619073 0.00016162 5.56750262 -0.00217259 C8.75205345 -0.00854363 11.93656207 -0.00768125 15.12111861 -0.00685817 C17.39385477 -0.00984772 19.66659042 -0.01324977 21.93932539 -0.01703578 C28.13135446 -0.02590055 34.32336972 -0.02821493 40.51540452 -0.02885157 C45.67480913 -0.02979854 50.83421048 -0.03347437 55.99361384 -0.03702366 C67.46444023 -0.04471121 78.9352576 -0.04769143 90.4060859 -0.04701831 C91.09499103 -0.04697836 91.78389616 -0.0469384 92.4936772 -0.04689723 C93.18341909 -0.04685635 93.87316098 -0.04681547 94.58380414 -0.04677335 C105.7662614 -0.04636676 116.94868501 -0.05593851 128.13113254 -0.0700356 C139.60080398 -0.0843812 151.07045217 -0.09112342 162.54013407 -0.09044182 C168.98447146 -0.09018613 175.42877079 -0.09307652 181.87310034 -0.10361987 C187.93129028 -0.11326019 193.98940546 -0.11340815 200.04759794 -0.10610324 C202.27692657 -0.10505232 204.50625975 -0.10745005 206.7355805 -0.1134637 C209.76741665 -0.12111534 212.79899015 -0.1165845 215.83082014 -0.10883266 C216.7231214 -0.11397622 217.61542265 -0.11911978 218.53476334 -0.12441921 C224.6059822 -0.08986566 224.6059822 -0.08986566 226.83425337 2.1384055 C226.83425337 13.0284055 226.83425337 23.9184055 226.83425337 35.1384055 C149.61425337 35.1384055 72.39425337 35.1384055 -7.16574663 35.1384055 C-7.16574663 0.02868752 -7.16574663 0.02868752 0 0 Z " fill="#99B1FD" transform="translate(123.16574662923813,468.8615944981575)"/>
<path d="M0 0 C8.22281636 5.47649262 14.72727021 12.45798874 16.98828125 22.32421875 C17.99085145 32.18282571 13.85310408 40.07003591 8.92578125 48.38671875 C4.111184 56.55704417 2.14105071 63.63585854 1.05078125 73.01171875 C0.12599741 80.47013804 -1.03344036 84.55867453 -6.63671875 89.76171875 C-11.24590408 91.89560085 -15.01776243 92.21819858 -20.01171875 91.32421875 C-25.23829231 89.14051336 -28.81324165 85.99585335 -32.01171875 81.32421875 C-33.05859375 77.9921875 -33.05859375 77.9921875 -33.76171875 74.51171875 C-34.0040625 73.35027344 -34.24640625 72.18882813 -34.49609375 70.9921875 C-34.66625 70.11175781 -34.83640625 69.23132813 -35.01171875 68.32421875 C-35.48351562 69.41089844 -35.48351562 69.41089844 -35.96484375 70.51953125 C-43.10566664 86.65090825 -43.10566664 86.65090825 -51.94921875 90.07421875 C-57.78380081 90.78144082 -62.06071472 90.73491042 -67.01171875 87.32421875 C-70.65312778 82.03248305 -71.49477758 78.20018774 -71.76171875 71.88671875 C-72.45299013 62.72429956 -75.55652198 55.98301287 -80.02636719 48.07275391 C-85.65932294 38.07690923 -88.98394325 27.94760674 -85.86328125 16.484375 C-83.12785411 9.5454245 -78.71939798 3.74678459 -72.01171875 0.32421875 C-67.41730551 -1.53323689 -63.17574375 -2.0619535 -58.26171875 -2.05078125 C-57.55942139 -2.04989502 -56.85712402 -2.04900879 -56.13354492 -2.0480957 C-48.10884018 -1.86653296 -41.66222255 0.89054955 -35.01171875 5.32421875 C-34.16609375 4.56109375 -33.32046875 3.79796875 -32.44921875 3.01171875 C-23.44443289 -4.29170204 -10.40202312 -5.58300676 0 0 Z " fill="#FBB65B" transform="translate(406.01171875,38.67578125)"/>
<path d="M0 0 C1.19616943 0.00161133 2.39233887 0.00322266 3.62475586 0.00488281 C12.6651148 0.13002587 20.36218459 1.18407438 28.875 4.375 C29.77605469 4.67535156 30.67710937 4.97570312 31.60546875 5.28515625 C42.68910412 9.25464427 51.45699936 16.33370851 59.875 24.375 C60.48988281 24.91511719 61.10476563 25.45523437 61.73828125 26.01171875 C76.34523546 39.34266317 83.92445238 60.45332742 85.078125 79.77734375 C85.39869164 103.95341143 77.72516793 124.96865584 60.74609375 142.5234375 C44.62703775 158.71288239 24.30299122 167.34539035 1.375 167.625 C-21.74546058 167.61151554 -42.64451339 158.2534358 -59.125 142.375 C-75.92460605 125.26692661 -82.4375 104.03221783 -82.4375 80.47119141 C-82.16080196 57.81653922 -72.93159232 38.95423741 -57.53515625 22.62890625 C-41.84974417 7.49628402 -21.60294596 -0.03019069 0 0 Z M-51.78515625 29.9765625 C-67.47933222 46.06374788 -74.85187675 64.35926731 -74.59350586 86.65527344 C-73.88659227 106.86229678 -64.79086014 124.9816271 -50.44921875 138.98828125 C-33.97017191 153.6833988 -14.04550983 159.56047497 7.875 158.375 C22.52686379 156.37200032 35.03435518 151.15943119 46.875 142.375 C47.54273438 141.88128906 48.21046875 141.38757813 48.8984375 140.87890625 C63.46968008 129.24169215 72.5500869 110.69249713 74.875 92.375 C76.13202333 71.47956299 71.43785129 51.6237371 57.62890625 35.3125 C57.05011719 34.673125 56.47132813 34.03375 55.875 33.375 C55.02228516 32.385 55.02228516 32.385 54.15234375 31.375 C43.32534116 19.60551948 27.62060742 11.74762578 11.875 9.375 C10.9984375 9.2409375 10.121875 9.106875 9.21875 8.96875 C-13.39717836 6.29374772 -35.35879326 14.3755111 -51.78515625 29.9765625 Z " fill="#351351" transform="translate(370.125,-0.375)"/>
<path d="M0 0 C8.22281636 5.47649262 14.72727021 12.45798874 16.98828125 22.32421875 C17.99085145 32.18282571 13.85310408 40.07003591 8.92578125 48.38671875 C4.111184 56.55704417 2.14105071 63.63585854 1.05078125 73.01171875 C0.12599741 80.47013804 -1.03344036 84.55867453 -6.63671875 89.76171875 C-11.24590408 91.89560085 -15.01776243 92.21819858 -20.01171875 91.32421875 C-25.23829231 89.14051336 -28.81324165 85.99585335 -32.01171875 81.32421875 C-33.05859375 77.9921875 -33.05859375 77.9921875 -33.76171875 74.51171875 C-34.0040625 73.35027344 -34.24640625 72.18882813 -34.49609375 70.9921875 C-34.66625 70.11175781 -34.83640625 69.23132813 -35.01171875 68.32421875 C-35.48351562 69.41089844 -35.48351562 69.41089844 -35.96484375 70.51953125 C-43.10566664 86.65090825 -43.10566664 86.65090825 -51.94921875 90.07421875 C-57.78380081 90.78144082 -62.06071472 90.73491042 -67.01171875 87.32421875 C-70.65312778 82.03248305 -71.49477758 78.20018774 -71.76171875 71.88671875 C-72.45299013 62.72429956 -75.55652198 55.98301287 -80.02636719 48.07275391 C-85.65932294 38.07690923 -88.98394325 27.94760674 -85.86328125 16.484375 C-83.12785411 9.5454245 -78.71939798 3.74678459 -72.01171875 0.32421875 C-67.41730551 -1.53323689 -63.17574375 -2.0619535 -58.26171875 -2.05078125 C-57.55942139 -2.04989502 -56.85712402 -2.04900879 -56.13354492 -2.0480957 C-48.10884018 -1.86653296 -41.66222255 0.89054955 -35.01171875 5.32421875 C-34.16609375 4.56109375 -33.32046875 3.79796875 -32.44921875 3.01171875 C-23.44443289 -4.29170204 -10.40202312 -5.58300676 0 0 Z M-75.44921875 13.44921875 C-77.64222642 17.48435287 -78.19198497 20.47321163 -78.26171875 25.01171875 C-78.2875 26.00558594 -78.31328125 26.99945313 -78.33984375 28.0234375 C-77.69577759 34.50243639 -74.84685241 39.83056076 -71.64868164 45.41186523 C-67.0974758 53.37948613 -64.80438894 60.10485471 -64.01171875 69.32421875 C-63.70750252 71.22494167 -63.37623522 73.12163333 -63.01171875 75.01171875 C-62.86734375 75.79933594 -62.72296875 76.58695312 -62.57421875 77.3984375 C-62.11598812 79.54027681 -62.11598812 79.54027681 -60.01171875 81.32421875 C-54.26562102 82.11503894 -54.26562102 82.11503894 -49.4453125 79.296875 C-46.57187151 75.78694146 -45.29332401 72.58332518 -43.88671875 68.32421875 C-40.4824134 58.35052416 -40.4824134 58.35052416 -38.01171875 55.32421875 C-35.51953125 54.75 -35.51953125 54.75 -33.01171875 55.32421875 C-28.46519543 59.96502481 -26.70808302 65.9710871 -25.51171875 72.19921875 C-24.51911658 77.23474886 -24.51911658 77.23474886 -21.19921875 81.13671875 C-17.72041311 82.43274438 -15.66864389 83.0397041 -12.01171875 82.32421875 C-7.4300494 78.06797638 -7.19391306 73.71627668 -6.57421875 67.82421875 C-4.99335386 55.57694406 -1.46582811 45.82437029 5.53515625 35.56640625 C8.25641614 31.36747298 8.59885602 27.20009437 7.98828125 22.32421875 C5.61067935 14.66146563 0.47126734 10.29572031 -6.32421875 6.44921875 C-11.80324428 4.77765164 -16.94826971 4.039711 -22.359375 6.30859375 C-26.04650166 8.47670452 -28.49236701 10.19554554 -30.01171875 14.32421875 C-28.70647975 16.93469676 -27.65345301 17.00488298 -24.94921875 17.94921875 C-24.21574219 18.20960937 -23.48226562 18.47 -22.7265625 18.73828125 C-22.16066406 18.93164062 -21.59476563 19.125 -21.01171875 19.32421875 C-21.34171875 20.97421875 -21.67171875 22.62421875 -22.01171875 24.32421875 C-26.15128029 23.7154597 -29.30454379 22.21899706 -33.01171875 20.32421875 C-33.67171875 20.32421875 -34.33171875 20.32421875 -35.01171875 20.32421875 C-35.25921875 19.60234375 -35.50671875 18.88046875 -35.76171875 18.13671875 C-38.45234141 12.08281777 -42.10644352 9.04024937 -48.02734375 6.28125 C-58.80971191 2.8235534 -68.47560567 4.50868916 -75.44921875 13.44921875 Z " fill="#371551" transform="translate(406.01171875,38.67578125)"/>
<path d="M0 0 C2.58276367 0.38891602 2.58276367 0.38891602 4.38696289 1.97973633 C8.62252985 7.8095254 12.30943545 13.7850132 15.70776367 20.13891602 C16.22765869 21.10539062 16.74755371 22.07186523 17.28320312 23.06762695 C29.73814624 46.55712636 29.73814624 46.55712636 26.58276367 59.51391602 C23.99606801 67.02596368 18.51680926 72.63297466 11.58276367 76.38891602 C3.22320439 79.54346669 -3.9466884 79.24889537 -12.05786133 75.64672852 C-19.97981582 71.42343489 -23.62862139 65.75476084 -26.41723633 57.38891602 C-28.60818553 39.4231326 -15.62243093 20.94453947 -6.60473633 6.20141602 C-6.25636719 5.60723877 -5.90799805 5.01306152 -5.54907227 4.40087891 C-3.0698465 0.49391632 -3.0698465 0.49391632 0 0 Z " fill="#99B0FC" transform="translate(300.417236328125,236.611083984375)"/>
<path d="M0 0 C2.58276367 0.38891602 2.58276367 0.38891602 4.38696289 1.97973633 C8.62252985 7.8095254 12.30943545 13.7850132 15.70776367 20.13891602 C16.22765869 21.10539062 16.74755371 22.07186523 17.28320312 23.06762695 C29.73814624 46.55712636 29.73814624 46.55712636 26.58276367 59.51391602 C23.99606801 67.02596368 18.51680926 72.63297466 11.58276367 76.38891602 C3.22320439 79.54346669 -3.9466884 79.24889537 -12.05786133 75.64672852 C-19.97981582 71.42343489 -23.62862139 65.75476084 -26.41723633 57.38891602 C-28.60818553 39.4231326 -15.62243093 20.94453947 -6.60473633 6.20141602 C-6.25636719 5.60723877 -5.90799805 5.01306152 -5.54907227 4.40087891 C-3.0698465 0.49391632 -3.0698465 0.49391632 0 0 Z M-1.41723633 12.38891602 C-2.88479675 14.46459872 -4.1946138 16.51459285 -5.47973633 18.70141602 C-5.8702417 19.36351074 -6.26074707 20.02560547 -6.66308594 20.70776367 C-9.79733153 26.12777472 -12.71096306 31.64904187 -15.47973633 37.26391602 C-16.07057007 38.42080933 -16.07057007 38.42080933 -16.67333984 39.60107422 C-19.8639102 46.26551987 -20.3853184 51.87961852 -18.41723633 59.01391602 C-15.37109937 64.15427214 -11.16428523 68.47323305 -5.41723633 70.38891602 C1.79313827 71.32271863 6.86247572 70.61392526 12.70385742 66.16235352 C17.45872079 61.67439516 19.07150524 56.89018876 19.58276367 50.38891602 C16.72000028 37.12806949 8.90769092 23.03094801 0.58276367 12.38891602 C-0.07723633 12.38891602 -0.73723633 12.38891602 -1.41723633 12.38891602 Z " fill="#361553" transform="translate(300.417236328125,236.611083984375)"/>
<path d="M0 0 C0.78551239 -0.0049649 1.57102478 -0.00992981 2.38034058 -0.01504517 C4.98477039 -0.02967777 7.58913932 -0.03647006 10.19360352 -0.04199219 C11.99959821 -0.04774206 13.80559288 -0.05349981 15.61158752 -0.05926514 C19.4004037 -0.06977779 23.18919863 -0.07561895 26.97802734 -0.07910156 C31.83846537 -0.08459152 36.69862398 -0.10862904 41.55897427 -0.13707352 C45.28982877 -0.15567368 49.02061556 -0.16090406 52.75151253 -0.16243744 C54.54371737 -0.16546967 56.33592087 -0.17351732 58.12808037 -0.18662262 C60.63247997 -0.2036311 63.13619147 -0.20181602 65.640625 -0.1953125 C66.75584785 -0.20913467 66.75584785 -0.20913467 67.89360046 -0.22323608 C70.85581923 -0.1990745 72.89349342 -0.17271829 75.38465881 1.51934814 C76.38500977 3.16113281 76.38500977 3.16113281 76.13500977 5.78613281 C75.38500977 8.16113281 75.38500977 8.16113281 74.38500977 9.16113281 C71.80938557 9.26684653 69.26043802 9.30791404 66.68408203 9.30639648 C65.87760223 9.3097551 65.07112244 9.31311371 64.24020386 9.3165741 C61.56059246 9.32611297 58.88104336 9.32802867 56.20141602 9.32910156 C54.34675571 9.33231209 52.49209567 9.335676 50.63743591 9.33918762 C46.74428724 9.34518624 42.85116079 9.34702677 38.95800781 9.34643555 C33.95962299 9.34633388 28.96138007 9.35998756 23.96302891 9.37720776 C20.13098999 9.38830463 16.29898564 9.39035547 12.4669323 9.38982582 C10.62367196 9.39100938 8.78041082 9.39545205 6.93716621 9.40315819 C4.36311924 9.41291167 1.78938358 9.41009857 -0.78466797 9.40405273 C-1.55201767 9.40967224 -2.31936737 9.41529175 -3.10997009 9.42108154 C-8.38667469 9.38944835 -8.38667469 9.38944835 -10.61499023 7.16113281 C-10.36499023 4.09863281 -10.36499023 4.09863281 -9.61499023 1.16113281 C-6.55632867 -0.36819797 -3.356544 0.00503301 0 0 Z " fill="#361351" transform="translate(159.614990234375,255.8388671875)"/>
<path d="M0 0 C0.8064798 -0.0049649 1.61295959 -0.00992981 2.44387817 -0.01504517 C5.12348265 -0.02970319 7.80302796 -0.03647443 10.48266602 -0.04199219 C12.33732608 -0.04774017 14.19198611 -0.05349794 16.04664612 -0.05926514 C19.93979165 -0.06978518 23.83291646 -0.07562142 27.72607422 -0.07910156 C32.72451953 -0.08459168 37.72269315 -0.10862646 42.72105312 -0.13707352 C46.55309357 -0.15565884 50.38506801 -0.16090327 54.21714973 -0.16243744 C56.06042022 -0.16547327 57.9036893 -0.17353287 59.74691582 -0.18662262 C62.32107341 -0.20359954 64.89455979 -0.20182375 67.46875 -0.1953125 C68.61977455 -0.20913467 68.61977455 -0.20913467 69.79405212 -0.22323608 C71.91429138 -0.20635986 71.91429138 -0.20635986 75.29907227 0.16113281 C77.29907227 3.16113281 77.29907227 3.16113281 77.04907227 5.78613281 C76.67782227 6.96175781 76.67782227 6.96175781 76.29907227 8.16113281 C73.2404107 9.6904636 70.04062603 9.31723261 66.68408203 9.32226562 C65.50581345 9.32971298 65.50581345 9.32971298 64.30374146 9.33731079 C61.69931165 9.3519434 59.09494271 9.35873569 56.49047852 9.36425781 C54.68448382 9.37000769 52.87848915 9.37576544 51.07249451 9.38153076 C47.28367833 9.39204342 43.4948834 9.39788457 39.70605469 9.40136719 C34.84561666 9.40685714 29.98545805 9.43089466 25.12510777 9.45933914 C21.39425326 9.4779393 17.66346647 9.48316968 13.9325695 9.48470306 C12.14036466 9.4877353 10.34816116 9.49578295 8.55600166 9.50888824 C6.05160206 9.52589672 3.54789056 9.52408165 1.04345703 9.51757812 C0.29997513 9.52679291 -0.44350677 9.53600769 -1.20951843 9.54550171 C-4.1717372 9.52134013 -6.20941139 9.49498391 -8.70057678 7.80291748 C-9.70092773 6.16113281 -9.70092773 6.16113281 -9.45092773 3.53613281 C-7.93192908 -1.27402959 -4.3959604 0.00638709 0 0 Z " fill="#361352" transform="translate(158.700927734375,289.8388671875)"/>
<path d="M0 0 C0.8064798 -0.0049649 1.61295959 -0.00992981 2.44387817 -0.01504517 C5.12348265 -0.02970319 7.80302796 -0.03647443 10.48266602 -0.04199219 C12.33732608 -0.04774017 14.19198611 -0.05349794 16.04664612 -0.05926514 C19.93979165 -0.06978518 23.83291646 -0.07562142 27.72607422 -0.07910156 C32.72451953 -0.08459168 37.72269315 -0.10862646 42.72105312 -0.13707352 C46.55309357 -0.15565884 50.38506801 -0.16090327 54.21714973 -0.16243744 C56.06042022 -0.16547327 57.9036893 -0.17353287 59.74691582 -0.18662262 C62.32107341 -0.20359954 64.89455979 -0.20182375 67.46875 -0.1953125 C68.61977455 -0.20913467 68.61977455 -0.20913467 69.79405212 -0.22323608 C71.91429138 -0.20635986 71.91429138 -0.20635986 75.29907227 0.16113281 C77.29907227 3.16113281 77.29907227 3.16113281 77.04907227 5.78613281 C76.67782227 6.96175781 76.67782227 6.96175781 76.29907227 8.16113281 C73.24118269 9.6900776 70.04029664 9.32602952 66.68408203 9.33813477 C65.89856964 9.34470596 65.11305725 9.35127716 64.30374146 9.35804749 C61.69931957 9.37779034 59.09495528 9.38944351 56.49047852 9.39941406 C55.15839009 9.40552735 55.15839009 9.40552735 53.79939079 9.41176414 C49.10161445 9.4326263 44.40386735 9.44692897 39.70605469 9.45629883 C34.84553336 9.46738059 29.98546767 9.50180016 25.12510777 9.54147053 C21.39425279 9.56756511 17.66350772 9.57598412 13.9325695 9.57958031 C12.14034882 9.58446265 10.34813357 9.59612321 8.55600166 9.6146183 C6.05144792 9.63886472 3.54809122 9.63807214 1.04345703 9.63110352 C-0.07176582 9.6503186 -0.07176582 9.6503186 -1.20951843 9.66992188 C-4.52142202 9.63624009 -6.24294941 9.59460622 -8.70057678 7.26847839 C-9.70092773 5.16113281 -9.70092773 5.16113281 -9.45092773 2.97363281 C-7.72158041 -1.20562321 -3.95614725 0.00574807 0 0 Z " fill="#361351" transform="translate(158.700927734375,222.8388671875)"/>
<path d="M0 0 C10.91768029 -0.04627069 21.83533738 -0.08184233 32.75309563 -0.10362434 C37.82224863 -0.1140768 42.89133473 -0.12826257 47.96044922 -0.15087891 C52.84929185 -0.17255528 57.73806998 -0.1845576 62.62695694 -0.18975449 C64.49534242 -0.19345963 66.36372423 -0.20069449 68.23208237 -0.21146011 C70.84213739 -0.22590594 73.45192337 -0.22798086 76.06201172 -0.22705078 C76.8402832 -0.23424133 77.61855469 -0.24143188 78.42041016 -0.24884033 C83.77189568 -0.22810432 83.77189568 -0.22810432 86 2 C85.44444444 6.55555556 85.44444444 6.55555556 84 8 C81.42448768 8.11102896 78.87553691 8.15738935 76.29907227 8.16113281 C75.49259247 8.16609772 74.68611267 8.17106262 73.85519409 8.17617798 C71.17558961 8.190836 68.49604431 8.19760724 65.81640625 8.203125 C63.96174619 8.20887298 62.10708615 8.21463075 60.25242615 8.22039795 C56.35928062 8.23091799 52.4661558 8.23675423 48.57299805 8.24023438 C43.57455274 8.24572449 38.57637912 8.26975928 33.57801914 8.29820633 C29.74597869 8.31679166 25.91400425 8.32203608 22.08192253 8.32357025 C20.23865204 8.32660608 18.39538296 8.33466568 16.55215645 8.34775543 C13.97799885 8.36473235 11.40451248 8.36295657 8.83032227 8.35644531 C7.67929771 8.37026749 7.67929771 8.37026749 6.50502014 8.3843689 C4.38478088 8.36749268 4.38478088 8.36749268 1 8 C-1 5 -1 5 -0.625 2.3125 C-0.41875 1.549375 -0.2125 0.78625 0 0 Z " fill="#361351" transform="translate(150,324)"/>
</svg>
