<?xml version="1.0" encoding="UTF-8"?>
<svg version="1.1" xmlns="http://www.w3.org/2000/svg" width="94" height="92">
<path d="M0 0 C1.98 0 3.96 0 6 0 C6 2.97 6 5.94 6 9 C7.98 9 9.96 9 12 9 C12 6.03 12 3.06 12 0 C13.98 0 15.96 0 18 0 C18 2.97 18 5.94 18 9 C19.32 9 20.64 9 22 9 C22 10.65 22 12.3 22 14 C23.26457031 13.94779297 23.26457031 13.94779297 24.5546875 13.89453125 C25.65039062 13.86746094 26.74609375 13.84039062 27.875 13.8125 C29.51082031 13.76029297 29.51082031 13.76029297 31.1796875 13.70703125 C32.11039063 13.80371094 33.04109375 13.90039062 34 14 C36.42869909 17.64304864 36.25675675 20.30722339 36.1953125 24.51171875 C36.1924826 25.23994339 36.18965271 25.96816803 36.18673706 26.71846008 C36.17555257 29.04164137 36.15045166 31.36443547 36.125 33.6875 C36.11496794 35.2636663 36.10584248 36.83983865 36.09765625 38.41601562 C36.07561896 42.27749267 36.04110141 46.13868071 36 50 C37.32 50.33 38.64 50.66 40 51 C39.938125 49.906875 39.87625 48.81375 39.8125 47.6875 C40 44 40 44 41.14233398 42.29003906 C43.77895506 40.45906183 45.72067522 40.64377598 48.91015625 40.671875 C50.64168945 40.67960937 50.64168945 40.67960937 52.40820312 40.6875 C54.21708008 40.7184375 54.21708008 40.7184375 56.0625 40.75 C57.27228516 40.75515625 58.48207031 40.7603125 59.72851562 40.765625 C68.69157299 40.8457865 68.69157299 40.8457865 71 42 C71.02481649 47.56843749 71.04291507 53.13684241 71.05493164 58.70532227 C71.05994403 60.59758058 71.06675567 62.48983505 71.07543945 64.38208008 C71.08764098 67.11019848 71.09325938 69.83826543 71.09765625 72.56640625 C71.10281754 73.40522842 71.10797882 74.2440506 71.11329651 75.10829163 C71.11337204 75.90859299 71.11344757 76.70889435 71.11352539 77.53344727 C71.115746 78.22849869 71.11796661 78.92355011 71.12025452 79.6396637 C70.96036388 82.77797146 70.44439938 85.88920431 70 89 C60.76 89 51.52 89 42 89 C39.75 78.875 39.75 78.875 39.8046875 74.30859375 C39.81113281 73.34501953 39.81757812 72.38144531 39.82421875 71.38867188 C39.84097656 70.41478516 39.85773437 69.44089844 39.875 68.4375 C39.88402344 67.42880859 39.89304688 66.42011719 39.90234375 65.38085938 C39.92566644 62.92031543 39.95839237 60.46029104 40 58 C38.01432292 58.06510417 36.02864583 58.13020833 34.04296875 58.1953125 C32 58 32 58 29 56 C28.7332384 53.23371085 28.65195811 50.69380369 28.70703125 47.9296875 C28.71127609 47.13345978 28.71552094 46.33723206 28.71989441 45.51687622 C28.73671166 42.96924271 28.77436821 40.42239511 28.8125 37.875 C28.82754295 36.14975099 28.84123204 34.42448961 28.85351562 32.69921875 C28.88662499 28.46584218 28.93842715 24.23305441 29 20 C26.69 20 24.38 20 22 20 C22 21.98 22 23.96 22 26 C20.35 26 18.7 26 17 26 C17 27.32 17 28.64 17 30 C17.78375 29.95875 18.5675 29.9175 19.375 29.875 C22 30 22 30 24 32 C24.24723816 34.0940094 24.24723816 34.0940094 24.24291992 36.70922852 C24.24753487 38.17568565 24.24753487 38.17568565 24.25224304 39.67176819 C24.24505753 40.73012375 24.23787201 41.78847931 24.23046875 42.87890625 C24.23001053 43.96131088 24.22955231 45.04371552 24.2290802 46.15892029 C24.22605559 48.44962661 24.21816309 50.74033084 24.20581055 53.03100586 C24.18755785 56.55134303 24.18530078 60.07141734 24.18554688 63.59179688 C24.18063175 65.81250229 24.17480346 68.03320591 24.16796875 70.25390625 C24.16685593 71.31428604 24.1657431 72.37466583 24.16459656 73.46717834 C24.15821671 74.44166428 24.15183685 75.41615021 24.14526367 76.42016602 C24.13954597 77.71350609 24.13954597 77.71350609 24.13371277 79.03297424 C24 81 24 81 23 82 C22.67 84.31 22.34 86.62 22 89 C13.42 89 4.84 89 -4 89 C-4.69380154 84.14338925 -5.1683311 79.73479498 -5.31640625 74.87890625 C-5.33718735 74.21648422 -5.35796844 73.55406219 -5.37937927 72.87156677 C-5.42235393 71.47408587 -5.4634283 70.07654535 -5.50268555 68.67895508 C-5.56146999 66.59894568 -5.62689153 64.51922955 -5.69335938 62.43945312 C-5.91127253 55.34472588 -6.05174882 48.25039468 -6.08984375 41.15234375 C-6.09749756 39.85159912 -6.10515137 38.55085449 -6.11303711 37.21069336 C-6 34 -6 34 -5 31 C-3.02 30.67 -1.04 30.34 1 30 C1 28.68 1 27.36 1 26 C-0.65 26 -2.3 26 -4 26 C-4 24.02 -4 22.04 -4 20 C-6.31 20 -8.62 20 -11 20 C-10.99476318 20.60062256 -10.98952637 21.20124512 -10.98413086 21.82006836 C-10.96341986 24.52586838 -10.95035875 27.23165177 -10.9375 29.9375 C-10.92912109 30.88302734 -10.92074219 31.82855469 -10.91210938 32.80273438 C-10.90888672 33.70185547 -10.90566406 34.60097656 -10.90234375 35.52734375 C-10.89710693 36.35999756 -10.89187012 37.19265137 -10.88647461 38.05053711 C-11 40 -11 40 -12 41 C-13.66617115 41.04063832 -15.33388095 41.042721 -17 41 C-17.02886537 36.68751391 -17.04675255 32.37505238 -17.0625 28.0625 C-17.07087891 26.83080078 -17.07925781 25.59910156 -17.08789062 24.33007812 C-17.09111328 23.16025391 -17.09433594 21.99042969 -17.09765625 20.78515625 C-17.10289307 19.70113525 -17.10812988 18.61711426 -17.11352539 17.50024414 C-17 15 -17 15 -16 14 C-13.98035801 13.92755947 -11.95832876 13.91622812 -9.9375 13.9375 C-8.28041016 13.95103516 -8.28041016 13.95103516 -6.58984375 13.96484375 C-5.73519531 13.97644531 -4.88054688 13.98804688 -4 14 C-4 12.35 -4 10.7 -4 9 C-2.68 9 -1.36 9 0 9 C0 6.03 0 3.06 0 0 Z " fill="#D8E8F9" transform="translate(17,0)"/>
<path d="M0 0 C1.7315332 0.00773437 1.7315332 0.00773437 3.49804688 0.015625 C4.70396484 0.03625 5.90988281 0.056875 7.15234375 0.078125 C8.36212891 0.08328125 9.57191406 0.0884375 10.81835938 0.09375 C19.78141674 0.1739115 19.78141674 0.1739115 22.08984375 1.328125 C22.11466024 6.89656249 22.13275882 12.46496741 22.14477539 18.03344727 C22.14978778 19.92570558 22.15659942 21.81796005 22.1652832 23.71020508 C22.17748473 26.43832348 22.18310313 29.16639043 22.1875 31.89453125 C22.19266129 32.73335342 22.19782257 33.5721756 22.20314026 34.43641663 C22.20325356 35.63686867 22.20325356 35.63686867 22.20336914 36.86157227 C22.20558975 37.55662369 22.20781036 38.25167511 22.21009827 38.9677887 C22.05020763 42.10609646 21.53424313 45.21732931 21.08984375 48.328125 C11.84984375 48.328125 2.60984375 48.328125 -6.91015625 48.328125 C-8.3071498 42.04165403 -9.21874188 36.94432061 -9.2109375 30.6796875 C-9.21522263 29.90047943 -9.21950775 29.12127136 -9.22392273 28.31845093 C-9.22961428 26.69001226 -9.230205 25.0615482 -9.22583008 23.43310547 C-9.22263695 20.93804514 -9.24630542 18.44413586 -9.27148438 15.94921875 C-9.27375458 14.35937649 -9.27446216 12.76953105 -9.2734375 11.1796875 C-9.28264725 10.43594879 -9.29185699 9.69221008 -9.30134583 8.92593384 C-9.27558225 6.0658646 -9.22133847 3.85971699 -7.75683594 1.35791016 C-5.10619862 -0.12019511 -3.02460189 -0.02664645 0 0 Z " fill="#2F5272" transform="translate(65.91015625,40.671875)"/>
<path d="M0 0 C1.98 0 3.96 0 6 0 C6 2.97 6 5.94 6 9 C7.98 9 9.96 9 12 9 C12 6.03 12 3.06 12 0 C13.98 0 15.96 0 18 0 C18 2.97 18 5.94 18 9 C19.32 9 20.64 9 22 9 C22 10.65 22 12.3 22 14 C23.26457031 13.94779297 23.26457031 13.94779297 24.5546875 13.89453125 C25.65039062 13.86746094 26.74609375 13.84039062 27.875 13.8125 C29.51082031 13.76029297 29.51082031 13.76029297 31.1796875 13.70703125 C32.11039063 13.80371094 33.04109375 13.90039062 34 14 C36.42869909 17.64304864 36.25675675 20.30722339 36.1953125 24.51171875 C36.1924826 25.23994339 36.18965271 25.96816803 36.18673706 26.71846008 C36.17555257 29.04164137 36.15045166 31.36443547 36.125 33.6875 C36.11496794 35.2636663 36.10584248 36.83983865 36.09765625 38.41601562 C36.07561896 42.27749267 36.04110141 46.13868071 36 50 C37.65 50.33 39.3 50.66 41 51 C41 53.31 41 55.62 41 58 C39.5629191 58.05422947 38.12524538 58.09289723 36.6875 58.125 C35.88699219 58.14820313 35.08648437 58.17140625 34.26171875 58.1953125 C32 58 32 58 29 56 C28.7332384 53.23371085 28.65195811 50.69380369 28.70703125 47.9296875 C28.71127609 47.13345978 28.71552094 46.33723206 28.71989441 45.51687622 C28.73671166 42.96924271 28.77436821 40.42239511 28.8125 37.875 C28.82754295 36.14975099 28.84123204 34.42448961 28.85351562 32.69921875 C28.88662499 28.46584218 28.93842715 24.23305441 29 20 C26.69 20 24.38 20 22 20 C22 21.98 22 23.96 22 26 C20.35 26 18.7 26 17 26 C17 27.32 17 28.64 17 30 C18.65 30 20.3 30 22 30 C22.495 33.96 22.495 33.96 23 38 C13.43 38 3.86 38 -6 38 C-5.67 35.69 -5.34 33.38 -5 31 C-3.02 30.67 -1.04 30.34 1 30 C1 28.68 1 27.36 1 26 C-0.65 26 -2.3 26 -4 26 C-4 24.02 -4 22.04 -4 20 C-6.31 20 -8.62 20 -11 20 C-10.99476318 20.60062256 -10.98952637 21.20124512 -10.98413086 21.82006836 C-10.96341986 24.52586838 -10.95035875 27.23165177 -10.9375 29.9375 C-10.92912109 30.88302734 -10.92074219 31.82855469 -10.91210938 32.80273438 C-10.90888672 33.70185547 -10.90566406 34.60097656 -10.90234375 35.52734375 C-10.89710693 36.35999756 -10.89187012 37.19265137 -10.88647461 38.05053711 C-11 40 -11 40 -12 41 C-13.66617115 41.04063832 -15.33388095 41.042721 -17 41 C-17.02886537 36.68751391 -17.04675255 32.37505238 -17.0625 28.0625 C-17.07087891 26.83080078 -17.07925781 25.59910156 -17.08789062 24.33007812 C-17.09111328 23.16025391 -17.09433594 21.99042969 -17.09765625 20.78515625 C-17.10289307 19.70113525 -17.10812988 18.61711426 -17.11352539 17.50024414 C-17 15 -17 15 -16 14 C-13.98035801 13.92755947 -11.95832876 13.91622812 -9.9375 13.9375 C-8.28041016 13.95103516 -8.28041016 13.95103516 -6.58984375 13.96484375 C-5.73519531 13.97644531 -4.88054688 13.98804688 -4 14 C-4 12.35 -4 10.7 -4 9 C-2.68 9 -1.36 9 0 9 C0 6.03 0 3.06 0 0 Z " fill="#335677" transform="translate(17,0)"/>
<path d="M0 0 C1.95766281 -0.08082094 3.91626728 -0.13910778 5.875 -0.1875 C7.51082031 -0.23970703 7.51082031 -0.23970703 9.1796875 -0.29296875 C10.11039063 -0.19628906 11.04109375 -0.09960938 12 0 C14.42869909 3.64304864 14.25675675 6.30722339 14.1953125 10.51171875 C14.1924826 11.23994339 14.18965271 11.96816803 14.18673706 12.71846008 C14.17555257 15.04164137 14.15045166 17.36443547 14.125 19.6875 C14.11496794 21.2636663 14.10584248 22.83983865 14.09765625 24.41601562 C14.07561896 28.27749267 14.04110141 32.13868071 14 36 C15.65 36.33 17.3 36.66 19 37 C19 39.31 19 41.62 19 44 C17.5629191 44.05422947 16.12524538 44.09289723 14.6875 44.125 C13.88699219 44.14820313 13.08648437 44.17140625 12.26171875 44.1953125 C10 44 10 44 7 42 C6.7332384 39.23371085 6.65195811 36.69380369 6.70703125 33.9296875 C6.71127609 33.13345978 6.71552094 32.33723206 6.71989441 31.51687622 C6.73671166 28.96924271 6.77436821 26.42239511 6.8125 23.875 C6.82754295 22.14975099 6.84123204 20.42448961 6.85351562 18.69921875 C6.88662499 14.46584218 6.93842715 10.23305441 7 6 C4.69 6 2.38 6 0 6 C0 4.02 0 2.04 0 0 Z " fill="#DAEAF9" transform="translate(39,14)"/>
<path d="M0 0 C1.15757813 -0.00128906 2.31515625 -0.00257812 3.5078125 -0.00390625 C5.32925781 0.00189453 5.32925781 0.00189453 7.1875 0.0078125 C9.00894531 0.00201172 9.00894531 0.00201172 10.8671875 -0.00390625 C12.60355469 -0.00197266 12.60355469 -0.00197266 14.375 0 C15.44105469 0.00112793 16.50710937 0.00225586 17.60546875 0.00341797 C20.1875 0.1328125 20.1875 0.1328125 22.1875 1.1328125 C22.1875 3.4428125 22.1875 5.7528125 22.1875 8.1328125 C12.2875 8.1328125 2.3875 8.1328125 -7.8125 8.1328125 C-7.8125 5.8228125 -7.8125 3.5128125 -7.8125 1.1328125 C-5.11984639 -0.2135143 -3.01135751 0.00318614 0 0 Z " fill="#D9E9F9" transform="translate(65.8125,40.8671875)"/>
<path d="M0 0 C1.79244141 0.01740234 1.79244141 0.01740234 3.62109375 0.03515625 C5.41740234 0.04869141 5.41740234 0.04869141 7.25 0.0625 C8.17683594 0.07410156 9.10367187 0.08570313 10.05859375 0.09765625 C10.05859375 2.40765625 10.05859375 4.71765625 10.05859375 7.09765625 C7.41859375 6.76765625 4.77859375 6.43765625 2.05859375 6.09765625 C2.06383057 6.69827881 2.06906738 7.29890137 2.07446289 7.91772461 C2.09517389 10.62352463 2.108235 13.32930802 2.12109375 16.03515625 C2.12947266 16.98068359 2.13785156 17.92621094 2.14648438 18.90039062 C2.14970703 19.79951172 2.15292969 20.69863281 2.15625 21.625 C2.16148682 22.45765381 2.16672363 23.29030762 2.17211914 24.14819336 C2.05859375 26.09765625 2.05859375 26.09765625 1.05859375 27.09765625 C-0.6075774 27.13829457 -2.2752872 27.14037725 -3.94140625 27.09765625 C-3.97027162 22.78517016 -3.9881588 18.47270863 -4.00390625 14.16015625 C-4.01228516 12.92845703 -4.02066406 11.69675781 -4.02929688 10.42773438 C-4.03251953 9.25791016 -4.03574219 8.08808594 -4.0390625 6.8828125 C-4.04429932 5.7987915 -4.04953613 4.71477051 -4.05493164 3.59790039 C-3.89032257 -0.02739318 -3.67639188 0.12205816 0 0 Z " fill="#D9E9F9" transform="translate(3.94140625,13.90234375)"/>
<path d="M0 0 C1.12148438 0.00322266 2.24296875 0.00644531 3.3984375 0.00976562 C4.5740625 0.01814453 5.7496875 0.02652344 6.9609375 0.03515625 C8.14429687 0.03966797 9.32765625 0.04417969 10.546875 0.04882812 C13.47661257 0.06064158 16.40625022 0.07711367 19.3359375 0.09765625 C19.6659375 2.73765625 19.9959375 5.37765625 20.3359375 8.09765625 C10.7659375 8.09765625 1.1959375 8.09765625 -8.6640625 8.09765625 C-8.3340625 5.78765625 -8.0040625 3.47765625 -7.6640625 1.09765625 C-5.00228029 -0.23323485 -2.97666854 -0.01503368 0 0 Z " fill="#315375" transform="translate(19.6640625,29.90234375)"/>
<path d="M0 0 C4.31248609 -0.02886537 8.62494762 -0.04675255 12.9375 -0.0625 C14.16919922 -0.07087891 15.40089844 -0.07925781 16.66992188 -0.08789062 C17.83974609 -0.09111328 19.00957031 -0.09433594 20.21484375 -0.09765625 C21.84087524 -0.10551147 21.84087524 -0.10551147 23.49975586 -0.11352539 C26 0 26 0 27 1 C27 2.98 27 4.96 27 7 C17.76 7 8.52 7 -1 7 C-0.67 4.69 -0.34 2.38 0 0 Z " fill="#D5E5F5" transform="translate(60,82)"/>
<path d="M0 0 C8.58 0 17.16 0 26 0 C26 2.31 26 4.62 26 7 C17.42 7 8.84 7 0 7 C0 4.69 0 2.38 0 0 Z " fill="#2F5274" transform="translate(13,82)"/>
<path d="M0 0 C1.32 0 2.64 0 4 0 C4 14.19 4 28.38 4 43 C11.92 43 19.84 43 28 43 C28 43.33 28 43.66 28 44 C19.09 44 10.18 44 1 44 C0.67 29.48 0.34 14.96 0 0 Z " fill="#C1D1E0" transform="translate(11,38)"/>
<path d="M0 0 C3.83968859 1.4564336 5.31006462 3.28214217 7 7 C7.38231703 10.18597524 7.48960556 12.10718985 5.9375 14.9375 C2.78433176 16.66665678 0.37491745 15.8590699 -3 15 C-5 12 -5 12 -4.875 9.1875 C-3.87031216 5.52756572 -2.24226653 3.03790949 0 0 Z " fill="#0BCDFD" transform="translate(25,49)"/>
<path d="M0 0 C1.39456452 0.00667256 2.78911118 0.01863093 4.18359375 0.03515625 C4.89451172 0.03966797 5.60542969 0.04417969 6.33789062 0.04882812 C8.09899388 0.06064761 9.86005411 0.07858362 11.62109375 0.09765625 C11.62109375 2.07765625 11.62109375 4.05765625 11.62109375 6.09765625 C6.34109375 6.09765625 1.06109375 6.09765625 -4.37890625 6.09765625 C-4.37890625 0.12655798 -4.37890625 0.12655798 0 0 Z " fill="#D5E5F6" transform="translate(22.37890625,24.90234375)"/>
<path d="M0 0 C-1.485 2.475 -1.485 2.475 -3 5 C5.25 5 13.5 5 22 5 C22 5.66 22 6.32 22 7 C12.43 7 2.86 7 -7 7 C-6.67 4.69 -6.34 2.38 -6 0 C-3.50907189 -1.24546405 -2.58919267 -0.7767578 0 0 Z " fill="#405F7E" transform="translate(18,31)"/>
<path d="M0 0 C2.97 0 5.94 0 9 0 C9 2.31 9 4.62 9 7 C6.03 7 3.06 7 0 7 C0 4.69 0 2.38 0 0 Z " fill="#04BFEF" transform="translate(19,14)"/>
<path d="M0 0 C1.32 0 2.64 0 4 0 C4.33 5.61 4.66 11.22 5 17 C3.35 17 1.7 17 0 17 C0 11.39 0 5.78 0 0 Z " fill="#2A4A69" transform="translate(13,9)"/>
<path d="M0 0 C0 3.63 0 7.26 0 11 C-2.31 11.33 -4.62 11.66 -7 12 C-7 11.01 -7 10.02 -7 9 C-6.34 8.67 -5.68 8.34 -5 8 C-5.66 7.67 -6.32 7.34 -7 7 C-7 6.01 -7 5.02 -7 4 C-2.65714286 0 -2.65714286 0 0 0 Z " fill="#597894" transform="translate(39,9)"/>
<path d="M0 0 C1.98 0 3.96 0 6 0 C6 2.97 6 5.94 6 9 C4.02 9 2.04 9 0 9 C0 6.03 0 3.06 0 0 Z " fill="#DAE9F8" transform="translate(29,0)"/>
<path d="M0 0 C1.98 0 3.96 0 6 0 C6 2.97 6 5.94 6 9 C4.02 9 2.04 9 0 9 C0 6.03 0 3.06 0 0 Z " fill="#DAE9F9" transform="translate(17,0)"/>
<path d="M0 0 C0.99 0.33 1.98 0.66 3 1 C3 2.65 3 4.3 3 6 C11.91 6 20.82 6 30 6 C30 6.33 30 6.66 30 7 C20.1 7 10.2 7 0 7 C0 4.69 0 2.38 0 0 Z " fill="#B5C7D9" transform="translate(58,42)"/>
<path d="M0 0 C0.33 0 0.66 0 1 0 C1.33 3.96 1.66 7.92 2 12 C0.35 12 -1.3 12 -3 12 C-3.33 11.01 -3.66 10.02 -4 9 C-3.01439389 7.65599167 -2.01241685 6.32392972 -1 5 C-0.28566879 2.35065178 -0.28566879 2.35065178 0 0 Z " fill="#2C4F71" transform="translate(37,14)"/>
<path d="M0 0 C5.28 0 10.56 0 16 0 C15.67 0.66 15.34 1.32 15 2 C12.69571787 2.25635503 10.37908887 2.40592533 8.0625 2.5 C2.97106312 2.40311539 2.97106312 2.40311539 -1 5 C-0.67 3.35 -0.34 1.7 0 0 Z " fill="#C9D9E9" transform="translate(60,41)"/>
<path d="M0 0 C0 1.65 0 3.3 0 5 C-1.65 5.33 -3.3 5.66 -5 6 C-5 5.01 -5 4.02 -5 3 C-1.55555556 0 -1.55555556 0 0 0 Z " fill="#68849F" transform="translate(37,15)"/>
</svg>
