<?xml version="1.0" encoding="UTF-8"?>
<svg version="1.1" xmlns="http://www.w3.org/2000/svg" width="216" height="233">
<path d="M0 0 C1.47712212 -0.01441132 1.47712212 -0.01441132 2.98408508 -0.02911377 C4.0517662 -0.03336365 5.11944733 -0.03761353 6.21948242 -0.04199219 C7.31459641 -0.04769226 8.40971039 -0.05339233 9.53800964 -0.05926514 C11.85898876 -0.06872432 14.17998136 -0.07525275 16.50097656 -0.07910156 C20.04996238 -0.08879891 23.5983672 -0.1198109 27.1472168 -0.15136719 C29.40046856 -0.15789792 31.65372447 -0.16314811 33.90698242 -0.16699219 C35.49939507 -0.18551239 35.49939507 -0.18551239 37.12397766 -0.20440674 C46.1837596 -0.17705895 46.1837596 -0.17705895 50.26245117 3.16113281 C51.34526367 3.93457031 51.34526367 3.93457031 52.44995117 4.72363281 C57.55206375 11.58509456 56.51892045 21.86235062 56.41357422 29.9987793 C56.40571899 31.24387772 56.39786377 32.48897614 56.38977051 33.77180481 C56.36624056 37.1557639 56.33351831 40.53938265 56.29624152 43.92320132 C56.25907644 47.47446574 56.23303971 51.02581385 56.20552063 54.5771637 C56.15775217 60.53093305 56.10201666 66.48458469 56.04101562 72.43823242 C55.97055478 79.32066154 55.91080699 86.20311724 55.85715646 93.08569664 C55.7998488 100.4262948 55.73510708 107.7668133 55.66799951 115.1073277 C55.64917001 117.21971698 55.63169616 119.33211392 55.61450768 121.44451714 C55.58207972 125.37282719 55.54129159 129.30102579 55.49951172 133.22924805 C55.49061417 134.3996463 55.48171661 135.57004456 55.47254944 136.77590942 C55.4598703 137.84259354 55.44719116 138.90927765 55.43412781 140.00828552 C55.42055253 141.4005292 55.42055253 141.4005292 55.406703 142.82089901 C55.26245117 145.16113281 55.26245117 145.16113281 54.26245117 148.16113281 C52.41479492 149.11035156 52.41479492 149.11035156 50.19995117 149.84863281 C49.09973633 150.22568359 49.09973633 150.22568359 47.97729492 150.61035156 C47.41139648 150.79210937 46.84549805 150.97386719 46.26245117 151.16113281 C46.26245117 152.15113281 46.26245117 153.14113281 46.26245117 154.16113281 C43.62245117 154.16113281 40.98245117 154.16113281 38.26245117 154.16113281 C38.26245117 153.17113281 38.26245117 152.18113281 38.26245117 151.16113281 C26.38245117 151.16113281 14.50245117 151.16113281 2.26245117 151.16113281 C2.26245117 152.15113281 2.26245117 153.14113281 2.26245117 154.16113281 C-0.37754883 154.16113281 -3.01754883 154.16113281 -5.73754883 154.16113281 C-5.73754883 153.17113281 -5.73754883 152.18113281 -5.73754883 151.16113281 C-6.85129883 150.72800781 -7.96504883 150.29488281 -9.11254883 149.84863281 C-12.73754883 148.16113281 -12.73754883 148.16113281 -14.73754883 145.16113281 C-15.00484848 142.80248833 -15.00484848 142.80248833 -15.02947998 139.96359253 C-15.04353378 138.8870491 -15.05758759 137.81050568 -15.07206726 136.70133972 C-15.07736954 135.52001968 -15.08267181 134.33869965 -15.08813477 133.12158203 C-15.10139297 131.87738998 -15.11465118 130.63319794 -15.12831116 129.3513031 C-15.16240166 125.93567153 -15.18755756 122.52020686 -15.20812893 119.10448217 C-15.22654428 116.24949807 -15.25128608 113.39458369 -15.27609944 110.53964913 C-15.33468716 103.79796458 -15.38338768 97.05625916 -15.42553711 90.31445312 C-15.46906226 83.37358551 -15.52711741 76.43295248 -15.59278464 69.49226177 C-15.64883437 63.52527991 -15.6967523 57.55827182 -15.73803353 51.59116948 C-15.76268103 48.03115162 -15.7901055 44.47121562 -15.82494354 40.91128159 C-15.86335404 36.93324927 -15.88472815 32.95522115 -15.90454102 28.97705078 C-15.91794022 27.80787613 -15.93133942 26.63870148 -15.94514465 25.43409729 C-15.98408859 10.08587326 -15.98408859 10.08587326 -12.08129883 5.00488281 C-11.47286133 4.56144531 -10.86442383 4.11800781 -10.23754883 3.66113281 C-9.32489258 2.96503906 -9.32489258 2.96503906 -8.39379883 2.25488281 C-5.40826736 0.28330543 -3.55404629 0.02793417 0 0 Z " fill="#55CFEE" transform="translate(87.737548828125,30.8388671875)"/>
<path d="M0 0 C0.33 0.66 0.66 1.32 1 2 C2.26457031 1.84402344 3.52914062 1.68804687 4.83203125 1.52734375 C6.49214622 1.33038096 8.15230481 1.13378547 9.8125 0.9375 C11.06256836 0.7818457 11.06256836 0.7818457 12.33789062 0.62304688 C13.14033203 0.52958984 13.94277344 0.43613281 14.76953125 0.33984375 C15.87711792 0.20630493 15.87711792 0.20630493 17.00708008 0.07006836 C19 0 19 0 22 1 C25.3223202 1.19266032 28.64265539 1.31715879 31.96875 1.42578125 C35 2 35 2 36.6729126 3.73410034 C38.21913275 6.37415232 38.34222906 7.79286091 38.26464844 10.82861328 C38.24762878 11.78285187 38.23060913 12.73709045 38.21307373 13.72024536 C38.17885315 14.74326752 38.14463257 15.76628967 38.109375 16.8203125 C38.08530579 17.87531952 38.06123657 18.93032654 38.03643799 20.01730347 C37.98282019 22.24495609 37.92182798 24.47244168 37.85400391 26.69970703 C37.75019444 30.11859619 37.66801922 33.53746901 37.58984375 36.95703125 C37.53511282 39.11982388 37.47916494 41.28258614 37.421875 43.4453125 C37.38268951 44.98591843 37.38268951 44.98591843 37.3427124 46.55764771 C37.31308411 47.50558197 37.28345581 48.45351624 37.25292969 49.43017578 C37.22833679 50.26638458 37.2037439 51.10259338 37.17840576 51.96414185 C37 54 37 54 36 56 C35.9310528 57.37342831 35.91532292 58.75002102 35.9375 60.125 C35.958125 61.40375 35.97875 62.6825 36 64 C31.05 64 26.1 64 21 64 C20.34 62.35 19.68 60.7 19 59 C18.67 59.99 18.34 60.98 18 62 C17.01 61.505 17.01 61.505 16 61 C16 43.18 16 25.36 16 7 C10.39 6.67 4.78 6.34 -1 6 C-1 7.98 -1 9.96 -1 12 C-1.66 12 -2.32 12 -3 12 C-3 10.02 -3 8.04 -3 6 C-7.95 6.33 -12.9 6.66 -18 7 C-18.33 25.15 -18.66 43.3 -19 62 C-17.35 62 -15.7 62 -14 62 C-14 49.46 -14 36.92 -14 24 C-10.23312136 22.11656068 -8.97041037 21.77942165 -5 22 C-5 20.35 -5 18.7 -5 17 C-3.02 17 -1.04 17 1 17 C1 18.65 1 20.3 1 22 C1.928125 21.938125 2.85625 21.87625 3.8125 21.8125 C7 22 7 22 8.6809082 22.98754883 C10.79350215 26.21059378 10.36560282 29.6628232 10.29296875 33.38671875 C10.28872391 34.20372757 10.28447906 35.02073639 10.28010559 35.86250305 C10.26331691 38.47117107 10.22566519 41.07906562 10.1875 43.6875 C10.17245337 45.45636905 10.15876492 47.22525021 10.14648438 48.99414062 C10.11341286 53.32972496 10.0616299 57.66473136 10 62 C11.65 62 13.3 62 15 62 C15 62.33 15 62.66 15 63 C8.6814338 64.47757467 2.33017968 64.18424966 -4.125 64.1875 C-5.41277344 64.19974609 -6.70054688 64.21199219 -8.02734375 64.22460938 C-9.87392578 64.22750977 -9.87392578 64.22750977 -11.7578125 64.23046875 C-13.44608154 64.23663208 -13.44608154 64.23663208 -15.16845703 64.24291992 C-18 64 -18 64 -21 62 C-21.36076355 59.6335144 -21.36076355 59.6335144 -21.34057617 56.63232422 C-21.34034958 55.51131317 -21.34012299 54.39030212 -21.33988953 53.23532104 C-21.32440567 52.02071198 -21.30892181 50.80610291 -21.29296875 49.5546875 C-21.28872391 48.31453888 -21.28447906 47.07439026 -21.28010559 45.79666138 C-21.26613216 42.49864537 -21.23917361 39.2010665 -21.20599365 35.90319824 C-21.17531238 32.53838458 -21.16160446 29.17350696 -21.14648438 25.80859375 C-21.1133473 19.20555729 -21.06309697 12.60281442 -21 6 C-18.69 5.34 -16.38 4.68 -14 4 C-16.31 3.67 -18.62 3.34 -21 3 C-21 2.67 -21 2.34 -21 2 C-20.39937744 1.97494385 -19.79875488 1.9498877 -19.17993164 1.92407227 C-16.47388563 1.8084472 -13.76821717 1.68557064 -11.0625 1.5625 C-10.11697266 1.52318359 -9.17144531 1.48386719 -8.19726562 1.44335938 C-7.29814453 1.40146484 -6.39902344 1.35957031 -5.47265625 1.31640625 C-4.64000244 1.27974854 -3.80734863 1.24309082 -2.94946289 1.20532227 C-0.99661142 1.20632897 -0.99661142 1.20632897 0 0 Z " fill="#81D5F4" transform="translate(101,64)"/>
<path d="M0 0 C0.98474808 -0.00953201 1.96949615 -0.01906403 2.98408508 -0.02888489 C4.58560677 -0.02751778 4.58560677 -0.02751778 6.21948242 -0.02612305 C7.31459641 -0.03040817 8.40971039 -0.0346933 9.53800964 -0.03910828 C11.85899158 -0.04486021 14.17999154 -0.04534552 16.50097656 -0.04101562 C20.0500378 -0.03786392 23.59825922 -0.0612762 27.1472168 -0.08666992 C29.40047095 -0.08894366 31.65372735 -0.08964607 33.90698242 -0.08862305 C34.96859085 -0.09783279 36.03019928 -0.10704254 37.12397766 -0.11653137 C43.93458063 -0.07386227 47.53154441 0.69136803 52.57495117 5.4621582 C53.13182617 6.0602832 53.68870117 6.6584082 54.26245117 7.2746582 C53.93245117 8.2646582 53.60245117 9.2546582 53.26245117 10.2746582 C52.76745117 9.7796582 52.76745117 9.7796582 52.26245117 9.2746582 C52.26245117 40.9546582 52.26245117 72.6346582 52.26245117 105.2746582 C43.25546375 109.77815191 43.25546375 109.77815191 37.07104492 109.7355957 C36.41128662 109.73540436 35.75152832 109.73521301 35.07177734 109.73501587 C32.94706582 109.7276384 30.82427282 109.68990756 28.69995117 109.6496582 C27.23063796 109.63592917 25.76131791 109.6229142 24.29199219 109.6105957 C12.22516733 109.46619911 0.25412578 108.62992314 -11.73754883 107.2746582 C-11.76521073 105.77476859 -11.78423493 104.27471952 -11.80004883 102.7746582 C-11.81745117 101.52168945 -11.81745117 101.52168945 -11.83520508 100.2434082 C-11.73850898 97.3038467 -11.36445587 94.45932589 -10.97805786 91.54663086 C-10.50896436 87.11533117 -10.49654879 82.66446477 -10.42114258 78.2121582 C-10.40036148 77.18026367 -10.37958038 76.14836914 -10.35816956 75.08520508 C-10.29320778 71.81508524 -10.23403918 68.54489066 -10.17504883 65.2746582 C-10.13181276 63.04678614 -10.08819691 60.81892141 -10.04418945 58.59106445 C-9.93758172 53.15233954 -9.83571998 47.7135416 -9.73754883 42.2746582 C-9.40754883 42.2746582 -9.07754883 42.2746582 -8.73754883 42.2746582 C-8.72724136 42.89440018 -8.7169339 43.51414215 -8.70631409 44.15266418 C-8.59828277 50.59260685 -8.48368191 57.03240864 -8.36523438 63.47216797 C-8.32187474 65.87676043 -8.28020043 68.28138389 -8.24023438 70.68603516 C-8.18255694 74.13884837 -8.11885498 77.59150539 -8.05395508 81.04418945 C-8.02888634 82.66149712 -8.02888634 82.66149712 -8.00331116 84.31147766 C-7.98336594 85.31228867 -7.96342072 86.31309967 -7.94287109 87.34423828 C-7.92732681 88.22582108 -7.91178253 89.10740387 -7.89576721 90.01570129 C-7.82007363 92.442369 -7.82007363 92.442369 -6.73754883 95.2746582 C-3.91930691 96.68377916 -1.56503601 96.38649373 1.58276367 96.37231445 C3.46801758 96.36748047 3.46801758 96.36748047 5.39135742 96.36254883 C6.71006836 96.35416992 8.0287793 96.34579102 9.38745117 96.3371582 C10.72729329 96.3321431 12.06713718 96.32758021 13.40698242 96.32348633 C16.69218323 96.31166906 19.97729514 96.29519438 23.26245117 96.2746582 C23.16905047 90.89918229 23.06298767 85.52416399 22.94506836 80.14916992 C22.90673341 78.31981291 22.87188855 76.49037936 22.84057617 74.66088867 C22.79502312 72.03447061 22.73701386 69.40858162 22.67651367 66.7824707 C22.66496246 65.96158966 22.65341125 65.14070862 22.64151001 64.29495239 C22.70519677 59.8121938 22.70519677 59.8121938 20.26245117 56.2746582 C18.27423804 55.87701558 16.27300778 55.53690472 14.26245117 55.2746582 C14.26245117 53.6246582 14.26245117 51.9746582 14.26245117 50.2746582 C12.28245117 50.2746582 10.30245117 50.2746582 8.26245117 50.2746582 C8.26245117 51.9246582 8.26245117 53.5746582 8.26245117 55.2746582 C5.62245117 55.9346582 2.98245117 56.5946582 0.26245117 57.2746582 C-0.06754883 69.8146582 -0.39754883 82.3546582 -0.73754883 95.2746582 C-2.38754883 95.2746582 -4.03754883 95.2746582 -5.73754883 95.2746582 C-5.76283872 87.76327226 -5.78039024 80.25189724 -5.79248047 72.74047852 C-5.79751899 70.1835082 -5.8043499 67.62654077 -5.81298828 65.06958008 C-5.82507484 61.40095303 -5.83078184 57.73236398 -5.83520508 54.0637207 C-5.84294701 52.34023911 -5.84294701 52.34023911 -5.85084534 50.5819397 C-5.85092087 49.52099091 -5.8509964 48.46004211 -5.85107422 47.36694336 C-5.85329483 46.42984528 -5.85551544 45.49274719 -5.85780334 44.5272522 C-5.73754883 42.2746582 -5.73754883 42.2746582 -4.73754883 40.2746582 C-1.45235408 39.17959329 0.99908532 39.17505212 4.44995117 39.2121582 C6.0799707 39.22569336 6.0799707 39.22569336 7.74291992 39.23950195 C8.57436523 39.25110352 9.40581055 39.26270508 10.26245117 39.2746582 C10.26245117 41.2546582 10.26245117 43.2346582 10.26245117 45.2746582 C10.92245117 45.2746582 11.58245117 45.2746582 12.26245117 45.2746582 C12.26245117 43.2946582 12.26245117 41.3146582 12.26245117 39.2746582 C15.07501398 39.24781508 17.88732358 39.22789633 20.69995117 39.2121582 C21.90361328 39.19958984 21.90361328 39.19958984 23.1315918 39.18676758 C25.17540338 39.1781439 27.21929019 39.2223767 29.26245117 39.2746582 C30.26245117 40.2746582 30.26245117 40.2746582 30.37597656 42.43823242 C30.37073975 43.3922998 30.36550293 44.34636719 30.36010742 45.3293457 C30.3568042 46.40716309 30.35350098 47.48498047 30.35009766 48.59545898 C30.34179932 49.76834473 30.33350098 50.94123047 30.32495117 52.1496582 C30.32116455 53.34445801 30.31737793 54.53925781 30.31347656 55.77026367 C30.29703794 60.90783754 30.2689019 66.04533364 30.24194336 71.18286133 C30.22395864 74.92178994 30.21180085 78.66070595 30.19995117 82.3996582 C30.19165283 83.57254395 30.18335449 84.74542969 30.17480469 85.95385742 C30.17150146 87.0316748 30.16819824 88.10949219 30.16479492 89.2199707 C30.15955811 90.17403809 30.15432129 91.12810547 30.14892578 92.11108398 C30.01947133 94.25470623 30.01947133 94.25470623 31.26245117 95.2746582 C31.59245117 93.6246582 31.92245117 91.9746582 32.26245117 90.2746582 C32.59245117 90.2746582 32.92245117 90.2746582 33.26245117 90.2746582 C33.59245117 92.2546582 33.92245117 94.2346582 34.26245117 96.2746582 C39.21245117 96.6046582 44.16245117 96.9346582 49.26245117 97.2746582 C49.26245117 94.6346582 49.26245117 91.9946582 49.26245117 89.2746582 C44.64245117 89.2746582 40.02245117 89.2746582 35.26245117 89.2746582 C35.26245117 88.9446582 35.26245117 88.6146582 35.26245117 88.2746582 C39.88245117 87.9446582 44.50245117 87.6146582 49.26245117 87.2746582 C49.59245117 70.7746582 49.92245117 54.2746582 50.26245117 37.2746582 C46.96245117 37.2746582 43.66245117 37.2746582 40.26245117 37.2746582 C40.26245117 36.9446582 40.26245117 36.6146582 40.26245117 36.2746582 C37.62245117 35.6146582 34.98245117 34.9546582 32.26245117 34.2746582 C32.26245117 33.9446582 32.26245117 33.6146582 32.26245117 33.2746582 C38.53245117 33.2746582 44.80245117 33.2746582 51.26245117 33.2746582 C51.1751358 30.06506568 51.06820525 26.85813665 50.94995117 23.6496582 C50.91611328 22.29420898 50.91611328 22.29420898 50.8815918 20.91137695 C50.67169205 15.68296509 50.21319789 11.77727912 47.26245117 7.2746582 C46.60245117 6.9446582 45.94245117 6.6146582 45.26245117 6.2746582 C45.59245117 5.2846582 45.92245117 4.2946582 46.26245117 3.2746582 C43.77890076 2.032883 42.13137495 2.1542914 39.35375977 2.16113281 C38.33285248 2.16120834 37.31194519 2.16128387 36.26010132 2.16136169 C35.15486115 2.16652298 34.04962097 2.17168427 32.91088867 2.17700195 C31.21713608 2.17912437 31.21713608 2.17912437 29.48916626 2.18128967 C25.87190129 2.18690077 22.25469753 2.19945518 18.63745117 2.2121582 C16.1895354 2.21717177 13.74161866 2.22173493 11.29370117 2.22583008 C5.28326351 2.2368738 -0.72713829 2.25362277 -6.73754883 2.2746582 C-4.23911373 -0.2237769 -3.44988351 0.01829694 0 0 Z " fill="#7FD6F7" transform="translate(87.737548828125,30.725341796875)"/>
<path d="M0 0 C0.33 0 0.66 0 1 0 C1 36.3 1 72.6 1 110 C14.86 110 28.72 110 43 110 C42.67 110.66 42.34 111.32 42 112 C32.76 112.33 23.52 112.66 14 113 C40.47280786 116.30071697 40.47280786 116.30071697 67 115 C67.05434116 117.5419589 67.0938339 120.08273682 67.125 122.625 C67.14175781 123.33785156 67.15851563 124.05070312 67.17578125 124.78515625 C67.18222656 125.48769531 67.18867188 126.19023437 67.1953125 126.9140625 C67.20578613 127.5529541 67.21625977 128.1918457 67.22705078 128.85009766 C66.92242106 131.73458078 65.97891539 134.28003787 65 137 C57.1713783 137.16885149 49.34260842 137.32862198 41.51367188 137.48217773 C38.85213912 137.53479319 36.19073687 137.59075574 33.52929688 137.64819336 C29.69670285 137.73054544 25.86402325 137.8054317 22.03125 137.87890625 C20.25578796 137.91945885 20.25578796 137.91945885 18.44445801 137.96083069 C12.51801167 138.06711663 6.84715751 138.02624119 1 137 C0 136 0 136 -0.12304783 133.75298977 C-0.12166514 132.25000631 -0.12166514 132.25000631 -0.12025452 130.71665955 C-0.12162918 129.57095993 -0.12300385 128.42526031 -0.12442017 127.24484253 C-0.12082489 125.97673737 -0.11722961 124.7086322 -0.11352539 123.40209961 C-0.11324352 122.06206769 -0.11340125 120.72203561 -0.1139679 119.38200378 C-0.11425587 115.73340562 -0.1083592 112.08484005 -0.10139394 108.43624949 C-0.09516034 104.62722484 -0.0945566 100.8181995 -0.09336853 97.00917053 C-0.09025523 89.79142246 -0.08204186 82.57368946 -0.07201904 75.35594803 C-0.06085786 67.14084743 -0.05534744 58.92574612 -0.05032361 50.71063983 C-0.03985925 33.80708449 -0.02225983 16.90354384 0 0 Z " fill="#189ECA" transform="translate(74,42)"/>
<path d="M0 0 C0.90458954 -0.01606293 1.80917908 -0.03212585 2.74118042 -0.04867554 C6.86780955 -0.09321655 10.99428052 -0.13417174 15.12109375 -0.15722656 C17.29763469 -0.17380168 19.47412086 -0.20111196 21.65039062 -0.23925781 C24.79081412 -0.2940022 27.92996453 -0.31589503 31.07080078 -0.33056641 C32.04177704 -0.35323578 33.0127533 -0.37590515 34.01315308 -0.39926147 C35.37949387 -0.39498642 35.37949387 -0.39498642 36.7734375 -0.390625 C37.57047089 -0.39871185 38.36750427 -0.40679871 39.18869019 -0.41513062 C41.51611328 0.19287109 41.51611328 0.19287109 46.51611328 5.19287109 C46.51611328 12.12287109 46.51611328 19.05287109 46.51611328 26.19287109 C27.37611328 26.19287109 8.23611328 26.19287109 -11.48388672 26.19287109 C-11.48388672 5.19287109 -11.48388672 5.19287109 -7.48388672 1.19287109 C-4.68657959 0.26043538 -2.89915004 0.04687238 0 0 Z " fill="#D0F1FA" transform="translate(90.48388671875,36.80712890625)"/>
<path d="M0 0 C1.02523773 -0.00570007 2.05047546 -0.01140015 3.10678101 -0.01727295 C5.26681495 -0.02669078 7.42686305 -0.03324409 9.58691406 -0.03710938 C12.89413151 -0.0468623 16.20073943 -0.07793521 19.5078125 -0.109375 C21.60937132 -0.11590114 23.71093457 -0.12115314 25.8125 -0.125 C26.80110016 -0.1373468 27.78970032 -0.1496936 28.80825806 -0.16241455 C29.72956512 -0.15941345 30.65087219 -0.15641235 31.60009766 -0.15332031 C32.40806793 -0.15696594 33.21603821 -0.16061157 34.04849243 -0.16436768 C36.79143881 0.28868293 38.19505252 1.40486613 40.2734375 3.203125 C39.2834375 3.203125 38.2934375 3.203125 37.2734375 3.203125 C37.2734375 3.863125 37.2734375 4.523125 37.2734375 5.203125 C38.2634375 5.533125 39.2534375 5.863125 40.2734375 6.203125 C43.92276234 11.46019434 43.63153983 16.44519007 43.4609375 22.578125 C43.44063477 23.96837891 43.44063477 23.96837891 43.41992188 25.38671875 C43.38477631 27.65946498 43.33557882 29.93098347 43.2734375 32.203125 C42.70423584 32.22818115 42.13503418 32.2532373 41.54858398 32.27905273 C38.93586437 32.39606394 36.32341388 32.5183078 33.7109375 32.640625 C32.81568359 32.67994141 31.92042969 32.71925781 30.99804688 32.75976562 C26.02707155 32.99647874 21.20100899 33.47670169 16.2734375 34.203125 C14.50355715 34.26483631 12.73171993 34.29041045 10.9609375 34.265625 C10.11917969 34.25660156 9.27742188 34.24757812 8.41015625 34.23828125 C7.70503906 34.22667969 6.99992187 34.21507812 6.2734375 34.203125 C1.26233871 34.203125 -3.73022397 34.81879127 -8.7265625 35.203125 C0.8434375 35.533125 10.4134375 35.863125 20.2734375 36.203125 C20.2734375 36.533125 20.2734375 36.863125 20.2734375 37.203125 C2.9484375 37.698125 2.9484375 37.698125 -14.7265625 38.203125 C-15.0565625 55.693125 -15.3865625 73.183125 -15.7265625 91.203125 C-16.3865625 90.213125 -17.0465625 89.223125 -17.7265625 88.203125 C-18.3865625 94.143125 -19.0465625 100.083125 -19.7265625 106.203125 C-14.4465625 106.203125 -9.1665625 106.203125 -3.7265625 106.203125 C-3.7265625 106.533125 -3.7265625 106.863125 -3.7265625 107.203125 C-9.3365625 107.203125 -14.9465625 107.203125 -20.7265625 107.203125 C-21.0565625 119.413125 -21.3865625 131.623125 -21.7265625 144.203125 C-22.0565625 144.203125 -22.3865625 144.203125 -22.7265625 144.203125 C-22.90416616 127.53915855 -23.06980513 110.87512229 -23.22133827 94.21090031 C-23.29197991 86.47280787 -23.36648449 78.73478918 -23.45019531 70.99682617 C-23.52317748 64.24966858 -23.58879731 57.50248566 -23.64570653 50.75517267 C-23.67607211 47.18502357 -23.71003566 43.61499314 -23.75282669 40.04496956 C-23.800546 36.05224444 -23.83182186 32.05954804 -23.86181641 28.06665039 C-23.8783577 26.8927626 -23.89489899 25.71887482 -23.91194153 24.50941467 C-23.99082647 9.22214363 -23.99082647 9.22214363 -19.4765625 3.203125 C-13.88920775 -0.86040572 -6.65800923 0.02873971 0 0 Z M-15.7265625 8.203125 C-19.15843921 15.06687843 -16.7265625 23.52921538 -16.7265625 31.203125 C2.4134375 31.203125 21.5534375 31.203125 41.2734375 31.203125 C41.2734375 24.273125 41.2734375 17.343125 41.2734375 10.203125 C37.12979047 5.22803465 37.12979047 5.22803465 33.96620178 4.58166504 C33.17821701 4.58371948 32.39023224 4.58577393 31.57836914 4.58789062 C30.22655296 4.5739325 30.22655296 4.5739325 28.84742737 4.55969238 C27.40507973 4.58428528 27.40507973 4.58428528 25.93359375 4.609375 C24.93388046 4.60933472 23.93416718 4.60929443 22.90415955 4.60925293 C20.79354556 4.61460546 18.6829319 4.63217664 16.57250977 4.66113281 C13.35045094 4.7029367 10.1304871 4.70220351 6.90820312 4.6953125 C4.85415221 4.70580742 2.80011203 4.71874715 0.74609375 4.734375 C-0.69321754 4.73467712 -0.69321754 4.73467712 -2.16160583 4.73498535 C-7.40218723 4.82719106 -11.21998995 5.21671537 -15.7265625 8.203125 Z " fill="#72D3EE" transform="translate(95.7265625,31.796875)"/>
<path d="M0 0 C1.63001953 0.01353516 1.63001953 0.01353516 3.29296875 0.02734375 C4.12441406 0.03894531 4.95585938 0.05054687 5.8125 0.0625 C5.8125 2.0425 5.8125 4.0225 5.8125 6.0625 C6.4725 6.0625 7.1325 6.0625 7.8125 6.0625 C7.8125 4.0825 7.8125 2.1025 7.8125 0.0625 C10.62506281 0.03565688 13.43737241 0.01573812 16.25 0 C17.05244141 -0.00837891 17.85488281 -0.01675781 18.68164062 -0.02539062 C20.72545221 -0.0340143 22.76933902 0.0102185 24.8125 0.0625 C26.49262342 1.74262342 25.93997339 3.81337192 25.94189453 6.1171875 C25.94504669 7.19500488 25.94819885 8.27282227 25.95144653 9.38330078 C25.9494223 10.55618652 25.94739807 11.72907227 25.9453125 12.9375 C25.94626923 14.1322998 25.94722595 15.32709961 25.94821167 16.55810547 C25.94889371 19.0901698 25.94703778 21.62223588 25.94287109 24.15429688 C25.93752321 28.0456126 25.94281533 31.93681289 25.94921875 35.828125 C25.94855797 38.28125026 25.94727682 40.73437544 25.9453125 43.1875 C25.94733673 44.36038574 25.94936096 45.53327148 25.95144653 46.74169922 C25.94671829 48.35842529 25.94671829 48.35842529 25.94189453 50.0078125 C25.94109894 50.96187988 25.94030334 51.91594727 25.93948364 52.89892578 C25.8125 55.0625 25.8125 55.0625 24.8125 56.0625 C22.81291636 56.10330783 20.81204746 56.10504356 18.8125 56.0625 C18.79268066 54.95213379 18.77286133 53.84176758 18.75244141 52.69775391 C18.67648919 48.58635398 18.5877564 44.47531282 18.49511719 40.36425781 C18.45678435 38.58340527 18.42193911 36.80247416 18.390625 35.02148438 C18.34506729 32.46455766 18.28705893 29.9081739 18.2265625 27.3515625 C18.21501129 26.55255524 18.20346008 25.75354797 18.19155884 24.93032837 C18.23991056 20.52792788 18.23991056 20.52792788 15.8125 17.0625 C13.82428687 16.66485737 11.82305661 16.32474651 9.8125 16.0625 C9.8125 14.4125 9.8125 12.7625 9.8125 11.0625 C7.8325 11.0625 5.8525 11.0625 3.8125 11.0625 C3.8125 12.7125 3.8125 14.3625 3.8125 16.0625 C1.1725 16.7225 -1.4675 17.3825 -4.1875 18.0625 C-4.5175 30.6025 -4.8475 43.1425 -5.1875 56.0625 C-6.8375 56.0625 -8.4875 56.0625 -10.1875 56.0625 C-10.2127899 48.55111406 -10.23034141 41.03973903 -10.24243164 33.52832031 C-10.24747017 30.97134999 -10.25430107 28.41438257 -10.26293945 25.85742188 C-10.27502602 22.18879483 -10.28073301 18.52020577 -10.28515625 14.8515625 C-10.29289818 13.1280809 -10.29289818 13.1280809 -10.30079651 11.36978149 C-10.30087204 10.3088327 -10.30094757 9.24788391 -10.30102539 8.15478516 C-10.303246 7.21768707 -10.30546661 6.28058899 -10.30775452 5.31509399 C-10.1875 3.0625 -10.1875 3.0625 -9.1875 1.0625 C-5.90230525 -0.03256492 -3.45086585 -0.03710608 0 0 Z " fill="#6A6F73" transform="translate(92.1875,69.9375)"/>
<path d="M0 0 C1.98 0 3.96 0 6 0 C6 1.65 6 3.3 6 5 C6.928125 4.938125 7.85625 4.87625 8.8125 4.8125 C12 5 12 5 13.67871094 6.00341797 C15.76387596 9.15428263 15.38675143 12.48214593 15.328125 16.1328125 C15.32531525 17.32147415 15.32531525 17.32147415 15.32244873 18.53414917 C15.3157318 20.20689103 15.30182433 21.87961728 15.28125 23.55224609 C15.2500338 26.12221756 15.2402732 28.69157632 15.234375 31.26171875 C15.22520752 32.8854242 15.21483256 34.50912338 15.203125 36.1328125 C15.19675018 37.29213791 15.19675018 37.29213791 15.19024658 38.47488403 C15.11716933 43.88283067 15.11716933 43.88283067 14 45 C12.37742456 45.0991657 10.75060169 45.13079777 9.125 45.1328125 C8.14015625 45.13410156 7.1553125 45.13539062 6.140625 45.13671875 C5.10421875 45.13285156 4.0678125 45.12898438 3 45.125 C1.44539063 45.13080078 1.44539063 45.13080078 -0.140625 45.13671875 C-1.12546875 45.13542969 -2.1103125 45.13414063 -3.125 45.1328125 C-4.03507812 45.13168457 -4.94515625 45.13055664 -5.8828125 45.12939453 C-8 45 -8 45 -9 44 C-9.08858646 41.26105915 -9.11523479 38.5474673 -9.09765625 35.80859375 C-9.0962413 34.98875504 -9.09482635 34.16891632 -9.09336853 33.32423401 C-9.08775289 30.69528618 -9.07519779 28.06642227 -9.0625 25.4375 C-9.05748701 23.65950643 -9.05292376 21.88151154 -9.04882812 20.10351562 C-9.03777839 15.73564455 -9.02050331 11.36783652 -9 7 C-5.78360346 5.25434889 -3.67986596 4.795563 0 5 C0 3.35 0 1.7 0 0 Z " fill="#DDF2FB" transform="translate(96,81)"/>
<path d="M0 0 C0.33 0 0.66 0 1 0 C1 44.88 1 89.76 1 136 C-1.64 136.99 -4.28 137.98 -7 139 C-7 139.99 -7 140.98 -7 142 C-9.64 142 -12.28 142 -15 142 C-15 141.01 -15 140.02 -15 139 C-26.88 139 -38.76 139 -51 139 C-51 139.99 -51 140.98 -51 142 C-53.64 142 -56.28 142 -59 142 C-59 141.01 -59 140.02 -59 139 C-60.65 138.34 -62.3 137.68 -64 137 C-64 136.67 -64 136.34 -64 136 C-33.31 135.505 -33.31 135.505 -2 135 C-1.36540309 131.82701547 -0.86299735 129.16409628 -0.68359375 126.01171875 C-0.62075195 124.95307617 -0.62075195 124.95307617 -0.55664062 123.87304688 C-0.51732422 123.15181641 -0.47800781 122.43058594 -0.4375 121.6875 C-0.37272461 120.57665039 -0.37272461 120.57665039 -0.30664062 119.44335938 C-0.20129568 117.62908536 -0.10021684 115.8145645 0 114 C-1.7325 114.495 -1.7325 114.495 -3.5 115 C-14.51016483 117.41224268 -25.84284023 116.05589327 -36.87109375 114.51171875 C-43.87454137 113.57826579 -50.94739531 113.3316819 -58 113 C-58 112.67 -58 112.34 -58 112 C-54.10085474 111.10265371 -50.38265702 110.8113178 -46.38671875 110.68359375 C-45.26225342 110.64548584 -44.13778809 110.60737793 -42.97924805 110.56811523 C-41.56297119 110.52501221 -40.14669434 110.48190918 -38.6875 110.4375 C-34.170625 110.293125 -29.65375 110.14875 -25 110 C-44.305 109.505 -44.305 109.505 -64 109 C-64 108.67 -64 108.34 -64 108 C-63.42085846 107.99413376 -62.84171692 107.98826752 -62.24502563 107.98222351 C-56.17687481 107.91792163 -50.10923642 107.83341042 -44.04150391 107.73754883 C-41.78180733 107.70444623 -39.52203099 107.67636941 -37.26220703 107.65356445 C-33.9999821 107.61974783 -30.73847861 107.56741884 -27.4765625 107.51171875 C-25.97906967 107.50213387 -25.97906967 107.50213387 -24.45132446 107.49235535 C-15.87948087 107.31565755 -8.91801349 105.1672054 -1 102 C-0.67 68.34 -0.34 34.68 0 0 Z " fill="#29A0C0" transform="translate(141,43)"/>
<path d="M0 0 C12.02374544 -0.47882172 23.18768106 0.29635957 35.02172852 2.50024414 C43.48338823 4.03517536 51.78643233 4.58783728 60.37109375 4.82421875 C64 5 64 5 65 6 C65.16499805 10.28994923 64.84964745 13.75176275 64 18 C57.4 18 50.8 18 44 18 C44 17.34 44 16.68 44 16 C42.35 16 40.7 16 39 16 C39 15.34 39 14.68 39 14 C32.73 12.68 26.46 11.36 20 10 C20 9.34 20 8.68 20 8 C13.3487487 7.10463925 6.69007182 6.52405563 0 6 C0 4.02 0 2.04 0 0 Z " fill="#0185B9" transform="translate(76,160)"/>
<path d="M0 0 C1.2065625 0.0309375 1.2065625 0.0309375 2.4375 0.0625 C2.4375 1.0525 2.4375 2.0425 2.4375 3.0625 C3.0975 3.0625 3.7575 3.0625 4.4375 3.0625 C4.4375 2.0725 4.4375 1.0825 4.4375 0.0625 C8.3975 0.0625 12.3575 0.0625 16.4375 0.0625 C16.4375 1.3825 16.4375 2.7025 16.4375 4.0625 C15.7775 4.0625 15.1175 4.0625 14.4375 4.0625 C15.0975 4.7225 15.7575 5.3825 16.4375 6.0625 C17.0975 5.7325 17.7575 5.4025 18.4375 5.0625 C18.4375 3.4125 18.4375 1.7625 18.4375 0.0625 C25.10416667 0.0625 31.77083333 0.0625 38.4375 0.0625 C38.5625 4.8125 38.5625 4.8125 37.4375 7.0625 C35.4575 7.0625 33.4775 7.0625 31.4375 7.0625 C31.4375 8.0525 31.4375 9.0425 31.4375 10.0625 C30.4475 10.0625 29.4575 10.0625 28.4375 10.0625 C28.1075 11.0525 27.7775 12.0425 27.4375 13.0625 C27.4375 11.7425 27.4375 10.4225 27.4375 9.0625 C28.0975 9.0625 28.7575 9.0625 29.4375 9.0625 C29.4375 8.4025 29.4375 7.7425 29.4375 7.0625 C27.7875 7.0625 26.1375 7.0625 24.4375 7.0625 C24.4375 11.6825 24.4375 16.3025 24.4375 21.0625 C22.4575 21.3925 20.4775 21.7225 18.4375 22.0625 C18.4375 18.4325 18.4375 14.8025 18.4375 11.0625 C17.7775 11.0625 17.1175 11.0625 16.4375 11.0625 C16.7675 14.6925 17.0975 18.3225 17.4375 22.0625 C11.1675 22.0625 4.8975 22.0625 -1.5625 22.0625 C-4.5625 10.5625 -4.5625 10.5625 -4.5625 6.0625 C-3.9025 5.7325 -3.2425 5.4025 -2.5625 5.0625 C-2.8409375 4.1034375 -2.8409375 4.1034375 -3.125 3.125 C-3.3415625 2.1040625 -3.3415625 2.1040625 -3.5625 1.0625 C-2.5625 0.0625 -2.5625 0.0625 0 0 Z " fill="#95C5D4" transform="translate(90.5625,39.9375)"/>
<path d="M0 0 C4.29 0 8.58 0 13 0 C13 12.87 13 25.74 13 39 C9.04 39 5.08 39 1 39 C1 40.32 1 41.64 1 43 C4.96 43 8.92 43 13 43 C13 43.99 13 44.98 13 46 C8.71 46 4.42 46 0 46 C0 30.82 0 15.64 0 0 Z " fill="#DADAE0" transform="translate(123,71)"/>
<path d="M0 0 C7.22124213 0.41830366 14.04567778 0.95461111 21 3 C21 3.66 21 4.32 21 5 C21.70125 5.03738281 22.4025 5.07476562 23.125 5.11328125 C29.32251602 5.54272869 34.30009796 6.52645761 40 9 C40 9.66 40 10.32 40 11 C41.65 11 43.3 11 45 11 C45 11.66 45 12.32 45 13 C51.27 13 57.54 13 64 13 C64 13.33 64 13.66 64 14 C56.47437262 14.02545425 48.94875644 14.04291059 41.4230957 14.05493164 C38.86547429 14.05994563 36.30785573 14.06675848 33.75024414 14.07543945 C30.06395768 14.08763382 26.37770928 14.09325779 22.69140625 14.09765625 C21.55667374 14.10281754 20.42194122 14.10797882 19.25282288 14.11329651 C13.0808998 14.11372797 7.11922194 13.81533201 1 13 C0.19510911 9.98096289 -0.10855119 7.38148111 -0.0625 4.25 C-0.05347656 3.45078125 -0.04445313 2.6515625 -0.03515625 1.828125 C-0.02355469 1.22484375 -0.01195313 0.6215625 0 0 Z " fill="#02A1D8" transform="translate(75,165)"/>
<path d="M0 0 C20.16812772 -0.518609 20.16812772 -0.518609 28.0625 1.5 C40.22353357 4.54751438 54.22363682 4.53768122 66 0 C65.87133789 1.83129883 65.87133789 1.83129883 65 4 C52.89477163 11.14334258 37.56309297 9.78091407 24.0625 9.8125 C21.72198233 9.83568629 19.38148527 9.86106005 17.04101562 9.88867188 C11.36059997 9.95099019 5.68072657 9.98374659 0 10 C0 6.7 0 3.4 0 0 Z " fill="#BCEDF8" transform="translate(75,142)"/>
<path d="M0 0 C1.63001953 0.01353516 1.63001953 0.01353516 3.29296875 0.02734375 C4.12441406 0.03894531 4.95585938 0.05054687 5.8125 0.0625 C5.97126089 8.4768272 5.97126089 8.4768272 3.625 11.6875 C1.8125 13.0625 1.8125 13.0625 -4.1875 14.0625 C-4.5175 27.9225 -4.8475 41.7825 -5.1875 56.0625 C-6.8375 56.0625 -8.4875 56.0625 -10.1875 56.0625 C-10.2127899 48.55111406 -10.23034141 41.03973903 -10.24243164 33.52832031 C-10.24747017 30.97134999 -10.25430107 28.41438257 -10.26293945 25.85742188 C-10.27502602 22.18879483 -10.28073301 18.52020577 -10.28515625 14.8515625 C-10.29289818 13.1280809 -10.29289818 13.1280809 -10.30079651 11.36978149 C-10.30087204 10.3088327 -10.30094757 9.24788391 -10.30102539 8.15478516 C-10.303246 7.21768707 -10.30546661 6.28058899 -10.30775452 5.31509399 C-10.1875 3.0625 -10.1875 3.0625 -9.1875 1.0625 C-5.90230525 -0.03256492 -3.45086585 -0.03710608 0 0 Z " fill="#797C81" transform="translate(92.1875,69.9375)"/>
<path d="M0 0 C0.66 0.33 1.32 0.66 2 1 C2.96088383 3.88265149 3.11670941 5.67662271 3.09765625 8.66796875 C3.09443359 9.56064453 3.09121094 10.45332031 3.08789062 11.37304688 C3.07532227 12.76620117 3.07532227 12.76620117 3.0625 14.1875 C3.05798828 15.12787109 3.05347656 16.06824219 3.04882812 17.03710938 C3.03704626 19.35813712 3.02059558 21.67903644 3 24 C2.43079834 24.02505615 1.86159668 24.0501123 1.27514648 24.07592773 C-1.33757313 24.19293894 -3.95002362 24.3151828 -6.5625 24.4375 C-7.45775391 24.47681641 -8.35300781 24.51613281 -9.27539062 24.55664062 C-14.24636595 24.79335374 -19.07242851 25.27357669 -24 26 C-25.76988035 26.06171131 -27.54171757 26.08728545 -29.3125 26.0625 C-30.15425781 26.05347656 -30.99601562 26.04445313 -31.86328125 26.03515625 C-32.56839844 26.02355469 -33.27351563 26.01195313 -34 26 C-39.01109879 26 -44.00366147 26.61566627 -49 27 C-39.43 27.33 -29.86 27.66 -20 28 C-20 28.33 -20 28.66 -20 29 C-37.325 29.495 -37.325 29.495 -55 30 C-55.33 47.49 -55.66 64.98 -56 83 C-59.20193031 79.79806969 -59.3486241 79.10561514 -59.39547729 74.82589722 C-59.38783356 74.12916901 -59.38018982 73.4324408 -59.37231445 72.71459961 C-59.37596512 71.97610275 -59.37961578 71.2376059 -59.38337708 70.47673035 C-59.39148502 68.03503444 -59.37787222 65.5940016 -59.36328125 63.15234375 C-59.36276273 61.45748393 -59.36328013 59.76262351 -59.36479187 58.06776428 C-59.36470214 54.51603211 -59.3542701 50.96452689 -59.33618164 47.4128418 C-59.31347708 42.8539094 -59.31295336 38.2953082 -59.31969929 33.7363348 C-59.32303589 30.23711692 -59.31641532 26.73797494 -59.30657005 23.23877144 C-59.30271372 21.55740315 -59.30157163 19.87602643 -59.3031559 18.19465446 C-59.30352557 15.84827364 -59.29093503 13.50232234 -59.2746582 11.15600586 C-59.27713562 10.45725342 -59.27961304 9.75850098 -59.28216553 9.03857422 C-59.22874449 4.22874449 -59.22874449 4.22874449 -57 2 C-57 8.93 -57 15.86 -57 23 C-37.86 23 -18.72 23 1 23 C0.67 15.41 0.34 7.82 0 0 Z " fill="#69C7E8" transform="translate(136,40)"/>
<path d="M0 0 C1.98 0 3.96 0 6 0 C6 1.65 6 3.3 6 5 C6.928125 4.938125 7.85625 4.87625 8.8125 4.8125 C12 5 12 5 13.6809082 6.0012207 C15.76823705 9.16408602 15.36638073 12.5078981 15.29296875 16.16796875 C15.28872391 16.96278152 15.28447906 17.7575943 15.28010559 18.57649231 C15.2633193 21.11384021 15.22566824 23.65039238 15.1875 26.1875 C15.17245305 27.90819165 15.15876466 29.62889576 15.14648438 31.34960938 C15.11341607 35.56671262 15.06163495 39.78322142 15 44 C14.67 43.01 14.34 42.02 14 41 C8.72 41 3.44 41 -2 41 C-2 40.34 -2 39.68 -2 39 C3.28 39 8.56 39 14 39 C14 37.35 14 35.7 14 34 C5.585 34.495 5.585 34.495 -3 35 C-3 34.01 -3 33.02 -3 32 C2.61 32 8.22 32 14 32 C14 28.04 14 24.08 14 20 C9.38 20 4.76 20 0 20 C0 19.67 0 19.34 0 19 C6.93 18.01 6.93 18.01 14 17 C13.34 16.01 12.68 15.02 12 14 C5.50663961 13.08363806 -0.8658317 13.76939335 -7 16 C-7.33 20.29 -7.66 24.58 -8 29 C-8.33 29 -8.66 29 -9 29 C-9 21.74 -9 14.48 -9 7 C-5.23312136 5.11656068 -3.97041037 4.77942165 0 5 C0 3.35 0 1.7 0 0 Z " fill="#DCF0F7" transform="translate(96,81)"/>
<path d="M0 0 C0.33 0.66 0.66 1.32 1 2 C0.67 2.99 0.34 3.98 0 5 C-0.14492123 6.40664926 -0.24628931 7.8181133 -0.31640625 9.23046875 C-0.35830078 10.03291016 -0.40019531 10.83535156 -0.44335938 11.66210938 C-0.48267578 12.49548828 -0.52199219 13.32886719 -0.5625 14.1875 C-0.60568359 15.03248047 -0.64886719 15.87746094 -0.69335938 16.74804688 C-0.79931518 18.83184433 -0.9001502 20.91590103 -1 23 C1.64 23 4.28 23 7 23 C7.33 22.34 7.66 21.68 8 21 C8 21.66 8 22.32 8 23 C8.61746094 22.91621094 9.23492187 22.83242188 9.87109375 22.74609375 C15.82453683 22.03023073 21.06653189 22.13869011 27 23 C26.75443359 22.12601563 26.75443359 22.12601563 26.50390625 21.234375 C25.8066426 18.14263232 25.93928584 15.15713607 26 12 C26.66 12 27.32 12 28 12 C28 15.63 28 19.26 28 23 C29.32 23 30.64 23 32 23 C31.97679687 22.25234375 31.95359375 21.5046875 31.9296875 20.734375 C31.91164062 19.74953125 31.89359375 18.7646875 31.875 17.75 C31.85179687 16.77546875 31.82859375 15.8009375 31.8046875 14.796875 C32.00137219 11.9803502 32.55431084 10.39050964 34 8 C35.65 8 37.3 8 39 8 C39 8.66 39 9.32 39 10 C38.67 10.33 38.34 10.66 38 11 C38.99 11 39.98 11 41 11 C41 10.01 41 9.02 41 8 C43.64 8 46.28 8 49 8 C49.0272415 9.41655793 49.04650467 10.83327045 49.0625 12.25 C49.07410156 13.03890625 49.08570313 13.8278125 49.09765625 14.640625 C49.00385306 16.90691002 48.63241063 18.8288895 48 21 C48.66 21 49.32 21 50 21 C50 21.66 50 22.32 50 23 C51.98 23 53.96 23 56 23 C56 23.33 56 23.66 56 24 C36.86 24 17.72 24 -2 24 C-2 3 -2 3 0 0 Z " fill="#BAEFF7" transform="translate(81,39)"/>
<path d="M0 0 C8.45259603 -0.18830041 16.6779329 -0.1823322 25.0625 1 C36.05229553 2.53421898 46.99249187 2.57250116 58 1 C58 3.97 58 6.94 58 10 C46.47793352 9.75995695 35.19950162 8.96305932 23.8125 7.125 C22.24532227 6.88281738 22.24532227 6.88281738 20.64648438 6.63574219 C19.19145508 6.38679199 19.19145508 6.38679199 17.70703125 6.1328125 C16.8456958 5.98730957 15.98436035 5.84180664 15.09692383 5.69189453 C13 5 13 5 11 2 C8.3443272 1.41651248 8.3443272 1.41651248 5.375 1.3125 C4.37210937 1.24675781 3.36921875 1.18101562 2.3359375 1.11328125 C1.56507812 1.07589844 0.79421875 1.03851563 0 1 C0 0.67 0 0.34 0 0 Z " fill="#039DD5" transform="translate(83,156)"/>
<path d="M0 0 C5.28 0 10.56 0 16 0 C16 16.17 16 32.34 16 49 C11.05 49 6.1 49 1 49 C0 48 0 48 -0.12025452 46.05747986 C-0.11803391 45.20698563 -0.11581329 44.35649139 -0.11352539 43.48022461 C-0.11344986 42.51930405 -0.11337433 41.55838348 -0.11329651 40.56834412 C-0.10813522 39.523564 -0.10297394 38.47878387 -0.09765625 37.40234375 C-0.0962413 36.33834854 -0.09482635 35.27435333 -0.09336853 34.17811584 C-0.08775064 30.76454917 -0.07519511 27.351047 -0.0625 23.9375 C-0.05748731 21.62955824 -0.052924 19.32161545 -0.04882812 17.01367188 C-0.03777539 11.34242289 -0.02049877 5.6712224 0 0 Z M2 1 C2 16.18 2 31.36 2 47 C6.29 47 10.58 47 15 47 C15 46.01 15 45.02 15 44 C11.04 44 7.08 44 3 44 C3 42.68 3 41.36 3 40 C6.96 40 10.92 40 15 40 C15 27.13 15 14.26 15 1 C10.71 1 6.42 1 2 1 Z " fill="#71A8C0" transform="translate(121,70)"/>
<path d="M0 0 C1.47583955 0.0001591 2.95168467 0.00585225 4.42749023 0.01586914 C5.20293686 0.01728409 5.97838348 0.01869904 6.77732849 0.02015686 C9.26361893 0.02577194 11.74982059 0.03832693 14.23608398 0.05102539 C15.91772331 0.05603845 17.59936405 0.06060169 19.28100586 0.06469727 C23.41189965 0.07574626 27.54272674 0.09302094 31.67358398 0.11352539 C31.67358398 0.44352539 31.67358398 0.77352539 31.67358398 1.11352539 C26.39358398 1.11352539 21.11358398 1.11352539 15.67358398 1.11352539 C15.67358398 3.09352539 15.67358398 5.07352539 15.67358398 7.11352539 C15.01358398 7.11352539 14.35358398 7.11352539 13.67358398 7.11352539 C13.67358398 5.13352539 13.67358398 3.15352539 13.67358398 1.11352539 C8.72358398 1.44352539 3.77358398 1.77352539 -1.32641602 2.11352539 C-1.65641602 20.26352539 -1.98641602 38.41352539 -2.32641602 57.11352539 C0.64358398 56.61852539 0.64358398 56.61852539 3.67358398 56.11352539 C5.4858664 56.02709421 7.30064938 55.98298589 9.11499023 55.98071289 C10.11079102 55.97942383 11.1065918 55.97813477 12.13256836 55.97680664 C13.15672852 55.98067383 14.18088867 55.98454102 15.23608398 55.98852539 C16.26411133 55.9846582 17.29213867 55.98079102 18.35131836 55.97680664 C19.34583008 55.9780957 20.3403418 55.97938477 21.36499023 55.98071289 C22.26419189 55.98184082 23.16339355 55.98296875 24.08984375 55.98413086 C26.7069015 56.11519394 29.12131122 56.53473051 31.67358398 57.11352539 C31.67358398 57.44352539 31.67358398 57.77352539 31.67358398 58.11352539 C25.35501779 59.59110006 19.00376366 59.29777505 12.54858398 59.30102539 C11.26081055 59.31327148 9.97303711 59.32551758 8.64624023 59.33813477 C6.7996582 59.34103516 6.7996582 59.34103516 4.91577148 59.34399414 C3.22750244 59.35015747 3.22750244 59.35015747 1.50512695 59.35644531 C-1.32641602 59.11352539 -1.32641602 59.11352539 -4.32641602 57.11352539 C-4.69390869 54.75376892 -4.69390869 54.75376892 -4.68286133 51.76171875 C-4.68586243 50.64393539 -4.68886353 49.52615204 -4.69195557 48.37449646 C-4.67960876 47.16302444 -4.66726196 45.95155243 -4.65454102 44.70336914 C-4.65266785 43.46559219 -4.65079468 42.22781525 -4.64886475 40.95252991 C-4.64040495 37.65984017 -4.61839957 34.36758451 -4.59069824 31.07501221 C-4.56702384 27.72002546 -4.56571197 24.36507516 -4.56079102 21.01000977 C-4.55162131 18.47029142 -4.54124564 15.93057707 -4.52954102 13.39086914 C-4.52529114 12.17737289 -4.52104126 10.96387665 -4.5166626 9.71360779 C-4.50705505 8.59897659 -4.49744751 7.4843454 -4.48754883 6.3359375 C-4.48072083 5.34935654 -4.47389282 4.36277557 -4.46685791 3.34629822 C-4.23967738 -0.26546242 -3.73902935 0.12760724 0 0 Z " fill="#5EA1B7" transform="translate(84.326416015625,68.886474609375)"/>
<path d="M0 0 C0.98474808 -0.00953201 1.96949615 -0.01906403 2.98408508 -0.02888489 C4.58560677 -0.02751778 4.58560677 -0.02751778 6.21948242 -0.02612305 C7.31459641 -0.03040817 8.40971039 -0.0346933 9.53800964 -0.03910828 C11.85899158 -0.04486021 14.17999154 -0.04534552 16.50097656 -0.04101562 C20.0500378 -0.03786392 23.59825922 -0.0612762 27.1472168 -0.08666992 C29.40047095 -0.08894366 31.65372735 -0.08964607 33.90698242 -0.08862305 C34.96859085 -0.09783279 36.03019928 -0.10704254 37.12397766 -0.11653137 C43.93458063 -0.07386227 47.53154441 0.69136803 52.57495117 5.4621582 C53.13182617 6.0602832 53.68870117 6.6584082 54.26245117 7.2746582 C53.93245117 8.2646582 53.60245117 9.2546582 53.26245117 10.2746582 C52.76745117 9.7796582 52.76745117 9.7796582 52.26245117 9.2746582 C52.26245117 30.0646582 52.26245117 50.8546582 52.26245117 72.2746582 C51.93245117 72.2746582 51.60245117 72.2746582 51.26245117 72.2746582 C50.51510756 67.62250886 50.14309025 63.17597878 50.16479492 58.46606445 C50.16801758 57.2253418 50.17124023 55.98461914 50.17456055 54.70629883 C50.18712891 52.79107422 50.18712891 52.79107422 50.19995117 50.8371582 C50.20446289 49.53327148 50.20897461 48.22938477 50.21362305 46.88598633 C50.22535866 43.68216268 50.24177754 40.47843458 50.26245117 37.2746582 C46.96245117 37.2746582 43.66245117 37.2746582 40.26245117 37.2746582 C40.26245117 36.9446582 40.26245117 36.6146582 40.26245117 36.2746582 C37.62245117 35.6146582 34.98245117 34.9546582 32.26245117 34.2746582 C32.26245117 33.9446582 32.26245117 33.6146582 32.26245117 33.2746582 C38.53245117 33.2746582 44.80245117 33.2746582 51.26245117 33.2746582 C51.1751358 30.06506568 51.06820525 26.85813665 50.94995117 23.6496582 C50.91611328 22.29420898 50.91611328 22.29420898 50.8815918 20.91137695 C50.67169205 15.68296509 50.21319789 11.77727912 47.26245117 7.2746582 C46.60245117 6.9446582 45.94245117 6.6146582 45.26245117 6.2746582 C45.59245117 5.2846582 45.92245117 4.2946582 46.26245117 3.2746582 C43.77890076 2.032883 42.13137495 2.1542914 39.35375977 2.16113281 C38.33285248 2.16120834 37.31194519 2.16128387 36.26010132 2.16136169 C35.15486115 2.16652298 34.04962097 2.17168427 32.91088867 2.17700195 C31.21713608 2.17912437 31.21713608 2.17912437 29.48916626 2.18128967 C25.87190129 2.18690077 22.25469753 2.19945518 18.63745117 2.2121582 C16.1895354 2.21717177 13.74161866 2.22173493 11.29370117 2.22583008 C5.28326351 2.2368738 -0.72713829 2.25362277 -6.73754883 2.2746582 C-4.23911373 -0.2237769 -3.44988351 0.01829694 0 0 Z " fill="#94E2FA" transform="translate(87.737548828125,30.725341796875)"/>
<path d="M0 0 C0.66 0.33 1.32 0.66 2 1 C2.02526605 8.67211202 2.04283123 16.3442134 2.05493164 24.01635742 C2.05997377 26.62866619 2.06680725 29.24097211 2.07543945 31.85327148 C2.08751036 35.59880268 2.09322935 39.34429672 2.09765625 43.08984375 C2.10281754 44.26586655 2.10797882 45.44188934 2.11329651 46.65354919 C2.11337204 47.73459427 2.11344757 48.81563934 2.11352539 49.92944336 C2.115746 50.88652695 2.11796661 51.84361053 2.12025452 52.82969666 C2 55 2 55 1 56 C-0.98 56 -2.96 56 -5 56 C-5 43.79 -5 31.58 -5 19 C-4.67 19 -4.34 19 -4 19 C-4 30.88 -4 42.76 -4 55 C-3.01 55 -2.02 55 -1 55 C-1.00523682 53.90236328 -1.01047363 52.80472656 -1.01586914 51.67382812 C-1.03425038 47.52133023 -1.04555037 43.36883575 -1.05493164 39.21630859 C-1.05989742 37.43407584 -1.06667228 35.65184701 -1.07543945 33.86962891 C-1.1297334 22.53177559 -0.88101234 11.3071528 0 0 Z " fill="#437182" transform="translate(116,70)"/>
<path d="M0 0 C0 1.98 0 3.96 0 6 C-12.19466838 9.48419097 -24.49875232 8.24409228 -36.87109375 6.51171875 C-43.87454137 5.57826579 -50.94739531 5.3316819 -58 5 C-58 4.67 -58 4.34 -58 4 C-53.204249 2.74664845 -48.55322735 2.9250184 -43.640625 3.0078125 C-41.7838597 3.02533618 -39.9270885 3.04224375 -38.0703125 3.05859375 C-35.16291758 3.08946094 -32.25582233 3.12490691 -29.34863281 3.17138672 C-26.52926046 3.21404638 -23.71023407 3.23725813 -20.890625 3.2578125 C-20.03406311 3.27643341 -19.17750122 3.29505432 -18.29498291 3.3142395 C-13.01274026 3.33638172 -8.75799637 2.53474583 -3.81634521 0.64718628 C-2 0 -2 0 0 0 Z " fill="#6DD2F6" transform="translate(141,151)"/>
<path d="M0 0 C0.495 1.485 0.495 1.485 1 3 C-1.64 3.99 -4.28 4.98 -7 6 C-7 6.99 -7 7.98 -7 9 C-9.64 9 -12.28 9 -15 9 C-15 8.01 -15 7.02 -15 6 C-26.88 6 -38.76 6 -51 6 C-51 6.99 -51 7.98 -51 9 C-53.64 9 -56.28 9 -59 9 C-59 8.01 -59 7.02 -59 6 C-61.475 5.01 -61.475 5.01 -64 4 C-64 3.67 -64 3.34 -64 3 C-62.84155075 2.98786972 -62.84155075 2.98786972 -61.65969849 2.97549438 C-54.39039503 2.89763453 -47.12129481 2.81037048 -39.85223579 2.71247292 C-36.11490738 2.6624733 -32.37760774 2.61614389 -28.64013672 2.578125 C-25.03495675 2.54131805 -21.43001541 2.49497123 -17.82503891 2.44193649 C-16.44793752 2.42336798 -15.07078494 2.40826912 -13.69360733 2.39665604 C-11.76845599 2.37983626 -9.84343517 2.34966518 -7.91845703 2.31884766 C-6.82147491 2.30552399 -5.7244928 2.29220032 -4.5942688 2.2784729 C-1.8387819 2.25718157 -1.8387819 2.25718157 0 0 Z " fill="#9ADAEE" transform="translate(141,176)"/>
<path d="M0 0 C-0.11889648 1.8293457 -0.11889648 1.8293457 -1 4 C-12.66482392 10.72691948 -26.48096603 9.58467451 -39.4375 9.3125 C-41.53708252 9.28736016 -43.63669437 9.26455713 -45.73632812 9.24414062 C-50.82495765 9.18965576 -55.91214536 9.10370353 -61 9 C-61 8.67 -61 8.34 -61 8 C-52.09 7.67 -43.18 7.34 -34 7 C-33.67 5.68 -33.34 4.36 -33 3 C-32.38068604 3.01571045 -31.76137207 3.0314209 -31.12329102 3.04760742 C-28.26978995 3.1106403 -25.41643609 3.14920437 -22.5625 3.1875 C-21.10166992 3.22520508 -21.10166992 3.22520508 -19.61132812 3.26367188 C-13.83660497 3.32161224 -9.15220235 2.75900001 -3.75756836 0.6496582 C-2 0 -2 0 0 0 Z " fill="#B8ECF9" transform="translate(141,142)"/>
<path d="M0 0 C2.31 0 4.62 0 7 0 C6.67 1.98 6.34 3.96 6 6 C7.65 6 9.3 6 11 6 C11 18.87 11 31.74 11 45 C10.01 45 9.02 45 8 45 C8 33.12 8 21.24 8 9 C5.01193893 7.50596946 2.10343799 6.20689255 -1 5 C-0.67 3.35 -0.34 1.7 0 0 Z " fill="#515052" transform="translate(104,80)"/>
<path d="M0 0 C15.18 0 30.36 0 46 0 C46.495 0.99 46.495 0.99 47 2 C45.35 2 43.7 2 42 2 C41.67 2.99 41.34 3.98 41 5 C40.505 4.01 40.505 4.01 40 3 C34.39 3 28.78 3 23 3 C23 4.65 23 6.3 23 8 C28.61 8 34.22 8 40 8 C40 8.33 40 8.66 40 9 C30.1 9.495 30.1 9.495 20 10 C19.67 9.01 19.34 8.02 19 7 C19.66 7 20.32 7 21 7 C19.33075929 3.95865509 19.33075929 3.95865509 17 3 C16.67 3.99 16.34 4.98 16 6 C16 5.01 16 4.02 16 3 C13.69 3 11.38 3 9 3 C9 3.99 9 4.98 9 6 C8.34 5.67 7.68 5.34 7 5 C7.33 3.68 7.66 2.36 8 1 C5.36 1 2.72 1 0 1 C0 0.67 0 0.34 0 0 Z " fill="#C1EFFC" transform="translate(86,37)"/>
<path d="M0 0 C6.66666667 0 13.33333333 0 20 0 C20.125 4.75 20.125 4.75 19 7 C17.02 7 15.04 7 13 7 C13 7.99 13 8.98 13 10 C12.01 10 11.02 10 10 10 C9.67 10.99 9.34 11.98 9 13 C9 11.68 9 10.36 9 9 C9.66 9 10.32 9 11 9 C11 8.34 11 7.68 11 7 C9.35 7 7.7 7 6 7 C6 11.62 6 16.24 6 21 C5.01 21 4.02 21 3 21 C3 17.04 3 13.08 3 9 C3.66 9 4.32 9 5 9 C5 8.34 5 7.68 5 7 C3.02 7 1.04 7 -1 7 C-1.33 7.99 -1.66 8.98 -2 10 C-2 8.68 -2 7.36 -2 6 C-1.34 5.67 -0.68 5.34 0 5 C0 3.35 0 1.7 0 0 Z " fill="#6CB3CA" transform="translate(109,40)"/>
<path d="M0 0 C1.2065625 0.0309375 1.2065625 0.0309375 2.4375 0.0625 C2.4375 1.0525 2.4375 2.0425 2.4375 3.0625 C3.0975 3.0625 3.7575 3.0625 4.4375 3.0625 C4.4375 2.0725 4.4375 1.0825 4.4375 0.0625 C8.3975 0.0625 12.3575 0.0625 16.4375 0.0625 C16.4375 1.3825 16.4375 2.7025 16.4375 4.0625 C15.7775 4.0625 15.1175 4.0625 14.4375 4.0625 C14.4375 4.7225 14.4375 5.3825 14.4375 6.0625 C12.7875 6.3925 11.1375 6.7225 9.4375 7.0625 C9.1075 9.3725 8.7775 11.6825 8.4375 14.0625 C8.1075 14.0625 7.7775 14.0625 7.4375 14.0625 C7.4375 11.7525 7.4375 9.4425 7.4375 7.0625 C6.7775 7.0625 6.1175 7.0625 5.4375 7.0625 C5.4375 9.0425 5.4375 11.0225 5.4375 13.0625 C4.7775 12.4025 4.1175 11.7425 3.4375 11.0625 C3.4375 9.7425 3.4375 8.4225 3.4375 7.0625 C2.7775 7.0625 2.1175 7.0625 1.4375 7.0625 C1.4375 8.3825 1.4375 9.7025 1.4375 11.0625 C0.7775 11.0625 0.1175 11.0625 -0.5625 11.0625 C-0.5625 9.7425 -0.5625 8.4225 -0.5625 7.0625 C-1.2225 7.0625 -1.8825 7.0625 -2.5625 7.0625 C-2.2325 8.0525 -1.9025 9.0425 -1.5625 10.0625 C-1.49447033 11.79045352 -1.47754355 13.52085365 -1.5 15.25 C-1.50902344 16.15105469 -1.51804687 17.05210938 -1.52734375 17.98046875 C-1.53894531 18.66753906 -1.55054687 19.35460937 -1.5625 20.0625 C-3.35525866 16.94339144 -3.90540718 14.38567572 -4.1875 10.8125 C-4.26226562 9.92046875 -4.33703125 9.0284375 -4.4140625 8.109375 C-4.46304688 7.43390625 -4.51203125 6.7584375 -4.5625 6.0625 C-3.9025 5.7325 -3.2425 5.4025 -2.5625 5.0625 C-2.8409375 4.1034375 -2.8409375 4.1034375 -3.125 3.125 C-3.3415625 2.1040625 -3.3415625 2.1040625 -3.5625 1.0625 C-2.5625 0.0625 -2.5625 0.0625 0 0 Z " fill="#7DBBD2" transform="translate(90.5625,39.9375)"/>
<path d="M0 0 C2.64 0 5.28 0 8 0 C8 4.95 8 9.9 8 15 C3.38 15 -1.24 15 -6 15 C-4.68 14.67 -3.36 14.34 -2 14 C-2 13.01 -2 12.02 -2 11 C-2.66 11 -3.32 11 -4 11 C-4 10.01 -4 9.02 -4 8 C-3.34 8 -2.68 8 -2 8 C-2.33 6.35 -2.66 4.7 -3 3 C-2.01 3 -1.02 3 0 3 C0 2.01 0 1.02 0 0 Z " fill="#9FCEDA" transform="translate(122,47)"/>
<path d="M0 0 C0.33 0 0.66 0 1 0 C1 11.88 1 23.76 1 36 C0.67 35.01 0.34 34.02 0 33 C-5.28 33 -10.56 33 -16 33 C-16 32.34 -16 31.68 -16 31 C-10.72 31 -5.44 31 0 31 C0 29.35 0 27.7 0 26 C-8.415 26.495 -8.415 26.495 -17 27 C-17 26.01 -17 25.02 -17 24 C-11.39 24 -5.78 24 0 24 C0 20.04 0 16.08 0 12 C-4.62 12 -9.24 12 -14 12 C-14 11.67 -14 11.34 -14 11 C-7.07 10.01 -7.07 10.01 0 9 C-0.66 8.01 -1.32 7.02 -2 6 C-5.35503476 5.63441883 -5.35503476 5.63441883 -9.125 5.8125 C-10.40632813 5.83957031 -11.68765625 5.86664063 -13.0078125 5.89453125 C-13.99523437 5.92933594 -14.98265625 5.96414062 -16 6 C-16.33 5.34 -16.66 4.68 -17 4 C-14.72979256 3.80506805 -12.45879711 3.61929582 -10.1875 3.4375 C-8.92292969 3.33308594 -7.65835938 3.22867188 -6.35546875 3.12109375 C-3 3 -3 3 0 4 C0 2.68 0 1.36 0 0 Z " fill="#CEE6F1" transform="translate(110,89)"/>
<path d="M0 0 C4.95 0 9.9 0 15 0 C15 2.64 15 5.28 15 8 C10.05 8 5.1 8 0 8 C0 5.36 0 2.72 0 0 Z " fill="#09A6D4" transform="translate(122,120)"/>
<path d="M0 0 C0.99 0 1.98 0 3 0 C3 0.66 3 1.32 3 2 C2.34 2 1.68 2 1 2 C1 2.99 1 3.98 1 5 C1.66 5 2.32 5 3 5 C3.33 4.01 3.66 3.02 4 2 C4.66 2 5.32 2 6 2 C6 2.99 6 3.98 6 5 C6.66 5 7.32 5 8 5 C8.33 4.34 8.66 3.68 9 3 C10.43409651 7.30228952 9.78065858 10.60879548 9 15 C7.02 15.33 5.04 15.66 3 16 C3 14.02 3 12.04 3 10 C2.34 11.65 1.68 13.3 1 15 C-1 12 -1 12 -1 9 C-0.01 8.34 0.98 7.68 2 7 C1.01 7.33 0.02 7.66 -1 8 C-0.67 5.36 -0.34 2.72 0 0 Z " fill="#C4BEC4" transform="translate(125,89)"/>
<path d="M0 0 C0.99 1.485 0.99 1.485 2 3 C2.99 3.33 3.98 3.66 5 4 C4.67 4.99 4.34 5.98 4 7 C4.38932856 9.14255793 4.38932856 9.14255793 5 11 C3.68 11 2.36 11 1 11 C1 11.99 1 12.98 1 14 C2.32 14 3.64 14 5 14 C5 14.66 5 15.32 5 16 C4.01 16 3.02 16 2 16 C2 18.31 2 20.62 2 23 C2.99 23 3.98 23 5 23 C4.67 23.66 4.34 24.32 4 25 C3.01 25 2.02 25 1 25 C1.33 26.98 1.66 28.96 2 31 C2.66 31 3.32 31 4 31 C4 31.99 4 32.98 4 34 C2.02 34.495 2.02 34.495 0 35 C0 23.45 0 11.9 0 0 Z " fill="#D7E0E6" transform="translate(123,73)"/>
<path d="M0 0 C0.66 0 1.32 0 2 0 C2 1.32 2 2.64 2 4 C2.66 4 3.32 4 4 4 C4 2.68 4 1.36 4 0 C4.66 0 5.32 0 6 0 C6.33 1.32 6.66 2.64 7 4 C7.33 2.68 7.66 1.36 8 0 C8.66 0 9.32 0 10 0 C9.67 4.29 9.34 8.58 9 13 C8.01 13 7.02 13 6 13 C6 11.68 6 10.36 6 9 C5.34 9 4.68 9 4 9 C3.67 10.65 3.34 12.3 3 14 C2.34 13.67 1.68 13.34 1 13 C0.5859375 10.05859375 0.5859375 10.05859375 0.375 6.4375 C0.30023438 5.23996094 0.22546875 4.04242188 0.1484375 2.80859375 C0.09945312 1.88175781 0.05046875 0.95492187 0 0 Z " fill="#CCE7ED" transform="translate(88,47)"/>
<path d="M0 0 C4.29 0 8.58 0 13 0 C12.34 2.97 11.68 5.94 11 9 C10.01 8.67 9.02 8.34 8 8 C8.66 8 9.32 8 10 8 C10 7.34 10 6.68 10 6 C8.05000871 6.19471111 8.05000871 6.19471111 6 7 C4.71563266 8.9837767 4.71563266 8.9837767 4 11 C4 10.34 4 9.68 4 9 C3.34 8.67 2.68 8.34 2 8 C2.99 8 3.98 8 5 8 C5 7.34 5 6.68 5 6 C3.68 5.67 2.36 5.34 1 5 C0.67 3.35 0.34 1.7 0 0 Z " fill="#C9D1D2" transform="translate(123,71)"/>
<path d="M0 0 C6.27 0.33 12.54 0.66 19 1 C19 1.33 19 1.66 19 2 C16.69 2.33 14.38 2.66 12 3 C14.31 3.33 16.62 3.66 19 4 C19 4.66 19 5.32 19 6 C12.73 6 6.46 6 0 6 C0 4.02 0 2.04 0 0 Z " fill="#D2EDF9" transform="translate(77,143)"/>
<path d="M0 0 C0.66 0 1.32 0 2 0 C2 0.99 2 1.98 2 3 C2.66 3 3.32 3 4 3 C4 2.01 4 1.02 4 0 C4.66 0 5.32 0 6 0 C6.25 6.625 6.25 6.625 4 10 C2.67405895 10.36162029 1.34061543 10.69728039 0 11 C-0.33 11.66 -0.66 12.32 -1 13 C-1.66 13 -2.32 13 -3 13 C-3 12.01 -3 11.02 -3 10 C-2.34 10 -1.68 10 -1 10 C-1 8.68 -1 7.36 -1 6 C-2.32 6 -3.64 6 -5 6 C-5 5.01 -5 4.02 -5 3 C-3.68 3 -2.36 3 -1 3 C-0.67 2.01 -0.34 1.02 0 0 Z " fill="#C4CBCE" transform="translate(129,81)"/>
<path d="M0 0 C0.33 0 0.66 0 1 0 C1 15.51 1 31.02 1 47 C2.32 47.33 3.64 47.66 5 48 C4.67 50.64 4.34 53.28 4 56 C3.34 54.68 2.68 53.36 2 52 C1.67 52.99 1.34 53.98 1 55 C0.34 54.67 -0.32 54.34 -1 54 C-0.67 36.18 -0.34 18.36 0 0 Z " fill="#6FCDEF" transform="translate(118,71)"/>
<path d="M0 0 C0.99 0 1.98 0 3 0 C3 1.65 3 3.3 3 5 C-5.06296075 8.69816901 -11.25289089 9.4044224 -20 8 C-16.20960634 5.87000003 -13.34263862 5.83297544 -9 6 C-9 5.34 -9 4.68 -9 4 C-2.25 2.875 -2.25 2.875 0 4 C-0.33 3.01 -0.66 2.02 -1 1 C-0.67 0.67 -0.34 0.34 0 0 Z " fill="#089FD7" transform="translate(138,146)"/>
<path d="M0 0 C0 1.98 0 3.96 0 6 C-11.10325432 11.70442424 -24.94155213 11.41955806 -37 9 C-37 8.67 -37 8.34 -37 8 C-28.09 8 -19.18 8 -10 8 C-10 7.34 -10 6.68 -10 6 C-7.69 6 -5.38 6 -3 6 C-3 5.01 -3 4.02 -3 3 C-4.32 2.67 -5.64 2.34 -7 2 C-4.35261084 0.5393715 -3.10551666 0 0 0 Z " fill="#27B9DE" transform="translate(141,136)"/>
<path d="M0 0 C0.66 1.32 1.32 2.64 2 4 C2.75152344 3.83757812 3.50304687 3.67515625 4.27734375 3.5078125 C9.38315683 2.81132173 14.41589264 2.85556662 19.5625 2.875 C20.59052734 2.87113281 21.61855469 2.86726563 22.67773438 2.86328125 C23.67224609 2.86457031 24.66675781 2.86585937 25.69140625 2.8671875 C26.59060791 2.86831543 27.48980957 2.86944336 28.41625977 2.87060547 C31.03331752 3.00166855 33.44772724 3.42120512 36 4 C36 4.33 36 4.66 36 5 C29.6814338 6.47757467 23.33017968 6.18424966 16.875 6.1875 C15.58722656 6.19974609 14.29945312 6.21199219 12.97265625 6.22460938 C11.12607422 6.22750977 11.12607422 6.22750977 9.2421875 6.23046875 C7.55391846 6.23663208 7.55391846 6.23663208 5.83154297 6.24291992 C3 6 3 6 0 4 C0 2.68 0 1.36 0 0 Z " fill="#50AECD" transform="translate(80,122)"/>
<path d="M0 0 C1.45903258 0.30921884 2.91720722 0.62248799 4.375 0.9375 C5.18710938 1.11152344 5.99921875 1.28554687 6.8359375 1.46484375 C9 2 9 2 11 3 C11 3.66 11 4.32 11 5 C12.65 5 14.3 5 16 5 C16 5.33 16 5.66 16 6 C10.06 6 4.12 6 -2 6 C-1.34 5.67 -0.68 5.34 0 5 C0 3.35 0 1.7 0 0 Z " fill="#059CD8" transform="translate(104,171)"/>
<path d="M0 0 C11.1952557 -0.24939926 21.9252571 0.33059057 33 2 C33 2.33 33 2.66 33 3 C22.605 3.495 22.605 3.495 12 4 C11.67 3.34 11.34 2.68 11 2 C8.41394668 1.5316735 8.41394668 1.5316735 5.4375 1.375 C3.91962891 1.26285156 3.91962891 1.26285156 2.37109375 1.1484375 C1.19740234 1.07496094 1.19740234 1.07496094 0 1 C0 0.67 0 0.34 0 0 Z " fill="#16A1D3" transform="translate(83,156)"/>
<path d="M0 0 C1.65 0 3.3 0 5 0 C5 0.66 5 1.32 5 2 C4.34 2 3.68 2 3 2 C3 3.32 3 4.64 3 6 C3.66 6 4.32 6 5 6 C5 6.66 5 7.32 5 8 C4.34 8 3.68 8 3 8 C3 8.99 3 9.98 3 11 C3.66 11 4.32 11 5 11 C5 11.66 5 12.32 5 13 C3.68 13 2.36 13 1 13 C-0.32229189 10.35541621 -0.09677194 8.32238699 -0.0625 5.375 C-0.05347656 4.37210938 -0.04445313 3.36921875 -0.03515625 2.3359375 C-0.02355469 1.56507812 -0.01195313 0.79421875 0 0 Z " fill="#D7F2F4" transform="translate(115,47)"/>
<path d="M0 0 C3.96 0 7.92 0 12 0 C12 1.32 12 2.64 12 4 C8.04 4 4.08 4 0 4 C0 2.68 0 1.36 0 0 Z " fill="#BB748E" transform="translate(124,110)"/>
<path d="M0 0 C2.31 0 4.62 0 7 0 C6.67 1.98 6.34 3.96 6 6 C7.65 6 9.3 6 11 6 C10.360625 6.12375 9.72125 6.2475 9.0625 6.375 C8.381875 6.58125 7.70125 6.7875 7 7 C6.67 7.66 6.34 8.32 6 9 C5.34 8.34 4.68 7.68 4 7 C2.35008418 6.29289322 0.68437744 5.62056011 -1 5 C-0.67 3.35 -0.34 1.7 0 0 Z " fill="#5C6060" transform="translate(104,80)"/>
<path d="M0 0 C1.65 0 3.3 0 5 0 C5 4.29 5 8.58 5 13 C4.34 12.67 3.68 12.34 3 12 C3 11.01 3 10.02 3 9 C2.34 9 1.68 9 1 9 C1 9.99 1 10.98 1 12 C0.34 12 -0.32 12 -1 12 C-1 9.69 -1 7.38 -1 5 C0.32 5.33 1.64 5.66 3 6 C3 4.35 3 2.7 3 1 C2.01 1.33 1.02 1.66 0 2 C0 1.34 0 0.68 0 0 Z " fill="#DEF7FA" transform="translate(123,48)"/>
<path d="M0 0 C3.96 0.33 7.92 0.66 12 1 C12.33 2.65 12.66 4.3 13 6 C10.36 6 7.72 6 5 6 C5 5.01 5 4.02 5 3 C2.525 2.01 2.525 2.01 0 1 C0 0.67 0 0.34 0 0 Z " fill="#95ABAF" transform="translate(77,179)"/>
<path d="M0 0 C1.4606285 2.64738916 2 3.89448334 2 7 C2.66 7 3.32 7 4 7 C4 6.01 4 5.02 4 4 C4.66 4 5.32 4 6 4 C6.33 4.99 6.66 5.98 7 7 C7.66 5.68 8.32 4.36 9 3 C9.33 4.98 9.66 6.96 10 9 C5.38 9 0.76 9 -4 9 C-2.68 8.67 -1.36 8.34 0 8 C0 7.01 0 6.02 0 5 C-0.66 5 -1.32 5 -2 5 C-2 4.01 -2 3.02 -2 2 C-1.34 2 -0.68 2 0 2 C0 1.34 0 0.68 0 0 Z " fill="#80B5C8" transform="translate(120,53)"/>
<path d="M0 0 C3.0000624 -0.02721831 5.99987256 -0.04694378 9 -0.0625 C9.83917969 -0.07087891 10.67835937 -0.07925781 11.54296875 -0.08789062 C16.79319339 -0.10824033 21.80455662 0.23631793 27 1 C27 1.33 27 1.66 27 2 C21.29309366 2.99250545 15.78591511 3.10477512 10 3 C10 2.34 10 1.68 10 1 C6.7 1 3.4 1 0 1 C0 0.67 0 0.34 0 0 Z " fill="#67C8EE" transform="translate(92,63)"/>
<path d="M0 0 C0.33 0 0.66 0 1 0 C1.33 4.29 1.66 8.58 2 13 C5.1865625 13.185625 5.1865625 13.185625 8.4375 13.375 C12.05859375 13.5859375 12.05859375 13.5859375 15 14 C15.33 14.66 15.66 15.32 16 16 C13.52076199 16.02685095 11.0418116 16.04676547 8.5625 16.0625 C7.85544922 16.07087891 7.14839844 16.07925781 6.41992188 16.08789062 C4.61306441 16.09653588 2.80612397 16.05220011 1 16 C0 15 0 15 -0.09765625 11.62109375 C-0.09098369 10.22652923 -0.07902532 8.83198257 -0.0625 7.4375 C-0.05798828 6.72658203 -0.05347656 6.01566406 -0.04882812 5.28320312 C-0.03700864 3.52209987 -0.01907263 1.76103964 0 0 Z " fill="#6FABC4" transform="translate(121,103)"/>
<path d="M0 0 C2 3 2 3 1.625 6.1875 C1.41875 7.115625 1.2125 8.04375 1 9 C-0.98 9.33 -2.96 9.66 -5 10 C-5 8.02 -5 6.04 -5 4 C-4.34 4 -3.68 4 -3 4 C-2.67 3.01 -2.34 2.02 -2 1 C-1.34 0.67 -0.68 0.34 0 0 Z " fill="#CDB6C0" transform="translate(133,95)"/>
<path d="M0 0 C0.99 0.33 1.98 0.66 3 1 C3.98248524 5.0527516 4.08159574 8.83861737 4 13 C2.02 13 0.04 13 -2 13 C-1.67 12.01 -1.34 11.02 -1 10 C-0.01 10 0.98 10 2 10 C1.67 9.01 1.34 8.02 1 7 C0.34 7 -0.32 7 -1 7 C-0.67 4.69 -0.34 2.38 0 0 Z " fill="#DFF5F7" transform="translate(102,47)"/>
<path d="M0 0 C1.2065625 0.0309375 1.2065625 0.0309375 2.4375 0.0625 C2.4375 1.0525 2.4375 2.0425 2.4375 3.0625 C3.0975 3.0625 3.7575 3.0625 4.4375 3.0625 C4.4375 2.0725 4.4375 1.0825 4.4375 0.0625 C5.4275 0.0625 6.4175 0.0625 7.4375 0.0625 C7.1075 1.7125 6.7775 3.3625 6.4375 5.0625 C3.4675 5.0625 0.4975 5.0625 -2.5625 5.0625 C-2.8925 3.7425 -3.2225 2.4225 -3.5625 1.0625 C-2.5625 0.0625 -2.5625 0.0625 0 0 Z " fill="#5DB7D7" transform="translate(90.5625,39.9375)"/>
<path d="M0 0 C1.48831242 0.00667405 2.97660807 0.01863442 4.46484375 0.03515625 C5.22345703 0.03966797 5.98207031 0.04417969 6.76367188 0.04882812 C8.64326246 0.06064945 10.52281274 0.07858547 12.40234375 0.09765625 C12.40234375 0.75765625 12.40234375 1.41765625 12.40234375 2.09765625 C7.33401373 3.36473876 1.84104045 4.07313493 -3.09765625 2.09765625 C-3.59265625 1.76765625 -4.08765625 1.43765625 -4.59765625 1.09765625 C-3.59765625 0.09765625 -3.59765625 0.09765625 0 0 Z " fill="#D1EAF9" transform="translate(96.59765625,105.90234375)"/>
<path d="M0 0 C4.29 0 8.58 0 13 0 C12.67 1.32 12.34 2.64 12 4 C9.69 4.33 7.38 4.66 5 5 C5 3.68 5 2.36 5 1 C3.35 1.33 1.7 1.66 0 2 C0 1.34 0 0.68 0 0 Z " fill="#C9D9E0" transform="translate(123,71)"/>
<path d="M0 0 C3.96 0 7.92 0 12 0 C12 0.99 12 1.98 12 3 C7.71 3 3.42 3 -1 3 C-0.67 2.01 -0.34 1.02 0 0 Z " fill="#CCDADE" transform="translate(124,114)"/>
<path d="M0 0 C0.99 0.33 1.98 0.66 3 1 C3 2.65 3 4.3 3 6 C3.66 6.33 4.32 6.66 5 7 C0.71 7 -3.58 7 -8 7 C-7 5 -6 3 -5 1 C-4.34 1 -3.68 1 -3 1 C-3 2.32 -3 3.64 -3 5 C-2.01 5 -1.02 5 0 5 C0 3.35 0 1.7 0 0 Z " fill="#85B6C7" transform="translate(97,55)"/>
<path d="M0 0 C1.98 0 3.96 0 6 0 C6.33 1.65 6.66 3.3 7 5 C4.36 5 1.72 5 -1 5 C-0.67 3.35 -0.34 1.7 0 0 Z " fill="#93989C" transform="translate(127,180)"/>
<path d="M0 0 C2.31 0 4.62 0 7 0 C7 0.33 7 0.66 7 1 C5.02 1 3.04 1 1 1 C1 2.65 1 4.3 1 6 C-1.64 6.33 -4.28 6.66 -7 7 C-7 6.01 -7 5.02 -7 4 C-5.02 3.67 -3.04 3.34 -1 3 C-0.67 2.01 -0.34 1.02 0 0 Z " fill="#757E85" transform="translate(95,80)"/>
<path d="M0 0 C5.61 0 11.22 0 17 0 C12.9566353 2.02168235 10.67870655 2.35927761 6.25 2.625 C5.07953125 2.69976562 3.9090625 2.77453125 2.703125 2.8515625 C1.81109375 2.90054688 0.9190625 2.94953125 0 3 C0 2.01 0 1.02 0 0 Z " fill="#06AFDE" transform="translate(75,139)"/>
<path d="M0 0 C-0.33 0.66 -0.66 1.32 -1 2 C-7.7685324 2.10152799 -14.30324864 2.03026944 -21 1 C-21 0.67 -21 0.34 -21 0 C-13.81191259 -0.88826175 -7.17757765 -1.01202288 0 0 Z " fill="#70D8FB" transform="translate(101,64)"/>
<path d="M0 0 C1.98 0 3.96 0 6 0 C6 0.66 6 1.32 6 2 C5.34 2 4.68 2 4 2 C4 5.63 4 9.26 4 13 C3.34 13 2.68 13 2 13 C2 9.37 2 5.74 2 2 C1.34 2 0.68 2 0 2 C0 1.34 0 0.68 0 0 Z " fill="#DEF7F9" transform="translate(108,47)"/>
<path d="M0 0 C5.53846154 -0.36923077 5.53846154 -0.36923077 7.875 1.5 C8.24625 1.995 8.6175 2.49 9 3 C8.67 3.99 8.34 4.98 8 6 C7.67 5.34 7.34 4.68 7 4 C6.67 5.65 6.34 7.3 6 9 C5.566875 8.401875 5.13375 7.80375 4.6875 7.1875 C3.09318895 5.01024117 3.09318895 5.01024117 1.3125 3.375 C0 2 0 2 0 0 Z " fill="#78D9FD" transform="translate(133,35)"/>
<path d="M0 0 C0 1.98 0 3.96 0 6 C-3.63 5.34 -7.26 4.68 -11 4 C-7.61125486 1.74083657 -4.15175481 0 0 0 Z " fill="#62D1F4" transform="translate(141,151)"/>
<path d="M0 0 C0.33 0 0.66 0 1 0 C1 1.98 1 3.96 1 6 C1.66 6 2.32 6 3 6 C3.33 5.34 3.66 4.68 4 4 C4 4.66 4 5.32 4 6 C9.28 6 14.56 6 20 6 C20 6.33 20 6.66 20 7 C18.89140625 7.06058594 17.7828125 7.12117187 16.640625 7.18359375 C15.1770718 7.26802951 13.71353075 7.35267599 12.25 7.4375 C11.15558594 7.49647461 11.15558594 7.49647461 10.0390625 7.55664062 C6.53133638 7.76391535 3.42397562 8.1440061 0 9 C0 6.03 0 3.06 0 0 Z " fill="#C4F5FD" transform="translate(76,143)"/>
<path d="M0 0 C0.66 0 1.32 0 2 0 C1.67 4.29 1.34 8.58 1 13 C0.01 13 -0.98 13 -2 13 C-2 11.02 -2 9.04 -2 7 C-1.67 7 -1.34 7 -1 7 C-0.67 4.69 -0.34 2.38 0 0 Z " fill="#DDF7FA" transform="translate(96,47)"/>
<path d="M0 0 C0.66 0 1.32 0 2 0 C2 2.31 2 4.62 2 7 C2.66 7 3.32 7 4 7 C4 8.98 4 10.96 4 13 C3.01 13 2.02 13 1 13 C0.67 8.71 0.34 4.42 0 0 Z " fill="#DAF7F9" transform="translate(88,47)"/>
<path d="M0 0 C0.33 0 0.66 0 1 0 C1 1.65 1 3.3 1 5 C6.94 5 12.88 5 19 5 C19 5.33 19 5.66 19 6 C12.4 6.33 5.8 6.66 -1 7 C-1.33 6.01 -1.66 5.02 -2 4 C-1.34 4 -0.68 4 0 4 C0 2.68 0 1.36 0 0 Z " fill="#B3ECF8" transform="translate(107,40)"/>
<path d="M0 0 C-0.125 1.875 -0.125 1.875 -1 4 C-3.8125 5.4375 -3.8125 5.4375 -7 6 C-9.375 4.625 -9.375 4.625 -11 3 C-9.54293274 2.49632243 -8.08429904 1.99717444 -6.625 1.5 C-5.81289062 1.2215625 -5.00078125 0.943125 -4.1640625 0.65625 C-2 0 -2 0 0 0 Z " fill="#97E6F5" transform="translate(141,142)"/>
<path d="M0 0 C1.45903258 0.30921884 2.91720722 0.62248799 4.375 0.9375 C5.18710938 1.11152344 5.99921875 1.28554687 6.8359375 1.46484375 C9 2 9 2 11 3 C11 3.66 11 4.32 11 5 C12.65 5 14.3 5 16 5 C16 5.33 16 5.66 16 6 C13.36 6 10.72 6 8 6 C8 5.01 8 4.02 8 3 C7.05125 2.87625 6.1025 2.7525 5.125 2.625 C2 2 2 2 0 0 Z " fill="#0590C8" transform="translate(104,171)"/>
<path d="M0 0 C0.33 1.32 0.66 2.64 1 4 C2.32 3.67 3.64 3.34 5 3 C5 4.32 5 5.64 5 7 C3.02 7.66 1.04 8.32 -1 9 C-1.625 6.1875 -1.625 6.1875 -2 3 C-1.34 2.01 -0.68 1.02 0 0 Z " fill="#AED7E3" transform="translate(99,50)"/>
<path d="M0 0 C0.33 0 0.66 0 1 0 C1.33 2.97 1.66 5.94 2 9 C-0.875 9.125 -0.875 9.125 -4 9 C-4.66 8.34 -5.32 7.68 -6 7 C-4.35 6.67 -2.7 6.34 -1 6 C-0.67 4.02 -0.34 2.04 0 0 Z " fill="#8CBFD0" transform="translate(106,53)"/>
<path d="M0 0 C0.33 0.66 0.66 1.32 1 2 C-3.49656104 4.24828052 -7.07872966 4.16682272 -12 4 C-12 3.34 -12 2.68 -12 2 C-8.04 1.34 -4.08 0.68 0 0 Z " fill="#6ED3F2" transform="translate(116,126)"/>
<path d="M0 0 C0 1.98 0 3.96 0 6 C-1.65 6 -3.3 6 -5 6 C-5 4.68 -5 3.36 -5 2 C-1.125 0 -1.125 0 0 0 Z " fill="#EBF6FD" transform="translate(93,100)"/>
<path d="M0 0 C1.66666667 0 3.33333333 0 5 0 C5 1.65 5 3.3 5 5 C4.01 5.33 3.02 5.66 2 6 C0 5 0 5 -0.6875 3 C-0.790625 2.34 -0.89375 1.68 -1 1 C-0.67 0.67 -0.34 0.34 0 0 Z " fill="#6AC0DB" transform="translate(124,40)"/>
<path d="M0 0 C0 0.99 0 1.98 0 3 C-6.435 3.495 -6.435 3.495 -13 4 C-10.56272708 2.37515139 -8.62713877 1.34310925 -5.9375 0.3125 C-5.24527344 0.04050781 -4.55304688 -0.23148438 -3.83984375 -0.51171875 C-2 -1 -2 -1 0 0 Z " fill="#2EA4D0" transform="translate(138,147)"/>
<path d="M0 0 C0 0.66 0 1.32 0 2 C-6.75 4.125 -6.75 4.125 -9 3 C-9 2.34 -9 1.68 -9 1 C-5.846632 0.29925156 -3.27275026 0 0 0 Z " fill="#14A2D7" transform="translate(141,157)"/>
<path d="M0 0 C2.64 0 5.28 0 8 0 C8 0.99 8 1.98 8 3 C5.36 2.67 2.72 2.34 0 2 C0 1.34 0 0.68 0 0 Z " fill="#16B5DB" transform="translate(96,141)"/>
<path d="M0 0 C1.32 0 2.64 0 4 0 C4 1.65 4 3.3 4 5 C2.68 5 1.36 5 0 5 C0 3.35 0 1.7 0 0 Z " fill="#EDF7FC" transform="translate(89,115)"/>
<path d="M0 0 C0.99 0 1.98 0 3 0 C3 0.66 3 1.32 3 2 C2.34 2 1.68 2 1 2 C1 2.66 1 3.32 1 4 C-0.375 5.625 -0.375 5.625 -2 7 C-2.66 7 -3.32 7 -4 7 C-4 6.01 -4 5.02 -4 4 C-3.34 4 -2.68 4 -2 4 C-1.34 2.68 -0.68 1.36 0 0 Z " fill="#D7DFE2" transform="translate(130,87)"/>
<path d="M0 0 C1.98 0 3.96 0 6 0 C5.67 1.32 5.34 2.64 5 4 C3.35 4 1.7 4 0 4 C0 2.68 0 1.36 0 0 Z " fill="#D0E4ED" transform="translate(96,81)"/>
<path d="M0 0 C2.64 0 5.28 0 8 0 C5.60236815 2.39763185 4.66726502 2.34280586 1.375 2.625 C0.55773437 2.69976562 -0.25953125 2.77453125 -1.1015625 2.8515625 C-1.72804687 2.90054688 -2.35453125 2.94953125 -3 3 C-2.01 2.67 -1.02 2.34 0 2 C0 1.34 0 0.68 0 0 Z " fill="#13B0D5" transform="translate(131,142)"/>
<path d="M0 0 C3.96 0 7.92 0 12 0 C11.67 0.99 11.34 1.98 11 3 C10.01 3 9.02 3 8 3 C8 2.34 8 1.68 8 1 C5.36 1 2.72 1 0 1 C0 0.67 0 0.34 0 0 Z " fill="#D6F2FB" transform="translate(96,94)"/>
<path d="M0 0 C0.99 0 1.98 0 3 0 C3 0.66 3 1.32 3 2 C2.34 2 1.68 2 1 2 C1 2.99 1 3.98 1 5 C1.66 5 2.32 5 3 5 C2.67 5.66 2.34 6.32 2 7 C1.01 7.33 0.02 7.66 -1 8 C-0.67 5.36 -0.34 2.72 0 0 Z " fill="#C5C9CC" transform="translate(125,89)"/>
<path d="M0 0 C1.65 0 3.3 0 5 0 C5 0.66 5 1.32 5 2 C4.34 2 3.68 2 3 2 C2.67 3.32 2.34 4.64 2 6 C1.34 6 0.68 6 0 6 C0 4.02 0 2.04 0 0 Z " fill="#CCE6EF" transform="translate(115,47)"/>
<path d="M0 0 C1.65 0 3.3 0 5 0 C5 1.32 5 2.64 5 4 C3.35 4 1.7 4 0 4 C0 2.68 0 1.36 0 0 Z " fill="#09B8EA" transform="translate(123,122)"/>
<path d="M0 0 C0.99 0 1.98 0 3 0 C3 1.98 3 3.96 3 6 C2.01 6 1.02 6 0 6 C0 4.02 0 2.04 0 0 Z " fill="#746C76" transform="translate(128,99)"/>
<path d="M0 0 C1.65 0 3.3 0 5 0 C5 1.32 5 2.64 5 4 C3.35 3.67 1.7 3.34 0 3 C0 2.01 0 1.02 0 0 Z " fill="#4E5052" transform="translate(104,81)"/>
<path d="M0 0 C0.33 0.99 0.66 1.98 1 3 C-0.65 4.65 -2.3 6.3 -4 8 C-3.50168276 4.31245243 -2.89932357 2.39509338 0 0 Z " fill="#DAF6FD" transform="translate(84,52)"/>
<path d="M0 0 C0.99 0 1.98 0 3 0 C3.33 1.65 3.66 3.3 4 5 C2.68 5 1.36 5 0 5 C0 3.35 0 1.7 0 0 Z " fill="#EBF9FE" transform="translate(89,108)"/>
<path d="M0 0 C0.33 0.99 0.66 1.98 1 3 C1.66 3 2.32 3 3 3 C3 3.99 3 4.98 3 6 C1.68 6.33 0.36 6.66 -1 7 C-0.67 4.69 -0.34 2.38 0 0 Z " fill="#E9E2E8" transform="translate(124,101)"/>
<path d="M0 0 C1.32 0 2.64 0 4 0 C4 0.66 4 1.32 4 2 C3.01 2.495 3.01 2.495 2 3 C1.67 3.99 1.34 4.98 1 6 C0.34 5.67 -0.32 5.34 -1 5 C-0.67 3.35 -0.34 1.7 0 0 Z " fill="#DEF6FE" transform="translate(82,45)"/>
<path d="M0 0 C4.75 0.75 4.75 0.75 7 3 C6.67 3.99 6.34 4.98 6 6 C4 4 2 2 0 0 Z " fill="#7ECFE3" transform="translate(135,35)"/>
</svg>
