<?xml version="1.0" encoding="UTF-8"?>
<svg version="1.1" xmlns="http://www.w3.org/2000/svg" width="108" height="91">
<path d="M0 0 C1.05449341 -0.00630432 2.10898682 -0.01260864 3.19543457 -0.019104 C4.909505 -0.01303131 4.909505 -0.01303131 6.65820312 -0.00683594 C8.41142883 -0.00970612 8.41142883 -0.00970612 10.20007324 -0.01263428 C12.67488825 -0.0139972 15.14971039 -0.01029335 17.62451172 -0.00195312 C21.42366517 0.00874461 25.22234572 -0.00184512 29.02148438 -0.01464844 C31.42122501 -0.01332686 33.82096534 -0.01076451 36.22070312 -0.00683594 C37.36341675 -0.0108844 38.50613037 -0.01493286 39.68347168 -0.019104 C41.26521179 -0.00964752 41.26521179 -0.00964752 42.87890625 0 C44.27550476 0.00238678 44.27550476 0.00238678 45.70031738 0.00482178 C47.93945312 0.25878906 47.93945312 0.25878906 49.93945312 2.25878906 C50.60611979 3.92545573 51.27278646 5.5921224 51.93945312 7.25878906 C52.92945312 8.24878906 52.92945312 8.24878906 53.93945312 9.25878906 C54.20937219 11.94718291 54.02682669 14.55020843 53.93945312 17.25878906 C54.49632813 17.03191406 55.05320312 16.80503906 55.62695312 16.57128906 C57.93945312 16.25878906 57.93945312 16.25878906 60.68945312 17.32128906 C62.93945312 19.25878906 62.93945312 19.25878906 63.43945312 22.19628906 C62.89282835 25.54436579 62.07783076 26.70918496 59.93945312 29.25878906 C59.47539062 30.55816406 59.47539062 30.55816406 59.00195312 31.88378906 C57.93945312 34.25878906 57.93945312 34.25878906 56.00195312 35.57128906 C53.93945312 36.25878906 53.93945312 36.25878906 50.93945312 36.25878906 C51.08074599 38.67579893 51.22731799 41.09229335 51.37695312 43.50878906 C51.41626953 44.19070312 51.45558594 44.87261719 51.49609375 45.57519531 C51.70758788 48.92656385 52.10457917 52.01589024 52.93945312 55.25878906 C53.02982587 56.96523908 53.06955412 58.67495529 53.06445312 60.38378906 C53.06832031 61.68703125 53.06832031 61.68703125 53.07226562 63.01660156 C52.93945312 65.25878906 52.93945312 65.25878906 51.93945312 67.25878906 C51.78346159 69.4860016 51.66400553 71.71584105 51.56445312 73.94628906 C50.77684372 85.59336154 50.77684372 85.59336154 45.87695312 90.19628906 C40.5948838 92.10682478 35.28402245 92.10682478 30.00195312 90.19628906 C24.25182041 84.79464924 24.50929635 78.01647974 24.12304688 70.56738281 C23.9808289 67.14362461 23.9808289 67.14362461 23.37695312 63.32128906 C22.16167535 54.81434462 22.16167535 54.81434462 23.93945312 51.25878906 C24.17118139 48.71263897 24.35839842 46.18482682 24.50195312 43.63378906 C24.56672852 42.57417969 24.56672852 42.57417969 24.6328125 41.49316406 C24.73890063 39.74860369 24.83968201 38.0037221 24.93945312 36.25878906 C22.29945312 36.25878906 19.65945312 36.25878906 16.93945312 36.25878906 C16.93945312 41.20878906 16.93945312 46.15878906 16.93945312 51.25878906 C17.59945312 51.25878906 18.25945313 51.25878906 18.93945312 51.25878906 C18.96630408 53.73802707 18.9862186 56.21697746 19.00195312 58.69628906 C19.01033203 59.40333984 19.01871094 60.11039063 19.02734375 60.83886719 C19.035989 62.64572466 18.99165324 64.45266509 18.93945312 66.25878906 C18.60945313 66.58878906 18.27945313 66.91878906 17.93945312 67.25878906 C17.769262 70.53780473 17.64246576 73.80973013 17.59765625 77.09277344 C17.39462153 82.20641532 16.28778687 85.19077702 12.93945312 89.25878906 C8.4782587 92.23291868 4.16897767 92.00479827 -1.06054688 91.25878906 C-4.73323644 89.41178851 -6.74286166 87.21184472 -8.06054688 83.25878906 C-8.26490504 80.63051599 -8.43250875 78.01568382 -8.56054688 75.38378906 C-8.77996368 70.92231395 -9.16080326 66.63950799 -10.06054688 62.25878906 C-10.14847842 60.510503 -10.19078786 58.75927718 -10.18554688 57.00878906 C-10.18941406 55.70167969 -10.18941406 55.70167969 -10.19335938 54.36816406 C-10.06054688 52.25878906 -10.06054688 52.25878906 -9.06054688 51.25878906 C-8.82401165 48.73282647 -8.63880996 46.22771699 -8.49804688 43.69628906 C-8.45486328 42.98537109 -8.41167969 42.27445313 -8.3671875 41.54199219 C-8.26082911 39.78116994 -8.16015841 38.02000586 -8.06054688 36.25878906 C-9.42179687 36.16597656 -9.42179687 36.16597656 -10.81054688 36.07128906 C-14.82994827 35.06643871 -15.6699998 33.51720866 -18.06054688 30.25878906 C-18.0641925 30.90358719 -18.06783813 31.54838531 -18.07159424 32.21272278 C-18.11334328 38.91244801 -18.18263515 45.6114833 -18.26806641 52.31079102 C-18.29632525 54.81234849 -18.31751517 57.31399607 -18.33154297 59.81567383 C-18.35290384 63.40786031 -18.39952095 66.9989577 -18.45117188 70.59082031 C-18.45240051 71.71277298 -18.45362915 72.83472565 -18.45489502 73.99067688 C-18.48447296 75.55195564 -18.48447296 75.55195564 -18.51464844 77.14477539 C-18.52353088 78.06188797 -18.53241333 78.97900055 -18.54156494 79.92390442 C-19.06054688 82.25878906 -19.06054688 82.25878906 -20.92669678 84.09403992 C-23.06054688 85.25878906 -23.06054688 85.25878906 -25.74804688 85.00878906 C-28.06054688 84.25878906 -28.06054688 84.25878906 -29.06054688 83.25878906 C-29.14913333 80.51984821 -29.17578166 77.80625636 -29.15820312 75.06738281 C-29.15678818 74.2475441 -29.15537323 73.42770538 -29.15391541 72.58302307 C-29.14829977 69.95407524 -29.13574467 67.32521133 -29.12304688 64.69628906 C-29.11803389 62.9182955 -29.11347063 61.1403006 -29.109375 59.36230469 C-29.09832526 54.99443361 -29.08105019 50.62662558 -29.06054688 46.25878906 C-28.07054687 46.25878906 -27.08054687 46.25878906 -26.06054688 46.25878906 C-25.73054688 57.47878906 -25.40054687 68.69878906 -25.06054688 80.25878906 C-24.40054687 80.58878906 -23.74054687 80.91878906 -23.06054688 81.25878906 C-23.0649881 80.61843216 -23.06942932 79.97807526 -23.07400513 79.3183136 C-23.11826568 72.65111524 -23.1484247 65.98395865 -23.17041016 59.31665039 C-23.18046519 56.82867742 -23.19411103 54.34071625 -23.21142578 51.8527832 C-23.23569554 48.27584925 -23.24703507 44.69907161 -23.25585938 41.12207031 C-23.26618195 40.01044022 -23.27650452 38.89881012 -23.28713989 37.75349426 C-23.28729095 36.71279282 -23.28744202 35.67209137 -23.28759766 34.59985352 C-23.29203888 33.68718216 -23.2964801 32.7745108 -23.30105591 31.83418274 C-23.03505257 28.98579362 -22.18392885 26.87578332 -21.06054688 24.25878906 C-20.89554688 23.18628906 -20.73054688 22.11378906 -20.56054688 21.00878906 C-20.39554688 20.10128906 -20.23054688 19.19378906 -20.06054688 18.25878906 C-17.35175352 16.90439239 -15.0512142 17.19377456 -12.06054688 17.25878906 C-12.06054688 14.61878906 -12.06054688 11.97878906 -12.06054688 9.25878906 C-11.10148437 8.91847656 -11.10148437 8.91847656 -10.12304688 8.57128906 C-7.79702374 7.42349102 -7.79702374 7.42349102 -7.43554688 4.75878906 C-7.31179687 3.93378906 -7.18804688 3.10878906 -7.06054688 2.25878906 C-4.5013308 -0.30042702 -3.55200969 0.00607037 0 0 Z M-8.06054688 10.25878906 C-8.06054688 12.56878906 -8.06054688 14.87878906 -8.06054688 17.25878906 C11.40945312 17.25878906 30.87945312 17.25878906 50.93945312 17.25878906 C50.93945312 15.60878906 50.93945312 13.95878906 50.93945312 12.25878906 C50.38472321 12.58377884 49.82999329 12.90876862 49.25845337 13.24360657 C46.58951245 14.41198165 44.74094836 14.50635539 41.83544922 14.50170898 C40.82114838 14.50478561 39.80684753 14.50786224 38.7618103 14.5110321 C37.12884506 14.50025383 37.12884506 14.50025383 35.46289062 14.48925781 C34.34129547 14.48879959 33.21970032 14.48834137 32.06411743 14.48786926 C29.69540345 14.48484997 27.3266914 14.47697333 24.95800781 14.46459961 C21.32154352 14.44632469 17.68533358 14.44409009 14.04882812 14.44433594 C11.74934674 14.43942136 9.4498671 14.43359331 7.15039062 14.42675781 C6.05769867 14.42564499 4.96500671 14.42453217 3.83920288 14.42338562 C2.83120636 14.41700577 1.82320984 14.41062592 0.78466797 14.40405273 C-0.10483551 14.40024094 -0.99433899 14.39642914 -1.91079712 14.39250183 C-4.06054688 14.25878906 -4.06054688 14.25878906 -6.06054688 13.25878906 C-6.72054688 12.26878906 -7.38054688 11.27878906 -8.06054688 10.25878906 Z " fill="#2A446A" transform="translate(35.060546875,-0.2587890625)"/>
<path d="M0 0 C25.41 0 50.82 0 77 0 C78.14231258 5.7115629 78.14231258 5.7115629 76.8125 9.6875 C76.57144531 10.45449219 76.33039063 11.22148437 76.08203125 12.01171875 C74.73110431 14.49410797 73.63699996 15.071339 71 16 C70.01 16 69.02 16 68 16 C68.14129287 18.41700987 68.28786487 20.83350429 68.4375 23.25 C68.47681641 23.93191406 68.51613281 24.61382812 68.55664062 25.31640625 C68.76819689 28.66875942 69.17494621 31.75478841 70 35 C70.06624507 36.74886981 70.08552595 38.50002748 70.0625 40.25 C70.05347656 41.14203125 70.04445313 42.0340625 70.03515625 42.953125 C70.02355469 43.62859375 70.01195313 44.3040625 70 45 C66.82403161 46.88372214 64.68030919 47.20001885 61.015625 46.9765625 C60.08105469 46.925 59.14648438 46.8734375 58.18359375 46.8203125 C57.21550781 46.75585938 56.24742188 46.69140625 55.25 46.625 C54.26644531 46.56828125 53.28289062 46.5115625 52.26953125 46.453125 C49.845589 46.31192448 47.42272541 46.16054205 45 46 C44.3059221 42.68469247 43.86361989 39.64127178 43.875 36.25 C43.87113281 35.08210938 43.87113281 35.08210938 43.8671875 33.890625 C44 32 44 32 45 31 C45.04691756 28.3256991 45.04592597 25.67289158 45 23 C44.95407403 20.32710842 44.95308244 17.6743009 45 15 C45.33 14.67 45.66 14.34 46 14 C44.20598755 13.970271 44.20598755 13.970271 42.37573242 13.93994141 C37.94192306 13.86391728 33.50844326 13.77519503 29.07495117 13.68261719 C27.15542096 13.64431423 25.23581865 13.60946367 23.31616211 13.578125 C20.5581687 13.53250298 17.80067223 13.4745042 15.04296875 13.4140625 C14.18350143 13.40251129 13.32403412 13.39096008 12.43852234 13.37905884 C11.63791885 13.35918915 10.83731537 13.33931946 10.01245117 13.31884766 C8.95655037 13.29886215 8.95655037 13.29886215 7.87931824 13.2784729 C6 13 6 13 3 11 C2.8125 8.375 2.8125 8.375 3 6 C5.64 6 8.28 6 11 6 C11 5.34 11 4.68 11 4 C7.37 4 3.74 4 0 4 C0 2.68 0 1.36 0 0 Z " fill="#385175" transform="translate(18,20)"/>
<path d="M0 0 C1.05449341 -0.00630432 2.10898682 -0.01260864 3.19543457 -0.019104 C4.909505 -0.01303131 4.909505 -0.01303131 6.65820312 -0.00683594 C8.41142883 -0.00970612 8.41142883 -0.00970612 10.20007324 -0.01263428 C12.67488825 -0.0139972 15.14971039 -0.01029335 17.62451172 -0.00195312 C21.42366517 0.00874461 25.22234572 -0.00184512 29.02148438 -0.01464844 C31.42122501 -0.01332686 33.82096534 -0.01076451 36.22070312 -0.00683594 C37.36341675 -0.0108844 38.50613037 -0.01493286 39.68347168 -0.019104 C41.26521179 -0.00964752 41.26521179 -0.00964752 42.87890625 0 C43.80997192 0.00159119 44.7410376 0.00318237 45.70031738 0.00482178 C47.93945312 0.25878906 47.93945312 0.25878906 49.93945312 2.25878906 C50.60611979 3.92545573 51.27278646 5.5921224 51.93945312 7.25878906 C52.92945312 8.24878906 52.92945312 8.24878906 53.93945312 9.25878906 C54.20937219 11.94718291 54.02682669 14.55020843 53.93945312 17.25878906 C54.49632813 17.03191406 55.05320312 16.80503906 55.62695312 16.57128906 C57.93945312 16.25878906 57.93945312 16.25878906 60.68945312 17.32128906 C62.93945312 19.25878906 62.93945312 19.25878906 63.25195312 22.44628906 C63.14882812 23.37441406 63.04570313 24.30253906 62.93945312 25.25878906 C61.61945313 25.91878906 60.29945312 26.57878906 58.93945312 27.25878906 C59.26945312 24.94878906 59.59945312 22.63878906 59.93945312 20.25878906 C20.83445312 20.75378906 20.83445312 20.75378906 -19.06054688 21.25878906 C-19.39054687 20.26878906 -19.72054688 19.27878906 -20.06054688 18.25878906 C-17.35175352 16.90439239 -15.0512142 17.19377456 -12.06054688 17.25878906 C-12.06054688 14.61878906 -12.06054688 11.97878906 -12.06054688 9.25878906 C-11.42117187 9.03191406 -10.78179687 8.80503906 -10.12304688 8.57128906 C-7.79702374 7.42349102 -7.79702374 7.42349102 -7.43554688 4.75878906 C-7.31179687 3.93378906 -7.18804687 3.10878906 -7.06054688 2.25878906 C-4.5013308 -0.30042702 -3.55200969 0.00607037 0 0 Z M-8.06054688 10.25878906 C-8.06054688 12.56878906 -8.06054688 14.87878906 -8.06054688 17.25878906 C11.40945312 17.25878906 30.87945312 17.25878906 50.93945312 17.25878906 C50.93945312 15.60878906 50.93945312 13.95878906 50.93945312 12.25878906 C50.38472321 12.58377884 49.82999329 12.90876862 49.25845337 13.24360657 C46.58951245 14.41198165 44.74094836 14.50635539 41.83544922 14.50170898 C40.82114838 14.50478561 39.80684753 14.50786224 38.7618103 14.5110321 C37.12884506 14.50025383 37.12884506 14.50025383 35.46289062 14.48925781 C34.34129547 14.48879959 33.21970032 14.48834137 32.06411743 14.48786926 C29.69540345 14.48484997 27.3266914 14.47697333 24.95800781 14.46459961 C21.32154352 14.44632469 17.68533358 14.44409009 14.04882812 14.44433594 C11.74934674 14.43942136 9.4498671 14.43359331 7.15039062 14.42675781 C6.05769867 14.42564499 4.96500671 14.42453217 3.83920288 14.42338562 C2.83120636 14.41700577 1.82320984 14.41062592 0.78466797 14.40405273 C-0.10483551 14.40024094 -0.99433899 14.39642914 -1.91079712 14.39250183 C-4.06054688 14.25878906 -4.06054688 14.25878906 -6.06054688 13.25878906 C-6.72054688 12.26878906 -7.38054688 11.27878906 -8.06054688 10.25878906 Z " fill="#314C75" transform="translate(35.060546875,-0.2587890625)"/>
<path d="M0 0 C0.93457031 0.00322266 1.86914062 0.00644531 2.83203125 0.00976562 C3.80011719 0.01814453 4.76820312 0.02652344 5.765625 0.03515625 C6.74917969 0.03966797 7.73273437 0.04417969 8.74609375 0.04882812 C11.16933291 0.06059142 13.59244773 0.07702941 16.015625 0.09765625 C16.015625 1.41765625 16.015625 2.73765625 16.015625 4.09765625 C16.33942626 5.43333646 16.67220051 6.76688636 17.015625 8.09765625 C17.015625 10.71879333 16.70270055 12.60700737 16.015625 15.09765625 C16.675625 15.42765625 17.335625 15.75765625 18.015625 16.09765625 C18.12446096 18.47390802 18.20329196 20.84509601 18.265625 23.22265625 C18.31589844 24.22039062 18.31589844 24.22039062 18.3671875 25.23828125 C18.46799398 30.37941177 17.26022791 33.16445057 14.015625 37.09765625 C9.55443057 40.07178587 5.24514955 39.84366546 0.015625 39.09765625 C-3.65706456 37.2506557 -5.66668978 35.05071191 -6.984375 31.09765625 C-7.18873317 28.46938317 -7.35633688 25.854551 -7.484375 23.22265625 C-7.70377358 18.76155184 -8.08149556 14.4777408 -8.984375 10.09765625 C-9.04808868 8.49461998 -9.07081714 6.88927953 -9.046875 5.28515625 C-9.03785156 4.49496094 -9.02882813 3.70476563 -9.01953125 2.890625 C-9.00792969 2.29894531 -8.99632813 1.70726562 -8.984375 1.09765625 C-5.9161112 0.20015803 -3.19167524 -0.01946143 0 0 Z " fill="#2E486D" transform="translate(33.984375,51.90234375)"/>
<path d="M0 0 C17.49 0 34.98 0 53 0 C53 0.33 53 0.66 53 1 C46.73 1.33 40.46 1.66 34 2 C33.67 7.28 33.34 12.56 33 18 C39.6 18 46.2 18 53 18 C53 18.33 53 18.66 53 19 C46.07 19 39.14 19 32 19 C32 20.32 32 21.64 32 23 C39.26 23 46.52 23 54 23 C54 23.33 54 23.66 54 24 C46.74 24 39.48 24 32 24 C32 25.32 32 26.64 32 28 C39.26 28 46.52 28 54 28 C54 28.33 54 28.66 54 29 C46.74 29 39.48 29 32 29 C32.495 30.485 32.495 30.485 33 32 C36.6245793 32.19632025 40.24967267 32.38055978 43.875 32.5625 C45.42380859 32.64661133 45.42380859 32.64661133 47.00390625 32.73242188 C47.99003906 32.78076172 48.97617188 32.82910156 49.9921875 32.87890625 C50.90339355 32.9260376 51.81459961 32.97316895 52.75341797 33.02172852 C55.03774423 33.16385387 55.03774423 33.16385387 57 32 C56.91218733 34.52234319 56.80521993 37.0415165 56.6875 39.5625 C56.66494141 40.26697266 56.64238281 40.97144531 56.61914062 41.69726562 C56.32520028 47.49590706 55.34494485 52.79717302 50.9375 56.9375 C45.65543067 58.84803571 40.34456933 58.84803571 35.0625 56.9375 C29.31236729 51.53586018 29.56984322 44.75769068 29.18359375 37.30859375 C29.04137578 33.88483555 29.04137578 33.88483555 28.4375 30.0625 C27.22222222 21.55555556 27.22222222 21.55555556 29 18 C29.23172827 15.45384991 29.41894529 12.92603775 29.5625 10.375 C29.60568359 9.66859375 29.64886719 8.9621875 29.69335938 8.234375 C29.79944751 6.48981463 29.90022889 4.74493303 30 3 C27.03 3 24.06 3 21 3 C21 7.62 21 12.24 21 17 C20.67 17 20.34 17 20 17 C19.67 12.05 19.34 7.1 19 2 C12.73 1.67 6.46 1.34 0 1 C0 0.67 0 0.34 0 0 Z " fill="#1D365D" transform="translate(30,33)"/>
<path d="M0 0 C25.41 0 50.82 0 77 0 C77 1.32 77 2.64 77 4 C57.86 4 38.72 4 19 4 C19 4.66 19 5.32 19 6 C37.15 6 55.3 6 74 6 C73 11 73 11 71 13 C68.31202698 13.25396729 68.31202698 13.25396729 64.85375977 13.25878906 C63.56224503 13.26509338 62.27073029 13.27139771 60.94007874 13.27789307 C59.52385319 13.27431302 58.10762889 13.27021099 56.69140625 13.265625 C55.24413487 13.26697183 53.79686394 13.26891251 52.34959412 13.27142334 C49.3139923 13.27437473 46.27850808 13.27007719 43.24291992 13.26074219 C39.35105539 13.24935771 35.459467 13.2559005 31.56761265 13.26788712 C28.57791565 13.27511405 25.5882841 13.27281379 22.59858513 13.26763153 C21.16365463 13.26629681 19.7287182 13.26793656 18.29379463 13.27259064 C16.28774249 13.27766812 14.28166955 13.26855736 12.27563477 13.25878906 C11.13361099 13.25719788 9.99158722 13.25560669 8.81495667 13.25396729 C6 13 6 13 3 11 C2.8125 8.375 2.8125 8.375 3 6 C5.64 6 8.28 6 11 6 C11 5.34 11 4.68 11 4 C7.37 4 3.74 4 0 4 C0 2.68 0 1.36 0 0 Z " fill="#6590F2" transform="translate(18,20)"/>
<path d="M0 0 C6.53279339 -0.02464347 13.06555998 -0.04283291 19.59838867 -0.05493164 C21.82267732 -0.05997317 24.04696263 -0.06680623 26.27124023 -0.07543945 C29.46078309 -0.08751298 32.65028229 -0.09322996 35.83984375 -0.09765625 C37.34139259 -0.10539818 37.34139259 -0.10539818 38.87327576 -0.11329651 C39.79415482 -0.11337204 40.71503387 -0.11344757 41.66381836 -0.11352539 C42.47878281 -0.115746 43.29374725 -0.11796661 44.13340759 -0.12025452 C46 -0 46 -0 47 1 C47.125 4.5 47.125 4.5 47 8 C46 9 46 9 44.13340759 9.12025452 C43.31844315 9.11803391 42.5034787 9.11581329 41.66381836 9.11352539 C40.28249977 9.11341209 40.28249977 9.11341209 38.87327576 9.11329651 C37.87224319 9.10813522 36.87121063 9.10297394 35.83984375 9.09765625 C34.82024063 9.0962413 33.80063751 9.09482635 32.75013733 9.09336853 C29.47922893 9.08775097 26.20838787 9.0751955 22.9375 9.0625 C20.72591244 9.05748726 18.51432382 9.05292396 16.30273438 9.04882812 C10.86846346 9.03777583 5.43424316 9.02049944 0 9 C0 6.03 0 3.06 0 0 Z " fill="#53DBDA" transform="translate(35,3)"/>
<path d="M0 0 C6.6 0 13.2 0 20 0 C20.40420858 14.41677283 20.40420858 14.41677283 17 19 C14.64182509 21.35817491 13.38417407 21.94278258 10.0625 22.4375 C6.26966388 21.89566627 4.72104335 20.64545881 2 18 C-0.45598077 14.31602884 -0.2271532 11.55276192 -0.125 7.3125 C-0.08375 4.899375 -0.0425 2.48625 0 0 Z " fill="#C9DFEA" transform="translate(63,67)"/>
<path d="M0 0 C6.27 0 12.54 0 19 0 C19.061875 2.371875 19.12375 4.74375 19.1875 7.1875 C19.21481201 7.92508545 19.24212402 8.6626709 19.27026367 9.42260742 C19.32571061 13.83749567 18.68139823 16.49456231 16 20 C12.79062591 22.32402951 9.88493979 22.47570691 6 22 C3.30009338 20.20006226 1.4581135 18.916227 0 16 C-0.07187519 13.28024285 -0.0927862 10.59325368 -0.0625 7.875 C-0.041875 5.27625 -0.02125 2.6775 0 0 Z " fill="#D0E6F1" transform="translate(30,67)"/>
<path d="M0 0 C0.9015683 0.00444122 1.8031366 0.00888245 2.73202515 0.01345825 C3.75293243 0.01360931 4.77383972 0.01376038 5.82568359 0.01391602 C7.48354385 0.02939987 7.48354385 0.02939987 9.17489624 0.04519653 C10.30406464 0.04802643 11.43323303 0.05085632 12.59661865 0.05377197 C16.21396345 0.06499441 19.8310634 0.09010281 23.44833374 0.11550903 C25.89624684 0.12553616 28.34416381 0.13466247 30.79208374 0.14285278 C36.80258438 0.16494047 42.81294157 0.19843829 48.82333374 0.24050903 C48.82333374 0.90050903 48.82333374 1.56050903 48.82333374 2.24050903 C48.21167862 2.2508165 47.6000235 2.26112396 46.96983337 2.27174377 C40.62751058 2.37957648 34.2853366 2.49419245 27.94320679 2.61282349 C25.57344666 2.65624713 23.20365374 2.69791653 20.83383179 2.73782349 C17.43570041 2.79534671 14.03773531 2.85909207 10.63973999 2.92410278 C9.57308609 2.94081528 8.50643219 2.95752777 7.40745544 2.9747467 C6.42651413 2.99469193 5.44557281 3.01463715 4.43490601 3.03518677 C3.56664688 3.05073105 2.69838776 3.06627533 1.80381775 3.08229065 C-0.17747404 3.02513328 -0.17747404 3.02513328 -1.17666626 4.24050903 C-1.21759563 6.57348336 -1.21908349 8.90756128 -1.17666626 11.24050903 C1.19716359 12.42742396 2.71512267 12.3962377 5.36483765 12.4458313 C6.77607407 12.47574913 6.77607407 12.47574913 8.21582031 12.50627136 C9.23356537 12.52298386 10.25131042 12.53969635 11.29989624 12.55691528 C12.34028046 12.57769638 13.38066467 12.59847748 14.45257568 12.61988831 C17.78442623 12.68540775 21.11635724 12.74427995 24.44833374 12.80300903 C26.70355048 12.84619197 28.95875901 12.88980618 31.21395874 12.93386841 C36.75033138 13.04109156 42.28678452 13.14285349 47.82333374 13.24050903 C47.82333374 13.57050903 47.82333374 13.90050903 47.82333374 14.24050903 C40.90024082 14.43398293 33.97687115 14.61142013 27.05307007 14.77761841 C24.69685526 14.83608125 22.34072915 14.89823923 19.98471069 14.96414185 C16.60165557 15.05813538 13.21850583 15.13891285 9.83505249 15.21707153 C8.2505555 15.26536606 8.2505555 15.26536606 6.63404846 15.31463623 C5.16286308 15.34489395 5.16286308 15.34489395 3.66195679 15.37576294 C2.36622993 15.40907211 2.36622993 15.40907211 1.04432678 15.4430542 C-1.17666626 15.24050903 -1.17666626 15.24050903 -4.17666626 13.24050903 C-4.17666626 14.56050903 -4.17666626 15.88050903 -4.17666626 17.24050903 C28.49333374 17.73550903 28.49333374 17.73550903 61.82333374 18.24050903 C61.82333374 18.57050903 61.82333374 18.90050903 61.82333374 19.24050903 C36.74333374 19.24050903 11.66333374 19.24050903 -14.17666626 19.24050903 C-14.17666626 19.90050903 -14.17666626 20.56050903 -14.17666626 21.24050903 C-15.16666626 20.91050903 -16.15666626 20.58050903 -17.17666626 20.24050903 C-17.17666626 19.58050903 -17.17666626 18.92050903 -17.17666626 18.24050903 C-14.46787291 16.88611236 -12.16733358 17.17549453 -9.17666626 17.24050903 C-9.17666626 14.60050903 -9.17666626 11.96050903 -9.17666626 9.24050903 C-8.53729126 9.01363403 -7.89791626 8.78675903 -7.23916626 8.55300903 C-4.91314312 7.40521099 -4.91314312 7.40521099 -4.55166626 4.74050903 C-4.42791626 3.91550903 -4.30416626 3.09050903 -4.17666626 2.24050903 C-2.17666626 0.24050903 -2.17666626 0.24050903 0 0 Z " fill="#253C63" transform="translate(32.176666259765625,-0.240509033203125)"/>
<path d="M0 0 C25.41 0 50.82 0 77 0 C77 1.32 77 2.64 77 4 C75.91671921 4.0154612 75.91671921 4.0154612 74.81155396 4.03123474 C68.01323885 4.1291193 61.21500744 4.23162081 54.41684151 4.33933926 C50.92164403 4.39455772 47.42643816 4.44797596 43.93115234 4.49731445 C39.91494504 4.55408436 35.89889555 4.61862219 31.8828125 4.68359375 C30.62445587 4.70030624 29.36609924 4.71701874 28.0696106 4.73423767 C26.90855804 4.75418289 25.74750549 4.77412811 24.55126953 4.79467773 C23.52534698 4.81022202 22.49942444 4.8257663 21.44241333 4.84178162 C18.99295812 4.8416631 18.99295812 4.8416631 17 6 C14.10477992 5.74861862 11.25392759 5.43872349 8.375 5.0625 C7.57320312 4.96259766 6.77140625 4.86269531 5.9453125 4.75976562 C3.96285309 4.5119582 1.98132991 4.25668193 0 4 C0 2.68 0 1.36 0 0 Z " fill="#82ADFE" transform="translate(18,20)"/>
<path d="M0 0 C3.62484999 -0.08681476 7.24943443 -0.14032721 10.875 -0.1875 C12.42380859 -0.22520508 12.42380859 -0.22520508 14.00390625 -0.26367188 C14.99003906 -0.27333984 15.97617188 -0.28300781 16.9921875 -0.29296875 C17.90339355 -0.3086792 18.81459961 -0.32438965 19.75341797 -0.34057617 C20.49479004 -0.22818604 21.23616211 -0.1157959 22 0 C22.66 0.99 23.32 1.98 24 3 C24.66 3.66 25.32 4.32 26 5 C26.26991906 7.68839385 26.08737357 10.29141936 26 13 C22.82403161 14.88372214 20.68030919 15.20001885 17.015625 14.9765625 C16.08105469 14.925 15.14648438 14.8734375 14.18359375 14.8203125 C13.21550781 14.75585938 12.24742188 14.69140625 11.25 14.625 C10.26644531 14.56828125 9.28289062 14.5115625 8.26953125 14.453125 C5.845589 14.31192448 3.42272541 14.16054205 1 14 C0.24702559 10.6620111 -0.11353954 7.60714911 -0.0625 4.1875 C-0.05347656 3.39730469 -0.04445312 2.60710938 -0.03515625 1.79296875 C-0.02355469 1.20128906 -0.01195312 0.60960937 0 0 Z " fill="#809DB7" transform="translate(62,52)"/>
<path d="M0 0 C6.27 0 12.54 0 19 0 C19 4.95 19 9.9 19 15 C12.73 15 6.46 15 0 15 C0 10.05 0 5.1 0 0 Z " fill="#D1E7F1" transform="translate(30,35)"/>
<path d="M0 0 C5.94 0 11.88 0 18 0 C18 4.95 18 9.9 18 15 C12.06 15 6.12 15 0 15 C0 10.05 0 5.1 0 0 Z " fill="#D3E9F3" transform="translate(64,35)"/>
<path d="M0 0 C0.99 0 1.98 0 3 0 C3.33 0.66 3.66 1.32 4 2 C7.6245793 2.19632025 11.24967267 2.38055978 14.875 2.5625 C16.42380859 2.64661133 16.42380859 2.64661133 18.00390625 2.73242188 C18.99003906 2.78076172 19.97617188 2.82910156 20.9921875 2.87890625 C22.35899658 2.94960327 22.35899658 2.94960327 23.75341797 3.02172852 C26.03774423 3.16385387 26.03774423 3.16385387 28 2 C27.91218733 4.52234319 27.80521993 7.0415165 27.6875 9.5625 C27.66494141 10.26697266 27.64238281 10.97144531 27.61914062 11.69726562 C27.32520028 17.49590706 26.34494485 22.79717302 21.9375 26.9375 C16.65543067 28.84803571 11.34456933 28.84803571 6.0625 26.9375 C0.26803068 21.49421064 0.54938041 14.61958434 0.2109375 7.109375 C0.12858271 3.96692768 0.12858271 3.96692768 -1 1 C-0.67 0.67 -0.34 0.34 0 0 Z M4 4 C2.94233137 13.95578546 2.94233137 13.95578546 6.375 22.875 C9.15053558 25.12186213 10.25590392 25.89853235 13.75 26.375 C18.30278706 25.84967842 19.77905482 24.22094518 23 21 C24.18681726 17.43954823 24.09689832 14.56191663 24.0625 10.8125 C24.041875 8.564375 24.02125 6.31625 24 4 C17.4 4 10.8 4 4 4 Z " fill="#274167" transform="translate(59,63)"/>
<path d="M0 0 C0.86603851 0.00444122 1.73207703 0.00888245 2.62435913 0.01345825 C3.60522491 0.01360931 4.5860907 0.01376038 5.59667969 0.01391602 C6.6581723 0.02423859 7.71966492 0.03456116 8.81332397 0.04519653 C10.44048843 0.04944138 10.44048843 0.04944138 12.1005249 0.05377197 C15.57521461 0.06499325 19.04964929 0.09010141 22.52426147 0.11550903 C24.87582026 0.12553631 27.22738307 0.1346626 29.57894897 0.14285278 C35.35247392 0.16493892 41.12584948 0.19843559 46.89926147 0.24050903 C46.89926147 0.57050903 46.89926147 0.90050903 46.89926147 1.24050903 C32.04926147 1.57050903 17.19926147 1.90050903 1.89926147 2.24050903 C1.56926147 4.88050903 1.23926147 7.52050903 0.89926147 10.24050903 C15.74926147 10.24050903 30.59926147 10.24050903 45.89926147 10.24050903 C45.89926147 10.57050903 45.89926147 10.90050903 45.89926147 11.24050903 C39.26070406 11.29115392 32.62219633 11.32621927 25.98348999 11.35037231 C23.72435647 11.36043961 21.465236 11.37409441 19.20614624 11.39138794 C15.96189148 11.41560411 12.71780876 11.42698479 9.47348022 11.43582153 C8.46089645 11.4461441 7.44831268 11.45646667 6.40504456 11.46710205 C5.46429581 11.46725311 4.52354706 11.46740417 3.55429077 11.46755981 C2.72600266 11.47200104 1.89771454 11.47644226 1.04432678 11.48101807 C-1.10073853 11.24050903 -1.10073853 11.24050903 -4.10073853 9.24050903 C-4.41323853 5.74050903 -4.41323853 5.74050903 -4.10073853 2.24050903 C-2.10073853 0.24050903 -2.10073853 0.24050903 0 0 Z " fill="#377E91" transform="translate(34.100738525390625,1.759490966796875)"/>
<path d="M0 0 C0.99 0.33 1.98 0.66 3 1 C3.05383848 3.45862401 3.09359038 5.9160755 3.125 8.375 C3.14175781 9.07367188 3.15851562 9.77234375 3.17578125 10.4921875 C3.19344267 12.32897486 3.10303261 14.16601963 3 16 C2.34 16.66 1.68 17.32 1 18 C0.53603307 20.89223503 0.53603307 20.89223503 0.375 24.125 C0.30023438 25.22070312 0.22546875 26.31640625 0.1484375 27.4453125 C0.09945312 28.28835937 0.05046875 29.13140625 0 30 C-0.33 30 -0.66 30 -1 30 C-1 25.71 -1 21.42 -1 17 C-7.6 17 -14.2 17 -21 17 C-21 16.67 -21 16.34 -21 16 C-11.1 15.505 -11.1 15.505 -1 15 C-1 14.34 -1 13.68 -1 13 C-7.93 12.67 -14.86 12.34 -22 12 C-22 11.67 -22 11.34 -22 11 C-11.605 10.505 -11.605 10.505 -1 10 C-1 9.34 -1 8.68 -1 8 C-7.93 7.67 -14.86 7.34 -22 7 C-22 6.67 -22 6.34 -22 6 C-11.605 5.505 -11.605 5.505 -1 5 C-1.33 3.68 -1.66 2.36 -2 1 C-1.34 0.67 -0.68 0.34 0 0 Z " fill="#1B355D" transform="translate(51,50)"/>
<path d="M0 0 C6.27 0 12.54 0 19 0 C19 0.33 19 0.66 19 1 C14.05 1 9.1 1 4 1 C4.0825 3.206875 4.165 5.41375 4.25 7.6875 C4.29640625 8.92886719 4.3428125 10.17023438 4.390625 11.44921875 C5.08201211 15.47787825 6.1579437 17.12164006 9 20 C9.99 20.66 10.98 21.32 12 22 C8.16526716 22.35671933 6.44657125 22.29771416 3.1875 20.125 C0.19068723 17.21381045 0.0153012 16.57899751 -0.09765625 12.3046875 C-0.09193586 10.82808958 -0.07895104 9.35151736 -0.0625 7.875 C-0.041875 5.27625 -0.02125 2.6775 0 0 Z " fill="#A2B9C5" transform="translate(30,67)"/>
<path d="M0 0 C2.64 0 5.28 0 8 0 C7.01 0.33 6.02 0.66 5 1 C5.33 2.32 5.66 3.64 6 5 C26.46 5.33 46.92 5.66 68 6 C68 6.33 68 6.66 68 7 C59.5768788 7.04631753 51.15381071 7.08186618 42.73059368 7.10362434 C38.81945488 7.11406657 34.90840314 7.12823372 30.99731445 7.15087891 C27.22368831 7.17259173 23.45014596 7.18456532 19.67646217 7.18975449 C18.23593641 7.19345306 16.79541529 7.20067536 15.35492516 7.21146011 C13.33911986 7.22595347 11.32323044 7.22681674 9.30737305 7.22705078 C7.58528877 7.23371262 7.58528877 7.23371262 5.82841492 7.24050903 C3 7 3 7 0 5 C-0.1875 2.375 -0.1875 2.375 0 0 Z " fill="#5A82DA" transform="translate(21,26)"/>
<path d="M0 0 C6.93 0 13.86 0 21 0 C21 1.32 21 2.64 21 4 C14.07 4 7.14 4 0 4 C0 2.68 0 1.36 0 0 Z " fill="#8FACC4" transform="translate(29,52)"/>
<path d="M0 0 C1.50210746 3.00421492 0.95593933 5.61157979 0.75 8.9375 C0.68296875 10.18402344 0.6159375 11.43054688 0.546875 12.71484375 C-0.0040158 16.02412349 -0.3471204 17.06739148 -3 19 C-4.81218472 13.56344584 -3.46528968 7.63517506 -3 2 C-9.6 2 -16.2 2 -23 2 C-23 1.67 -23 1.34 -23 1 C-22.3387915 1.00523682 -21.67758301 1.01047363 -20.99633789 1.01586914 C-18.01840149 1.03657656 -15.04048018 1.04964012 -12.0625 1.0625 C-11.02158203 1.07087891 -9.98066406 1.07925781 -8.90820312 1.08789062 C-7.91884766 1.09111328 -6.92949219 1.09433594 -5.91015625 1.09765625 C-4.99371338 1.10289307 -4.07727051 1.10812988 -3.13305664 1.11352539 C-1.01636977 1.23921211 -1.01636977 1.23921211 0 0 Z " fill="#203A61" transform="translate(86,65)"/>
<path d="M0 0 C6.93 0 13.86 0 21 0 C21.33 0.99 21.66 1.98 22 3 C14.41 3 6.82 3 -1 3 C-0.67 2.01 -0.34 1.02 0 0 Z " fill="#BEDCF1" transform="translate(29,62)"/>
<path d="M0 0 C6.93 0 13.86 0 21 0 C21.33 0.99 21.66 1.98 22 3 C14.41 3 6.82 3 -1 3 C-0.67 2.01 -0.34 1.02 0 0 Z " fill="#CEECFA" transform="translate(29,57)"/>
<path d="M0 0 C7.26 0 14.52 0 22 0 C22 0.99 22 1.98 22 3 C14.74 3 7.48 3 0 3 C0 2.01 0 1.02 0 0 Z " fill="#A8C6DD" transform="translate(62,52)"/>
<path d="M0 0 C1.32 0 2.64 0 4 0 C4 4.95 4 9.9 4 15 C2.68 15 1.36 15 0 15 C0 10.05 0 5.1 0 0 Z " fill="#ACC3CC" transform="translate(30,35)"/>
<path d="M0 0 C0.99 0 1.98 0 3 0 C4.125 4.75 4.125 4.75 3 7 C10.26 7 17.52 7 25 7 C25 7.33 25 7.66 25 8 C18.07 8 11.14 8 4 8 C4 8.66 4 9.32 4 10 C2.68 9.34 1.36 8.68 0 8 C0 5.36 0 2.72 0 0 Z " fill="#3B5578" transform="translate(25,53)"/>
<path d="M0 0 C4.95 0 9.9 0 15 0 C15 0.99 15 1.98 15 3 C10.05 3 5.1 3 0 3 C0 2.01 0 1.02 0 0 Z " fill="#2F5B7B" transform="translate(38,4)"/>
<path d="M0 0 C0.99 0.33 1.98 0.66 3 1 C3.0809723 3.43816585 3.14046972 5.87364384 3.1875 8.3125 C3.22520508 9.34793945 3.22520508 9.34793945 3.26367188 10.40429688 C3.33834499 15.55674183 3.33834499 15.55674183 1.48828125 17.98046875 C0.99714844 18.31691406 0.50601563 18.65335938 0 19 C-1.35862973 15.09519751 -0.89469712 11.2898224 -0.5625 7.25 C-0.48418945 6.20392578 -0.48418945 6.20392578 -0.40429688 5.13671875 C-0.27525928 3.42403797 -0.13840386 1.71194934 0 0 Z " fill="#324C70" transform="translate(49,67)"/>
<path d="M0 0 C2.64 0 5.28 0 8 0 C7.01 0.33 6.02 0.66 5 1 C5.33 2.98 5.66 4.96 6 7 C1.125 6.125 1.125 6.125 0 5 C-0.04063832 3.33382885 -0.042721 1.66611905 0 0 Z " fill="#5077C5" transform="translate(21,26)"/>
<path d="M0 0 C6.93 0 13.86 0 21 0 C21 0.33 21 0.66 21 1 C15.39 1 9.78 1 4 1 C4 1.66 4 2.32 4 3 C2.35 3 0.7 3 -1 3 C-0.67 2.01 -0.34 1.02 0 0 Z " fill="#819DB4" transform="translate(29,62)"/>
<path d="M0 0 C6.93 0 13.86 0 21 0 C21 0.33 21 0.66 21 1 C15.39 1 9.78 1 4 1 C4 1.66 4 2.32 4 3 C2.35 3 0.7 3 -1 3 C-0.67 2.01 -0.34 1.02 0 0 Z " fill="#89A4B9" transform="translate(29,57)"/>
<path d="M0 0 C0.66 0 1.32 0 2 0 C2 0.66 2 1.32 2 2 C2.66 2 3.32 2 4 2 C4 3.65 4 5.3 4 7 C2.68 7 1.36 7 0 7 C0 4.69 0 2.38 0 0 Z " fill="#3D9FA3" transform="translate(31,5)"/>
<path d="M0 0 C1.98 0.99 1.98 0.99 4 2 C3.34099246 5.07536854 2.46132217 7.07735566 1 10 C0.67 6.7 0.34 3.4 0 0 Z " fill="#2C4F72" transform="translate(81,0)"/>
<path d="M0 0 C1.32 0 2.64 0 4 0 C4 1.32 4 2.64 4 4 C2.35 3.67 0.7 3.34 -1 3 C-0.67 2.01 -0.34 1.02 0 0 Z " fill="#6790D2" transform="translate(18,20)"/>
<path d="M0 0 C0.99 0 1.98 0 3 0 C3 2.31 3 4.62 3 7 C2.67 6.34 2.34 5.68 2 5 C1.34 5 0.68 5 0 5 C-0.5625 3.0625 -0.5625 3.0625 -1 1 C-0.67 0.67 -0.34 0.34 0 0 Z " fill="#365175" transform="translate(59,53)"/>
</svg>
