<?xml version="1.0" encoding="UTF-8"?>
<svg version="1.1" xmlns="http://www.w3.org/2000/svg" width="512" height="512">
<path d="M0 0 C0.9724968 -0.00525911 0.9724968 -0.00525911 1.96463999 -0.01062447 C4.14014838 -0.01993872 6.31538909 -0.01501518 8.49090862 -0.01015663 C10.06519832 -0.01389288 11.63948616 -0.01849431 13.21377105 -0.02388728 C17.54245183 -0.0361358 21.87105543 -0.03585463 26.19974959 -0.03349853 C30.86721881 -0.03309083 35.53466313 -0.04412501 40.20212078 -0.05361366 C49.34757338 -0.07023477 58.4930002 -0.07572371 67.63846663 -0.07683842 C75.0715403 -0.07778836 82.50460545 -0.08189598 89.93767643 -0.08823967 C111.00655055 -0.10585508 132.07540429 -0.11507807 153.14428584 -0.11357872 C154.8484411 -0.11345885 154.8484411 -0.11345885 156.58702374 -0.11333656 C158.29325701 -0.11321392 158.29325701 -0.11321392 160.03395965 -0.1130888 C178.47080581 -0.11227581 196.90757028 -0.13141606 215.34439281 -0.1596133 C234.27004325 -0.18833002 253.19565384 -0.20215426 272.12132663 -0.20042574 C282.74872453 -0.19976143 293.37603681 -0.20527207 304.00341511 -0.22678185 C313.05154376 -0.24497768 322.09954798 -0.24935411 331.147687 -0.235763 C335.76438243 -0.22922529 340.38083903 -0.22914507 344.99751186 -0.2464695 C349.2248602 -0.26216984 353.45177972 -0.25936783 357.6791174 -0.24190123 C359.20736587 -0.23882462 360.73564609 -0.24248863 362.2638571 -0.25362138 C371.21713504 -0.31451817 378.6980478 -0.3509487 385.49986553 6.25726891 C385.95490459 6.91726891 386.40994366 7.57726891 386.87877178 8.25726891 C387.35185772 8.91726891 387.82494366 9.57726891 388.31236553 10.25726891 C390.75922076 14.59218197 391.07159401 19.36561327 390.44127178 24.25726891 C388.5334263 30.17704087 385.45528749 33.70567445 380.44127178 37.25726891 C376.44127178 39.25726891 376.44127178 39.25726891 367.44127178 40.25726891 C367.44127178 54.11726891 367.44127178 67.97726891 367.44127178 82.25726891 C375.78662562 82.17885847 375.78662562 82.17885847 384.13170147 82.07709312 C404.40272683 81.9821397 421.40387177 87.78504032 436.31627178 101.63226891 C449.34718242 115.63082142 453.75354059 131.99471059 453.71592999 150.58270836 C453.72028476 152.01282579 453.72547045 153.4429409 453.73141766 154.8730526 C453.74473801 158.73479905 453.74539403 162.59644721 453.74285436 166.45821214 C453.74177969 169.6934379 453.74668075 172.92864418 453.75145978 176.16386575 C453.76253135 183.80333221 453.76300593 191.44274949 453.75694561 199.08222008 C453.7509102 206.93648988 453.7632112 214.79058034 453.78451568 222.64481956 C453.80218973 229.41202309 453.80812384 236.17916984 453.80487794 242.94639558 C453.80307383 246.97757836 453.80561316 251.00863325 453.81959248 255.03979492 C453.83226081 258.83449197 453.83014269 262.62891168 453.81718159 266.42360497 C453.81372661 268.46087444 453.82492762 270.49815275 453.83674908 272.53539085 C453.73285708 290.90704672 447.38903558 306.49330876 434.41392803 319.48383141 C418.37493534 334.77274185 397.96811687 344.31502238 378.56822491 354.56903648 C377.53633038 355.12615318 376.50443584 355.68326988 375.44127178 356.25726891 C374.80743069 356.49831352 374.17358959 356.73935814 373.52054119 356.98770714 C371.26074189 357.86109166 371.26074189 357.86109166 368.44127178 360.25726891 C367.43745608 363.74031583 367.58221207 367.12467779 367.67955303 370.72601891 C367.67674831 371.75730919 367.6739436 372.78859947 367.67105389 373.85114098 C367.66577105 377.15423782 367.70634922 380.45453996 367.75377178 383.75726891 C368.07607 417.07945994 368.07607 417.07945994 355.44127178 431.25726891 C344.78085119 441.26652942 333.8894049 444.56462752 319.55009747 444.52469444 C318.35539687 444.52922556 317.16069628 444.53375667 315.92979264 444.53842509 C312.62611133 444.54887371 309.32264822 444.55039865 306.01896596 444.54803634 C302.45100401 444.54762731 298.88307423 444.55867552 295.31512737 444.56815147 C288.32930563 444.5847441 281.34351765 444.59026024 274.35767785 444.59137623 C268.67715596 444.59232757 262.99664519 444.59644214 257.31612682 444.60277748 C241.19930469 444.62038546 225.08250917 444.62961709 208.96567735 444.62811653 C207.66316447 444.62799666 207.66316447 444.62799666 206.33433819 444.62787437 C205.03022888 444.62775173 205.03022888 444.62775173 203.69977394 444.62762661 C189.61380979 444.62681393 175.52795264 444.64594832 161.44201943 444.67415111 C146.96740825 444.70290265 132.4928492 444.71669014 118.01820874 444.71496356 C109.89634351 444.71430042 101.77459043 444.71975915 93.65275097 444.74131966 C86.73693279 444.75956141 79.82127759 444.76385433 72.90544572 444.75030081 C69.37995632 444.74378605 65.85477933 444.7435993 62.32931995 444.76100731 C58.49953024 444.77972276 54.67019281 444.76714442 50.84038067 444.75174522 C49.73714891 444.76203235 48.63391716 444.77231948 47.49725413 444.78291833 C34.60354062 444.66869287 24.13174659 439.72858027 14.75377178 431.00726891 C4.33530909 419.98448703 1.96001716 407.54159921 2.14348125 392.80431175 C2.14741791 391.48988714 2.15135458 390.17546253 2.15541053 388.82120687 C2.16411749 385.95385768 2.18237036 383.08678759 2.20815372 380.21954155 C2.25006308 375.55247119 2.27080622 370.88543621 2.28906536 366.21822166 C2.31369941 360.318058 2.3439742 354.41796815 2.3809202 348.51786862 C2.4534634 336.92111484 2.48858482 325.32450998 2.51030254 313.72756004 C2.51391749 311.89833055 2.51755403 310.06910109 2.52121186 308.23987168 C2.52672471 305.46823631 2.53221453 302.69660091 2.53761543 299.92496532 C2.55809062 289.4910441 2.58263467 279.05713663 2.61168194 268.6232357 C2.61432248 267.67015061 2.61696303 266.71706552 2.61968359 265.73509905 C2.66389002 250.28999066 2.75232541 234.84539647 2.85435179 219.40057608 C2.95794892 203.51890438 3.00402811 187.6377557 2.99962115 171.75574571 C2.99890642 161.97233504 3.0440254 152.19133787 3.14886287 142.40847907 C3.21665854 135.70029962 3.22921734 128.9934185 3.19908306 122.28497025 C3.18339685 118.41940841 3.19160234 114.55794758 3.26635456 110.69298744 C4.21250972 94.13601557 4.21250972 94.13601557 -1.81309986 79.4236145 C-4.82669551 76.32321887 -8.08551405 73.82593975 -11.71511412 71.4907757 C-14.5169834 69.61612916 -16.85576355 67.37801772 -19.30872822 65.06976891 C-20.06669697 64.39558922 -20.82466572 63.72140953 -21.60560322 63.02680016 C-23.55872822 61.25726891 -23.55872822 61.25726891 -25.21497822 59.51117516 C-25.65841572 59.09738609 -26.10185322 58.68359703 -26.55872822 58.25726891 C-29.28851669 58.4522538 -31.17547805 59.57193719 -33.62122822 60.81976891 C-38.45748611 62.92520877 -43.38391374 62.96079353 -48.55872822 62.25726891 C-51.99622822 60.56976891 -51.99622822 60.56976891 -54.55872822 58.25726891 C-55.34247822 57.57664391 -56.12622822 56.89601891 -56.93372822 56.19476891 C-59.39449766 51.74645491 -59.49519749 47.22193318 -58.55872822 42.25726891 C-55.66775827 36.75415353 -51.45944841 33.36596339 -46.68372822 29.56976891 C-45.93067402 28.96108971 -45.17761982 28.35241051 -44.4017458 27.72528648 C-42.1283264 25.89288888 -39.84520203 24.07333918 -37.55872822 22.25726891 C-36.90920185 21.73874352 -36.25967548 21.22021812 -35.5904665 20.68597984 C-31.60632806 17.50839424 -27.59211031 14.37201593 -23.55872822 11.25726891 C-22.72438251 10.6085482 -22.72438251 10.6085482 -21.87318134 9.94672203 C-20.25264676 8.68924771 -18.62574558 7.44057185 -16.99622822 6.19476891 C-15.60210712 5.12549156 -15.60210712 5.12549156 -14.17982197 4.03461266 C-9.43984748 0.82047198 -5.70913297 0.00696879 0 0 Z M367.44127178 127.25726891 C367.44127178 188.96726891 367.44127178 250.67726891 367.44127178 314.25726891 C382.95105518 309.08734111 400.1482031 299.87490223 408.62877178 285.31976891 C410.89510693 280.77861047 411.56611464 276.8222941 411.59517193 271.7563839 C411.60377239 270.63784019 411.61237286 269.51929649 411.62123394 268.36685753 C411.62549389 267.14395012 411.62975384 265.92104271 411.63414288 264.6610775 C411.64232037 263.36957787 411.65049786 262.07807823 411.65892315 260.74744225 C411.68508787 256.46688471 411.70044756 252.18631769 411.71470928 247.90570641 C411.72007168 246.42872296 411.7254492 244.95173957 411.73084164 243.47475624 C411.7524643 237.32737067 411.771198 231.17998765 411.78246403 225.0325737 C411.79868436 216.24141039 411.83182203 207.45069033 411.88886487 198.65969408 C411.92765961 192.46842563 411.94710807 186.27727525 411.95238459 180.0858885 C411.95602574 176.39324448 411.96791327 172.7010738 412.00048733 169.00856209 C412.03636861 164.88205255 412.03217305 160.75648659 412.02476788 156.6298275 C412.04117321 155.41906548 412.05757854 154.20830345 412.07448101 152.96085167 C412.0195722 145.46586537 410.94993738 139.41651446 406.44127178 133.25726891 C394.56310464 123.47740503 384.7838503 127.25726891 367.44127178 127.25726891 Z " fill="#61DAFA" transform="translate(58.55872821807861,33.74273109436035)"/>
<path d="M0 0 C0.9724968 -0.00525911 0.9724968 -0.00525911 1.96463999 -0.01062447 C4.14014838 -0.01993872 6.31538909 -0.01501518 8.49090862 -0.01015663 C10.06519832 -0.01389288 11.63948616 -0.01849431 13.21377105 -0.02388728 C17.54245183 -0.0361358 21.87105543 -0.03585463 26.19974959 -0.03349853 C30.86721881 -0.03309083 35.53466313 -0.04412501 40.20212078 -0.05361366 C49.34757338 -0.07023477 58.4930002 -0.07572371 67.63846663 -0.07683842 C75.0715403 -0.07778836 82.50460545 -0.08189598 89.93767643 -0.08823967 C111.00655055 -0.10585508 132.07540429 -0.11507807 153.14428584 -0.11357872 C154.8484411 -0.11345885 154.8484411 -0.11345885 156.58702374 -0.11333656 C158.29325701 -0.11321392 158.29325701 -0.11321392 160.03395965 -0.1130888 C178.47080581 -0.11227581 196.90757028 -0.13141606 215.34439281 -0.1596133 C234.27004325 -0.18833002 253.19565384 -0.20215426 272.12132663 -0.20042574 C282.74872453 -0.19976143 293.37603681 -0.20527207 304.00341511 -0.22678185 C313.05154376 -0.24497768 322.09954798 -0.24935411 331.147687 -0.235763 C335.76438243 -0.22922529 340.38083903 -0.22914507 344.99751186 -0.2464695 C349.2248602 -0.26216984 353.45177972 -0.25936783 357.6791174 -0.24190123 C359.20736587 -0.23882462 360.73564609 -0.24248863 362.2638571 -0.25362138 C371.21713504 -0.31451817 378.6980478 -0.3509487 385.49986553 6.25726891 C385.95490459 6.91726891 386.40994366 7.57726891 386.87877178 8.25726891 C387.35185772 8.91726891 387.82494366 9.57726891 388.31236553 10.25726891 C390.75922076 14.59218197 391.07159401 19.36561327 390.44127178 24.25726891 C388.5334263 30.17704087 385.45528749 33.70567445 380.44127178 37.25726891 C376.44127178 39.25726891 376.44127178 39.25726891 367.44127178 40.25726891 C367.44127178 107.57726891 367.44127178 174.89726891 367.44127178 244.25726891 C320.30435875 245.40694971 320.30435875 245.40694971 304.62071514 245.3707943 C302.77232649 245.3705098 300.92393772 245.37067521 299.07554913 245.3712368 C294.22481523 245.37151461 289.37410794 245.36578959 284.52338004 245.35866284 C279.39197262 245.35225312 274.26056406 245.35181201 269.12915325 245.35063744 C259.48674513 245.34757453 249.84434884 245.33943192 240.20194584 245.32928795 C229.19274182 245.31796665 218.18353712 245.31257674 207.17432868 245.30759251 C184.59663505 245.29724277 162.01895756 245.27896314 139.44127178 245.25726891 C139.44127178 231.39726891 139.44127178 217.53726891 139.44127178 203.25726891 C154.19127178 203.00726891 154.19127178 203.00726891 158.82701397 202.95941734 C160.0351878 202.92880211 161.24336163 202.89818687 162.48814678 202.86664391 C163.72403545 202.84569664 164.95992413 202.82474937 166.23326397 202.80316734 C169.98503372 202.16473834 171.20759566 201.29193055 173.44127178 198.25726891 C173.79584543 194.78244716 173.54668039 192.57349472 172.44127178 189.25726891 C161.75012341 186.58448181 150.45490929 187.63704951 139.44127178 187.25726891 C139.44127178 160.19726891 139.44127178 133.13726891 139.44127178 105.25726891 C166.62877178 105.06976891 166.62877178 105.06976891 175.1920042 105.04950523 C177.43527354 105.0230581 179.67852237 104.99478072 181.92174053 104.96430016 C183.08370953 104.96828819 184.24567852 104.97227623 185.4428587 104.97638512 C192.11420997 105.05377155 192.11420997 105.05377155 197.72374249 101.9435482 C199.77233414 99.27087798 199.77233414 99.27087798 199.44127178 95.56976891 C198.74743847 92.00187777 198.74743847 92.00187777 195.44127178 90.25726891 C192.4563223 89.93822235 192.4563223 89.93822235 189.01378155 89.96674156 C188.36627941 89.96002434 187.71877728 89.95330711 187.05165386 89.94638634 C184.91191713 89.92739361 182.7724938 89.9234817 180.63267803 89.92133141 C179.14439038 89.91490476 177.65610401 89.9081765 176.16781902 89.90115929 C173.04824678 89.88918366 169.92878531 89.88547879 166.8091917 89.88666344 C162.81300375 89.88686674 158.81752606 89.85955479 154.8215065 89.82511902 C151.74769107 89.80287566 148.67404733 89.79882508 145.60015965 89.79988289 C144.12695586 89.79752343 142.65374759 89.78868039 141.18062305 89.77321815 C139.11929547 89.75360653 137.05950928 89.75937474 134.99815655 89.77142906 C133.23968143 89.76715401 133.23968143 89.76715401 131.44568157 89.76279259 C127.70686857 90.37813957 126.75481842 91.30059843 124.44127178 94.25726891 C123.83675471 97.17697563 123.83675471 97.17697563 123.92228985 100.47083092 C123.90837704 101.74686684 123.89446423 103.02290276 123.88012981 104.33760643 C123.88484277 105.7493051 123.88993672 107.16100253 123.89537334 108.57269859 C123.88663824 110.06096541 123.87615267 111.54922283 123.86404705 113.03746605 C123.83615831 117.07643113 123.83278299 121.11509022 123.83376694 125.15413761 C123.83064028 129.3756167 123.80502727 133.59695746 123.78178692 137.8183651 C123.74120433 145.81161386 123.72088093 153.80478099 123.70781302 161.79811692 C123.69195061 170.89847258 123.65353821 179.99868917 123.61321974 189.09896421 C123.53078991 207.81835516 123.47671709 226.53773301 123.44127178 245.25726891 C119.35847677 245.43148007 115.27663498 245.53809478 111.19127178 245.63226891 C110.03240459 245.68254234 108.87353741 245.73281578 107.67955303 245.78461266 C104.49309369 245.83986918 101.57672899 245.83497402 98.44127178 245.25726891 C95.76939678 242.29633141 95.76939678 242.29633141 94.44127178 239.25726891 C89.93497991 237.00412297 83.79582784 237.98871033 78.7833128 237.96210289 C76.51569358 237.94485956 74.24952145 237.90096681 71.98228741 237.85687828 C70.54284501 237.8467537 69.10339022 237.83823686 67.66392803 237.83148766 C66.35174297 237.81690514 65.03955791 237.80232262 63.68760967 237.7872982 C60.39811606 237.93884862 60.39811606 237.93884862 58.55235577 240.09638023 C57.32832962 242.34179929 57.32832962 242.34179929 56.44127178 245.25726891 C38.62127178 245.25726891 20.80127178 245.25726891 2.44127178 245.25726891 C2.5136607 238.0514901 2.5136607 238.0514901 2.58751202 230.70014 C2.73621914 214.80258658 2.80275766 198.90546615 2.82730293 183.00725937 C2.84417561 173.37077094 2.88882498 163.73594121 3.00010967 154.10004234 C3.0970966 145.69593563 3.14069944 137.29348702 3.12163216 128.88881361 C3.11337167 124.44245418 3.13086215 119.99972761 3.21241856 115.55403328 C4.54827531 94.86662518 4.54827531 94.86662518 -3.76187515 77.02920532 C-6.28334035 74.88837744 -8.86420263 73.0756268 -11.7140913 71.40033913 C-14.58383768 69.62203707 -16.86428062 67.39137809 -19.30872822 65.06976891 C-20.06669697 64.39558922 -20.82466572 63.72140953 -21.60560322 63.02680016 C-23.55872822 61.25726891 -23.55872822 61.25726891 -25.21497822 59.51117516 C-25.65841572 59.09738609 -26.10185322 58.68359703 -26.55872822 58.25726891 C-29.28851669 58.4522538 -31.17547805 59.57193719 -33.62122822 60.81976891 C-38.45748611 62.92520877 -43.38391374 62.96079353 -48.55872822 62.25726891 C-51.99622822 60.56976891 -51.99622822 60.56976891 -54.55872822 58.25726891 C-55.34247822 57.57664391 -56.12622822 56.89601891 -56.93372822 56.19476891 C-59.39449766 51.74645491 -59.49519749 47.22193318 -58.55872822 42.25726891 C-55.66775827 36.75415353 -51.45944841 33.36596339 -46.68372822 29.56976891 C-45.93067402 28.96108971 -45.17761982 28.35241051 -44.4017458 27.72528648 C-42.1283264 25.89288888 -39.84520203 24.07333918 -37.55872822 22.25726891 C-36.90920185 21.73874352 -36.25967548 21.22021812 -35.5904665 20.68597984 C-31.60632806 17.50839424 -27.59211031 14.37201593 -23.55872822 11.25726891 C-22.72438251 10.6085482 -22.72438251 10.6085482 -21.87318134 9.94672203 C-20.25264676 8.68924771 -18.62574558 7.44057185 -16.99622822 6.19476891 C-15.60210712 5.12549156 -15.60210712 5.12549156 -14.17982197 4.03461266 C-9.43984748 0.82047198 -5.70913297 0.00696879 0 0 Z " fill="#E9F5FE" transform="translate(58.55872821807861,33.74273109436035)"/>
<path d="M0 0 C0.9724968 -0.00525911 0.9724968 -0.00525911 1.96463999 -0.01062447 C4.14014838 -0.01993872 6.31538909 -0.01501518 8.49090862 -0.01015663 C10.06519832 -0.01389288 11.63948616 -0.01849431 13.21377105 -0.02388728 C17.54245183 -0.0361358 21.87105543 -0.03585463 26.19974959 -0.03349853 C30.86721881 -0.03309083 35.53466313 -0.04412501 40.20212078 -0.05361366 C49.34757338 -0.07023477 58.4930002 -0.07572371 67.63846663 -0.07683842 C75.0715403 -0.07778836 82.50460545 -0.08189598 89.93767643 -0.08823967 C111.00655055 -0.10585508 132.07540429 -0.11507807 153.14428584 -0.11357872 C154.8484411 -0.11345885 154.8484411 -0.11345885 156.58702374 -0.11333656 C158.29325701 -0.11321392 158.29325701 -0.11321392 160.03395965 -0.1130888 C178.47080581 -0.11227581 196.90757028 -0.13141606 215.34439281 -0.1596133 C234.27004325 -0.18833002 253.19565384 -0.20215426 272.12132663 -0.20042574 C282.74872453 -0.19976143 293.37603681 -0.20527207 304.00341511 -0.22678185 C313.05154376 -0.24497768 322.09954798 -0.24935411 331.147687 -0.235763 C335.76438243 -0.22922529 340.38083903 -0.22914507 344.99751186 -0.2464695 C349.2248602 -0.26216984 353.45177972 -0.25936783 357.6791174 -0.24190123 C359.20736587 -0.23882462 360.73564609 -0.24248863 362.2638571 -0.25362138 C371.21713504 -0.31451817 378.6980478 -0.3509487 385.49986553 6.25726891 C385.95490459 6.91726891 386.40994366 7.57726891 386.87877178 8.25726891 C387.35185772 8.91726891 387.82494366 9.57726891 388.31236553 10.25726891 C390.75922076 14.59218197 391.07159401 19.36561327 390.44127178 24.25726891 C388.3113401 30.86614263 384.53089799 34.96180026 378.49250317 38.35109437 C370.8365588 41.73326857 360.73138218 40.35432965 352.55650616 40.27658653 C351.04863271 40.26626938 349.54075575 40.25645748 348.03287601 40.24710453 C344.76546395 40.22590123 341.49809738 40.20148889 338.2307272 40.1746006 C332.91252444 40.13098972 327.59428665 40.09487652 322.2760191 40.06018639 C320.41206071 40.04797744 318.54810235 40.03576392 316.68414402 40.02354598 C315.74473272 40.01739971 314.80532142 40.01125345 313.83744311 40.00492093 C310.91864991 39.98557121 307.99986215 39.96552815 305.08107471 39.945328 C290.85664716 39.84767537 276.63221864 39.77437933 262.40758038 39.71549034 C261.37699371 39.71119295 260.34640705 39.70689555 259.28459048 39.70246793 C249.71610973 39.6627413 240.1476228 39.62463747 230.57913113 39.587641 C224.02243216 39.56221203 217.46573722 39.53590116 210.90904522 39.50873375 C209.82014626 39.50423359 208.7312473 39.49973343 207.6093514 39.49509691 C189.99868963 39.42080073 172.38871057 39.29632888 154.77848196 39.15411247 C136.66291109 39.00905474 118.54769809 38.92188063 100.43157864 38.88661182 C89.27873107 38.86303734 78.12803686 38.79490333 66.97587979 38.66787539 C59.31461558 38.58487948 51.65439487 38.55828484 43.99270427 38.57426144 C39.58516061 38.58181898 35.18127429 38.56616686 30.774436 38.48264503 C7.50591684 38.06285629 -6.5193277 40.93894072 -25.55872822 55.25726891 C-27.21122381 56.41222457 -28.87284889 57.55427579 -30.5451479 58.68036652 C-31.24835855 59.1555318 -31.95156921 59.63069708 -32.67608929 60.12026131 C-37.56823797 63.07484283 -43.03088785 62.82747594 -48.55872822 62.25726891 C-51.99622822 60.56976891 -51.99622822 60.56976891 -54.55872822 58.25726891 C-55.34247822 57.57664391 -56.12622822 56.89601891 -56.93372822 56.19476891 C-59.39449766 51.74645491 -59.49519749 47.22193318 -58.55872822 42.25726891 C-55.66775827 36.75415353 -51.45944841 33.36596339 -46.68372822 29.56976891 C-45.93067402 28.96108971 -45.17761982 28.35241051 -44.4017458 27.72528648 C-42.1283264 25.89288888 -39.84520203 24.07333918 -37.55872822 22.25726891 C-36.90920185 21.73874352 -36.25967548 21.22021812 -35.5904665 20.68597984 C-31.60632806 17.50839424 -27.59211031 14.37201593 -23.55872822 11.25726891 C-22.72438251 10.6085482 -22.72438251 10.6085482 -21.87318134 9.94672203 C-20.25264676 8.68924771 -18.62574558 7.44057185 -16.99622822 6.19476891 C-15.60210712 5.12549156 -15.60210712 5.12549156 -14.17982197 4.03461266 C-9.43984748 0.82047198 -5.70913297 0.00696879 0 0 Z " fill="#017297" transform="translate(58.55872821807861,33.74273109436035)"/>
<path d="M0 0 C6.31125 -0.061875 6.31125 -0.061875 12.75 -0.125 C14.0503418 -0.14320801 15.35068359 -0.16141602 16.69042969 -0.18017578 C36.96145504 -0.27512921 53.96259999 5.52777142 68.875 19.375 C81.90591064 33.37355252 86.31226881 49.73744169 86.2746582 68.32543945 C86.27901298 69.75555689 86.28419867 71.18567199 86.29014587 72.61578369 C86.30346622 76.47753014 86.30412225 80.33917831 86.30158257 84.20094323 C86.30050791 87.436169 86.30540896 90.67137528 86.310188 93.90659684 C86.32125956 101.5460633 86.32173415 109.18548058 86.31567383 116.82495117 C86.30963842 124.67922097 86.32193942 132.53331144 86.3432439 140.38755065 C86.36091795 147.15475418 86.36685206 153.92190094 86.36360615 160.68912667 C86.36180205 164.72030945 86.36434138 168.75136435 86.37832069 172.78252602 C86.39098902 176.57722307 86.38887091 180.37164277 86.37590981 184.16633606 C86.37245482 186.20360553 86.38365584 188.24088384 86.39547729 190.27812195 C86.29158529 208.64977781 79.9477638 224.23603985 66.97265625 237.2265625 C48.18938895 255.13140834 22.98090744 266.50954628 0 278 C0 262.82 0 247.64 0 232 C3.238125 230.35 6.47625 228.7 9.8125 227 C23.30295295 219.98819447 36.48085856 212.7889196 42.18174553 197.89816284 C43.68934097 192.5584339 43.56339797 187.23622105 43.53344727 181.72265625 C43.54206284 180.43028046 43.55067841 179.13790466 43.55955505 177.80636597 C43.58189454 174.28973336 43.57914637 170.77355407 43.57023358 167.2568779 C43.56509323 164.30968891 43.57244064 161.36258285 43.57970566 158.41540241 C43.59665499 151.45817506 43.59318853 144.50116731 43.57641602 137.54394531 C43.5594909 130.3898492 43.57534533 123.23636311 43.6076389 116.08233356 C43.63440768 109.91637597 43.6415915 103.75060742 43.63312382 97.58459759 C43.62821677 93.91222773 43.63028868 90.24022477 43.65091133 86.56790161 C43.67282307 82.4706665 43.65378804 78.37457475 43.63110352 74.27734375 C43.64279572 73.076008 43.65448792 71.87467224 43.66653442 70.63693237 C43.58304817 63.20276904 42.52115188 57.08684863 38 51 C30.63040689 45.18528261 22.42307389 45.23163954 13.375 45.1875 C6.754375 45.0946875 6.754375 45.0946875 0 45 C0 30.15 0 15.3 0 0 Z " fill="#007197" transform="translate(426,116)"/>
<path d="M0 0 C121.44 0 242.88 0 368 0 C368 67.65 368 135.3 368 205 C354.47 205 340.94 205 327 205 C327 137.68 327 70.36 327 1 C219.09 1 111.18 1 0 1 C0 0.67 0 0.34 0 0 Z " fill="#D6EBFD" transform="translate(58,73)"/>
<path d="M0 0 C13.53 0 27.06 0 41 0 C41.09042905 21.17570037 41.16405683 42.35124347 41.20724869 63.52708817 C41.22783991 73.36025169 41.25589449 83.19328638 41.30175781 93.02636719 C41.34173117 101.60075685 41.3674578 110.17505316 41.37635398 118.74953341 C41.381551 123.28617588 41.39369357 127.82255139 41.42292023 132.35910797 C41.45025558 136.63712753 41.45840876 140.91477248 41.45243073 145.19287109 C41.45352292 146.75525708 41.46136833 148.31765679 41.4768219 149.87996674 C41.61417787 164.49441082 38.89606858 175.89538499 29 187 C18.86000598 196.52062265 8.19418362 200.34469319 -5.52734375 200.1953125 C-6.51626114 200.1924826 -7.50517853 200.18965271 -8.52406311 200.18673706 C-11.66200195 200.17560142 -14.79964839 200.15050903 -17.9375 200.125 C-20.07356357 200.11496165 -22.20963164 200.1058373 -24.34570312 200.09765625 C-29.56390073 200.0756838 -34.78192946 200.04227254 -40 200 C-40 199.67 -40 199.34 -40 199 C-39.26136719 198.85304688 -38.52273438 198.70609375 -37.76171875 198.5546875 C-24.31771464 195.58231556 -14.27981566 189.88531417 -6.75 178.25 C-0.59055722 168.35336722 -0.55464173 157.15470941 -0.56762695 145.88012695 C-0.55859347 144.28245799 -0.5482624 142.68479592 -0.53674316 141.08714294 C-0.50933316 136.78212781 -0.49991057 132.47724475 -0.49388909 128.17215371 C-0.48446347 123.66111862 -0.4582569 119.15018057 -0.43388367 114.63920593 C-0.39032969 106.11142673 -0.3617147 97.58366649 -0.33856028 89.05581015 C-0.31144888 79.34105249 -0.26754118 69.62639299 -0.22227156 59.91170561 C-0.12958434 39.94117618 -0.06004766 19.97065609 0 0 Z " fill="#02D0FB" transform="translate(385,278)"/>
<path d="M0 0 C0.6461879 -0.0087616 1.29237579 -0.01752319 1.95814514 -0.02655029 C4.08281674 -0.04846176 6.2053874 -0.03402484 8.33007812 -0.01708984 C9.81311439 -0.02046045 11.29614796 -0.02531511 12.7791748 -0.03158569 C15.88283669 -0.03894569 18.9857776 -0.02828105 22.08935547 -0.00488281 C26.06101619 0.02360611 30.03098759 0.00719721 34.00258636 -0.02274513 C37.06366629 -0.04084271 40.12434791 -0.03504918 43.18544006 -0.02210617 C44.6494212 -0.01877887 46.1134389 -0.02283551 47.57737732 -0.03450394 C49.62677287 -0.04725532 51.6734616 -0.02778482 53.72265625 0 C54.88671997 0.00397797 56.05078369 0.00795593 57.25012207 0.01205444 C61.3157797 0.84175201 62.83808754 2.41322903 65.36132812 5.64697266 C65.50188723 9.6529072 65.11982394 11.71767804 62.57348633 14.83740234 C57.51508373 17.68705501 52.5461602 17.13805932 46.84179688 17.03759766 C45.7656311 17.03356934 44.68946533 17.02954102 43.58068848 17.02539062 C39.56989433 17.00450034 35.55934368 16.94865485 31.54882812 16.89697266 C18.09101563 16.77322266 18.09101563 16.77322266 4.36132812 16.64697266 C4.36132812 43.70697266 4.36132812 70.76697266 4.36132812 98.64697266 C13.93132812 98.64697266 23.50132812 98.64697266 33.36132812 98.64697266 C37.36132812 100.64697266 37.36132812 100.64697266 39.36132812 103.64697266 C39.79882812 106.52197266 39.79882812 106.52197266 39.36132812 109.64697266 C37.71132812 111.29697266 36.06132812 112.94697266 34.36132812 114.64697266 C24.46132812 114.64697266 14.56132812 114.64697266 4.36132812 114.64697266 C4.36132812 142.03697266 4.36132812 169.42697266 4.36132812 197.64697266 C22.28179864 197.56784863 22.28179864 197.56784863 40.20214844 197.46679688 C42.44791474 197.46095593 44.69368315 197.45585943 46.93945312 197.45166016 C48.10653809 197.44142822 49.27362305 197.43119629 50.47607422 197.4206543 C52.15032471 197.42029175 52.15032471 197.42029175 53.85839844 197.41992188 C54.82658508 197.41548065 55.79477173 197.41103943 56.79229736 197.40646362 C59.51681968 197.66152956 61.08521841 198.14754511 63.36132812 199.64697266 C65.68882157 203.13821283 65.86432129 204.53919517 65.36132812 208.64697266 C63.49422902 210.94972822 62.00485071 212.32521136 59.36132812 213.64697266 C57.60463583 213.73769553 55.84447803 213.76451409 54.08544922 213.76049805 C52.41083618 213.76031677 52.41083618 213.76031677 50.70239258 213.76013184 C49.52507568 213.75501587 48.34775879 213.7498999 47.13476562 213.74462891 C46.05557861 213.74362183 44.9763916 213.74261475 43.86450195 213.74157715 C39.82176658 213.73633347 35.77904632 213.72237228 31.73632812 213.70947266 C22.70257813 213.68884766 13.66882813 213.66822266 4.36132812 213.64697266 C4.36132812 241.03697266 4.36132812 268.42697266 4.36132812 296.64697266 C14.26132813 296.64697266 24.16132813 296.64697266 34.36132812 296.64697266 C39.36132812 300.64697266 39.36132812 300.64697266 39.92382812 304.14697266 C39.36132812 307.64697266 39.36132812 307.64697266 37.9296875 309.83032227 C34.02680365 312.59090769 30.3787503 312.23892589 25.70507812 312.21337891 C24.76579468 312.21957748 23.82651123 312.22577606 22.85876465 312.23216248 C20.87509192 312.23925879 18.89135961 312.23608991 16.90771484 312.22338867 C13.87160793 312.20951961 10.83858109 312.2435995 7.80273438 312.28173828 C5.8743482 312.28268946 3.94595817 312.28083073 2.01757812 312.27587891 C1.11019897 312.28913712 0.20281982 312.30239532 -0.73205566 312.3160553 C-1.57973511 312.30352219 -2.42741455 312.29098907 -3.30078125 312.27807617 C-4.04372437 312.27711441 -4.78666748 312.27615265 -5.55212402 312.27516174 C-8.97884923 311.24349052 -9.81061003 309.73297549 -11.63867188 306.64697266 C-12.24817784 302.65357009 -12.18215524 298.68520302 -12.15333557 294.65222168 C-12.16375386 292.80738135 -12.16375386 292.80738135 -12.17438263 290.92527151 C-12.18951855 287.5140443 -12.18669991 284.10368812 -12.1762296 280.69249988 C-12.16924227 277.01280089 -12.18523188 273.33319141 -12.19822693 269.65351868 C-12.21987962 262.44614062 -12.2197369 255.23892038 -12.21160138 248.03152049 C-12.20530428 242.17449647 -12.20643575 236.31751852 -12.21287346 230.460495 C-12.21377511 229.62723233 -12.21467677 228.79396966 -12.21560575 227.9354566 C-12.21745692 226.24275592 -12.21931949 224.55005524 -12.22119331 222.85735458 C-12.23777601 206.9809046 -12.22904838 191.10454346 -12.21220773 175.22809881 C-12.19750832 160.69819851 -12.21214168 146.16850496 -12.24097789 131.63863128 C-12.27035877 116.72339258 -12.28134813 101.80824934 -12.27179569 86.89298296 C-12.27077312 85.2064721 -12.26977852 83.51996121 -12.26881218 81.83345032 C-12.26833579 81.00363163 -12.2678594 80.17381293 -12.26736857 79.31884822 C-12.26520282 73.46811854 -12.27501701 67.61747908 -12.28958321 61.76676941 C-12.30708434 54.63769036 -12.30702122 47.50887499 -12.28423155 40.3798064 C-12.27306926 36.74161195 -12.26997105 33.10388244 -12.28853226 29.46570778 C-12.30838283 25.52413512 -12.28959709 21.58329336 -12.26686096 17.64172363 C-12.27869669 16.488523 -12.29053242 15.33532237 -12.30272681 14.14717627 C-12.21191386 6.43172692 -12.21191386 6.43172692 -9.29386044 2.43698311 C-5.97303159 0.19822748 -3.99078796 0.01363776 0 0 Z " fill="#076383" transform="translate(193.638671875,122.35302734375)"/>
<path d="M0 0 C6.11974418 -0.0992969 12.23901352 -0.17167096 18.359375 -0.21972656 C20.43888525 -0.23977159 22.51833963 -0.26701513 24.59765625 -0.30175781 C27.59649487 -0.35058948 30.59458463 -0.37304028 33.59375 -0.390625 C34.51490601 -0.41127014 35.43606201 -0.43191528 36.38513184 -0.45318604 C43.40079473 -0.45559383 48.93339834 1.02068302 54.05859375 6 C54.74115234 6.99 54.74115234 6.99 55.4375 8 C55.91058594 8.66 56.38367188 9.32 56.87109375 10 C59.31794898 14.33491306 59.63032223 19.10834436 59 24 C56.87114516 30.60553246 53.08920612 34.72301519 47.03881836 38.09204102 C38.58119085 41.85852607 26.98116038 39.88143146 17.9375 39.5625 C16.29233661 39.50917927 14.64715427 39.45643986 13.00195312 39.40429688 C9.00105195 39.27623819 5.00049 39.14029551 1 39 C3.5 37.75 6 36.5 8.5 35.25 C13.07641118 32.62789317 15.34605932 28.96182203 17 24 C17.53931937 17.63603144 16.66260889 13.29547478 13 8 C9.30728597 3.79647826 5.33180166 2.17299637 0 1 C0 0.67 0 0.34 0 0 Z " fill="#015F80" transform="translate(390,34)"/>
<path d="M0 0 C0.66914429 -0.00478363 1.33828857 -0.00956726 2.02770996 -0.01449585 C3.43630334 -0.01788406 4.84497652 -0.00875672 6.25341797 0.01220703 C8.40120886 0.03899961 10.54377653 0.01243484 12.69140625 -0.01953125 C14.06511562 -0.01622695 15.43882176 -0.00982026 16.8125 0 C18.05322266 0.00563965 19.29394531 0.0112793 20.57226562 0.01708984 C24.78415451 0.83442329 26.27451658 2.34128445 28.90625 5.6640625 C29.53125 8.6640625 29.53125 8.6640625 28.90625 11.6640625 C26.27451658 14.98684055 24.78415451 16.49370171 20.57226562 17.31103516 C18.71118164 17.31949463 18.71118164 17.31949463 16.8125 17.328125 C16.14335571 17.33290863 15.47421143 17.33769226 14.78479004 17.34262085 C13.37619666 17.34600906 11.96752348 17.33688172 10.55908203 17.31591797 C8.41129114 17.28912539 6.26872347 17.31569016 4.12109375 17.34765625 C2.74738438 17.34435195 1.37367824 17.33794526 0 17.328125 C-1.24072266 17.32248535 -2.48144531 17.3168457 -3.75976562 17.31103516 C-7.97165451 16.49370171 -9.46201658 14.98684055 -12.09375 11.6640625 C-12.71875 8.6640625 -12.71875 8.6640625 -12.09375 5.6640625 C-8.36399786 0.95494628 -5.94045029 0.02700205 0 0 Z " fill="#0B6585" transform="translate(127.09375,171.3359375)"/>
<path d="M0 0 C2.06655425 0.02684788 4.1277023 0.00018455 6.1940918 -0.03173828 C7.50442383 -0.02529297 8.81475586 -0.01884766 10.16479492 -0.01220703 C11.95348999 -0.00374756 11.95348999 -0.00374756 13.77832031 0.00488281 C17.91012112 0.83343159 19.40841481 2.39854593 22.00463867 5.65185547 C22.62963867 8.65185547 22.62963867 8.65185547 22.00463867 11.65185547 C19.37290525 14.97463352 17.88254318 16.48149468 13.6706543 17.29882812 C11.80957031 17.3072876 11.80957031 17.3072876 9.91088867 17.31591797 C9.24174438 17.3207016 8.5726001 17.32548523 7.88317871 17.33041382 C6.47458533 17.33380203 5.06591215 17.32467469 3.6574707 17.30371094 C1.50967981 17.27691835 -0.63288786 17.30348312 -2.78051758 17.33544922 C-4.15422695 17.33214491 -5.52793309 17.32573823 -6.90161133 17.31591797 C-8.14233398 17.31027832 -9.38305664 17.30463867 -10.66137695 17.29882812 C-14.87345942 16.48145711 -16.36068504 14.9721603 -18.99536133 11.65185547 C-19.68286133 8.65185547 -19.68286133 8.65185547 -18.99536133 5.65185547 C-13.93204486 -0.72905265 -7.71024204 -0.11948164 0 0 Z " fill="#056384" transform="translate(133.995361328125,368.34814453125)"/>
<path d="M0 0 C0.66914429 -0.00241196 1.33828857 -0.00482391 2.02770996 -0.00730896 C3.43633985 -0.00633354 4.84500951 0.00698777 6.25341797 0.03198242 C8.40074807 0.06631827 10.54396249 0.05262699 12.69140625 0.03320312 C14.06512155 0.04010214 15.43882631 0.04977506 16.8125 0.0625 C18.05322266 0.07337646 19.29394531 0.08425293 20.57226562 0.09545898 C24.48996895 0.72230299 26.17890783 1.78219511 28.90625 4.62890625 C29.46875 8.12890625 29.46875 8.12890625 28.90625 11.62890625 C27.03916495 13.99388064 25.58563569 15.2892134 22.90625 16.62890625 C18.82052091 16.8862834 14.73308513 16.89990472 10.63989258 16.92407227 C8.61144971 16.94125631 6.58465006 16.98514 4.55664062 17.02929688 C3.27337891 17.03767578 1.99011719 17.04605469 0.66796875 17.0546875 C-0.50805908 17.06927002 -1.68408691 17.08385254 -2.89575195 17.09887695 C-6.76008448 16.53098321 -8.37926141 15.39461743 -11.09375 12.62890625 C-12.21875 9.19140625 -12.21875 9.19140625 -12.09375 5.62890625 C-8.42973241 0.86646333 -5.91759389 -0.00345833 0 0 Z " fill="#056384" transform="translate(127.09375,319.37109375)"/>
<path d="M0 0 C0.717323 -0.0038269 1.434646 -0.00765381 2.17370605 -0.01159668 C3.68661914 -0.01431227 5.19957945 -0.00697555 6.71240234 0.00976562 C9.02417976 0.03118449 11.33285013 0.00995649 13.64453125 -0.015625 C15.11719434 -0.01298166 16.5898555 -0.00785653 18.0625 0 C18.75114136 -0.00809692 19.43978271 -0.01619385 20.14929199 -0.02453613 C23.50050713 0.04072426 25.26484492 0.32861096 27.96289062 2.38085938 C29.53125 4.53125 29.53125 4.53125 30.09375 7.46875 C29.33203759 11.61585092 27.78471322 12.90215019 24.53125 15.53125 C21.19726562 16.17822266 21.19726562 16.17822266 17.4375 16.1953125 C16.76835571 16.20009613 16.09921143 16.20487976 15.40979004 16.20980835 C14.00119666 16.21319656 12.59252348 16.20406922 11.18408203 16.18310547 C9.03629114 16.15631289 6.89372347 16.18287766 4.74609375 16.21484375 C3.37238438 16.21153945 1.99867824 16.20513276 0.625 16.1953125 C-0.61572266 16.18967285 -1.85644531 16.1840332 -3.13476562 16.17822266 C-7.3477475 15.36067711 -8.84127618 13.8597515 -11.46875 10.53125 C-12.03125 7.46875 -12.03125 7.46875 -11.46875 4.53125 C-8.2777471 0.1560393 -5.0963964 -0.05992253 0 0 Z " fill="#046081" transform="translate(126.46875,221.46875)"/>
<path d="M0 0 C0.717323 -0.0038269 1.434646 -0.00765381 2.17370605 -0.01159668 C3.68661914 -0.01431227 5.19957945 -0.00697555 6.71240234 0.00976562 C9.02417976 0.03118449 11.33285013 0.00995649 13.64453125 -0.015625 C15.11719434 -0.01298166 16.5898555 -0.00785653 18.0625 0 C18.75114136 -0.00809692 19.43978271 -0.01619385 20.14929199 -0.02453613 C23.50050713 0.04072426 25.26484492 0.32861096 27.96289062 2.38085938 C29.53125 4.53125 29.53125 4.53125 30.09375 7.46875 C29.33064652 11.62342453 27.79930003 12.90469497 24.53125 15.53125 C21.08959961 16.17822266 21.08959961 16.17822266 17.18359375 16.1953125 C16.48988174 16.20009613 15.79616974 16.20487976 15.08143616 16.20980835 C13.621569 16.21319697 12.16162489 16.20406688 10.7019043 16.18310547 C8.47077233 16.15627432 6.24465023 16.18289891 4.01367188 16.21484375 C2.59113477 16.21154025 1.16860078 16.20513523 -0.25390625 16.1953125 C-1.54176025 16.18967285 -2.82961426 16.1840332 -4.15649414 16.17822266 C-7.46875 15.53125 -7.46875 15.53125 -9.88842773 13.18115234 C-11.82207241 9.93879497 -12.10093424 8.2453324 -11.46875 4.53125 C-8.28331024 0.15276164 -5.09368679 -0.05989067 0 0 Z " fill="#026081" transform="translate(126.46875,418.46875)"/>
<path d="M0 0 C1.04125534 -0.00786278 1.04125534 -0.00786278 2.10354614 -0.0158844 C3.57113306 -0.0223023 5.03877143 -0.02097051 6.50634766 -0.01245117 C8.74345477 -0.00396074 10.97799026 -0.03266704 13.21484375 -0.06445312 C14.6432284 -0.06606589 16.07161756 -0.06548617 17.5 -0.0625 C19.44302002 -0.06527954 19.44302002 -0.06527954 21.42529297 -0.06811523 C25.4412837 0.51463162 27.11004482 1.50837934 29.8828125 4.43359375 C30.50334701 8.29469737 30.62869814 10.39522898 28.31445312 13.61694336 C25.08025079 16.03317826 22.30107852 16.02799584 18.4140625 16 C17.338078 16.00929787 17.338078 16.00929787 16.24035645 16.01878357 C14.72747146 16.02587072 13.2145083 16.02272683 11.70166016 16.01000977 C9.38948924 15.99613382 7.08136092 16.03023067 4.76953125 16.06835938 C3.29687401 16.06931057 1.82421172 16.0674517 0.3515625 16.0625 C-0.68139954 16.08238731 -0.68139954 16.08238731 -1.73522949 16.10267639 C-5.39994392 16.03173853 -6.87602932 15.65933401 -9.58789062 13.12084961 C-11.1171875 10.43359375 -11.1171875 10.43359375 -11.0546875 6.80859375 C-9.2345406 0.25606489 -6.54396934 0.0493346 0 0 Z " fill="#036081" transform="translate(126.1171875,270.56640625)"/>
<path d="M0 0 C2.15583926 0.00850573 4.30902225 -0.02025524 6.46459961 -0.05200195 C7.84285403 -0.05361439 9.22111311 -0.05303561 10.59936523 -0.05004883 C11.84645264 -0.05190186 13.09354004 -0.05375488 14.37841797 -0.05566406 C18.32388893 0.5352508 19.99106261 1.58027454 22.72827148 4.44604492 C23.34880599 8.30714854 23.47415712 10.40768016 21.15991211 13.62939453 C17.92570978 16.04562943 15.1465375 16.04044701 11.25952148 16.01245117 C10.18353699 16.02174904 10.18353699 16.02174904 9.08581543 16.03123474 C7.57293044 16.03832189 6.05996728 16.03517801 4.54711914 16.02246094 C2.23494823 16.00858499 -0.0731801 16.04268184 -2.38500977 16.08081055 C-3.857667 16.08176175 -5.3303293 16.07990287 -6.80297852 16.07495117 C-7.83594055 16.09483849 -7.83594055 16.09483849 -8.88977051 16.11512756 C-12.55367678 16.04420534 -14.02920218 15.67342536 -16.73852539 13.13330078 C-18.27172852 10.44604492 -18.27172852 10.44604492 -18.27172852 6.82104492 C-15.72507763 -1.77390182 -7.4521201 -0.04495872 0 0 Z " fill="#036081" transform="translate(133.271728515625,122.553955078125)"/>
</svg>
