<?xml version="1.0" encoding="UTF-8"?>
<svg version="1.1" xmlns="http://www.w3.org/2000/svg" width="512" height="512">
<path d="M0 0 C21.14925289 18.87467571 38.03400914 44.68984894 43.41357422 72.81030273 C44.58453817 79.1828465 44.58453817 79.1828465 48.3671875 84.22265625 C51.16494941 85.9704483 51.16494941 85.9704483 54.10546875 87.43359375 C61.17127053 91.25732724 66.62948393 97.28501435 69 105 C69.41901094 108.12903192 69.44467413 111.21717691 69.43359375 114.37109375 C69.4388356 115.25225357 69.44407745 116.13341339 69.44947815 117.04127502 C69.45587228 118.89607698 69.45459533 120.75091962 69.44604492 122.60571289 C69.43753459 125.42603543 69.46633248 128.24433015 69.49804688 131.06445312 C69.49965928 132.8749994 69.49908061 134.68554922 69.49609375 136.49609375 C69.50732773 137.32966904 69.51856171 138.16324432 69.53013611 139.02207947 C69.44918594 145.90519051 67.4210133 150.92059551 63.17578125 156.3203125 C62.25345703 157.21363281 62.25345703 157.21363281 61.3125 158.125 C60.40951172 159.02605469 60.40951172 159.02605469 59.48828125 159.9453125 C57 162 57 162 54.82461166 162.82997513 C51.77159653 164.19995472 50.11924058 165.38169976 48 168 C46.60766096 174.44882407 46.8558494 180.86276633 46.96582031 187.43261719 C46.96668226 189.44681001 46.96351382 191.461008 46.95661926 193.47518921 C46.95030557 197.81035763 46.97225167 202.1441387 47.01605988 206.47908783 C47.08495077 213.33791647 47.08959887 220.19587471 47.08538818 227.05499268 C47.08624303 239.14459868 47.14225373 251.23348561 47.2098999 263.32287598 C47.31091407 281.509238 47.36467737 299.69571386 47.37344241 317.8823483 C47.3787287 324.69567592 47.411138 331.5081739 47.46540785 338.32128096 C47.49467805 342.56752713 47.50351854 346.81364831 47.50729942 351.05998611 C47.51340739 353.02315846 47.5281248 354.98632664 47.55227852 356.94935989 C47.69204342 368.69878328 47.27448087 376.97422666 40 386.6640625 C5.57361826 420.41805398 -54.73938109 424.25828948 -100.375 424.1875 C-101.10678467 424.18689575 -101.83856934 424.1862915 -102.5925293 424.18566895 C-146.51860738 424.08826661 -207.34314928 420.69291274 -240.52734375 387.6875 C-246.8018589 380.86780581 -249.16057169 375.08785626 -249.084198 365.87251282 C-249.08137475 365.03438228 -249.0785515 364.19625175 -249.0756427 363.33272332 C-249.06521279 360.51385069 -249.04783943 357.69506028 -249.03076172 354.8762207 C-249.02233719 352.85922982 -249.01450323 350.8422364 -249.00721741 348.82524109 C-248.99545303 345.59927827 -248.98324742 342.37332206 -248.96924853 339.14736807 C-248.93472519 331.14503888 -248.91853005 323.14282638 -248.91360474 315.14042664 C-248.91287205 313.98001006 -248.91213936 312.81959348 -248.91138446 311.62401277 C-248.90871922 306.83566881 -248.90667241 302.04732477 -248.9049089 297.25898039 C-248.89912385 283.65620002 -248.87533441 270.05399381 -248.79785156 256.45141602 C-248.73645171 245.65125783 -248.71378683 234.85180548 -248.73666394 224.05148572 C-248.74730888 218.33523364 -248.73828696 212.62052498 -248.68233871 206.90450478 C-248.63012769 201.5251167 -248.62932872 196.14815971 -248.66770744 190.76867867 C-248.67269729 188.79660825 -248.65892525 186.82438575 -248.62482262 184.85260391 C-248.09743157 174.30797403 -248.09743157 174.30797403 -252.37704849 165.17207909 C-255.21052922 163.01911061 -255.21052922 163.01911061 -258.19476509 161.51269817 C-264.18513335 158.28244494 -268.96137764 152.48392922 -271 146 C-271.30992544 142.94169256 -271.32785426 139.89648891 -271.3359375 136.82421875 C-271.3425943 135.94022903 -271.3492511 135.05623932 -271.35610962 134.14546204 C-271.36621309 132.27871778 -271.37092735 130.41193758 -271.37060547 128.54516602 C-271.37496966 125.7072306 -271.41128805 122.87086278 -271.44921875 120.03320312 C-271.45508942 118.21354694 -271.45905714 116.39388343 -271.4609375 114.57421875 C-271.47530853 113.73436935 -271.48967957 112.89451996 -271.50448608 112.02922058 C-271.4429238 103.98425972 -268.61529381 98.03056622 -262.875 92.375 C-261.70130859 91.21677734 -261.70130859 91.21677734 -260.50390625 90.03515625 C-257.97941921 87.98327209 -255.79992663 87.033605 -252.8125 85.8125 C-248.90387599 83.64438807 -247.62417831 81.5406537 -246.31640625 77.40625 C-245.27722399 73.58789931 -244.3827936 69.7384375 -243.4765625 65.88671875 C-235.2793975 31.50011617 -209.28923442 1.54864528 -179.71875 -16.69140625 C-122.5941375 -50.53381734 -49.87904486 -43.48280794 0 0 Z " fill="#45757D" transform="translate(357,63)"/>
<path d="M0 0 C0.72805344 -0.00570007 1.45610687 -0.01140015 2.20622253 -0.01727295 C3.74676075 -0.0266842 5.28731875 -0.03324145 6.82788086 -0.03710938 C9.12327119 -0.04668847 11.41771476 -0.0776935 13.71289062 -0.109375 C27.53810098 -0.2091856 40.85061771 1.72301252 54.10546875 5.765625 C54.92273438 6.01393066 55.74 6.26223633 56.58203125 6.51806641 C70.36251959 10.92394822 86.45139011 17.42783297 97.35546875 27.203125 C97.35546875 28.193125 97.35546875 29.183125 97.35546875 30.203125 C97.90847656 30.40550781 98.46148437 30.60789062 99.03125 30.81640625 C102.26341272 32.74483947 104.28171769 35.44980008 106.54296875 38.390625 C107.0234668 39.01138916 107.50396484 39.63215332 107.99902344 40.27172852 C123.15290834 60.24070276 134.56628872 83.19677966 132.10546875 108.8046875 C130.29450444 120.68914079 123.74853416 129.93962663 115.35546875 138.203125 C114.71738281 138.83992187 114.07929688 139.47671875 113.421875 140.1328125 C84.85105593 166.86226901 37.19926341 166.22557296 0.50085449 165.2767334 C-32.07859769 164.15892915 -77.93382343 158.49360005 -102.14453125 134.01171875 C-112.23589686 122.6747002 -113.59201351 111.48495883 -112.87841797 96.85498047 C-111.78249536 84.42918573 -105.56640407 72.95705372 -99.64453125 62.203125 C-99.29374512 61.55956055 -98.94295898 60.91599609 -98.58154297 60.25292969 C-90.68240824 45.93099874 -80.32224867 34.54016347 -68.64453125 23.203125 C-68.0825 22.543125 -67.52046875 21.883125 -66.94140625 21.203125 C-63.33758704 18.06510556 -59.14248829 16.27271735 -54.83203125 14.265625 C-53.89149902 13.82468506 -52.9509668 13.38374512 -51.98193359 12.92944336 C-39.54796298 7.19989852 -27.11239075 3.5344036 -13.64453125 1.203125 C-12.74331543 1.03039062 -11.84209961 0.85765625 -10.91357422 0.6796875 C-7.26270582 0.14746232 -3.68084871 0.02296127 0 0 Z " fill="#97B8BE" transform="translate(245.64453125,27.796875)"/>
<path d="M0 0 C1.22523376 0.00087616 2.45046753 0.00175232 3.71282959 0.00265503 C45.43089818 0.10073135 104.71030958 3.10683185 136.625 34.375 C142.28642107 40.68192889 146.14828467 46.21803462 145.9453125 54.90234375 C144.91826326 62.8306629 141.10005673 69.29282389 135.171875 74.55078125 C86.14474565 112.00586471 8.48980363 112.48066288 -50.14892578 104.88623047 C-66.24919197 102.62260465 -81.94241861 99.52472757 -97.375 94.375 C-98.09816406 94.13668457 -98.82132813 93.89836914 -99.56640625 93.65283203 C-116.64277435 87.92533012 -135.49651264 79.95231557 -144.375 63.375 C-146.85469562 57.96475502 -147.49693513 52.08164646 -145.7578125 46.3359375 C-138.5911682 30.41710813 -122.01753315 22.32452719 -106.6015625 16.28515625 C-92.67484683 11.07917949 -78.40586203 7.35457583 -63.8125 4.5625 C-62.81089844 4.36760986 -61.80929688 4.17271973 -60.77734375 3.97192383 C-40.70037525 0.37701841 -20.34062074 -0.03577019 0 0 Z " fill="#0BD9FE" transform="translate(256.375,307.625)"/>
<path d="M0 0 C3.82128906 4.75976562 3.82128906 4.75976562 5.4296875 6.921875 C23.05200952 29.21173096 59.42150596 36.45128923 85.74853516 40.63427734 C87.57062148 40.93025276 89.38626075 41.26574229 91.19921875 41.61328125 C147.64782135 52.40856146 224.22082719 48.58366631 274 18 C279.96567998 13.93032735 284.75358988 9.63284267 288.84375 3.6640625 C290 2 290 2 292 0 C292.0697286 8.2063652 292.12292659 16.41260514 292.15543652 24.61919403 C292.17104525 28.43048114 292.1921949 32.2415645 292.22631836 36.05273438 C292.2590842 39.73562096 292.276889 43.41831244 292.28463173 47.10133362 C292.29014453 48.50146045 292.30090926 49.90157746 292.31719017 51.30162048 C292.45033397 63.23325589 291.17219437 70.64391818 282.765625 79.484375 C248.9980427 110.19952048 191.03459354 113.61041137 148.10839844 113.39111328 C144.36877172 113.37497312 140.63022036 113.39111653 136.890625 113.41015625 C94.93852503 113.44742365 39.24921193 108.05898819 7.21875 77.39453125 C1.61091803 71.34241682 -0.1295634 65.81820728 -0.11352539 57.67089844 C-0.11344986 56.38987244 -0.11337433 55.10884644 -0.11329651 53.78900146 C-0.10819026 52.39579225 -0.10297427 51.00258343 -0.09765625 49.609375 C-0.09579032 48.18019663 -0.09436724 46.75101762 -0.09336853 45.32183838 C-0.08955715 41.56699852 -0.07973867 37.81219757 -0.06866455 34.05737305 C-0.05842075 30.22314988 -0.05386455 26.38892041 -0.04882812 22.5546875 C-0.03811514 15.03644063 -0.02105531 7.51822577 0 0 Z " fill="#6CE8FE" transform="translate(110,371)"/>
<path d="M0 0 C5.20959801 1.73653267 10.2769836 3.46795357 15.3762207 5.44799805 C56.51808767 21.26423417 101.31529714 24.52883073 145 25 C145.29315623 30.90070871 144.88738311 35.39861418 142.5625 40.9375 C141.88380859 42.59072266 141.88380859 42.59072266 141.19140625 44.27734375 C140.49568987 45.86722676 139.77611201 47.44777598 139 49 C138.51163887 53.59539817 138.14720092 57.62240148 140.625 61.625 C143.72904866 63.42208081 145.46656253 63.58890625 149 63 C151.57955419 61.75609295 151.57955419 61.75609295 153 59 C154.38774456 52.00939891 152.35740061 46.63298239 149.19140625 40.4453125 C147.34048101 36.64636429 146.87559071 33.45983159 146.9375 29.25 C146.94652344 28.45078125 146.95554687 27.6515625 146.96484375 26.828125 C146.98224609 25.92320312 146.98224609 25.92320312 147 25 C147.84892822 24.98018066 148.69785645 24.96036133 149.57250977 24.93994141 C167.1101309 24.51164627 184.54853669 23.90688546 202 22 C203.36366699 21.85739746 203.36366699 21.85739746 204.75488281 21.71191406 C217.96125332 20.29909645 230.82360008 17.93078229 243.77416992 14.98144531 C244.90314697 14.72588867 246.03212402 14.47033203 247.1953125 14.20703125 C248.19578613 13.9747583 249.19625977 13.74248535 250.22705078 13.50317383 C252.88886419 13.02016648 255.30231782 12.90477681 258 13 C258.31942441 15.04059478 258.63001362 17.08257224 258.9375 19.125 C259.11152344 20.26195312 259.28554688 21.39890625 259.46484375 22.5703125 C261.41801761 37.79680313 261.11644603 53.05432772 261.0625 68.375 C261.05747545 70.86458243 261.05291423 73.35416585 261.04882812 75.84375 C261.03789706 81.895855 261.02123451 87.94792284 261 94 C260.22942261 93.73104919 259.45884521 93.46209839 258.66491699 93.18499756 C222.49144145 80.58476505 187.63422556 74.8120205 149.37792969 74.81469727 C145.90286883 74.81251748 142.42812976 74.79431927 138.953125 74.77539062 C121.17645766 74.730019 103.6654425 75.73581386 86.125 78.75 C85.13653076 78.91918945 84.14806152 79.08837891 83.12963867 79.26269531 C55.82024921 84.13944934 20.02343335 91.98686664 2.9375 116.0625 C2.298125 117.031875 1.65875 118.00125 1 119 C0.67 119 0.34 119 0 119 C0 79.73 0 40.46 0 0 Z " fill="#DDF9FE" transform="translate(110,232)"/>
<path d="M0 0 C2.13202221 2.08809432 4.06264489 4.08361444 5.85546875 6.4765625 C8.34056326 9.40073564 11.09002729 11.36320489 14.3125 13.375 C14.92931641 13.76220215 15.54613281 14.1494043 16.18164062 14.54833984 C72.51333878 49.13623034 154.43699549 48.01823888 218 42 C219.08474609 41.89816406 220.16949219 41.79632813 221.28710938 41.69140625 C254.2300627 38.46287725 307.30887184 32.89263197 331 6 C332.45929824 4.04851241 333.72950909 2.08360508 335 0 C335.33 0 335.66 0 336 0 C336.17625846 4.12444805 336.28150609 8.24791183 336.375 12.375 C336.42527344 13.53128906 336.47554688 14.68757812 336.52734375 15.87890625 C336.66708128 24.12342075 335.21110071 29.53693083 330 36 C327.00957581 39.07835664 324.03869797 42.11289612 320.055336 43.84618664 C317.63386387 45.00786778 315.8993443 46.09012597 314 48 C312.81671807 51.8764547 312.98781267 55.64953856 313.09179688 59.67504883 C313.09062866 60.855961 313.08946045 62.03687317 313.08825684 63.25357056 C313.09286935 66.48362497 313.13291934 69.7108904 313.1888485 72.94038987 C313.23893232 76.31818353 313.24356386 79.69603478 313.25305176 83.07414246 C313.27789623 89.46708469 313.34351443 95.8589297 313.42384768 102.25138921 C313.51333379 109.53053412 313.55726911 116.80973205 313.59741116 124.08929026 C313.6809846 139.06013774 313.82165502 154.02995904 314 169 C313.37778564 168.21915039 312.75557129 167.43830078 312.11450195 166.63378906 C304.65321823 157.34013605 296.2171372 151.79461139 286 146 C285.01 145.34 284.02 144.68 283 144 C282.61473083 141.88198853 282.61473083 141.88198853 282.59936523 139.22509766 C282.58602646 138.2287027 282.57268768 137.23230774 282.5589447 136.20571899 C282.55877098 134.57634903 282.55877098 134.57634903 282.55859375 132.9140625 C282.53878197 131.22487198 282.53878197 131.22487198 282.51856995 129.5015564 C282.4775549 125.87601417 282.45602804 122.25072177 282.4375 118.625 C282.40567648 113.90868947 282.3637535 109.19265912 282.30859375 104.4765625 C282.29516937 103.32496643 282.281745 102.17337036 282.26791382 100.98687744 C282.12268619 92.31533045 281.45553214 83.79177334 280.42211914 75.18505859 C279.95107488 71.10156469 279.92764365 67.10832969 280 63 C279.16267334 63.19110352 278.32534668 63.38220703 277.46264648 63.57910156 C246.54816077 70.56433374 215.85448349 75.25526686 184.0625 75.0625 C182.58919426 75.057465 181.11588682 75.0529057 179.64257812 75.04882812 C176.0950156 75.03800377 172.54751948 75.02085455 169 75 C169.26763305 77.04964519 169.5489906 79.09750063 169.8359375 81.14453125 C169.9911084 82.28510986 170.1462793 83.42568848 170.30615234 84.60083008 C170.99758326 87.98816033 172.05570671 90.62137802 173.625 93.6875 C176.14691608 98.82890629 177.26711502 103.31841975 176 109 C173.57388349 112.56781839 172.2173448 113.7463865 168 114.625 C163.7826552 113.7463865 162.42611651 112.56781839 160 109 C158.47725739 102.17221864 160.6193814 97.11766874 163.69677734 91.10498047 C165.10811477 87.7424122 165.67333699 84.75159309 166.1640625 81.14453125 C166.32600098 79.98928955 166.48793945 78.83404785 166.65478516 77.64379883 C166.76870605 76.77134521 166.88262695 75.8988916 167 75 C165.70026245 75.0314209 165.70026245 75.0314209 164.37426758 75.06347656 C134.95879804 75.67192641 106.34162344 73.45998422 77.4375 67.875 C76.77552612 67.74712097 76.11355225 67.61924194 75.43151855 67.48748779 C68.48920908 66.12588667 62.91408332 64.94272221 57 61 C55.3554335 60.4006687 53.69220305 59.85165647 52.01953125 59.3359375 C11.4063005 46.50862303 11.4063005 46.50862303 1 28 C-0.35700647 25.28598706 -0.1123861 23.15153684 -0.09765625 20.1171875 C-0.09443359 18.95058594 -0.09121094 17.78398437 -0.08789062 16.58203125 C-0.07951172 15.35871094 -0.07113281 14.13539063 -0.0625 12.875 C-0.05798828 11.64394531 -0.05347656 10.41289062 -0.04882812 9.14453125 C-0.0370133 6.09630608 -0.02054028 3.04817686 0 0 Z " fill="#97B8BE" transform="translate(88,182)"/>
<path d="M0 0 C1.21592834 -0.00111786 2.43185669 -0.00223572 3.68463135 -0.00338745 C52.91267005 0.01883503 52.91267005 0.01883503 63.625 5.375 C65.52302666 16.3107102 64.77864305 28.03257105 64.75537109 39.09570312 C64.75003454 42.10552057 64.7553337 45.1151872 64.76171875 48.125 C64.76531329 57.34933971 64.66540623 66.55267497 64.1796875 75.765625 C64.14094513 76.5262323 64.10220276 77.2868396 64.06228638 78.07049561 C63.75142599 83.24857401 63.75142599 83.24857401 62.625 84.375 C25.51008712 92.41816813 -27.32843855 97.72385382 -64.375 85.375 C-65.27664841 81.52303875 -65.50157061 77.95141955 -65.50439453 73.99926758 C-65.50754669 72.73057327 -65.51069885 71.46187897 -65.51394653 70.15473938 C-65.51215555 68.77633632 -65.5101043 67.39793357 -65.5078125 66.01953125 C-65.50848701 64.5933175 -65.50945826 63.16710386 -65.51071167 61.7408905 C-65.51218412 58.75262354 -65.51005024 55.76438652 -65.50537109 52.77612305 C-65.49969999 48.97142277 -65.502939 45.16679346 -65.50894356 41.36209583 C-65.5125836 38.41502869 -65.51139444 35.46797794 -65.50881577 32.52091026 C-65.50815464 31.1196765 -65.50894603 29.71844119 -65.51129532 28.31720924 C-65.52137886 20.60696371 -65.36226797 13.02791006 -64.375 5.375 C-43.40202635 -0.07724618 -21.53189851 -0.02804731 0 0 Z " fill="#6CE8FE" transform="translate(256.375,307.625)"/>
<path d="M0 0 C0.99 0.495 0.99 0.495 2 1 C1.04480469 1.90878906 0.08960938 2.81757812 -0.89453125 3.75390625 C-20.77708431 22.9548603 -41.75926146 50.70330819 -42.43188477 79.5612793 C-42.46061878 93.31987372 -40.23449705 102.6562271 -30.37890625 112.8203125 C-26.82739369 116.07440776 -23.18442611 118.62745775 -19 121 C-18.21109375 121.47824219 -17.4221875 121.95648438 -16.609375 122.44921875 C24.73864473 145.48079115 83.34439288 145.91777125 129 139 C130.45957413 138.80423 131.91920359 138.6088718 133.37890625 138.4140625 C154.93759654 135.06387249 176.92176046 126.24019709 191 109 C199.93718567 95.83554215 202.72831221 82.81791862 200.421875 67.046875 C196.25397984 45.36252089 183.80246931 25.142348 169 9 C168.01 8.505 168.01 8.505 167 8 C167.33 7.34 167.66 6.68 168 6 C199.31901125 29.17290479 219.06160705 62.03821372 225.26953125 100.52734375 C226.76760834 110.91899906 228.16251239 120.97670525 222 130 C196.30567136 157.40728388 139.38216069 159.85424597 104.58544922 161.12466431 C96.20314634 161.32725438 87.82179172 161.33750647 79.4375 161.3125 C78.16452057 161.31067719 76.89154114 161.30885437 75.57998657 161.30697632 C56.5387001 161.26113112 37.85578731 160.80894454 19 158 C17.77200684 157.82307617 16.54401367 157.64615234 15.27880859 157.46386719 C-46.06401955 148.40674683 -46.06401955 148.40674683 -63 129 C-70.61555947 116.55767749 -65.12741025 97.31997163 -62 84 C-53.09908758 48.51816938 -29.23834206 20.75526409 0 0 Z " fill="#7EA3A9" transform="translate(176,50)"/>
<path d="M0 0 C5.20959801 1.73653267 10.2769836 3.46795357 15.3762207 5.44799805 C38.99480187 14.52772836 63.90826712 19.26794885 89 22 C90.06050511 25.18151534 89.95432962 26.28421094 89.36328125 29.48828125 C89.19989258 30.40867187 89.03650391 31.3290625 88.86816406 32.27734375 C88.68479492 33.27894531 88.50142578 34.28054688 88.3125 35.3125 C86.54929482 45.3487263 85.07056325 55.39816755 83.75 65.5 C83.66150787 66.1752774 83.57301575 66.85055481 83.48184204 67.54629517 C82.98248238 71.36350727 82.48871647 75.18141148 82 79 C81.19643066 79.17958252 80.39286133 79.35916504 79.56494141 79.54418945 C49.78932472 86.29237112 19.77397647 94.28252942 0 119 C0 79.73 0 40.46 0 0 Z " fill="#C9F6FE" transform="translate(110,232)"/>
<path d="M0 0 C0.33 0 0.66 0 1 0 C1.0697286 8.2063652 1.12292659 16.41260514 1.15543652 24.61919403 C1.17104525 28.43048114 1.1921949 32.2415645 1.22631836 36.05273438 C1.2590842 39.73562096 1.276889 43.41831244 1.28463173 47.10133362 C1.29014453 48.50146045 1.30090926 49.90157746 1.31719017 51.30162048 C1.45033397 63.23325589 0.17219437 70.64391818 -8.234375 79.484375 C-26.79915415 96.37098202 -53.46245662 103.05174108 -77.375 107.9375 C-78.40230225 108.14906738 -79.42960449 108.36063477 -80.48803711 108.57861328 C-86.43532446 109.72636111 -91.94448436 110.20686544 -98 110 C-97.75765625 109.04222656 -97.5153125 108.08445312 -97.265625 107.09765625 C-96.35463178 103.48630089 -95.45517281 99.87215753 -94.56005859 96.25683594 C-94.2085167 94.84024775 -93.85497889 93.4241518 -93.49853516 92.00878906 C-91.08615494 82.40353207 -89.12811188 72.73553793 -87.3125 63 C-87.09795166 61.85426514 -86.88340332 60.70853027 -86.66235352 59.52807617 C-85.53319636 53.36030877 -84.60168998 47.2417071 -84 41 C-83.2157666 40.81937012 -82.4315332 40.63874023 -81.62353516 40.45263672 C-37.03893748 31.10792913 -37.03893748 31.10792913 -2 4 C-1.30996609 2.67860853 -0.63727368 1.34762921 0 0 Z " fill="#1CBAD6" transform="translate(401,371)"/>
<path d="M0 0 C3.82128906 4.75976562 3.82128906 4.75976562 5.4296875 6.921875 C22.77192324 28.85745967 58.19902479 35.81403619 84 41 C84.20363159 42.19206055 84.20363159 42.19206055 84.41137695 43.40820312 C85.7275394 51.1035482 87.05612208 58.79660876 88.39355469 66.48828125 C88.86887647 69.24070817 89.33353783 71.99426399 89.7890625 74.75 C91.28349128 83.39247968 93.50061596 91.6879028 96.01928711 100.0859375 C96.27460205 100.94058594 96.52991699 101.79523438 96.79296875 102.67578125 C97.0252417 103.43802002 97.25751465 104.20025879 97.49682617 104.9855957 C98 107 98 107 98 110 C90.92277729 110.24781212 84.59503532 109.37575932 77.6875 107.875 C76.64150635 107.65126709 75.5955127 107.42753418 74.51782227 107.19702148 C50.00967369 101.80422566 19.31243614 94.16844126 3.46875 72.94921875 C0.40680247 67.8423277 -0.12505999 63.53047585 -0.11352539 57.67089844 C-0.11344986 56.38987244 -0.11337433 55.10884644 -0.11329651 53.78900146 C-0.10819026 52.39579225 -0.10297427 51.00258343 -0.09765625 49.609375 C-0.09579032 48.18019663 -0.09436724 46.75101762 -0.09336853 45.32183838 C-0.08955715 41.56699852 -0.07973867 37.81219757 -0.06866455 34.05737305 C-0.05842075 30.22314988 -0.05386455 26.38892041 -0.04882812 22.5546875 C-0.03811514 15.03644063 -0.02105531 7.51822577 0 0 Z " fill="#0BD9FE" transform="translate(110,371)"/>
<path d="M0 0 C-0.23976563 1.71316406 -0.23976563 1.71316406 -0.484375 3.4609375 C-1.03036566 7.85790485 -1.2181455 12.19722443 -1.25 16.625 C-1.270625 17.34945312 -1.29125 18.07390625 -1.3125 18.8203125 C-1.34751402 23.65224731 -0.50849458 26.74508515 2 31 C2.4640625 32.11375 2.4640625 32.11375 2.9375 33.25 C4.30793915 35.5071939 5.63084094 35.86130207 8 37 C9.52666516 37.92797294 11.04706917 38.86629195 12.5625 39.8125 C39.28897703 55.80965219 72.47879317 60.37881221 103 63 C104.53769043 63.14139404 104.53769043 63.14139404 106.10644531 63.28564453 C119.37767585 64.35061982 132.69472421 64.24377894 146 64.25 C147.94268768 64.25101212 147.94268768 64.25101212 149.92462158 64.25204468 C169.13420044 64.23614443 187.9803636 63.87729393 207 61 C208.19028809 60.82307617 209.38057617 60.64615234 210.60693359 60.46386719 C254.664501 54.42605651 254.664501 54.42605651 290.25 30.9375 C293.08918279 26.17172889 293.15284628 22.21003697 293.125 16.8125 C293.12886719 16.08224609 293.13273437 15.35199219 293.13671875 14.59960938 C293.12795292 9.651298 292.69903576 4.89879825 292 0 C301.03967487 3.24664379 307.83611063 9.87231722 312.8125 17.9375 C314.71208092 22.83641921 314.4781388 26.45308035 312.9375 31.4375 C305.55776492 46.70945175 287.55924603 54.33448756 272.41796875 59.6640625 C231.53615629 73.33436228 188.01179027 77.24232946 145.125 77.1875 C143.79571472 77.18659363 143.79571472 77.18659363 142.4395752 77.18566895 C94.48432 77.09767765 22.24342757 75.66133995 -14.96875 40.140625 C-19.52709445 35.33683123 -21.6024203 31.37942742 -22.375 24.8125 C-21.5418399 16.34203897 -16.55100085 11.01789821 -10.21875 5.73046875 C-2.87133183 0 -2.87133183 0 0 0 Z " fill="#96B8BE" transform="translate(110,148)"/>
<path d="M0 0 C0.31942441 2.04059478 0.63001362 4.08257224 0.9375 6.125 C1.11152344 7.26195312 1.28554688 8.39890625 1.46484375 9.5703125 C3.41801761 24.79680313 3.11644603 40.05432772 3.0625 55.375 C3.05747545 57.86458243 3.05291423 60.35416585 3.04882812 62.84375 C3.03789706 68.895855 3.02123451 74.94792284 3 81 C1.84270638 80.59636986 1.84270638 80.59636986 0.66203308 80.18458557 C-16.06437737 74.36076606 -32.63750383 69.61709651 -50 66 C-50.02578125 65.09765625 -50.0515625 64.1953125 -50.078125 63.265625 C-50.75178412 46.07064264 -53.33581867 28.88196799 -56.73266602 12.02490234 C-56.82088623 11.35668457 -56.90910645 10.6884668 -57 10 C-55.48071362 8.48071362 -53.97336062 8.68034712 -51.85546875 8.45703125 C-50.9639209 8.35559814 -50.07237305 8.25416504 -49.15380859 8.1496582 C-48.17492676 8.038396 -47.19604492 7.92713379 -46.1875 7.8125 C-35.37857756 6.51477223 -24.84111401 4.40082067 -14.23120117 1.98168945 C-13.10045166 1.72605225 -11.96970215 1.47041504 -10.8046875 1.20703125 C-9.80421387 0.9747583 -8.80374023 0.74248535 -7.77294922 0.50317383 C-5.11113581 0.02016648 -2.69768218 -0.09522319 0 0 Z " fill="#C9F6FE" transform="translate(368,245)"/>
<path d="M0 0 C0 39.27 0 78.54 0 119 C-1.32 117.35 -2.64 115.7 -4 114 C-10.88635208 105.95368669 -18.91915892 101.15016527 -28 96 C-28.99 95.34 -29.98 94.68 -31 94 C-31.38526917 91.88198853 -31.38526917 91.88198853 -31.40063477 89.22509766 C-31.41397354 88.2287027 -31.42731232 87.23230774 -31.4410553 86.20571899 C-31.44117111 85.11947235 -31.44128693 84.03322571 -31.44140625 82.9140625 C-31.45461411 81.78793549 -31.46782196 80.66180847 -31.48143005 79.5015564 C-31.5224451 75.87601417 -31.54397196 72.25072177 -31.5625 68.625 C-31.66536535 53.38014796 -31.89368495 38.31930087 -33.73703003 23.17254639 C-34.18741394 19.45166553 -34.58921188 15.72543125 -35 12 C-34.3201001 11.77860352 -33.6402002 11.55720703 -32.93969727 11.32910156 C-29.81233802 10.30764104 -26.68742807 9.27887299 -23.5625 8.25 C-21.95858398 7.72792969 -21.95858398 7.72792969 -20.32226562 7.1953125 C-14.63197935 5.3159519 -9.13518643 3.30434571 -3.72241211 0.72558594 C-2 0 -2 0 0 0 Z " fill="#A1CED6" transform="translate(402,232)"/>
<path d="M0 0 C3.82128906 4.75976562 3.82128906 4.75976562 5.4296875 6.921875 C8.96080053 11.38825581 12.98887733 14.60797896 17.75 17.6875 C18.35352295 18.08203369 18.9570459 18.47656738 19.57885742 18.88305664 C23.39625817 21.27650228 26.80886669 22.52451639 31.1875 23.6875 C33.86328125 24.81640625 33.86328125 24.81640625 36 27 C37.69938981 32.17457419 37.94002725 37.67160589 38.40625 43.06640625 C40.44708624 66.55506068 50.3652445 88.44925842 67 105 C44.49843191 100.00310005 17.92174097 92.36151863 3.4765625 72.953125 C0.40231193 67.85117725 -0.12506013 63.53054595 -0.11352539 57.67089844 C-0.11344986 56.38987244 -0.11337433 55.10884644 -0.11329651 53.78900146 C-0.10819026 52.39579225 -0.10297427 51.00258343 -0.09765625 49.609375 C-0.09579032 48.18019663 -0.09436724 46.75101762 -0.09336853 45.32183838 C-0.08955715 41.56699852 -0.07973867 37.81219757 -0.06866455 34.05737305 C-0.05842075 30.22314988 -0.05386455 26.38892041 -0.04882812 22.5546875 C-0.03811514 15.03644063 -0.02105531 7.51822577 0 0 Z " fill="#1CBAD6" transform="translate(110,371)"/>
<path d="M0 0 C5.30371743 10.60743487 -5.53154568 36.95077329 -9.1796875 47.96875 C-11.52062477 54.63854347 -14.2305414 61.00177421 -18 67 C-18.4429541 67.74983154 -18.8859082 68.49966309 -19.34228516 69.2722168 C-22.56415413 74.13446164 -25.11590562 76.51129444 -30.8359375 77.97265625 C-33.00896618 78.37385101 -35.18943041 78.73646869 -37.375 79.0625 C-38.46039063 79.26037109 -39.54578125 79.45824219 -40.6640625 79.66210938 C-46.85021161 80.7342258 -52.72775497 81.20467326 -59 81 C-58.75765625 80.04222656 -58.5153125 79.08445312 -58.265625 78.09765625 C-57.35463178 74.48630089 -56.45517281 70.87215753 -55.56005859 67.25683594 C-55.2085167 65.84024775 -54.85497889 64.4241518 -54.49853516 63.00878906 C-52.08615494 53.40353207 -50.12811188 43.73553793 -48.3125 34 C-48.09795166 32.85426514 -47.88340332 31.70853027 -47.66235352 30.52807617 C-46.53319636 24.36030877 -45.60168998 18.2417071 -45 12 C-43.80793945 11.72119995 -43.80793945 11.72119995 -42.59179688 11.43676758 C-21.10335314 6.41874045 -21.10335314 6.41874045 0 0 Z " fill="#0BD9FE" transform="translate(362,400)"/>
<path d="M0 0 C10.11923077 3.37307692 10.11923077 3.37307692 13.9296875 4.7890625 C15.15171875 5.24152344 15.15171875 5.24152344 16.3984375 5.703125 C17.21570313 6.00734375 18.03296875 6.3115625 18.875 6.625 C20.53891401 7.24258771 22.20297042 7.85979195 23.8671875 8.4765625 C24.95169189 8.8799585 24.95169189 8.8799585 26.05810547 9.29150391 C27.6954926 9.88890112 29.3464801 10.4488267 31 11 C30.85567373 13.70842066 30.70954564 16.4167266 30.5625 19.125 C30.52318359 19.86621094 30.48386719 20.60742188 30.44335938 21.37109375 C30.40146484 22.13808594 30.35957031 22.90507812 30.31640625 23.6953125 C30.24776367 24.96580444 30.24776367 24.96580444 30.17773438 26.26196289 C30.05779345 28.10967914 29.90729645 29.95563021 29.72851562 31.79858398 C29.10263972 38.64968987 28.99012021 45.35249891 29.1386261 52.22711182 C29.23721488 56.88639373 29.27928044 61.54571746 29.32128906 66.20581055 C29.35723711 68.61972191 29.41831295 71.03338371 29.50390625 73.44604492 C30.16479965 93.13027523 30.16479965 93.13027523 26.54464722 97.92926025 C23.0148848 100.96156113 19.13578709 102.61320795 14.8044281 104.19448853 C8.66919821 106.93330537 4.05971377 113.92535779 0 119 C0 79.73 0 40.46 0 0 Z " fill="#A1CED6" transform="translate(110,232)"/>
<path d="M0 0 C0.33 0 0.66 0 1 0 C1.17625846 4.12444805 1.28150609 8.24791183 1.375 12.375 C1.42527344 13.53128906 1.47554688 14.68757812 1.52734375 15.87890625 C1.66708128 24.12342075 0.21110071 29.53693083 -5 36 C-9.23832206 40.37568939 -13.85118132 43.75635302 -19.140625 46.76171875 C-21.10535756 47.95116186 -21.10535756 47.95116186 -22.6484375 49.90234375 C-26.12163586 53.00052899 -30.0425742 54.2830854 -34.375 55.875 C-35.30546143 56.22087158 -36.23592285 56.56674316 -37.19458008 56.9230957 C-73.40891387 70.07786209 -112.53700834 75.29533675 -150.9375 75.0625 C-152.41080574 75.057465 -153.88411318 75.0529057 -155.35742188 75.04882812 C-158.9049844 75.03800377 -162.45248052 75.02085455 -166 75 C-165.73236695 77.04964519 -165.4510094 79.09750063 -165.1640625 81.14453125 C-165.0088916 82.28510986 -164.8537207 83.42568848 -164.69384766 84.60083008 C-164.00241674 87.98816033 -162.94429329 90.62137802 -161.375 93.6875 C-158.85308392 98.82890629 -157.73288498 103.31841975 -159 109 C-161.42611651 112.56781839 -162.7826552 113.7463865 -167 114.625 C-171.2173448 113.7463865 -172.57388349 112.56781839 -175 109 C-176.52274261 102.17221864 -174.3806186 97.11766874 -171.30322266 91.10498047 C-169.89188523 87.7424122 -169.32666301 84.75159309 -168.8359375 81.14453125 C-168.67399902 79.98928955 -168.51206055 78.83404785 -168.34521484 77.64379883 C-168.23129395 76.77134521 -168.11737305 75.8988916 -168 75 C-169.29973755 75.0314209 -169.29973755 75.0314209 -170.62573242 75.06347656 C-200.04120196 75.67192641 -228.65837656 73.45998422 -257.5625 67.875 C-258.22447388 67.74712097 -258.88644775 67.61924194 -259.56848145 67.48748779 C-270.98538427 65.24828084 -270.98538427 65.24828084 -275 63 C-271.65452699 61.90036432 -269.3630185 62.12273403 -265.94140625 62.85546875 C-264.92965332 63.06397461 -263.91790039 63.27248047 -262.87548828 63.48730469 C-261.23555908 63.83390137 -261.23555908 63.83390137 -259.5625 64.1875 C-249.61922178 66.19672697 -239.67630168 67.87827303 -229.625 69.25 C-228.44494385 69.41266357 -227.2648877 69.57532715 -226.04907227 69.74291992 C-213.48075526 71.42065362 -201.10221822 72.16933222 -188.421875 72.203125 C-187.68950874 72.20595238 -186.95714249 72.20877975 -186.20258331 72.21169281 C-182.30774087 72.22659756 -178.41293447 72.23587545 -174.51806641 72.24023438 C-171.37504143 72.24456925 -168.23229869 72.25827684 -165.08935547 72.28125 C-137.80640334 72.47632944 -110.73624282 71.42157052 -83.875 66.1875 C-82.50881972 65.931233 -81.14260799 65.67513361 -79.77636719 65.41918945 C-69.00651321 63.36228089 -58.45405941 60.66184276 -47.94335938 57.54833984 C-45.64990955 56.9012182 -43.34789192 56.40563173 -41 56 C-41.42713263 46.30850793 -42.72133379 37.42995201 -45 28 C-44.04222656 27.67128906 -43.08445312 27.34257812 -42.09765625 27.00390625 C-26.3055177 21.4265558 -9.06985846 14.87456787 0 0 Z " fill="#7EA3A9" transform="translate(423,182)"/>
<path d="M0 0 C2.13202221 2.08809432 4.06264489 4.08361444 5.85546875 6.4765625 C8.34101075 9.40126219 11.09111733 11.36084606 14.3125 13.375 C14.91336426 13.75712646 15.51422852 14.13925293 16.13330078 14.53295898 C22.7870795 18.65747843 29.8337922 21.87858456 37 25 C36.91298828 26.18142578 36.91298828 26.18142578 36.82421875 27.38671875 C36.4025258 37.56759129 38.41832457 46.9514409 45 55 C44.505 55.99 44.505 55.99 44 57 C21.84736986 48.68910143 21.84736986 48.68910143 13 42 C11.88238281 41.17048828 11.88238281 41.17048828 10.7421875 40.32421875 C4.96277123 35.68575735 0.55114995 30.37948076 -0.3984375 22.83398438 C-0.49035166 19.35523328 -0.43759163 15.9150472 -0.3125 12.4375 C-0.28994141 11.23802734 -0.26738281 10.03855469 -0.24414062 8.80273438 C-0.18566309 5.86716197 -0.10375749 2.93426192 0 0 Z " fill="#7EA3A9" transform="translate(88,182)"/>
<path d="M0 0 C9.30481774 2.80643112 20.0537518 9.14507954 26 17 C27.00449029 24.41550181 22.57020156 29.43880033 18.4296875 35.17578125 C12.83449426 42.1359854 5.33301514 46.90144202 -3 50 C-3.09941489 43.46512801 -2.72314277 37.12306829 -2.0625 30.625 C-1.07511222 20.42547582 -0.44915558 10.23601932 0 0 Z " fill="#1BBBD7" transform="translate(370,328)"/>
<path d="M0 0 C0.01981934 0.62753174 0.03963867 1.25506348 0.06005859 1.90161133 C0.44665192 13.62649574 0.94139592 25.27950013 2.33935547 36.93286133 C2.82180989 40.98356326 3.09652572 44.92017971 3 49 C-8.43609396 46.71278121 -18.96271671 38.41978215 -25.4453125 28.87109375 C-26.36254847 27.28356996 -27.19410004 25.64683905 -28 24 C-23.07335383 15.65368178 -10.89159059 0 0 0 Z " fill="#1CBAD6" transform="translate(139,329)"/>
<path d="M0 0 C0 0.99 0 1.98 0 3 C-40.30865174 20.33947589 -84.20225091 27.32768341 -127.9375 27.0625 C-129.41080574 27.057465 -130.88411318 27.0529057 -132.35742188 27.04882812 C-135.9049844 27.03800377 -139.45248052 27.02085455 -143 27 C-142.73236695 29.04964519 -142.4510094 31.09750063 -142.1640625 33.14453125 C-142.0088916 34.28510986 -141.8537207 35.42568848 -141.69384766 36.60083008 C-141.00241674 39.98816033 -139.94429329 42.62137802 -138.375 45.6875 C-135.85308392 50.82890629 -134.73288498 55.31841975 -136 61 C-138.42611651 64.56781839 -139.7826552 65.7463865 -144 66.625 C-148.2173448 65.7463865 -149.57388349 64.56781839 -152 61 C-153.52274261 54.17221864 -151.3806186 49.11766874 -148.30322266 43.10498047 C-146.89188523 39.7424122 -146.32666301 36.75159309 -145.8359375 33.14453125 C-145.67399902 31.98928955 -145.51206055 30.83404785 -145.34521484 29.64379883 C-145.23129395 28.77134521 -145.11737305 27.8988916 -145 27 C-146.29973755 27.0314209 -146.29973755 27.0314209 -147.62573242 27.06347656 C-177.04120196 27.67192641 -205.65837656 25.45998422 -234.5625 19.875 C-235.22447388 19.74712097 -235.88644775 19.61924194 -236.56848145 19.48748779 C-247.98538427 17.24828084 -247.98538427 17.24828084 -252 15 C-248.65452699 13.90036432 -246.3630185 14.12273403 -242.94140625 14.85546875 C-241.42377686 15.16822754 -241.42377686 15.16822754 -239.87548828 15.48730469 C-238.78220215 15.71836914 -237.68891602 15.94943359 -236.5625 16.1875 C-226.61922178 18.19672697 -216.67630168 19.87827303 -206.625 21.25 C-205.44494385 21.41266357 -204.2648877 21.57532715 -203.04907227 21.74291992 C-190.48075526 23.42065362 -178.10221822 24.16933222 -165.421875 24.203125 C-164.68950874 24.20595238 -163.95714249 24.20877975 -163.20258331 24.21169281 C-159.30774087 24.22659756 -155.41293447 24.23587545 -151.51806641 24.24023438 C-148.37504143 24.24456925 -145.23229869 24.25827684 -142.08935547 24.28125 C-114.80819867 24.4763166 -87.73380204 23.42690034 -60.875 18.1875 C-60.20273376 18.06027557 -59.53046753 17.93305115 -58.83782959 17.80197144 C-38.92188336 14.03276285 -18.15912418 9.31829954 0 0 Z " fill="#4B7A82" transform="translate(400,230)"/>
<path d="M0 0 C3.09933894 2.59479539 5.37530127 4.54556367 6.12109375 8.6171875 C6.12995592 14.30670203 5.72662454 17.89199721 1.6875 22.25 C-2.65813769 25.38290159 -6.06997336 25.6172263 -11.1953125 24.83203125 C-15.63468959 23.61161209 -17.83976376 20.95910435 -20.3125 17.25 C-20.96067054 12.90384594 -21.31715176 8.2833191 -19.33203125 4.265625 C-14.13833643 -2.19053718 -7.35317 -3.88469359 0 0 Z " fill="#45767F" transform="translate(263.3125,107.75)"/>
<path d="M0 0 C4.83726219 1.43696071 9.6690383 2.88347243 14.47265625 4.4296875 C68.81137183 21.70503588 128.56217732 23.12123952 185 18 C186.08055664 17.90348145 187.16111328 17.80696289 188.27441406 17.70751953 C206.92648937 15.95834893 225.46418076 12.56828055 243.58984375 7.81640625 C247 7 247 7 251 7 C251 7.66 251 8.32 251 9 C232.0881672 13.93822847 213.43215933 17.67452214 194 20 C193.09540039 20.11182617 192.19080078 20.22365234 191.25878906 20.33886719 C127.88853909 28.08602077 59.0939215 24.47544544 -1 2 C-0.67 1.34 -0.34 0.68 0 0 Z " fill="#4C7A82" transform="translate(121,204)"/>
<path d="M0 0 C3.42189236 0.01073152 6.84325998 0.00002724 10.26513672 -0.01269531 C29.02775722 -0.02433827 47.37022901 1.58151636 65.92529297 4.26074219 C62.59237883 6.48268495 62.17839541 6.46206463 58.42529297 6.01074219 C57.47041992 5.90213867 56.51554688 5.79353516 55.53173828 5.68164062 C53.05553506 5.39264967 50.58157508 5.08396435 48.10986328 4.75878906 C35.01763339 3.11935657 22.01181093 2.9540566 8.82958984 3 C5.19465296 3.01068528 1.56021462 3.00006224 -2.07470703 2.98730469 C-22.12950769 2.97344388 -41.88315873 3.95789608 -61.57470703 7.94824219 C-62.2171637 8.07535583 -62.85962036 8.20246948 -63.52154541 8.33343506 C-78.41895298 11.29300648 -93.40273603 14.91681846 -107.1628418 21.47998047 C-109.54103189 22.45117852 -111.5341413 22.58855712 -114.07470703 22.26074219 C-109.77785417 18.80250805 -105.22199408 17.23257995 -100.07470703 15.38574219 C-99.09356934 15.03350586 -98.11243164 14.68126953 -97.1015625 14.31835938 C-83.6914893 9.61026932 -70.13142717 6.48440085 -56.13720703 4.07324219 C-55.24598145 3.91823242 -54.35475586 3.76322266 -53.43652344 3.60351562 C-35.67233212 0.72283595 -17.97315559 -0.06682426 0 0 Z " fill="#497C85" transform="translate(252.07470703125,305.7392578125)"/>
<path d="M0 0 C1.93588989 0.27312012 1.93588989 0.27312012 3.91088867 0.55175781 C4.93404678 0.70312195 4.93404678 0.70312195 5.97787476 0.85754395 C9.53946825 1.38007332 13.1075126 1.85369032 16.67578125 2.328125 C17.37705643 2.42177338 18.0783316 2.51542175 18.80085754 2.61190796 C27.08170756 3.70442414 35.24720525 4.23570141 43.59375 4.35546875 C44.87878418 4.37593262 46.16381836 4.39639648 47.48779297 4.41748047 C66.6344258 4.69189785 85.52565842 4.29950412 104.59375 2.35546875 C107.21801126 2.09332694 109.84215916 1.84424974 112.46875 1.60546875 C113.88800781 1.45851563 113.88800781 1.45851563 115.3359375 1.30859375 C117.59375 1.35546875 117.59375 1.35546875 120.59375 3.35546875 C116.59462111 3.84208436 112.59431167 4.31828842 108.59375 4.79296875 C106.93472656 4.9950293 106.93472656 4.9950293 105.2421875 5.20117188 C90.01734639 6.99490316 74.90679033 7.56317608 59.59375 7.54296875 C58.74069275 7.5423645 57.8876355 7.54176025 57.00872803 7.5411377 C34.47454208 7.49800403 12.79298006 5.24599708 -9.40625 1.35546875 C-5.63039736 -1.16176634 -4.41098311 -0.65167811 0 0 Z " fill="#49828C" transform="translate(194.40625,409.64453125)"/>
<path d="M0 0 C0.66 0 1.32 0 2 0 C3.01390853 2.20283698 4.01104385 4.41098556 5 6.625 C5.28617187 7.24246094 5.57234375 7.85992187 5.8671875 8.49609375 C7.96795134 13.24782149 8.9886577 17.26217868 7.1875 22.25 C6 24 6 24 3 26 C-0.39316226 25.91299584 -1.76819522 25.19520403 -4.375 23 C-6.71410423 18.68165372 -6.26649854 15.66043003 -5 11 C-3.51398365 7.23639649 -1.82798095 3.60874467 0 0 Z " fill="#6FE4F9" transform="translate(255,269)"/>
<path d="M0 0 C1.66289062 0.31275879 1.66289062 0.31275879 3.359375 0.63183594 C5.16728516 0.97843262 5.16728516 0.97843262 7.01171875 1.33203125 C17.38445737 3.25400699 27.74627531 4.96037407 38.19921875 6.39453125 C39.95745972 6.63852661 39.95745972 6.63852661 41.7512207 6.88745117 C53.47061996 8.46594832 65.07940311 9.2877827 76.90234375 9.4609375 C78.10614685 9.4817186 79.30994995 9.50249969 80.55023193 9.52391052 C84.349843 9.58866013 88.14951591 9.64793977 91.94921875 9.70703125 C94.54427692 9.75028762 97.13932911 9.79390402 99.734375 9.83789062 C106.05592653 9.94426363 112.3775379 10.04616046 118.69921875 10.14453125 C118.69921875 10.47453125 118.69921875 10.80453125 118.69921875 11.14453125 C18.7691787 14.74433241 18.7691787 14.74433241 -7.30078125 0.14453125 C-4.54182021 -1.23494927 -3.01830325 -0.58406741 0 0 Z " fill="#56838B" transform="translate(155.30078125,244.85546875)"/>
<path d="M0 0 C1.875 1.0625 1.875 1.0625 3 3 C3.39309578 6.09562931 3.62338668 8.04336605 3 11 C0.9375 13.5625 0.9375 13.5625 -2 15 C-5.8137751 15 -8.02424548 14.84985071 -10.9375 12.3125 C-12.33817538 9.26397123 -12.4842732 7.32073048 -12 4 C-8.18516492 -0.70496326 -5.84684214 -1.43187971 0 0 Z " fill="#477880" transform="translate(243,95)"/>
<path d="M0 0 C3.39470755 1.15564512 4.87501175 2.06492057 6.9375 5 C7.4217732 8.32073048 7.27567538 10.26397123 5.875 13.3125 C2.96174548 15.84985071 0.7512751 16 -3.0625 16 C-6 14.5625 -6 14.5625 -8.0625 12 C-8.77337502 9.17383832 -8.77895858 6.82538909 -8.0625 4 C-5.43455412 0.83100644 -4.13044829 0 0 0 Z " fill="#477880" transform="translate(274.0625,94)"/>
<path d="M0 0 C3.72206393 1.34627844 5.01947413 2.61005343 6.9375 6.0625 C7.01854732 10.03381876 6.4063579 11.54005834 3.75 14.5 C0.9375 16.0625 0.9375 16.0625 -2.125 16.125 C-5.84706393 14.77872156 -7.14447413 13.51494657 -9.0625 10.0625 C-9.14354732 6.09118124 -8.5313579 4.58494166 -5.875 1.625 C-3.0625 0.0625 -3.0625 0.0625 0 0 Z " fill="#467780" transform="translate(257.0625,86.9375)"/>
<path d="M0 0 C4.80731132 1.31108491 4.80731132 1.31108491 6.4375 3.9375 C7.6602635 7.68730806 7.77946438 9.25357124 6 12.8125 C2.92793763 15.36006392 1.25045795 15.68449343 -2.65234375 15.421875 C-4.5625 14.9375 -4.5625 14.9375 -7.125 12.8125 C-8.5625 9.9375 -8.5625 9.9375 -8.5625 6.875 C-6.87388157 1.91468336 -5.42557966 -0.09518561 0 0 Z " fill="#467780" transform="translate(256.5625,136.0625)"/>
<path d="M0 0 C2.9375 2.0625 2.9375 2.0625 5 5 C5 8.54361243 4.65850044 10.86591591 2.875 13.9375 C-0.18452459 15.6712306 -2.56817525 15.42145216 -6 15 C-8.4375 13.4375 -8.4375 13.4375 -10 11 C-10.56783945 7.02512383 -10.62340519 4.93510779 -8.375 1.5625 C-5.24316508 -0.49791771 -3.68455227 -0.6767545 0 0 Z " fill="#45767F" transform="translate(276,129)"/>
<path d="M0 0 C2.375 1.5625 2.375 1.5625 4 4 C4.56288002 7.94016013 4.60396028 10.05782196 2.4375 13.4375 C-0.96719488 15.61999672 -3.03430012 15.63734462 -7 15 C-9.5 12.9375 -9.5 12.9375 -11 10 C-11 6.1862249 -10.84985071 3.97575452 -8.3125 1.0625 C-5.26397123 -0.33817538 -3.32073048 -0.4842732 0 0 Z " fill="#45767F" transform="translate(242,129)"/>
<path d="M0 0 C2.4375 1.625 2.4375 1.625 4 4 C4.5625 6.9375 4.5625 6.9375 4 10 C1.51397551 13.36344489 0.08574477 14.80057749 -4.0625 15.5625 C-7 15 -7 15 -9.375 13.4375 C-11.62340519 10.06489221 -11.56783945 7.97487617 -11 4 C-8.11188513 -0.5054592 -5.11821063 -0.73117295 0 0 Z " fill="#45767E" transform="translate(284,112)"/>
<path d="M0 0 C2.4375 1.5625 2.4375 1.5625 4 4 C4.5625 7.5 4.5625 7.5 4 11 C1.9375 13.5 1.9375 13.5 -1 15 C-4.8137751 15 -7.02424548 14.84985071 -9.9375 12.3125 C-11.33817538 9.26397123 -11.4842732 7.32073048 -11 4 C-8.05899778 -0.47032338 -5.13105401 -0.73300772 0 0 Z " fill="#45767E" transform="translate(235,112)"/>
<path d="M0 0 C0.99 0.33 1.98 0.66 3 1 C-15.5230463 21.72817086 -50.56284734 33.43488396 -77.68359375 35.171875 C-79.45661242 35.18416629 -81.23025252 35.10835189 -83 35 C-80.58310358 32.58310358 -79.36344531 32.50960468 -76.0390625 31.921875 C-74.51067749 31.63993286 -74.51067749 31.63993286 -72.95141602 31.35229492 C-71.85369873 31.1535376 -70.75598145 30.95478027 -69.625 30.75 C-48.37545708 26.673309 -20.64427902 20.89056565 -4.8359375 4.796875 C-3 3 -3 3 -1 3 C-0.67 2.01 -0.34 1.02 0 0 Z " fill="#3C7E89" transform="translate(395,377)"/>
<path d="M0 0 C3.79746835 4.55696203 3.79746835 4.55696203 5 7.1875 C6.29409486 9.53304693 7.61960583 9.83365022 10 11 C11.12150218 11.85266752 12.22469091 12.72974562 13.3125 13.625 C31.30230795 27.08476573 54.32592879 33.25361075 76 38 C76 38.33 76 38.66 76 39 C69.79399488 39.35754762 64.5143458 38.06224315 58.5625 36.375 C57.59111084 36.10284668 56.61972168 35.83069336 55.61889648 35.55029297 C35.65841949 29.84259992 12.29793028 21.92502753 0 4 C-0.33 3.01 -0.66 2.02 -1 1 C-0.67 0.67 -0.34 0.34 0 0 Z " fill="#3C7C87" transform="translate(112,371)"/>
<path d="M0 0 C23.18769854 -1.31935696 51.89831731 10.26554488 71 23 C73.4296875 25.265625 73.4296875 25.265625 75 27 C71.11476094 27 69.77260451 25.67068185 66.5625 23.5 C46.74542524 10.81183992 22.64945799 6.10664172 0 1 C0 0.67 0 0.34 0 0 Z " fill="#447D86" transform="translate(315,311)"/>
<path d="M0 0 C0.66 0 1.32 0 2 0 C2.08636719 0.73863281 2.17273438 1.47726562 2.26171875 2.23828125 C3.03858783 7.84741854 4.06207621 12.54997528 6.625 17.625 C9.1324999 22.78925576 10.27037741 27.30379162 9 33 C6.57388349 36.56781839 5.2173448 37.7463865 1 38.625 C-3.2173448 37.7463865 -4.57388349 36.56781839 -7 33 C-8.53828282 26.1025383 -6.31970777 20.98080944 -3.24609375 14.89453125 C-1.18899573 10.11613114 -0.60065005 5.13690262 0 0 Z M0 11 C-1.01390853 13.20283698 -2.01104385 15.41098556 -3 17.625 C-3.28617188 18.24246094 -3.57234375 18.85992187 -3.8671875 19.49609375 C-5.63280491 23.48975218 -6.54467123 26.64263019 -6 31 C-4.98843307 32.92847854 -4.98843307 32.92847854 -3.5 34.375 C-2.2625 35.674375 -2.2625 35.674375 -1 37 C2.68268739 36.50233954 4.65028767 35.93714041 7 33 C8.76351454 29.47297093 7.82268425 25.71569973 7 22 C5.53125629 18.22877028 3.82820591 14.60918879 2 11 C1.34 11 0.68 11 0 11 Z " fill="#53828A" transform="translate(255,258)"/>
<path d="M0 0 C-0.66 0.99 -1.32 1.98 -2 3 C-4.73963671 3.53884567 -7.29387199 3.88859401 -10.0625 4.125 C-10.8558374 4.20210205 -11.6491748 4.2792041 -12.46655273 4.35864258 C-18.1576906 4.89114999 -23.85856765 5.31815857 -29.5625 5.6875 C-30.29412354 5.73600098 -31.02574707 5.78450195 -31.77954102 5.83447266 C-33.51781243 5.93239757 -35.25919393 5.97223254 -37 6 C-37.495 5.505 -37.495 5.505 -38 5 C-40.37338639 4.84028023 -42.72118272 4.7407567 -45.09765625 4.68359375 C-45.80651474 4.66281265 -46.51537323 4.64203156 -47.24571228 4.62062073 C-49.51787305 4.55505402 -51.79015264 4.4962077 -54.0625 4.4375 C-55.59962183 4.39432151 -57.1367315 4.35070745 -58.67382812 4.30664062 C-62.4490959 4.19936551 -66.2244836 4.09811863 -70 4 C-70 3.67 -70 3.34 -70 3 C-68.73631592 2.98018066 -67.47263184 2.96036133 -66.1706543 2.93994141 C-61.38614222 2.86263903 -56.60188636 2.77413889 -51.81762695 2.68261719 C-49.76494482 2.64483285 -47.71220774 2.60990235 -45.65942383 2.578125 C-33.65282819 2.39010882 -21.8336341 1.86767525 -9.90942383 0.41552734 C-6.56193741 0.05972756 -3.36088666 -0.08154435 0 0 Z " fill="#478691" transform="translate(309,481)"/>
<path d="M0 0 C-3.33291414 2.22194276 -3.74689756 2.20132245 -7.5 1.75 C-8.45092529 1.64091309 -9.40185059 1.53182617 -10.3815918 1.41943359 C-12.89674829 1.12788519 -15.41052305 0.82426616 -17.9230957 0.51123047 C-31.17183743 -1.072628 -44.35550326 -1.42808152 -57.6875 -1.625 C-59.86524782 -1.66330577 -62.04298253 -1.70236409 -64.22070312 -1.7421875 C-69.48034991 -1.83676809 -74.74007981 -1.92218437 -80 -2 C-80 -2.33 -80 -2.66 -80 -3 C-53.00743231 -4.02618296 -26.75302213 -4.43096929 0 0 Z " fill="#5C919A" transform="translate(318,310)"/>
<path d="M0 0 C2.72947644 0.30996259 5.45855985 0.62287975 8.1875 0.9375 C8.95642578 1.02451172 9.72535156 1.11152344 10.51757812 1.20117188 C14.38772828 1.64964421 18.19186624 2.1529001 22 3 C22 3.99 22 4.98 22 6 C21.20722656 5.86722656 20.41445313 5.73445313 19.59765625 5.59765625 C7.11670521 3.70827471 -5.39534444 3.36804098 -18 3 C-18 2.67 -18 2.34 -18 2 C-12.06 2 -6.12 2 0 2 C0 1.34 0 0.68 0 0 Z " fill="#507D84" transform="translate(266,25)"/>
<path d="M0 0 C0 0.33 0 0.66 0 1 C-27.94514191 4.78804162 -27.94514191 4.78804162 -41 3 C-41 2.67 -41 2.34 -41 2 C-40.28457031 1.94465088 -39.56914062 1.88930176 -38.83203125 1.83227539 C-35.55453439 1.57761219 -32.27726902 1.320078 -29 1.0625 C-27.87464844 0.97548828 -26.74929688 0.88847656 -25.58984375 0.79882812 C-20.86670708 0.42594891 -16.16299155 0.05439283 -11.46875 -0.59375 C-7.33251495 -1.07817393 -4.08357231 -0.65628841 0 0 Z " fill="#448B97" transform="translate(315,412)"/>
<path d="M0 0 C0.66 0 1.32 0 2 0 C2.10957031 0.78503906 2.21914063 1.57007813 2.33203125 2.37890625 C3.2380192 8.38199715 4.28076713 13.56153426 7 19 C6.34 19.33 5.68 19.66 5 20 C4.81824219 19.36191406 4.63648438 18.72382813 4.44921875 18.06640625 C4.19785156 17.24011719 3.94648438 16.41382813 3.6875 15.5625 C3.44386719 14.73878906 3.20023437 13.91507812 2.94921875 13.06640625 C2.47935547 12.04353516 2.47935547 12.04353516 2 11 C1.01 10.67 0.02 10.34 -1 10 C-0.67 6.7 -0.34 3.4 0 0 Z " fill="#5F8E96" transform="translate(255,258)"/>
<path d="M0 0 C0.75732422 0.09667969 1.51464844 0.19335938 2.29492188 0.29296875 C3.08060547 0.40511719 3.86628906 0.51726562 4.67578125 0.6328125 C5.47306641 0.73722656 6.27035156 0.84164062 7.09179688 0.94921875 C9.05869236 1.20833073 11.02369892 1.48170904 12.98828125 1.7578125 C10.98828125 3.7578125 10.98828125 3.7578125 8.125 3.76953125 C6.98675781 3.66253906 5.84851563 3.55554688 4.67578125 3.4453125 C3.54527344 3.34605469 2.41476563 3.24679688 1.25 3.14453125 C-1.55160531 2.81236487 -4.25807452 2.36227099 -7.01171875 1.7578125 C-3.81766666 -0.37155556 -3.51984214 -0.47636961 0 0 Z " fill="#56848C" transform="translate(178.01171875,249.2421875)"/>
<path d="M0 0 C0 0.33 0 0.66 0 1 C-2.74951693 1.22212255 -5.49865612 1.42815588 -8.25 1.625 C-9.02730469 1.68945312 -9.80460938 1.75390625 -10.60546875 1.8203125 C-17.72431144 2.30707097 -17.72431144 2.30707097 -21 0 C-13.83834298 -1.1936095 -7.18957421 -1.43791484 0 0 Z " fill="#609098" transform="translate(229,308)"/>
<path d="M0 0 C6.11090483 -0.09945415 11.97403427 -0.0712828 18 1 C14.52432108 3.31711928 13.58535617 3.16483998 9.5625 2.75 C8.61503906 2.66234375 7.66757812 2.5746875 6.69140625 2.484375 C4.0983311 2.01769674 2.26826098 1.30840586 0 0 Z " fill="#578890" transform="translate(300,309)"/>
<path d="M0 0 C2 2 2 2 2.1953125 4.1640625 C2.16050781 5.38222656 2.16050781 5.38222656 2.125 6.625 C2.10695312 7.44226563 2.08890625 8.25953125 2.0703125 9.1015625 C2.04710937 9.72804688 2.02390625 10.35453125 2 11 C1.34 11 0.68 11 0 11 C-1.62651522 7.74696956 -1.11453156 4.60774398 -1 1 C-0.67 0.67 -0.34 0.34 0 0 Z " fill="#EFFCFF" transform="translate(253,280)"/>
<path d="M0 0 C-0.99 1.485 -0.99 1.485 -2 3 C-6.56228926 3.36792655 -10.07242087 3.61838609 -14 1 C-9.27616037 0.34843591 -4.78025483 -0.11950637 0 0 Z " fill="#407F8A" transform="translate(309,481)"/>
<path d="M0 0 C0 0.33 0 0.66 0 1 C-1.72814161 1.19672365 -3.45759197 1.38196799 -5.1875 1.5625 C-6.15042969 1.66691406 -7.11335938 1.77132813 -8.10546875 1.87890625 C-10.94233377 1.99758751 -13.25423671 1.67765639 -16 1 C-16 0.67 -16 0.34 -16 0 C-10.31302429 -0.91397824 -5.68697571 -0.91397824 0 0 Z " fill="#48929E" transform="translate(315,412)"/>
<path d="M0 0 C-2.91708924 1.98362069 -4.12380904 1.9876191 -7.75 1.625 C-8.8225 1.41875 -9.895 1.2125 -11 1 C-11 0.67 -11 0.34 -11 0 C-7.01803543 -1.05404945 -4.01804691 -0.84098656 0 0 Z " fill="#538087" transform="translate(347,218)"/>
<path d="M0 0 C0 0.33 0 0.66 0 1 C-6.0546875 1.9765625 -6.0546875 1.9765625 -8 2 C-8.66 1.34 -9.32 0.68 -10 0 C-6.42355152 -1.2380014 -3.66305234 -0.74926071 0 0 Z " fill="#598992" transform="translate(200,311)"/>
</svg>
